<svg id="143cf9df-122b-4864-8161-e696d82dd899" data-name="Layer 1" xmlns="http://www.w3.org/2000/svg" viewBox="0 0 76.9 81.15"><defs><style>.\30 59747fe-991b-46db-b793-c9f9d38a1a55{fill:#f0553c;}</style></defs><title>i80</title><path class="059747fe-991b-46db-b793-c9f9d38a1a55" d="M22.24,9a.87.87,0,0,0-.35.2A8.19,8.19,0,0,0,20.55,11,14.36,14.36,0,0,0,19.71,13c-.21.64-.41,1.29-.65,1.92a20.9,20.9,0,0,0-.66,2.13A6.34,6.34,0,0,1,17.62,19c0,.05,0,.14-.1.14s-.1-.09-.13-.15a4.06,4.06,0,0,1-.26-1.29c0-.49-.42-.94-.2-1.46-.19-.92-.31-1.86-.58-2.77a14.41,14.41,0,0,1-.46-1.83,17.17,17.17,0,0,0-.45-2A.33.33,0,0,0,15,9.33c-.13,0-.22,0-.3-.12s-.3-.18-.45-.05a1.38,1.38,0,0,0-.47,1.05,3.36,3.36,0,0,1-.21.95A8.83,8.83,0,0,0,13.13,13,11.66,11.66,0,0,1,13,14.76c-.16.65-.17,1.31-.29,2s-.24,1.46-.4,2.17-.21,1.16-.29,1.74a5.54,5.54,0,0,0-.14.88q0,.75,0,1.5c0,.14,0,.35.26.27a1,1,0,0,0,.58-.41,5.14,5.14,0,0,0,.43-1.19c.14-.42.2-.86.32-1.29.16-.59.29-1.19.42-1.79.18-.83.24-1.68.5-2.49.16-.5.26-1,.39-1.52-.06-.23.07-.43.11-.64a.53.53,0,0,1,.06-.1A.23.23,0,0,1,15,14l.3.74A10.48,10.48,0,0,1,16,16.42a23.88,23.88,0,0,1,.61,2.6A10.52,10.52,0,0,1,16.76,21c0,.1,0,.2.07.26a1.58,1.58,0,0,1,.52.7c.09.15.17.15.33.1a1.21,1.21,0,0,0,.6-.68c.3-.57.58-1.15.83-1.74a8.56,8.56,0,0,0,.42-.93,15.36,15.36,0,0,1,.69-1.74c.32-.72.44-1.51.81-2.21.24-.47.3-1,.52-1.49.47-1,.8-2,1.19-3a1.64,1.64,0,0,0,.08-.85C22.77,9,22.58,8.86,22.24,9ZM12.68,20s0,.09-.06.08,0-.06,0-.1,0-.18,0-.21a9.65,9.65,0,0,1,.23-1.21s0-.09.07-.07a.15.15,0,0,1,0,.08A5.38,5.38,0,0,1,12.68,20Zm1.53-8.09c-.06.27-.11.52-.17.76,0,0,0,.08,0,.08S14,12.7,14,12.67a2.79,2.79,0,0,1,.11-.76c0-.06,0-.17.11-.15S14.2,11.88,14.21,11.92Zm5.57,2.62s-.06,0-.06-.06a.6.6,0,0,1,.17-.44L20,14c.06,0,.06.05.06.09C20,14.28,19.86,14.39,19.78,14.54Zm.72-2a.76.76,0,0,1,0,.15c0,.09,0,.22-.1.21s0-.15-.06-.2a1.55,1.55,0,0,0,0-.17c0-.08,0-.23.12-.22S20.49,12.43,20.5,12.51Zm22.19-2.32c-.37-.38-.68-.88-1.27-1-.28-.07-.55-.21-.84-.3a.92.92,0,0,0-1.12.41.86.86,0,0,1-.6.48.5.5,0,0,0-.37.48c0,.46-.15.9-.19,1.36A10.65,10.65,0,0,1,38,12.72c-.16.92-.26,1.85-.41,2.77A20.77,20.77,0,0,0,37.33,18c0,.83-.27,1.65-.23,2.49a1,1,0,0,1-.12.67.24.24,0,0,0,.14.36,1.13,1.13,0,0,0,1-.07,3.23,3.23,0,0,0,.61-.78,4.78,4.78,0,0,0,.6-1.4,6.46,6.46,0,0,0,.37-1.69c0-.23.77-.69,1-.64a.17.17,0,0,1,.12.14,11.31,11.31,0,0,1,.35,1.39,4.11,4.11,0,0,0,.16.85c.08.22.15.44.21.67a3.3,3.3,0,0,0,.37,1.08c.35.46.63.49,1,0a2.42,2.42,0,0,0,.24-1.86,4.91,4.91,0,0,0-.15-.51,20.54,20.54,0,0,0-.68-2.28.85.85,0,0,1,.11-1,2.45,2.45,0,0,0,.26-.35,7.57,7.57,0,0,0,.6-1.4,9.75,9.75,0,0,0,.31-1.5,3.18,3.18,0,0,0-.11-.92A2.07,2.07,0,0,0,42.69,10.19ZM38,20.64c0,.08-.14.06-.21,0s0-.15,0-.21.35-.29.44-.51l.06-.14s0-.11,0-.11,0,.08.06.14C38.3,20.08,38.18,20.36,38,20.64Zm3.36-6.44a5.33,5.33,0,0,1-1.09,1.32s0,.11-.11.1-.07-.1-.07-.15a1.58,1.58,0,0,1,0-.31c.13-.79.09-1.6.18-2.4,0-.42.17-.84.17-1.27a4,4,0,0,0-.11-1.28s0-.11,0-.14.11,0,.16,0a1.65,1.65,0,0,1,.9.8,1.45,1.45,0,0,0,.22.36c.42.37.38.86.4,1.38A3.16,3.16,0,0,1,41.39,14.2Zm1,5.61c0,.07,0,.16-.05.18s-.09-.07-.11-.12a10,10,0,0,1-.65-2.39c0-.05-.05-.12,0-.14a.38.38,0,0,1,.17.26c.09.36.23.7.33,1A6.73,6.73,0,0,1,42.34,19.81Zm19.44-3.73a19,19,0,0,0-.46-2.39,5,5,0,0,1-.17-1,18.87,18.87,0,0,0-.51-2.78.35.35,0,0,0-.06-.14,7.39,7.39,0,0,0-.75-.83.57.57,0,0,0-.49-.1c-.49.07-.73.49-.94.81a5.2,5.2,0,0,0-.52,1.48c-.21.72-.34,1.46-.57,2.16-.37,1.09-.6,2.2-.89,3.3-.22.85-.23,1.73-.41,2.59a.52.52,0,0,0,.14.51.39.39,0,0,0,.44,0,1.53,1.53,0,0,0,.63-.63,15.71,15.71,0,0,0,.8-2.52,1,1,0,0,1,.58-.73,9.55,9.55,0,0,1,1.45-.42c.11,0,.28-.05.3.07a2.51,2.51,0,0,1,.18.82c.07.42.12.85.2,1.28a11.23,11.23,0,0,0,.35,2.06c.07.19.2.22.33.15a1.16,1.16,0,0,0,.42-.35A2.73,2.73,0,0,0,62,17.87,15.48,15.48,0,0,0,61.78,16.08ZM59.72,13.5a4.92,4.92,0,0,0-.64.09c-.29,0-.31,0-.23-.31.14-.45.24-.91.35-1.34a1.86,1.86,0,0,1,.07-.79c0-.05,0-.12.06-.13s.1.06.11.11q.14.43.24.87A8.36,8.36,0,0,1,60,13.14C60,13.36,60,13.51,59.72,13.5ZM36,9.75a9.05,9.05,0,0,1-2,1.47,1.86,1.86,0,0,1-.43.24.68.68,0,0,0-.49.67c0,.55-.32,1-.36,1.59,0,.1,0,.19,0,.28,0,.48,0,.49.44.29a10.1,10.1,0,0,1,1.44-.47.24.24,0,0,1,.27.11c.13.16.24.34.49.35s.16.15.07.26A3.92,3.92,0,0,1,33.57,16a6.08,6.08,0,0,0-1.18.4A.61.61,0,0,0,32,17a9.44,9.44,0,0,1-.38,1.59c-.07.4-.17.79-.25,1.18s0,.29.28.26a11.14,11.14,0,0,0,1.29-.35,1,1,0,0,1,.71.1.33.33,0,0,1,.17.49,2.55,2.55,0,0,1-1.33,1.22,18.23,18.23,0,0,1-2.11.85c-.2.06-.4.12-.51-.12s-.34-.46-.06-.74a.51.51,0,0,0,.13-.37,1.78,1.78,0,0,1,.13-1c.19-.43,0-.87.14-1.31a7.58,7.58,0,0,0,.23-1.36c0-.19.11-.37.14-.56.1-.59.14-1.19.28-1.76a11.18,11.18,0,0,1,.54-2.49,4,4,0,0,0,.22-.88,7,7,0,0,0,.28-1.2c0-.41.39-.74.68-.68s.56-.08.83-.13c0,0,.07-.06.11-.06.7,0,1.35-.31,2.05-.34a1.32,1.32,0,0,1,.34,0C36.08,9.43,36.13,9.58,36,9.75ZM10.78,8a.5.5,0,0,0-.48,0,2.29,2.29,0,0,0-.51.52,5.67,5.67,0,0,0-.38,1.07,10,10,0,0,0-.5,1.7,12.27,12.27,0,0,1-.53,2.31c0,.11,0,.22-.07.33-.15.54-.29,1.07-.45,1.61a8.31,8.31,0,0,0-.36,1.67,4.51,4.51,0,0,1-.28,1.59c-.19.4,0,.85-.16,1.27A6.7,6.7,0,0,0,7,21a10.21,10.21,0,0,1-.12,1.24c-.11.27.1.5.08.75s0,.42.27.47.3-.16.42-.29a3.8,3.8,0,0,0,.53-1.34,18.3,18.3,0,0,0,.54-2.09c.23-1,.55-1.91.77-2.88.33-1.43.73-2.85,1.1-4.27.19-.71.39-1.42.56-2.14.1-.4.13-.81.22-1.21A1.31,1.31,0,0,0,10.78,8Zm-.24.7a.09.09,0,0,1,0,0s0-.05,0-.06l.05.05Zm39.08,1.47a1.91,1.91,0,0,1,.44,1.72.8.8,0,0,1-.44.52.23.23,0,0,1-.36-.25A.85.85,0,0,0,49,11.4c-.18-.2-.18-.53-.45-.71a.43.43,0,0,0-.63.05,2,2,0,0,0-.63,1.31,12.9,12.9,0,0,0-.06,2.06,6.16,6.16,0,0,0,.29,1c.18.56.39,1.11.55,1.67a5.75,5.75,0,0,1,.08,3.05,3.23,3.23,0,0,1-1.28,1.9.39.39,0,0,1-.23.09A9.68,9.68,0,0,1,45,21.68a1.57,1.57,0,0,1-.89-.86,2.2,2.2,0,0,1-.05-1.76.38.38,0,0,1,.48-.24c.17,0,.17.23.17.39a1.75,1.75,0,0,0,.42,1.37.43.43,0,0,0,.76-.13,2.44,2.44,0,0,0,.27-1.26A15.55,15.55,0,0,0,46,16.37c-.09-.71-.25-1.41-.28-2.12a6.58,6.58,0,0,1,.38-2.52,5.71,5.71,0,0,1,.9-1.57,2.09,2.09,0,0,1,1-.54,1.45,1.45,0,0,1,.45-.07A1.58,1.58,0,0,1,49.62,10.16ZM29.49,11a5.9,5.9,0,0,1-.83.2,5.41,5.41,0,0,0-1.06.32.28.28,0,0,0-.19.19c-.14.62-.36,1.22-.55,1.82-.28.95-.41,1.93-.73,2.87-.12.35-.15.74-.27,1.1-.3.88-.56,1.78-.89,2.65a6,6,0,0,0-.19.73,7.83,7.83,0,0,1-.51,1.32,1.26,1.26,0,0,1-.49.56c-.1.06-.25.08-.3,0a.94.94,0,0,1-.17-.58c.2-1,.32-2.09.57-3.12a11.13,11.13,0,0,1,.42-1.63,15.85,15.85,0,0,0,.51-2,4.29,4.29,0,0,1,.24-.59c.19-.45.2-.95.4-1.4a1.46,1.46,0,0,0,.15-.86.35.35,0,0,1,.07-.26c.17-.24,0-.52.1-.79s-.16-.17-.28-.18a11,11,0,0,1-1.12-.33c-.37-.08-.4-.28-.14-.56a2,2,0,0,1,1.56-.63c.34,0,.63.26,1,.35a11,11,0,0,0,1.51.12,11.82,11.82,0,0,0,1.19,0c.21,0,.45,0,.54.25S29.69,10.91,29.49,11Zm41.67,6.32c-.26-.1-.42.11-.63.18a10,10,0,0,0-1.55.65c-.12.07-.26.23-.37.16s-.07-.27-.06-.4a5.87,5.87,0,0,0,0-1.87.53.53,0,0,1,.21-.47,1.59,1.59,0,0,0,.24-.27,11.37,11.37,0,0,0,1-1.75c.09-.2,0-.5-.2-.5a.83.83,0,0,0-.69.18,5.4,5.4,0,0,1-.42.41c0,.05-.1.13-.18.08a.15.15,0,0,1-.08-.16,1.15,1.15,0,0,0,0-.49,13.25,13.25,0,0,0-.17-2,.43.43,0,0,1,0-.27c.12-.32.43-.48.61-.75s.18-.57,0-.59a1.08,1.08,0,0,0-.71,0,6.57,6.57,0,0,1-.88.44.72.72,0,0,0-.53.46,1.84,1.84,0,0,0,0,.7,1.36,1.36,0,0,1-.09,1,7.77,7.77,0,0,1,.17,1.86c0,.67.19,1.32.19,2,0,.52.1,1,.12,1.56a10,10,0,0,1,.06,2.25.46.46,0,0,0,.61.51,7.28,7.28,0,0,0,.8-.37,4.45,4.45,0,0,0,1.86-1.1,1.84,1.84,0,0,1,.22-.17,2.43,2.43,0,0,0,.71-.85C71.48,17.47,71.38,17.36,71.16,17.28Zm-3.46-3s-.07-.06-.06-.11,0-.08.06-.08.06.07.06.11S67.76,14.34,67.7,14.33ZM55.46,9.38c.13.17.36.34.16.64a5.49,5.49,0,0,1-1.15,1.06.75.75,0,0,0-.32.47,33,33,0,0,0-.4,3.28c-.09.72-.2,1.44-.31,2.16s-.24,1.69-.33,2.54a1.89,1.89,0,0,1-.13.52c-.1.25-.2.5-.29.75a.94.94,0,0,1-1.16.66.26.26,0,0,1-.21-.3c0-.27,0-.55,0-.77a1.75,1.75,0,0,1,.12-.92c.18-.36.07-.71.13-1.06s0-.63.06-.95c.16-.95.3-1.9.47-2.85.13-.72.1-1.45.22-2.17a.74.74,0,0,0-.66-.74c-.39,0-.63-.25-.55-.54a.75.75,0,0,1,.44-.45,7.78,7.78,0,0,1,1.33-.47,7.8,7.8,0,0,0,2-.85C55.13,9.29,55.34,9.24,55.46,9.38ZM65,9.75c0,.1-.08.21-.2.28a.35.35,0,0,0-.16.45,19,19,0,0,1,.57,3.2c0,.52.16,1.05.21,1.58s0,1.35.06,2c0,.42-.05.84-.07,1.26a1,1,0,0,1-.44.86.37.37,0,0,0-.12.13l-.08.13a.6.6,0,0,1-.67.34c-.21-.08-.15-.39-.12-.68A7.19,7.19,0,0,1,64,18.17c0-.75-.18-1.49-.1-2.24a5.4,5.4,0,0,0-.06-1.2c-.08-.81-.29-1.59-.3-2.41a8.39,8.39,0,0,0-.25-1.78c0-.12-.07-.2-.21-.13s-.57-.05-.83-.11-.1-.32-.05-.48a.35.35,0,0,1,.21-.2c.66-.15,1.2-.58,1.87-.72.29-.06.56-.28.88-.35.14,0,.31-.14.43.07s0,.3-.14.42S64.94,9.38,65,9.75Zm-32,42c-.08-.77-.18-1.53-.31-2.28A4.37,4.37,0,0,0,30,45.93a5.21,5.21,0,0,0-1.61-.3c-.22,0-.42-.13-.65-.13-.49,0-1-.07-1.47-.09a1.9,1.9,0,0,0-1.68.64,1.28,1.28,0,0,1-.32.29,3.13,3.13,0,0,0-1.37,1.3c-.13.26-.34.5-.49.77a10.11,10.11,0,0,0-.56,1A15.47,15.47,0,0,0,21.41,51c-.09.37,0,.77-.13,1.16,0,.19,0,.42,0,.63a4.34,4.34,0,0,0-.06.62,7.54,7.54,0,0,0,5.15,6.87.76.76,0,0,1,.47,0,1.1,1.1,0,0,0,.89-.08,13.24,13.24,0,0,0,1.6-.68c.25-.16.58-.16.79-.44a14.16,14.16,0,0,1,1.28-1.41A2.85,2.85,0,0,0,31.9,57c.24-.43.42-.89.62-1.33A3.65,3.65,0,0,0,33,54a14.84,14.84,0,0,0,0-2C33,52,33,51.86,33,51.77ZM23.54,52a3.09,3.09,0,0,1-.1,1.09c0,.07,0,.19-.12.19s-.07-.12-.1-.18-.08-.14-.07-.16a15.21,15.21,0,0,0,.17-1.53c0-.08,0-.17.07-.24s.08-.13.16-.12,0,.12.06.17C23.72,51.52,23.56,51.77,23.54,52ZM22.9,39.8c.48.25,1,.47,1.44.72a2,2,0,0,0,1.85.13c.21-.11.44-.17.66-.26a2.22,2.22,0,0,0,1-.49,6.58,6.58,0,0,0,.9-1.28,5.36,5.36,0,0,0,.43-2.38,5.28,5.28,0,0,0-.7-2.18,5.85,5.85,0,0,0-1.38-1.51,1.44,1.44,0,0,0-.63-.35,6.58,6.58,0,0,0-1.4-.21,3.82,3.82,0,0,0-2,.39c-.3.15-.46.47-.8.56a1.22,1.22,0,0,0-.76.76,12.06,12.06,0,0,0-.49,1.43,13.15,13.15,0,0,0-.22,1.4,1.08,1.08,0,0,0,0,.4,3.79,3.79,0,0,0,1.08,2.15A4.82,4.82,0,0,0,22.9,39.8Zm4.68-1.09a5.05,5.05,0,0,0,.5-1.36c0-.13.07-.25.11-.38s0-.12.08-.12.07.1.06.15a4.74,4.74,0,0,1-.5,1.77c0,.07-.13.14-.06.24-.1,0-.22.07-.29,0S27.53,38.79,27.58,38.71Zm-5.93-2.09s0-.06-.06-.1a2,2,0,0,1-.05-.65,5.41,5.41,0,0,1,.72-2c.08-.11.2-.34.33-.22s-.09.22-.18.32A2.19,2.19,0,0,0,22,35a8.67,8.67,0,0,1-.34,1.49S21.72,36.62,21.65,36.62ZM19.32,60.51l.06.06-.05,0s0,0-.06-.05S19.28,60.5,19.32,60.51Zm.39.29.08.05s0,0-.05,0a.09.09,0,0,1,0,0A.14.14,0,0,1,19.71,60.8Zm7.47,3.76h0S27.16,64.56,27.18,64.56Zm-8-4.23h0v0ZM25.56,45v0s0,0,0,0ZM26,64.1h0v0h0S26,64.11,26,64.1Zm3.14.75,0,0S29.17,64.84,29.15,64.85Zm-5.56-2.27v0h0v0Zm4.3,2.17h0ZM26.73,44.42ZM20,60.64h0ZM56.7,42.23a16.14,16.14,0,0,0-.41-3c-.08-.32-.26-.61-.34-.93-.22-.88-.41-1.77-.68-2.64a7.15,7.15,0,0,0-1.85-3,5.69,5.69,0,0,0-1.73-1.05,2.07,2.07,0,0,0-1.72,0,5,5,0,0,0-1.87,1.79,2.64,2.64,0,0,0-.41.6,10.31,10.31,0,0,1-.47,1.13,5.57,5.57,0,0,0-.47,1.52,8.75,8.75,0,0,0-.22,1.77c0,.74-.39,1.4-.41,2.15,0,.56-.14,1.11-.16,1.68s0,1.21,0,1.82c-.05,1.11,0,2.22-.06,3.33a9.1,9.1,0,0,0,.38,2.49c0,.15.14.24.16.41a5.22,5.22,0,0,0,.22,1.35c.14.44.3.87.43,1.31A2.84,2.84,0,0,0,48,54.48a1.75,1.75,0,0,1,.5.61,2,2,0,0,0,1.73,1.1,10.39,10.39,0,0,0,1.37.07,1.55,1.55,0,0,0,1.09-.32,9.45,9.45,0,0,0,1.84-2.1,1.85,1.85,0,0,0,.35-.54,8.84,8.84,0,0,1,.48-1.24,13.27,13.27,0,0,0,1-2.87c.09-.48.08-1,.18-1.44a6.29,6.29,0,0,0,.19-1.5c0-.3,0-.59-.06-.88a18.24,18.24,0,0,1,.11-2.22C56.72,42.84,56.71,42.54,56.7,42.23Zm-8.26,9.71a.08.08,0,0,1-.11-.08,2.9,2.9,0,0,0-.15-.71s0-.11,0-.14.08.05.11.09c.14.23,0,.51.17.73C48.48,51.88,48.46,51.94,48.44,51.94Zm2.72,3.36c-.07,0-.19,0-.17-.1a.26.26,0,0,1,.22-.25.24.24,0,0,1,.2.26C51.4,55.33,51.26,55.3,51.16,55.3Zm1.06-.57a.5.5,0,0,1-.21.1c-.06,0,0-.1,0-.16s.07-.27.11-.42l.15.24C52.28,54.57,52.35,54.65,52.22,54.73ZM46.37,30.2Zm30.42-3a22.09,22.09,0,0,1-.25-2.58,4.84,4.84,0,0,0-.28-1.44c-.16-.47-.22-1-.34-1.46s-.26-1.27-.36-1.91c0-.16.08-.36,0-.48-.29-.24-.28-.6-.44-.89a12,12,0,0,1-.53-1.53,8.39,8.39,0,0,0-.4-1.13,5,5,0,0,1-.36-1.09c-.14-.48-.26-1-.42-1.45a12.35,12.35,0,0,0-.94-2.1c-.46-.8-.81-1.66-1.32-2.43a11.53,11.53,0,0,0-.86-1.43c-.21-.24-.31-.61-.52-.89s-.57-.69-.83-1.06a5.89,5.89,0,0,0-1.15-1.24c-.26-.22-.6-.39-.68-.79,0-.2-.22-.27-.41-.33s-.44.11-.66.16c-.85.21-1.7.42-2.56.59-.48.09-1,.1-1.47.15s-1.22.15-1.83.26c-.91.17-1.83.23-2.75.38a42.79,42.79,0,0,1-4.8.43,21.2,21.2,0,0,1-3.28-.23,10,10,0,0,1-2.82-.55c-.77-.31-1.56-.55-2.31-.91C43.08,2.72,42,2.2,41,1.58c-.14-.09-.34-.19-.46-.08a.92.92,0,0,1-.78.34h0a2.9,2.9,0,0,1-1.46.44c-1.14.22-2.32.09-3.46.33-.4.07-.82-.06-1.19.1a11.62,11.62,0,0,1-3.15.48,10.84,10.84,0,0,1-2.48,0c-.47,0-.95.07-1.42,0-1-.13-2-.13-3-.21-1.22-.08-2.38-.43-3.58-.58A8.15,8.15,0,0,1,18.35,2c-.44-.14-.92-.12-1.35-.24-.59-.16-1.17-.39-1.77-.53A21.55,21.55,0,0,0,12,.59c-.28,0-.55-.09-.6-.45,0-.11-.14-.18-.2-.12s-.35.14-.49.29A10.36,10.36,0,0,0,10,1.64a5.93,5.93,0,0,1-.91,1.12A8.38,8.38,0,0,0,7.48,5a3.46,3.46,0,0,1-.35.53,4.21,4.21,0,0,0-.69.94c-.18.38-.42.72-.61,1.09a2.3,2.3,0,0,1-.33.57A2.34,2.34,0,0,0,5,8.83a7.26,7.26,0,0,1-.7,1.36,7.06,7.06,0,0,0-1,2.16c-.34.81-.63,1.64-.9,2.48s-.64,1.52-.82,2.35c-.23,1-.57,1.92-.78,2.91-.14.72-.31,1.43-.41,2.16,0,.18.13.36.07.5A5.07,5.07,0,0,0,.18,24,18,18,0,0,0,0,26.35C0,27,.19,27.59.1,28.24a15.5,15.5,0,0,0,0,2.26c0,.46.08.92.09,1.38s0,.87,0,1.3c.06,1.08.22,2.16.18,3.24a6.52,6.52,0,0,1,.07,1.07c0,.2.06.52.08.84.06.62.28,1.2.38,1.8a11.71,11.71,0,0,0,.69,2.25,12.72,12.72,0,0,1,.48,1.39c.14.62.39,1.2.52,1.82a13.9,13.9,0,0,0,.47,1.32,7.6,7.6,0,0,1,.42,1,3.87,3.87,0,0,0,.59,1.4,6.83,6.83,0,0,1,.6,1.13,10,10,0,0,1,.5,1.1,4.88,4.88,0,0,0,.63,1.22c.3.53.67,1,.93,1.57.15.33.35.65.48,1,.06.17.32.11.28.32s0,.2.09.31c.22.46.54.87.77,1.32a39.94,39.94,0,0,0,2.41,3.89,21.61,21.61,0,0,0,1.7,2.12c.61.69,1.09,1.47,1.71,2.15s.93,1.15,1.39,1.73c.32.42.76.72,1.09,1.12a11.19,11.19,0,0,0,2.5,2.26c.89.59,1.71,1.27,2.59,1.86.56.38,1.07.85,1.64,1.23.36.24.75.47,1.08.73.49.39,1,.72,1.54,1.09.22.16.49.25.71.41.53.41,1.16.65,1.71,1,.27.18.62.27.85.45a14.55,14.55,0,0,0,1.88,1.15c.25.14.52.23.78.37a15.35,15.35,0,0,0,2.52,1.38,8.38,8.38,0,0,0,2,.56,2.35,2.35,0,0,1,.82.24A.91.91,0,0,0,38.39,81a1,1,0,0,1,.33-.21,11,11,0,0,0,1.37-.58c.69-.38,1.42-.7,2.12-1a25.81,25.81,0,0,0,2.47-1.23c.71-.44,1.43-.87,2.15-1.3s1.7-1,2.58-1.5,1.84-1.08,2.76-1.64,1.63-1,2.45-1.47a17.56,17.56,0,0,0,1.51-1,34.92,34.92,0,0,0,2.79-2.51c.82-.76,1.67-1.49,2.42-2.32a30.11,30.11,0,0,0,2.08-2.44c.46-.62,1-1.14,1.55-1.75s1.24-1.32,1.77-2c.72-1,1.54-1.89,2.18-2.94.29-.48.67-.91,1-1.38s.68-1.13,1-1.69a17.91,17.91,0,0,0,1.61-3.18c.41-1.15.83-2.3,1.25-3.45s.66-2.17.94-3.26c.22-.85.36-1.71.57-2.56.1-.41.1-.84.21-1.25a20.94,20.94,0,0,0,.36-2.22c.14-.91.19-1.84.4-2.75.14-.57.24-1.16.36-1.74a13.42,13.42,0,0,0,.25-2.61A23.17,23.17,0,0,0,76.79,27.2ZM12.08,1.26c.77.14,1.55.26,2.32.43A8,8,0,0,0,15.55,2a5.85,5.85,0,0,1,1.34.34c.66.23,1.35.24,2,.44a11.91,11.91,0,0,0,1.35.25c.54.11,1.08.25,1.62.35a2.27,2.27,0,0,0,1,.06.43.43,0,0,1,.27,0,6.54,6.54,0,0,0,2.41.24,1.91,1.91,0,0,1,.58.06,6.11,6.11,0,0,0,1.86,0c.43,0,.86,0,1.29,0a12.22,12.22,0,0,0,2.42-.06c.41-.09.81,0,1.2-.08a2.52,2.52,0,0,0,.79-.22,3.11,3.11,0,0,1,1.06-.19c.53-.07,1.06-.1,1.6-.15.06,0,.16,0,.18.06s-.09.09-.14.1a7.66,7.66,0,0,1-1.25.24l-.63.11c-.59.1-1.19.05-1.77.18-1,.23-2,.35-3,.51s-1.72.07-2.59.13a30.32,30.32,0,0,1-3.69-.21,11.17,11.17,0,0,1-2.27-.41,29.81,29.81,0,0,0-3-.65L18,3.2A4.61,4.61,0,0,0,16.86,3a9.61,9.61,0,0,1-2.51-.57c-.44-.16-.85-.39-1.31-.51a5.58,5.58,0,0,1-1-.5c-.07,0-.15-.09-.12-.16S12,1.25,12.08,1.26ZM38.25,54.59a15.62,15.62,0,0,1-.69,2.95c-.21.64-.55,1.22-.76,1.84a12,12,0,0,1-2.07,3.1,6.27,6.27,0,0,1-1.88,1.37,5.21,5.21,0,0,1-1.5.68,2,2,0,0,1-.84.16c-.26,0-.46.1-.69.13s-.44.17-.67.05v0s0,0,0,0h0c-.08,0-.11-.11-.22,0a3.06,3.06,0,0,1-1.16.21A7.07,7.07,0,0,1,25.92,65a6.15,6.15,0,0,1-2.34-.61,13.55,13.55,0,0,1-1.91-1.11c-.55-.42-1-.95-1.53-1.36a2.59,2.59,0,0,1-.23-.19h0a.86.86,0,0,1-.19-.25,6.28,6.28,0,0,0-.8-1.08h0c-.11-.2-.22-.4-.32-.6h.1c0-.07-.05-.07-.1-.08l-.05,0A10.94,10.94,0,0,1,17.88,58l0,0,0,0h0c-.08-.25-.15-.5-.21-.76h0a14.62,14.62,0,0,1-.36-3.21s0,0,0,0a19.81,19.81,0,0,1,2.81-8.61.26.26,0,0,1,0-.08l.32-.29a4.87,4.87,0,0,0,.47-.65.25.25,0,0,0-.09-.37c-.43-.33-.89-.63-1.34-.93a6.37,6.37,0,0,1-.84-.88,7.63,7.63,0,0,1-1.3-2.15,6.15,6.15,0,0,1-.56-2c0-.43-.2-.84-.24-1.27a9.55,9.55,0,0,1-.1-1.2,7.82,7.82,0,0,1,.37-1.59,4.77,4.77,0,0,1,.95-1.81A10,10,0,0,1,19,30.82c.28-.26.57-.5.86-.74a5.71,5.71,0,0,1,2.17-1,10.51,10.51,0,0,1,3.11-.47,4.63,4.63,0,0,0,1-.18,8.08,8.08,0,0,1,1.56.12,5.13,5.13,0,0,1,2,.38c.33.14.65.28,1,.44a6.83,6.83,0,0,1,1.34.9,4.82,4.82,0,0,1,1.35,1.49c.26.52.58,1,.79,1.56a9,9,0,0,1,.59,2.22c0,.49.1,1,.14,1.46a.46.46,0,0,1-.19.34h0s0,0,0,0v0c.19,1.45-.63,2.46-1.54,3.42-.19.21-.41.4-.61.61s-.23.2-.09.36.2.35.45.23c.05,0,.12-.09.16,0,.23.32.62.35.93.5a5.45,5.45,0,0,1,1.67,1.64,10.22,10.22,0,0,1,1.21,2.23A6.35,6.35,0,0,1,37.33,48c.08.57.26,1.12.39,1.68.21.9.37,1.81.49,2.73A8.29,8.29,0,0,1,38.25,54.59Zm20.49,1.15a7.55,7.55,0,0,1-.4.87,16.79,16.79,0,0,1-2.65,3A8.61,8.61,0,0,1,53.55,61a2,2,0,0,1-.59.15c-.38,0-.69.35-1.07.32a8,8,0,0,1-2.4,0,3.68,3.68,0,0,1-.63-.31,7.08,7.08,0,0,0-1-.28A8.87,8.87,0,0,1,46.28,60,7.65,7.65,0,0,1,44,57.44a22.78,22.78,0,0,1-1.41-3.29,17.64,17.64,0,0,1-.79-2.63,16.93,16.93,0,0,1-.44-3c0-.65-.14-1.31-.17-2a20.88,20.88,0,0,1,0-2.09c.06-1.11.31-2.18.43-3.27,0-.3.14-.58.15-.88a.39.39,0,0,1,.19-.33,2.05,2.05,0,0,1,0-1.25c.19-.83.32-1.67.57-2.47A12,12,0,0,1,44,33.09l1.29-1.87a6.06,6.06,0,0,1,1.07-1,.44.44,0,0,1,.17-.28l2-1.49a4.37,4.37,0,0,1,1.7-.66,6.55,6.55,0,0,1,2.61.05,7.27,7.27,0,0,1,1.27.35c.28.11.48.37.76.51A10.57,10.57,0,0,1,57,30.18a3.74,3.74,0,0,1,1,1.21c.18.37.44.7.62,1.09s.38.68.54,1c.35.73.69,1.47,1,2.22.11.27.1.57.21.86s.21.59.33.88a1.79,1.79,0,0,1,.15,1c-.06.31.16.57.11.87-.06.46.26.83.27,1.29a12.39,12.39,0,0,1,.07,2.28,7.79,7.79,0,0,0-.05,1.6,7,7,0,0,0,.06,1.37c.09.41-.09.79,0,1.2a10.07,10.07,0,0,1-.08,1.64,9.91,9.91,0,0,1-.63,2.42c-.18.6-.35,1.2-.52,1.8a12.61,12.61,0,0,1-.54,1.4A14.53,14.53,0,0,1,58.74,55.74Zm14.5-35a6.54,6.54,0,0,1-1.24.45,3.19,3.19,0,0,0-.69.25c-.4.17-.82.23-1.22.37a14.37,14.37,0,0,1-2.14.48c-.63.11-1.29.14-1.91.28-.82.17-1.65.1-2.47.29s-1.48.2-2.22.3-1.52.22-2.28.34a17.2,17.2,0,0,1-1.91.26c-.69,0-1.38.11-2.07.16-.33,0-.66,0-1,0-1,0-2.06.23-3.1.21-.86,0-1.71.11-2.57.09a16.65,16.65,0,0,0-2,.05c-.68.06-1.37.09-2,.09-.91,0-1.82.09-2.73.08a17.18,17.18,0,0,0-1.89.15.74.74,0,0,1-.33,0,4,4,0,0,0-1.29,0,12.6,12.6,0,0,0-1.62.11,10.57,10.57,0,0,0-1.25.12,6.58,6.58,0,0,1-1.08,0,8.09,8.09,0,0,0-1.83.16,2.53,2.53,0,0,1-.73,0c-1-.05-2,0-3,0-.85,0-1.69-.06-2.55,0a16.09,16.09,0,0,1-2,0c-.93,0-1.85,0-2.77,0-.66,0-1.32,0-2-.07a7.49,7.49,0,0,1-.95,0,5.88,5.88,0,0,0-1.62-.07c-.78.05-1.56-.13-2.33-.05-.3,0-.58-.08-.86-.05-.54.06-1-.23-1.56-.16a13.36,13.36,0,0,1-1.55,0c-1.4,0-2.81-.06-4.22-.11a8.47,8.47,0,0,1-1.12-.05c-.67.08-1.32-.2-2-.16a9.07,9.07,0,0,1-1.64-.09c-.18,0-.17-.09-.18-.23,0-.54.14-1.07.12-1.58A15.57,15.57,0,0,1,2,18.83a14.5,14.5,0,0,1,.73-2.44c.38-1,.67-1.94,1-2.9a22.1,22.1,0,0,1,.94-2c.39-.77.84-1.5,1.26-2.25A18.52,18.52,0,0,1,7.2,7.1c.87-1.18,1.57-2.47,2.46-3.63a4.33,4.33,0,0,1,.71-.77c.23-.18.33-.48.62-.62a.61.61,0,0,1,.6,0,12.19,12.19,0,0,0,2.29,1.06c.45.13.91.29,1.38.38a7.51,7.51,0,0,1,.75.27,16.36,16.36,0,0,0,2.86.61,22.1,22.1,0,0,1,3,.43c.75.19,1.51.17,2.26.31a12.91,12.91,0,0,0,2.41.16c.45,0,.91,0,1.36,0,.67-.07,1.35-.06,2-.17s1.58-.17,2.36-.31,1.65-.18,2.46-.4a9.12,9.12,0,0,1,1.48-.23,7.17,7.17,0,0,0,1.3-.37c.85-.25,1.68-.57,2.53-.83.3-.09.55.13.81.24.73.32,1.44.69,2.17,1s1.5.66,2.27.93,1.55.45,2.33.63a24.62,24.62,0,0,0,3,.39,17.55,17.55,0,0,0,2.4.13l2.19-.09A28.6,28.6,0,0,0,58.31,6a27.63,27.63,0,0,0,3-.44c.81-.2,1.61-.46,2.42-.66a8.83,8.83,0,0,0,2-.72.71.71,0,0,1,.77.16,3.73,3.73,0,0,1,1,1.18A8.79,8.79,0,0,0,69,7.24a7.74,7.74,0,0,1,.68,1,17.54,17.54,0,0,1,1.42,2.54c.27.5.58,1,.81,1.48a19.46,19.46,0,0,1,.69,1.94c.18.54.39,1.06.55,1.59s.22.92.33,1.38c.15.67.35,1.33.56,2A1.43,1.43,0,0,1,73.24,20.76ZM42,40.05Z"/></svg>