<svg id="efb5734b-bc42-4d69-a9ca-5a58d5a5ab5f" data-name="988e7195-ec5d-4420-bc74-4db925df87c5" xmlns="http://www.w3.org/2000/svg" viewBox="0 0 224.39 128.33"><defs><style>.\31 f404077-32d8-4eea-b3f8-71d181a9d1c7{fill:#f0553c;}.\34 0c59154-33ad-449a-873b-65490e8cfe35{fill:#fff;}</style></defs><title>logo-tab</title><path class="1f404077-32d8-4eea-b3f8-71d181a9d1c7" d="M224.12,16.1a17.89,17.89,0,0,0,.29-4,4.46,4.46,0,0,1-.15-1.78c.46-1.4.07-2.7-.13-4.06-.12-.84-.13-1.73-.27-2.59a.7.7,0,0,1,.11-.42c.4-.78.26-1.52-.46-1.63a7.64,7.64,0,0,0-2.38-.32,11.09,11.09,0,0,1-2.7.1,29,29,0,0,0-3.73-.2,54.56,54.56,0,0,1-6.52-.2,10.25,10.25,0,0,0-2.07.14A6.1,6.1,0,0,1,203.2,1a1.83,1.83,0,0,0-1.32-.1,6,6,0,0,1-1.68.21c-.84.06-1.63-.32-2.48-.3-.64,0-1.37.38-1.9.11-1-.5-2,.3-3-.3a11.16,11.16,0,0,0-1.38-.46c-.24-.09-.56-.29-.68,0-.4.84-1,.46-1.61.47A4.83,4.83,0,0,1,187.9.46c-.94-.27-1.89.2-2.79-.14a3.07,3.07,0,0,0-2.38,0,5.83,5.83,0,0,1-2.07.33c-1.56.07-3.13-.1-4.7,0a32.59,32.59,0,0,1-5.67-.34A60.18,60.18,0,0,0,159.72.22c-2.07.13-4.12.36-6.19.4-1.11,0-2.32-.83-3.37.23H150c-1.23-.23-2.43.52-3.68,0-.35-.13-.83.21-1.25.18a9,9,0,0,0-2.79.22,18.44,18.44,0,0,1-3.48.29c-1.32.11-2.68-.06-4,0-3,.09-5.93.05-8.89.16s-6-.5-8.94.11a9.4,9.4,0,0,1-2.37.06c-1-.07-2.09-.1-3.14-.15-2.12-.1-4.23.36-6.38.08s-4.28-.52-6.27.74h-.23c-1-.34-2-1.27-3.18-.37h-.23c-1.67-.17-3.3-.78-5-.17-.16.06-.36-.08-.55-.09-.87,0-1.78-.85-2.57-.33a2.16,2.16,0,0,1-1.89.09c-1.76-.38-3.56,0-5.3-.47-.6-.16-1.19.28-1.76-.1a1.41,1.41,0,0,0-1.82.09.66.66,0,0,1-.81.13C74.32.64,73.08.94,71.86,1c-1,.06-2.07.2-3.11.32s-2.19-.61-3.29.05c-.12.07-.31,0-.48,0a14.79,14.79,0,0,0-2.49-.12c-1.88.24-3.81-.21-5.64.55a.47.47,0,0,1-.38-.08,3,3,0,0,0-2.21-.21,10.4,10.4,0,0,1-3.43.12A24.07,24.07,0,0,0,45.67,2c-1.09.13-2.2.22-3.29.4-.46.08-.8-.35-1.26-.23a24.54,24.54,0,0,1-4,.48,33.37,33.37,0,0,0-4,.17,4.32,4.32,0,0,1-2.39-.1,1.63,1.63,0,0,0-1.5.17c-.81.59-1.66.18-2.48.2H23.39c-1.63.09-3.22.81-4.92.2a10.11,10.11,0,0,0-2.8-.12c-1.44-.06-2.88.09-4.33,0C10.22,3,9,2.67,7.91,3.15c-1.52.66-3.07.16-4.6.2a5.5,5.5,0,0,0-1.91.49A.61.61,0,0,0,1,4.58.62.62,0,0,0,1.33,5a.78.78,0,0,1,.4.8,25.61,25.61,0,0,0-.11,4.55,25.11,25.11,0,0,1,0,3.68c-.09,1.24.21,2.44.16,3.68s.12,2.78,0,4.13a37.55,37.55,0,0,1-.19,4.86,3.6,3.6,0,0,0,.19,1.69,3.26,3.26,0,0,1,0,1.32,25.28,25.28,0,0,0-.44,5.49c.14,1.56-.28,3.18.39,4.69a.7.7,0,0,1-.06.35,8.91,8.91,0,0,0-.37,3.12c-.05,1.89.12,3.79-.06,5.69a1.88,1.88,0,0,0,.3,1.2c.11.17.31.33.25.54-.28,1-.16,2.14-.37,3.17a3.66,3.66,0,0,0,.06,2.29,1.22,1.22,0,0,1,.06.88,21,21,0,0,0-.43,5.48A30.77,30.77,0,0,1,1,66.07C.7,68.3,1,70.52.81,72.75a38.9,38.9,0,0,0-.16,4.34c0,2.21.15,4.42.13,6.64S1,88.31.86,90.61c0,.23-.14.52.17.61.48.14.37.46.18.75A2.31,2.31,0,0,0,1,93.36c.1,2.66-.21,5.3-.22,8a25.1,25.1,0,0,1,.06,3.47c-.36,2.12.24,4.2-.1,6.32-.23,1.4-.06,2.91-.41,4.33a4.37,4.37,0,0,0,0,1.53c.12,1.17.07,2.35.09,3.52,0,.88-.52,1.63-.27,2.54a4.83,4.83,0,0,1,.3,1.8c-.07.75.27,1,.84,1a.79.79,0,0,1,.78.51,3,3,0,0,0,3.86,1.77l.14-.06a.56.56,0,0,1,.61,0,1.67,1.67,0,0,0,1,.24,138.57,138.57,0,0,1,16-3.47.4.4,0,0,1,.23-.3.28.28,0,0,1,.29.21c2.09-.35,4.19-.67,6.28-1,8.94-1.37,17.82-3,26.77-4.28,20.33-2.95,40.89-5.33,61.54-5.47,7.17,0,14.33.17,21.48.58a.39.39,0,0,1,.23-.07c1.85.09,3.61-.73,5.46-.58.15,0,.33,0,.41.19a1.14,1.14,0,0,1-.36.1,6.75,6.75,0,0,0-2.54.56c12.08.8,24.12,2.15,36,3.84a382.39,382.39,0,0,1,38,7c2.33-.1,3.15-1.09,3.3-3.86.06-1,.24-2,.33-3,.14-1.51.23-3,.38-4.54.17-1.78,0-3.57.09-5.34.21-2.48.25-5,.39-7.44.11-1.89.17-3.78.28-5.67.14-2.43.41-4.86.38-7.31,0-.71.42-1.41,0-2.15a.8.8,0,0,1,.16-.38A1.07,1.07,0,0,0,223,85a9.27,9.27,0,0,1,.05-2.17,49.05,49.05,0,0,0,.71-5.27c0-1.64.34-3.28.24-4.91a35.81,35.81,0,0,1,.11-5.38c.2-2.53.17-5.07.25-7.6,0-1.42-.38-2.83-.29-4.22s0-2.92.09-4.38c.06-2.11-.27-4.23-.2-6.32.1-3,0-5.91-.07-8.84-.07-2.14.09-4.25.1-6.37,0-1.28-.42-2.64.11-4a2.39,2.39,0,0,0-.2-1.76,1.26,1.26,0,0,1-.08-.61q.15-1.85.21-3.69C224,18.38,224,17.23,224.12,16.1Z" transform="translate(-0.08 -0.01)"/><path class="40c59154-33ad-449a-873b-65490e8cfe35" d="M3.5,13.7A.62.62,0,0,0,4,13.06c0-.16-.06-.33-.23-.27a.79.79,0,0,0-.54.59C3.18,13.58,3.21,13.76,3.5,13.7Z" transform="translate(-0.08 -0.01)"/><path class="40c59154-33ad-449a-873b-65490e8cfe35" d="M3.59,20.94c.19,0,.43,0,.43-.29a.55.55,0,0,0-.51-.49c-.23,0-.39.08-.37.35h0A.44.44,0,0,0,3.59,20.94Z" transform="translate(-0.08 -0.01)"/><path class="40c59154-33ad-449a-873b-65490e8cfe35" d="M3.58,56a.39.39,0,0,0-.31.54c.06.2,0,.47.24.59l0,0c.09-.27.19-.65.23-.8S3.89,56,3.58,56Z" transform="translate(-0.08 -0.01)"/><path class="40c59154-33ad-449a-873b-65490e8cfe35" d="M3.17,58.65c0,.15,0,.33.2.31s.2-.2.2-.38l0,0c0-.12,0-.28-.23-.26S3.17,58.5,3.17,58.65Z" transform="translate(-0.08 -0.01)"/><path class="40c59154-33ad-449a-873b-65490e8cfe35" d="M3.49,60c0-.16,0-.29-.2-.29a.25.25,0,0,0-.23.31c0,.15.1.23.26.23l0,0C3.42,60.22,3.46,60.17,3.49,60Z" transform="translate(-0.08 -0.01)"/><path class="40c59154-33ad-449a-873b-65490e8cfe35" d="M3.86,76.68c-.43.22-.43.62-.43,1l0,0c.25-.25.59-.41.58-.87C4,76.75,3.86,76.68,3.86,76.68Z" transform="translate(-0.08 -0.01)"/><path class="40c59154-33ad-449a-873b-65490e8cfe35" d="M3.9,18.94a.12.12,0,0,0-.1,0,.11.11,0,0,0,0,.15.64.64,0,0,0,.22.24c.08,0,.2,0,.16-.12S4,18.94,3.9,18.94Z" transform="translate(-0.08 -0.01)"/><path class="40c59154-33ad-449a-873b-65490e8cfe35" d="M4.7,54.06c0-.17,0-.51-.18-.49s-.14.34-.14.54a1.22,1.22,0,0,0,0,.27v.26c0,.24,0,.49.2.65,0,0,0,0,0,0a.19.19,0,0,0,.27,0h0c.12-.23,0-.54-.06-.71Z" transform="translate(-0.08 -0.01)"/><path class="40c59154-33ad-449a-873b-65490e8cfe35" d="M5.15,90.29C5,90.23,5,90.4,5,90.5a1.19,1.19,0,0,0,.07.29h0c.13,0,.22-.2.19-.26S5.3,90.35,5.15,90.29Z" transform="translate(-0.08 -0.01)"/><path class="40c59154-33ad-449a-873b-65490e8cfe35" d="M5.22,33.66c-.43-.11-.5.42-.65.76-.37.89.18,1.63.3,2.43,0,.24.06.68.24.67s.18-.46.18-.72a1.13,1.13,0,0,0,0-.26c-.19-.68.33-1.2.33-1.82h0C5.67,34.29,5.65,33.77,5.22,33.66Zm-.32,1.9V35.5h.05Z" transform="translate(-0.08 -0.01)"/><path class="40c59154-33ad-449a-873b-65490e8cfe35" d="M5.26,30.53A.29.29,0,0,0,5,31c.16.26,0,.78.36.8s.27-.45.32-.73h0a.35.35,0,0,0,0-.17A.41.41,0,0,0,5.26,30.53Z" transform="translate(-0.08 -0.01)"/><path class="40c59154-33ad-449a-873b-65490e8cfe35" d="M5.55,28.91c-.1,0-.13.1-.1.37s0,.58.25.72.1-.19.11-.3C5.61,29.5,5.93,29.05,5.55,28.91Z" transform="translate(-0.08 -0.01)"/><path class="40c59154-33ad-449a-873b-65490e8cfe35" d="M12.1,51.6a.36.36,0,0,0,0,.09.27.27,0,0,0,.19.33.23.23,0,0,0,.3-.22,1.79,1.79,0,0,0,.14-1.14,3.76,3.76,0,0,1-.15-1.49,6.92,6.92,0,0,0-.11-2.08c0-.19,0-.56-.22-.54s-.32.33-.32.57c-.2,1.11.3,2.23-.09,3.34a.49.49,0,0,0,.15.4C12.34,51,12.33,51.26,12.1,51.6Z" transform="translate(-0.08 -0.01)"/><path class="40c59154-33ad-449a-873b-65490e8cfe35" d="M11.8,50.42v0h0Z" transform="translate(-0.08 -0.01)"/><path class="40c59154-33ad-449a-873b-65490e8cfe35" d="M7.35,46.3c-.57.15-.46.77-.57,1.26,0,.18,0,.51.22.44.69-.18.27-.93.47-1.37C7.54,46.51,7.52,46.25,7.35,46.3Z" transform="translate(-0.08 -0.01)"/><path class="40c59154-33ad-449a-873b-65490e8cfe35" d="M7.87,125.32c-.15,0-.35.06-.32.32s.26.26.45.26.41-.14.32-.32A.45.45,0,0,0,7.87,125.32Z" transform="translate(-0.08 -0.01)"/><path class="40c59154-33ad-449a-873b-65490e8cfe35" d="M9.6,37.22c-.35.11-.38.61-.49,1,0,.17,0,.27.2.27.41-.09.46-.42.38-.78C9.6,37.55,9.79,37.14,9.6,37.22Z" transform="translate(-0.08 -0.01)"/><path class="40c59154-33ad-449a-873b-65490e8cfe35" d="M10.82,106.5c-.18,0-.26.36-.26.6v0a.27.27,0,0,0,.27.29A.33.33,0,0,0,11,107C11,106.82,11,106.47,10.82,106.5Z" transform="translate(-0.08 -0.01)"/><path class="40c59154-33ad-449a-873b-65490e8cfe35" d="M11.22,53.25c-.26,0-.23.2-.17.38s0,.51.2.51.2-.17.2-.38S11.48,53.29,11.22,53.25Z" transform="translate(-0.08 -0.01)"/><path class="40c59154-33ad-449a-873b-65490e8cfe35" d="M13.92,111a.28.28,0,0,0,.05-.39c-.49-.44-.63-1.26-.9-1.65s-.8-.54-1.19-.78c-.32,0-.39.2-.24.41a10.12,10.12,0,0,0,2,2.33A.4.4,0,0,0,13.92,111Z" transform="translate(-0.08 -0.01)"/><path class="40c59154-33ad-449a-873b-65490e8cfe35" d="M12.12,125.62c-.11,0-.23.11-.21.19a.3.3,0,0,0,.23.19.14.14,0,0,0,.11,0,.15.15,0,0,0,.1-.19A.21.21,0,0,0,12.12,125.62Z" transform="translate(-0.08 -0.01)"/><path class="40c59154-33ad-449a-873b-65490e8cfe35" d="M13,120.51c-.24,0-.54.1-.57.33s.2.37.38.37v0a.34.34,0,0,0,.46-.31C13.3,120.63,13.26,120.5,13,120.51Z" transform="translate(-0.08 -0.01)"/><path class="40c59154-33ad-449a-873b-65490e8cfe35" d="M13.84,115.85c-.15,0-.28,0-.28.21s.09.41.33.41v0c.16,0,.42,0,.4-.27S14,115.87,13.84,115.85Z" transform="translate(-0.08 -0.01)"/><path class="40c59154-33ad-449a-873b-65490e8cfe35" d="M14.73,79a2.35,2.35,0,0,0-1.47-.25c-.35.11-.24.78-.24,1.23a.6.6,0,0,1,.05.31c0,.13.07.36-.12.42s-.53,0-.33.37c.13.24.41.48.69.35a2.36,2.36,0,0,0,1.58-1.54l0-.05C15,79.5,15,79.09,14.73,79Z" transform="translate(-0.08 -0.01)"/><path class="40c59154-33ad-449a-873b-65490e8cfe35" d="M15.69,119.41c-.1,0-.1.14-.1.3s.05.29.23.29a.31.31,0,0,0,.15-.37C15.93,119.48,15.79,119.38,15.69,119.41Z" transform="translate(-0.08 -0.01)"/><path class="40c59154-33ad-449a-873b-65490e8cfe35" d="M15.86,69.25c-.22,0-1.08.85-1.08,1.13,0,.49.35.23.52.32v0c.53,0,.93-.1.9-.8C16.19,69.58,16.08,69.3,15.86,69.25Z" transform="translate(-0.08 -0.01)"/><path class="40c59154-33ad-449a-873b-65490e8cfe35" d="M18.73,9c-.05,0-.13.16-.13.16a.43.43,0,0,0,.32.35c.08,0,.16,0,.12-.17A.5.5,0,0,0,18.73,9Z" transform="translate(-0.08 -0.01)"/><path class="40c59154-33ad-449a-873b-65490e8cfe35" d="M33.33,8.43c.28-.12.61-.17.81-.47l-.28-.11c-.26.15-.65,0-.76.42C33.06,8.43,33.23,8.48,33.33,8.43Z" transform="translate(-0.08 -0.01)"/><path class="40c59154-33ad-449a-873b-65490e8cfe35" d="M20.54,9.61a1.43,1.43,0,0,1,.84-.11l.05,0a.56.56,0,0,0,.73-.35.55.55,0,0,0-.05-.59c-.27-.32-.6-.19-.91-.09l-.85.27c-.22.06-.44.18-.36.46S20.25,9.7,20.54,9.61Z" transform="translate(-0.08 -0.01)"/><path class="40c59154-33ad-449a-873b-65490e8cfe35" d="M20,124.88c0,.2.15.2.29.2a.26.26,0,0,0,.25-.26.28.28,0,0,0-.32-.14C20.1,124.7,20,124.68,20,124.88Z" transform="translate(-0.08 -0.01)"/><path class="40c59154-33ad-449a-873b-65490e8cfe35" d="M31.78,97.93a.45.45,0,0,0-.18.25.11.11,0,0,0,0,.08.15.15,0,0,0,.18.11.28.28,0,0,0,.23-.31C32,97.93,31.89,97.86,31.78,97.93Z" transform="translate(-0.08 -0.01)"/><path class="40c59154-33ad-449a-873b-65490e8cfe35" d="M32.52,31.53a1,1,0,0,1-.15-.25A3.66,3.66,0,0,0,30.92,30a7.89,7.89,0,0,0-3.58-1,5.12,5.12,0,0,0-2.55.14.86.86,0,0,1-.39,0c-.92-.11-1.83.16-2.75.09a.42.42,0,0,0-.49.48,5.74,5.74,0,0,1-.06,1.17,3.25,3.25,0,0,0,0,1.75,4.38,4.38,0,0,1,.17,1.44c-.25,2.42.19,4.89-.41,7.29a2.81,2.81,0,0,0,0,.58c-.12.84,0,13.09-.24,13.91a4.18,4.18,0,0,0-.17,1.45c.11,1.15,0,2.29,0,3.44,0,.87-.06,1.89-.08,2.62s.26,1.42.26,2.14a38.71,38.71,0,0,1,.07,4.31c-.2,1.6.27,4.5.11,6.11V76a.59.59,0,0,0,.61.57,3.41,3.41,0,0,0,2-.06,1.53,1.53,0,0,1,.66-.16c1.11-.07,1.57-.55,1.57-1.67V73.29c0-1.25.06-3.93.06-5.25a21.58,21.58,0,0,1,.44-4c.1-.62,0-1.24.16-1.86a1,1,0,0,1,.72-.82,14.39,14.39,0,0,0,2.27-.92A6.73,6.73,0,0,0,33,56c.34-1.21.65-13.86.78-15.09h0a22.67,22.67,0,0,0,.44-4.11,9,9,0,0,0-.07-1.27C33.92,34.08,33.68,32.61,32.52,31.53ZM21.23,60.87V60.8a.56.56,0,0,1,.09.17,1.43,1.43,0,0,1,0,.82.16.16,0,0,1-.09,0A.74.74,0,0,1,21.23,60.87Zm.12,2.25a.11.11,0,0,1,0,.08l-.07.09C21.3,63.23,21.35,63.18,21.35,63.12Zm0,1.26c-.19-.18,0-.42-.1-.62a.25.25,0,0,1,0-.17.54.54,0,0,1,.1.16C21.39,64,21.49,64.16,21.34,64.38Zm.23,8.34s-.07.1-.07.15a1.1,1.1,0,0,1-.06-.26s.08-1.42.13-1.5Zm0-2.57c-.09,0-.09,0-.09-.06V70c.05-.06.09,0,.09.07S21.67,70.1,21.58,70.15Zm.64-39.93-.08,0,.09,0Zm.92,4.87c0,.1,0,.3-.14.25s-.1-.34-.11-.43,0-.22.11-.22S23.18,35,23.14,35.09Zm.2-2.32v-.05l0,0Zm.11,39.83V71.14c0-.11,0-.21,0-.32a.24.24,0,0,1,.05.18C23.52,71.09,23.45,72.64,23.45,72.6ZM24.18,32l-.06,0a.13.13,0,0,1-.16-.11.15.15,0,0,1,.15-.19l0,0a.18.18,0,0,1,.21.12A.77.77,0,0,1,24.18,32Zm1.27,23.74a1.54,1.54,0,0,1,.17.19h0a.22.22,0,0,1-.31,0,.43.43,0,0,1-.09-.26A1.09,1.09,0,0,1,25.45,55.72Zm-.6,18.36V74h0Zm.07-39.49a.09.09,0,0,1,0-.12l.13-.1.06.13Zm.24,24.86v-.16c.25-.24.59-.24.85-.35,0,0,.09.13.09.13A1.73,1.73,0,0,1,25.16,59.45Zm3.6-22.05c-.1,1.69-.35,14.77-1.1,16.35a1.88,1.88,0,0,1-.73.87c-.6.35-1.07.12-1.15-.58-.05-.36.08-12.11.08-12.47.06-2.42-.1-4.83.14-7.24.09-.81.25-.91,1-.67a2.76,2.76,0,0,1,1.76,2.74A5.57,5.57,0,0,0,28.76,37.4Zm.42,4.05-.07,0,.07-.09Zm.49-2.23c0,.2-.08.56-.12.71s-.05.43-.18.4-.05-.18,0-.44a4.19,4.19,0,0,0,.15-.77,5.35,5.35,0,0,0,.07-.56C29.78,38.73,29.7,39,29.67,39.22Zm1.92,18.11c-.42.41-.62,1-1.23,1.26.33-.45.66-.9,1-1.34.06-.07.23-.11.23-.09Zm.51-1.41a1.72,1.72,0,0,1-.1.39s-.11,0-.11-.08a2,2,0,0,1,.21-.44Zm.74-21.67-.05-.09h.05Zm.53,3.3c0,.07,0,.19-.11.19v-.18a20.49,20.49,0,0,1-.4-3.31.59.59,0,0,1,.26.48,5.14,5.14,0,0,0,.33,1.82A1.38,1.38,0,0,1,33.37,37.55Z" transform="translate(-0.08 -0.01)"/><polygon class="40c59154-33ad-449a-873b-65490e8cfe35" points="35.92 45.13 35.98 45.07 35.92 45.07 35.92 45.13"/><path class="40c59154-33ad-449a-873b-65490e8cfe35" d="M62.32,33.65h-.13v.08h.13Z" transform="translate(-0.08 -0.01)"/><path class="40c59154-33ad-449a-873b-65490e8cfe35" d="M52.38,3.77l.07,0a.18.18,0,0,0,.17-.17.2.2,0,0,0-.22-.2.31.31,0,0,0-.2.11C52.16,3.68,52.27,3.75,52.38,3.77Z" transform="translate(-0.08 -0.01)"/><path class="40c59154-33ad-449a-873b-65490e8cfe35" d="M51.09,77.4a.35.35,0,0,0-.36.27c0,.14.06.24.17.24a.34.34,0,0,0,.35-.28C51.28,77.49,51.21,77.4,51.09,77.4Z" transform="translate(-0.08 -0.01)"/><path class="40c59154-33ad-449a-873b-65490e8cfe35" d="M38.58,44.33c-.13,0-.13,0-.13.12s.12.08.12.08.15,0,.11-.08S38.71,44.35,38.58,44.33Z" transform="translate(-0.08 -0.01)"/><path class="40c59154-33ad-449a-873b-65490e8cfe35" d="M40.65,73.74c-.24.17-.53.06-.78.17a.46.46,0,0,0-.29.49v0a.21.21,0,0,0,.24.16,9.25,9.25,0,0,0,1-.37c.23-.12.53-.37.34-.67S40.89,73.57,40.65,73.74Z" transform="translate(-0.08 -0.01)"/><path class="40c59154-33ad-449a-873b-65490e8cfe35" d="M41.89,110.2c0,.14,0,.21.2.21a.4.4,0,0,0,.29-.33s-.12-.16-.12-.16A.4.4,0,0,0,41.89,110.2Z" transform="translate(-0.08 -0.01)"/><path class="40c59154-33ad-449a-873b-65490e8cfe35" d="M47.77,69.19a8.62,8.62,0,0,0-.16-3.12c-.14-.42-.3-.59-.74-.59a15,15,0,0,1-1.77.07c-1.18,0-1.28.07-1.36-1.34,0-.68,0-8.6,0-9.42s-.1-1.63-.1-2.45l.11-.2c0-.12,0-.31-.12-.23a20.57,20.57,0,0,1,0-2.72,12.72,12.72,0,0,0,.16-1.95,44.83,44.83,0,0,1,.28-5.18c.07-1.49,0-3,.07-4.49,0-1.27-.11-2.43-.18-3.81s-.14-2.75-.14-4.12c0-.43-.15-.6-.57-.6a8.71,8.71,0,0,1-2.44-.22.9.9,0,0,0-.93.18,2.26,2.26,0,0,0-.83,2,22.53,22.53,0,0,1,0,6.71A8.17,8.17,0,0,0,39,39.56c.15,1.59-.16,3.16-.16,4.75,0,1.06.07,2,0,3.22s.26,2.36.12,3.52c-.17,1.77,0,3.5-.17,5.29s.09,12,0,13.84c-.06,1.15.63,1.62,1.77,1.37a27.38,27.38,0,0,1,4.37-1,12.84,12.84,0,0,1,1.88-.45A1,1,0,0,0,47.77,69.19Zm-7.36,1.64s-.17,0-.14-.08a.84.84,0,0,1,.1-.12.13.13,0,0,1,.17.11C40.54,70.83,40.45,70.83,40.41,70.83Zm.24-21.73,0-.07h0Zm2.18-1.42,0,.06H42.8ZM42.59,43l0-.07,0,.08Zm.17,12.37c0-.09,0-.12,0-.09A.14.14,0,0,1,42.76,55.39Zm.08-.92a2,2,0,0,1-.12-.34c-.08-.08-.1-.22,0-.22s.1.18.18.33Zm.94,12,0-.06.08,0Z" transform="translate(-0.08 -0.01)"/><path class="40c59154-33ad-449a-873b-65490e8cfe35" d="M50.63,79.1c-.61-.07-1.21.35-1.87-.07-.2-.14-.84.16-.95.73a1.6,1.6,0,0,1-.32.7c-.14.12-.21.34-.14.44s.25.1.32.1a7.8,7.8,0,0,0,3.16-1.13c.17-.14.51-.2.42-.57S50.85,79.1,50.63,79.1Z" transform="translate(-0.08 -0.01)"/><polygon class="40c59154-33ad-449a-873b-65490e8cfe35" points="51.61 51.21 51.52 51.31 51.58 51.36 51.67 51.26 51.61 51.21"/><path class="40c59154-33ad-449a-873b-65490e8cfe35" d="M64.86,63.47c.06-2.42-2-16.88-2.07-19.37a12.34,12.34,0,0,0-.28-2c-.39-1.74-.22-3.52-.53-5.27-.19-1.12-.18-2.27-.36-3.4a26,26,0,0,1-.56-3.17c0-.61-.69-1.46-1.15-1.4-.86.11-1.69-.2-2.53-.14h-.89c-.78,0-.92.08-1,.92a64.16,64.16,0,0,1-1.13,6.46,14.73,14.73,0,0,1-.14,1.49,6.8,6.8,0,0,0-.37,2c0,2.12-.46,4.18-.67,6.27-.1,1-1.47,19.25-1.47,21.71a1.42,1.42,0,0,0,.1.58v.25c.59.79,2,.52,2.86.28a4,4,0,0,0,1.83-1,7.3,7.3,0,0,0,.09-1.14L56.68,65c.1-.68.19-1.36.21-1.86s.16-6,.26-6.37.22-.75.67-.71,1.59-.13,1.8.41c.14.37.3,5.85.38,6.23a24.11,24.11,0,0,1,.31,3.18,1.33,1.33,0,0,0,.18.75c.55.62,1.4,1.16,2.13.74a3,3,0,0,1,1.2-.35c1-.13,1.32-.45,1.22-1.47C65,64.84,64.86,64.15,64.86,63.47ZM59.44,50.68c-.11.66-.88.79-1.51.79-.83,0-1.32.07-1.26-.78a6.62,6.62,0,0,0,.07-1.18V48.25c.13-2.54.32-3.82.47-6.37,0-.61.12-1.5.21-2.11,0-.09.55-3.29.61-3.29a27.15,27.15,0,0,1,.86,3.8,28.64,28.64,0,0,1,.3,3.93c.07,1.76.27,3.72.33,5.47A4.77,4.77,0,0,1,59.44,50.68ZM62,46.26a1,1,0,0,1-.27-.82c.06-.21.14-.44.21-.68a1.82,1.82,0,0,1,.21.72C62.13,45.74,62.19,46,62,46.26Z" transform="translate(-0.08 -0.01)"/><path class="40c59154-33ad-449a-873b-65490e8cfe35" d="M124,31a.38.38,0,0,0,.26-.38c0-.23-.1-.23-.26-.23s-.32.14-.28.35h0A.27.27,0,0,0,124,31Z" transform="translate(-0.08 -0.01)"/><path class="40c59154-33ad-449a-873b-65490e8cfe35" d="M118.44,13.27c.26.05.66,0,.79.05s.32.11.33-.09-.2-.15-.32-.15a3.57,3.57,0,0,0-.8,0h0c-.26,0-.65-.19-.72.19C117.68,13.41,118.18,13.22,118.44,13.27Z" transform="translate(-0.08 -0.01)"/><path class="40c59154-33ad-449a-873b-65490e8cfe35" d="M119.21,50.58a.45.45,0,0,0-.23.2c0,.18.08.18.19.18a.27.27,0,0,0,.27-.24h0C119.45,50.57,119.35,50.54,119.21,50.58Z" transform="translate(-0.08 -0.01)"/><path class="40c59154-33ad-449a-873b-65490e8cfe35" d="M116.93,38.05a2.17,2.17,0,0,0,1.29-.61l-.12-.14a2.25,2.25,0,0,0-1.23.54S116.88,38.05,116.93,38.05Z" transform="translate(-0.08 -0.01)"/><path class="40c59154-33ad-449a-873b-65490e8cfe35" d="M115.76,29.56c.22-.08.54-.15.4-.53,0,0,0,0,0-.06a.45.45,0,0,0-.6-.22c-.26.13-.49.39-.84.25-.15,0-.36-.11-.49.12,0,0,.07.13.07.13C114.76,29.26,115.23,29.76,115.76,29.56Z" transform="translate(-0.08 -0.01)"/><path class="40c59154-33ad-449a-873b-65490e8cfe35" d="M79.64,64.28a10,10,0,0,0,2.12-3.13,16.39,16.39,0,0,0,.94-5c0-.8-.28-.9-1-1.06s-1.44-.07-2.16-.16c-.92-.13-1.06,0-1.31.87a22.9,22.9,0,0,1-.93,3.36,1.39,1.39,0,0,1-1.38.88c-.61,0-.74-.43-.92-.86A9,9,0,0,1,74.37,56c-.12-1.61-.19-5.29-.37-6.9a31.28,31.28,0,0,1-.2-8.48,4.17,4.17,0,0,0,0-.5,46.66,46.66,0,0,1,.66-5.26A3,3,0,0,1,75,33.75l0,0a.7.7,0,0,1,1-.13,1,1,0,0,1,.61.94c0,1.05.23,2.08.23,3.13,0,1.38.48,1.66,1.8,1.38.09,0,.18-.11.27-.11a13.1,13.1,0,0,1,1.85-.27c.41-.07.76.28,1.23-.07s.08-.87.17-1.26a19.86,19.86,0,0,0-.46-4A4.89,4.89,0,0,0,79.45,30a9.43,9.43,0,0,0-5.83-1.23,1.18,1.18,0,0,0-.37.09,4.28,4.28,0,0,0-2.82,3,26.51,26.51,0,0,0-.75,3.54c-.28,2.39-.92,4.75-.53,7.19a.67.67,0,0,1-.06.28A5,5,0,0,0,69,45.11a19.55,19.55,0,0,1,.11,2.54c0,2.22.16,6.51.41,8.72a4.09,4.09,0,0,0,.36,1.89c-.22,1.16.4,2.17.59,3.25a4.07,4.07,0,0,0,.91,1.73c.17.2.4.35.47.62.23.94,1,1.29,1.81,1.64A5.6,5.6,0,0,0,79.64,64.28ZM75.57,29.74l.09.11c0,.15-.12.1-.19.07s-.07-.13-.07-.13ZM74.3,33.08a1.12,1.12,0,0,1,.18-.2s.11.09.11.09a.2.2,0,0,1-.13.23l-.16,0A.49.49,0,0,1,74.3,33.08ZM71.06,46.39a11.68,11.68,0,0,0,.08-2.13c0-.07.06-.16.13-.16s.07.1.07.16a6.71,6.71,0,0,0-.06,1.13c-.07.28.19.61,0,1,0,.08,0,.21-.13.22S71.06,46.47,71.06,46.39Zm.18,1.87c-.06,0-.06-.1-.06-.14s.08-.12.08-.12.09,0,.12.11S71.3,48.26,71.24,48.26Zm2-10.31V38l-.05.08h-.06A.15.15,0,0,1,73.26,38Zm-.16,1c.12,0,.11,0,.05.21s-.13.35-.19.52a3.23,3.23,0,0,1,0-.44C73,39.18,72.92,39,73.1,39Zm.05,10.8v-.19c0-.08,0-.12.07-.09s.07.11.07.17Zm.62,9.67c-.07,0-.14-.2-.15-.23s.09-.14.09-.14a.2.2,0,0,1,.17.2C73.88,59.38,73.84,59.49,73.77,59.47Z" transform="translate(-0.08 -0.01)"/><path class="40c59154-33ad-449a-873b-65490e8cfe35" d="M75.4,81c0,.1,0,.1.12.1l.28-.19c-.12-.14-.19-.14-.19-.14A.66.66,0,0,0,75.4,81Z" transform="translate(-0.08 -0.01)"/><path class="40c59154-33ad-449a-873b-65490e8cfe35" d="M75.52,73.83Z" transform="translate(-0.08 -0.01)"/><path class="40c59154-33ad-449a-873b-65490e8cfe35" d="M75.63,73c-.32,0-.64.07-.68.46s.36.29.57.39.48,0,.55-.37a.57.57,0,0,0,0-.13A.4.4,0,0,0,75.63,73Z" transform="translate(-0.08 -0.01)"/><path class="40c59154-33ad-449a-873b-65490e8cfe35" d="M78.89,73a.83.83,0,0,0-.78.51h0c-.06.13,0,.27.2.24a1.52,1.52,0,0,0,.8-.49C79.08,73,79,73,78.89,73Z" transform="translate(-0.08 -0.01)"/><path class="40c59154-33ad-449a-873b-65490e8cfe35" d="M79.41,104.5c-.24,0-.56,0-.62.28s.25.22.42.22.6.18.66-.27C79.9,104.5,79.65,104.49,79.41,104.5Z" transform="translate(-0.08 -0.01)"/><path class="40c59154-33ad-449a-873b-65490e8cfe35" d="M81.32,104.67c-.14,0-.37,0-.37.19s.2.14.32.14.39.1.41-.16S81.46,104.67,81.32,104.67Z" transform="translate(-0.08 -0.01)"/><path class="40c59154-33ad-449a-873b-65490e8cfe35" d="M95,76.52a6.85,6.85,0,0,0-3.72-.44c-1.37.06-2.74.18-4.1.36-1.06.13-2.17.3-3.17.5-.63.13-1.26.29-1.88.48a2,2,0,0,0-1.07.66,1,1,0,0,0,0,1.19,1.36,1.36,0,0,0,1,.36,24.62,24.62,0,0,0,3.64-.22c1.09-.09.54,1.23.54,1.91-.07,1.34-.07,2.67-.07,4,0,2.44-.13,4.87-.13,7.3v.68c0,.71,0,1.73.89,1.92.19.06.38,0,.57.06,1.85.58,1.92-6,2-7,.1-1.57.22-3.18.32-4.57s.28-2.77.41-4.13v0a.66.66,0,0,1,.7-.62,7.57,7.57,0,0,0,1.17-.23v.07c0,.14,0,.21.2.14s.45,0,.45-.26a.08.08,0,0,0-.08-.1c.75-.23,1.49-.52,2.21-.81a1.62,1.62,0,0,0,.5-.27.57.57,0,0,0,0-.49A.76.76,0,0,0,95,76.52Z" transform="translate(-0.08 -0.01)"/><path class="40c59154-33ad-449a-873b-65490e8cfe35" d="M93,71.35c-.14.11-.52.06-.39.35s.35,0,.52-.08.59-.27.87-.41A1.39,1.39,0,0,0,93,71.35Z" transform="translate(-0.08 -0.01)"/><path class="40c59154-33ad-449a-873b-65490e8cfe35" d="M94.1,72.22h.42c.37,0,.71.12.93-.25a.33.33,0,0,0,0-.24c-.29-.24-.56,0-.84.06a2.55,2.55,0,0,0-.53.18v0c-.08,0-.2,0-.14.08S93.94,72.22,94.1,72.22Z" transform="translate(-0.08 -0.01)"/><path class="40c59154-33ad-449a-873b-65490e8cfe35" d="M94.06,71.21a9.16,9.16,0,0,0,2.21-.33h0a.26.26,0,0,0,.25-.27s-.19-.1-.19-.1C95.58,70.74,94.73,70.64,94.06,71.21Z" transform="translate(-0.08 -0.01)"/><path class="40c59154-33ad-449a-873b-65490e8cfe35" d="M98.23,63.43c.13-.84.2-1.69.28-2.54,0-.3,0-.69-.28-.8-.63-.24-1.25-.71-1.94-.53a6.21,6.21,0,0,1-2.5-.21c-.68-.08-1-1.25-1.08-1.89a3.35,3.35,0,0,1,0-1c.27-2.08.23-4.19.55-6.27a1.55,1.55,0,0,1,1.2-1.37c.44-.14,1-.22,1.44-.31s.8-.34.8-.76c0-1,.38-2,.32-3,0-.71-.17-.89-.86-.89a12.47,12.47,0,0,0-2.44.17c-.93.24-1.17,0-1.23-1v-.79c-.11-1.18.14-2.35,0-3.53a13,13,0,0,1,.31-3.41.51.51,0,0,1,.58-.51c1-.1,1.9-.13,2.83-.32,1.12-.23,1.18-.28,1.31-1.36a2.61,2.61,0,0,1,.11-.68,5.85,5.85,0,0,0,.13-2.91c0-.43-.25-.69-.67-.69a10.55,10.55,0,0,0-3.22.13,12.8,12.8,0,0,1-2.53.46H91a7.47,7.47,0,0,1-2.54.1c-.49-.12-.84.21-.94.77a29.46,29.46,0,0,0-.4,4.78A4.25,4.25,0,0,1,87,36.19a17.88,17.88,0,0,0-.4,4.78c.08,2.93,0,5.93.08,8.93.12,3.26,0,7.19.22,10.45.09,1,.22,2,.34,3a1.28,1.28,0,0,0,.07.34,2.6,2.6,0,0,0,.11.62.24.24,0,0,0,0,.12c.3.68,1,.4,2.23.29,1.6-.14,3.2-.17,4.8-.31H96.3a6.24,6.24,0,0,1,.67,0C97.82,64.43,98.1,64.27,98.23,63.43Zm-6.4-27.79c-.16.12-.25-.08-.25-.18v0a.44.44,0,0,1,.22-.58A.17.17,0,0,1,92,35,.56.56,0,0,1,91.83,35.64Z" transform="translate(-0.08 -0.01)"/><path class="40c59154-33ad-449a-873b-65490e8cfe35" d="M93.76,40.48c.11,0,.23,0,.23-.21a2,2,0,0,0-.25-.14.09.09,0,0,0-.07,0,.16.16,0,0,0-.13.18C93.55,40.48,93.65,40.47,93.76,40.48Z" transform="translate(-0.08 -0.01)"/><path class="40c59154-33ad-449a-873b-65490e8cfe35" d="M93.83,38.87l0,0a.36.36,0,0,0-.5.11v.14l.48-.21Z" transform="translate(-0.08 -0.01)"/><path class="40c59154-33ad-449a-873b-65490e8cfe35" d="M94,39.25c0-.17-.07-.26-.15-.37l0,.37S94,39.42,94,39.25Z" transform="translate(-0.08 -0.01)"/><path class="40c59154-33ad-449a-873b-65490e8cfe35" d="M93.76,42.56c.27-.13.54-.28.6-.64,0,0-.1-.11-.2-.2-.16.28-.36.46-.51.69a.11.11,0,0,0,0,.08A.1.1,0,0,0,93.76,42.56Z" transform="translate(-0.08 -0.01)"/><path class="40c59154-33ad-449a-873b-65490e8cfe35" d="M102.56,91.2c0,.06,0,.14.09.33a2,2,0,0,0,.14-.41c0-.06-.07-.14-.07-.21A1.18,1.18,0,0,0,102.56,91.2Z" transform="translate(-0.08 -0.01)"/><path class="40c59154-33ad-449a-873b-65490e8cfe35" d="M106.15,90.88a11.89,11.89,0,0,1-1.24-3.76,7.32,7.32,0,0,0,1.5-1.44c1.46-1.64,1.7-4.44,1.14-6.54-.43-1.58-1.51-2.24-2.92-2.83h-.1a8.6,8.6,0,0,0-4.36-.24,1.44,1.44,0,0,1-.39.2c-.59.19-.66.65-.66,1.19a13.27,13.27,0,0,1-.18,2.18c-.18,1.62-.36,3.23-.52,4.85-.33,3.2-.6,6.41-.77,9.62a1.72,1.72,0,0,0,.19,1.09,2.11,2.11,0,0,0,.23.19,1.56,1.56,0,0,0,2.15-.43c.73-1.57.46-3.12.73-4.75a1.64,1.64,0,0,1,.64-1c.47-.37.85-.3,1,.28a15.34,15.34,0,0,0,1.26,2.73,23.92,23.92,0,0,0,1.66,2.86,1.55,1.55,0,0,0,.33.39l.09.06v0c.92.55,1.22-1.23,1.16-1.79A9.72,9.72,0,0,0,106.15,90.88Zm-2.82-6c-.36.3-.62.48-1.13.84s-.64.29-.72-.31a12.66,12.66,0,0,1,.15-2.75c.17,0,.17-3.73.4-4.12s.57-.14.94,0a8.28,8.28,0,0,0,1.26.64,2.54,2.54,0,0,1,1,2.3A4.77,4.77,0,0,1,103.33,84.87Z" transform="translate(-0.08 -0.01)"/><path class="40c59154-33ad-449a-873b-65490e8cfe35" d="M107.79,90.89a2.59,2.59,0,0,0-.4.41c-.06.1,0,.16.12.1v0c.17-.14.32-.29.46-.4A.12.12,0,0,0,107.79,90.89Z" transform="translate(-0.08 -0.01)"/><path class="40c59154-33ad-449a-873b-65490e8cfe35" d="M109.79,41.67a1.13,1.13,0,0,0-.42.22c-.06.06,0,.16.13.16a.46.46,0,0,0,.41-.22C109.94,41.67,109.87,41.67,109.79,41.67Z" transform="translate(-0.08 -0.01)"/><path class="40c59154-33ad-449a-873b-65490e8cfe35" d="M115.48,64.07a1.7,1.7,0,0,0,1-1.88,2.73,2.73,0,0,0-.17-.75c-.52-1.19-.6-2.53-1.13-3.73A30.75,30.75,0,0,1,114,54.08c-.36-1.18-.7-2.38-1.06-3.57a1.33,1.33,0,0,1,.38-1.55,2.6,2.6,0,0,0,.6-.83,14.5,14.5,0,0,0,1.64-5c0-.54.13-1,.13-1.54A27.1,27.1,0,0,0,116,37a12.91,12.91,0,0,1-.21-2,5,5,0,0,0-2.13-4.74,3.18,3.18,0,0,1-.37-.27A6.26,6.26,0,0,0,109,28.85c-1.24,0-2.45.52-3.73.35a3.73,3.73,0,0,0-1.24.18.82.82,0,0,0-.7.77c0,.54-.13,1.08-.13,1.63a25.33,25.33,0,0,1,0,3.26c-.09.86-.15,1.72-.25,2.58-.19,1.63,0,3.31-.08,4.88s-.1,3.14-.22,4.7c-.12,1.37-.12,2.74-.12,4.12a29.7,29.7,0,0,1,.11,4c-.28,2.07,0,5.07-.12,7.07a5.55,5.55,0,0,0,.09,1h0a.58.58,0,0,0,.59.59c.59.06,1.19.19,1.78.19h.13A1.81,1.81,0,0,0,107,62.45c.1-2.4.41-5.73.58-8.13,0-.57.17-1.14.26-1.71,0-.11.11-.27.16-.27s.13.15.13.23a7.47,7.47,0,0,1,.32,1.4,15.89,15.89,0,0,0,1,2.67v0a15.25,15.25,0,0,1,1.07,3.29A30.35,30.35,0,0,0,112,63.58,3.6,3.6,0,0,0,115.48,64.07ZM113,34.87a1,1,0,0,1,.29.73c0,.07,0,.23-.13,0s-.19-.44-.27-.67C112.86,34.87,112.93,34.87,113,34.87Zm-.79,16.54,0,.06,0-.06ZM103.33,59a.06.06,0,0,1-.06.06V58.9s.06-.11.06-.06Zm1.55-21c.07-.15.07-.38.15-.4s.08.13.08.21a2.86,2.86,0,0,1-.18.52C104.88,38.17,104.81,38.11,104.88,38Zm.18,22.18c0,.07-.13,0-.13,0-.07-.28.13-.44.27-.64C105.16,59.74,105.27,60,105.06,60.14Zm.39-28.54,0,0a.13.13,0,0,1-.05-.19.21.21,0,0,1,.14-.1h0a.16.16,0,0,1,.12.18C105.61,31.56,105.54,31.63,105.45,31.6Zm.25,7.61h-.07v-.14h.07Zm-.06-1.08,0-.05,0,.06Zm.42,24.42s-.06,0-.06-.12.06-.07.06-.07v.13C106.06,62.55,106.12,62.55,106.06,62.55Zm.83-8.67c-.12,0-.12-.13-.12-.22s0-.38.16-.52a.66.66,0,0,1,.09.44C107,53.69,107,53.88,106.89,53.88Zm.16-19.05c-.22,0-.22-.4-.22-.48a.61.61,0,0,1,.11-.23c.25,0,.28.34.24.44S107.27,34.88,107.05,34.83Zm2.5-2.3a.28.28,0,0,1,.27.21v0a.16.16,0,0,1-.16.16.26.26,0,0,1-.26-.22C109.37,32.53,109.45,32.53,109.55,32.53Zm-1.69,13.85v-.05l0,0Zm.89,2.45c-.07,0-.07,0-.07-.08l.07-.06v.07C108.75,48.83,108.82,48.8,108.75,48.83Zm.68-5.3a2.84,2.84,0,0,1-.54.5c-.47.31-.61.24-.78-.3a10.2,10.2,0,0,1-.28-3.21,39.12,39.12,0,0,0,.16-4.59c0-.35.08-.68.08-1,0-1.19,0-1.18,1-.68a2.25,2.25,0,0,1,1.34,1.55,10.58,10.58,0,0,1,.35,3.31,5,5,0,0,0,0,.77C111,41.37,110.23,42.44,109.43,43.53Zm1.24,3,.13-.16C110.86,46.56,110.74,46.56,110.67,46.56Zm1.13-13.44a.83.83,0,0,1,.08-.12h0Zm.14,17.68v-.08l.07,0Z" transform="translate(-0.08 -0.01)"/><path class="40c59154-33ad-449a-873b-65490e8cfe35" d="M113.05,70.35c-.17.05-.36.23-.35.39s.14.19.32.16.42-.06.42-.33l0,0s0,0,0-.06A.3.3,0,0,0,113.05,70.35Z" transform="translate(-0.08 -0.01)"/><path class="40c59154-33ad-449a-873b-65490e8cfe35" d="M119.08,95.35s.07.12.07.12l0,0c.27,0,.38-.24.47-.42C119.44,95.08,119.19,95.06,119.08,95.35Z" transform="translate(-0.08 -0.01)"/><path class="40c59154-33ad-449a-873b-65490e8cfe35" d="M120.55,88.42v-.07c-.16-1.09-.45-2.13-.65-3.09s-.41-1.92-.63-2.88-.45-1.92-.73-2.86a14.69,14.69,0,0,0-1.13-2.45,1.34,1.34,0,0,0-.17-.31,1.31,1.31,0,0,0-1.83-.27c-.35.18-.65.44-1,.64a20.76,20.76,0,0,0-.58,2.19,3.78,3.78,0,0,1-.12.82,46.9,46.9,0,0,0-1.21,5.5,15.22,15.22,0,0,1-.34,1.63,18.59,18.59,0,0,0-.62,7,1.36,1.36,0,0,0,.4.93.78.78,0,0,0,.67.15c.48-.15.72-.73.86-1.15l1.27-3.69c.07-.18.11-.46.33-.46.71-.15,1.3-.55,2-.64.36,0,.61,0,.72.36.17.54.49,1,.61,1.54a8.65,8.65,0,0,0,.85,2.62c.29.48,1.31.16,1.48-.32l0,0a6.41,6.41,0,0,0,0-2A24.93,24.93,0,0,0,120.55,88.42ZM116.11,87c-.28,0-.52,0-.44-.4.17-.92.36-3.39.54-4.32,0-.07,0-.18.09-.21s.16.11.21.2a19.19,19.19,0,0,1,.49,2.25c.1.44.14,1,.22,1.48C117.45,87,117.11,87,116.11,87Z" transform="translate(-0.08 -0.01)"/><path class="40c59154-33ad-449a-873b-65490e8cfe35" d="M121.46,95.15a1,1,0,0,0-.3.27.14.14,0,0,0,0,.06.11.11,0,0,0,.11.13l0,0a.29.29,0,0,0,.3-.29C121.6,95.15,121.55,95.15,121.46,95.15Z" transform="translate(-0.08 -0.01)"/><path class="40c59154-33ad-449a-873b-65490e8cfe35" d="M121.2,49.57c-.18.07-.56,0-.41.34a.81.81,0,0,0,.83.42l0,0h.06a.32.32,0,0,0,.19-.4.49.49,0,0,0-.06-.17A.47.47,0,0,0,121.2,49.57Z" transform="translate(-0.08 -0.01)"/><path class="40c59154-33ad-449a-873b-65490e8cfe35" d="M122.56,32.77c0-.25-.11-.39-.33-.39h0a.29.29,0,0,0-.31.29l0,0a.35.35,0,0,0,.32.41C122.44,33.09,122.55,33,122.56,32.77Z" transform="translate(-0.08 -0.01)"/><path class="40c59154-33ad-449a-873b-65490e8cfe35" d="M123.58,48.53s.09,0-.09-.18-1.25.53-1.25.79l0,0c0,.14-.13.21.12.28S123.58,48.83,123.58,48.53Z" transform="translate(-0.08 -0.01)"/><path class="40c59154-33ad-449a-873b-65490e8cfe35" d="M123.51,93.5a.55.55,0,0,0-.32.48s.1.1.19.19a2.2,2.2,0,0,0,.32-.53l0,0C123.8,93.47,123.67,93.41,123.51,93.5Z" transform="translate(-0.08 -0.01)"/><path class="40c59154-33ad-449a-873b-65490e8cfe35" d="M124.06,42.56c-.19.11-.44.34-.45.45s.16.11.26.11l0,0a.56.56,0,0,0,.4-.44C124.26,42.56,124.25,42.45,124.06,42.56Z" transform="translate(-0.08 -0.01)"/><path class="40c59154-33ad-449a-873b-65490e8cfe35" d="M180.65,31.76v0l0,0Z" transform="translate(-0.08 -0.01)"/><path class="40c59154-33ad-449a-873b-65490e8cfe35" d="M180.64,32l.06-.13,0,0-.07.11Z" transform="translate(-0.08 -0.01)"/><path class="40c59154-33ad-449a-873b-65490e8cfe35" d="M180.16,45.43a2,2,0,0,0,.26-.25.49.49,0,0,0-.26-.07l0,0c-.08,0-.24,0-.25.23S180.07,45.48,180.16,45.43Z" transform="translate(-0.08 -0.01)"/><path class="40c59154-33ad-449a-873b-65490e8cfe35" d="M177.64,27.4c.21-.18.66,0,.78-.5.05-.2-.12-.26-.26-.2v0c-.3.15-.67.21-.83.61C177.29,27.4,177.47,27.4,177.64,27.4Z" transform="translate(-0.08 -0.01)"/><path class="40c59154-33ad-449a-873b-65490e8cfe35" d="M170.19,80.06c1.05.12,2.05.21,3.05.31.15,0,.36.06.41-.16v0a.36.36,0,0,0-.34-.37c-.93-.14-1.86-.25-2.81-.38h-.3v0c-.2.08-.59,0-.6.36S170,80.06,170.19,80.06Z" transform="translate(-0.08 -0.01)"/><path class="40c59154-33ad-449a-873b-65490e8cfe35" d="M173.78,109.15h0a.31.31,0,0,0,.41-.12c0-.18-.11-.18-.2-.18s-.33-.13-.42.08C173.57,109,173.7,109.15,173.78,109.15Z" transform="translate(-0.08 -0.01)"/><polygon class="40c59154-33ad-449a-873b-65490e8cfe35" points="171.54 81.61 171.54 81.61 171.53 81.61 171.54 81.61"/><path class="40c59154-33ad-449a-873b-65490e8cfe35" d="M171.75,81.38c0-.12-.06-.31-.19-.25s-.09.21-.07.29.08.2.13.2S171.76,81.5,171.75,81.38Z" transform="translate(-0.08 -0.01)"/><path class="40c59154-33ad-449a-873b-65490e8cfe35" d="M155.4,20.91c.12,0,.2-.12.19-.19s-.1-.11-.24-.24c0,.09-.1.18-.09.25S155.28,20.88,155.4,20.91Z" transform="translate(-0.08 -0.01)"/><path class="40c59154-33ad-449a-873b-65490e8cfe35" d="M154.27,21.1c.14-.06.36,0,.36-.3a.25.25,0,0,0-.34-.09h0c-.15.06-.33.19-.3.33S154.13,21.16,154.27,21.1Z" transform="translate(-0.08 -0.01)"/><path class="40c59154-33ad-449a-873b-65490e8cfe35" d="M151.29,22.54h0Z" transform="translate(-0.08 -0.01)"/><path class="40c59154-33ad-449a-873b-65490e8cfe35" d="M150.57,22.84c0,.15.11.32.24.27a3.81,3.81,0,0,0,.84-.46s-.19,0-.34-.1C151.1,22.67,150.74,22.4,150.57,22.84Z" transform="translate(-0.08 -0.01)"/><path class="40c59154-33ad-449a-873b-65490e8cfe35" d="M150.93,20c.08-.13,0-.23-.14-.23h0a.25.25,0,0,0-.27.21l.13.15A.33.33,0,0,0,150.93,20Z" transform="translate(-0.08 -0.01)"/><path class="40c59154-33ad-449a-873b-65490e8cfe35" d="M147.27,13c1,0,2-.06,3-.11.08,0,.23,0,.23-.18s-.14-.17-.25-.17l-2.07-.21h-1c-.22,0-.4.13-.39.4S147.12,13,147.27,13Z" transform="translate(-0.08 -0.01)"/><path class="40c59154-33ad-449a-873b-65490e8cfe35" d="M146.5,38.87a.42.42,0,0,0,.21-.39c0-.13-.07-.24-.19-.18h0a.48.48,0,0,0-.3.41C146.26,38.87,146.35,38.87,146.5,38.87Z" transform="translate(-0.08 -0.01)"/><path class="40c59154-33ad-449a-873b-65490e8cfe35" d="M144.25,21.61c.06,0,.17.05.23-.13s-.09-.18-.19-.18l0,0c-.1,0-.26,0-.32.16S144.19,21.64,144.25,21.61Z" transform="translate(-0.08 -0.01)"/><path class="40c59154-33ad-449a-873b-65490e8cfe35" d="M135,13.06h.4c.17,0,.45.22.48-.07s-.3-.29-.49-.29h-.24l0,0c-.33,0-.69-.07-1,.3C134.51,13.21,134.83,13,135,13.06Z" transform="translate(-0.08 -0.01)"/><path class="40c59154-33ad-449a-873b-65490e8cfe35" d="M126.51,59.49a.31.31,0,0,0,.36-.23c0-.15-.06-.26-.17-.26a.32.32,0,0,0-.35.24v0A.19.19,0,0,0,126.51,59.49Z" transform="translate(-0.08 -0.01)"/><path class="40c59154-33ad-449a-873b-65490e8cfe35" d="M128.68,79c0-.37.08-.68.08-1a1.7,1.7,0,0,0-.37-1.48,2,2,0,0,0-1.39-.31,1.37,1.37,0,0,0-1.07.36,1.27,1.27,0,0,0-.15.85c.11,2.93.11,5.84.11,8.77,0,1.17.09,2.35.09,3.53a8.29,8.29,0,0,0,.3,3.21c.26.59.58,1,1.18.59v0c1-.58.85-1.93.9-2.91.08-1.31.15-2.61.2-3.92C128.68,84.21,128.49,81.58,128.68,79Z" transform="translate(-0.08 -0.01)"/><path class="40c59154-33ad-449a-873b-65490e8cfe35" d="M129,102.48c-.17,0-.33.07-.36.23s0,.16.12.16v0c.15,0,.32-.08.37-.29C129.11,102.58,129.14,102.45,129,102.48Z" transform="translate(-0.08 -0.01)"/><path class="40c59154-33ad-449a-873b-65490e8cfe35" d="M138.53,88.69c-.36.06-.68.19-.82-.22a5.38,5.38,0,0,1,0-1.5V80.82c.29-.2.75-.38.47-.84-.14-.23-.29-.22-.44-.14,0-1.48.07-3.66-.38-3.66a1.52,1.52,0,0,0-1.31-.2,1.64,1.64,0,0,0-1,.64,2.34,2.34,0,0,0-.28,1,69.89,69.89,0,0,0-.11,7.09,61.6,61.6,0,0,0,.39,6.92c0,.57.22,1.54,1,1.39,2.13-.47,4.23-.9,6.32-1.47a1.47,1.47,0,0,0,1-.68v.06a1,1,0,0,0,.19-.63,1.7,1.7,0,0,0-.38-.89C142.06,88,140.06,88.42,138.53,88.69Z" transform="translate(-0.08 -0.01)"/><path class="40c59154-33ad-449a-873b-65490e8cfe35" d="M146.75,101.62a.36.36,0,0,0-.36.3c0,.1.05.16.14.16v.06a.37.37,0,0,0,.36-.36S146.75,101.62,146.75,101.62Z" transform="translate(-0.08 -0.01)"/><path class="40c59154-33ad-449a-873b-65490e8cfe35" d="M147.75,101.34c-.12,0-.27,0-.32.18s.13.21.25.21v.06h0a.26.26,0,0,0,.24-.28C148,101.34,147.87,101.31,147.75,101.34Z" transform="translate(-0.08 -0.01)"/><path class="40c59154-33ad-449a-873b-65490e8cfe35" d="M152.88,35.53A22.87,22.87,0,0,0,153,30.3a1.35,1.35,0,0,0-.07-.49,1.22,1.22,0,0,0-1.56-.71,14.88,14.88,0,0,1-2.48.31c-.64,0-.84.22-.9.79a16.34,16.34,0,0,0-.2,1.73c0,1.07-.07,2.14-.19,3.2-.29,2.44-.53,4.95-.62,7.44,0,.71-.25,5.62-.6,5.58s-.57-2.77-.72-3.63c-.29-1.72-.55-3.45-.9-5.17v-.19a.59.59,0,0,0,.65-.49c.1-.57-.37-.11-.52-.28a.76.76,0,0,1-.11-.14c-.06-.11,0-.37-.2-.31h-.06a21.88,21.88,0,0,1-.48-3.23,27.63,27.63,0,0,0-.54-4.24,1.17,1.17,0,0,0-1-1,13.22,13.22,0,0,0-2.64-.57c-.9,0-1.05,0-1.45.79a11.64,11.64,0,0,0-1,4.87c0,1.82-.36,3.62-.49,5.42s-.8,8.49-1,8.49c0,0-.37-4.56-.4-5.76s-.09-2.76-.24-3.94c-.31-2.45-.46-5.69-.54-8.15,0-1.3-.42-1.58-1.68-1.48-1,.08-2,.08-3,.08-.26,0-.42,0-.53.29a2.78,2.78,0,0,0-.2.94,26.08,26.08,0,0,0,.15,4.05c.19,1.76.21,3.34.35,5.28s.33,3.84.52,6a14.07,14.07,0,0,0,.18,2.15,49.31,49.31,0,0,0,.78,6.17c.15,1.06.36,2.06.55,3.06.09.52.18,1.28.27,2.12a.42.42,0,0,0-.14.09h.16c.15,1.44.31,3,.49,3.92a4,4,0,0,0,.7,1.6.67.67,0,0,0,.83.32,2.24,2.24,0,0,1,1.53.06,4.37,4.37,0,0,0,1.14.17c1.24,0,1.58-.32,1.65-1.58a53,53,0,0,1,.36-5.91c.74-3.37.85-6.81,1.32-10.21.21-1.54.4-3.08.61-4.61,0-.06,0-.12.1-.15s.17.07.17.16c.07,1,.42,1.86.58,2.86a44.15,44.15,0,0,1,.67,5,7.28,7.28,0,0,1,.17,1.47c-.2,1.53.31,3,.41,4.53.05.82.31,4.85.38,5.68a9.83,9.83,0,0,0,.67,2.93c.19.48.38.69.7.75a2.09,2.09,0,0,0,1.34.24,20,20,0,0,0,3,.28c.95,0,1.25-.36,1.36-1.17a1.26,1.26,0,0,0,.16-.89,4.79,4.79,0,0,1,0-1.07c.06-1.64.11-6.58.25-8.13s.48-3.07.56-4.62.43-3.31.58-5c.31-2.7.36-5.42.76-8.11C152.76,37.14,152.73,36.32,152.88,35.53ZM136.47,55.89c0,.14,0,.37-.15.36s-.13-.26-.13-.42A3.56,3.56,0,0,1,136.6,54C136.56,54.6,136.52,55.24,136.47,55.89Zm12.81,8.77c-.16,0-.33,0-.36-.25s.3-.51.47-.51a.28.28,0,0,1,.2.29C149.59,64.41,149.44,64.7,149.28,64.66Zm1.21-18.36c0,.39,0,.72-.16,1-.28-.33-.15-.68-.15-1a.45.45,0,0,1,0-.28c0-.1,0-.25.21-.25a.67.67,0,0,1,.1.33Z" transform="translate(-0.08 -0.01)"/><path class="40c59154-33ad-449a-873b-65490e8cfe35" d="M153.36,77.68c.06-.29-.26-.21-.41-.21-.32,0-.76,0-.83.34s.3.24.57.23S153.3,78,153.36,77.68Z" transform="translate(-0.08 -0.01)"/><path class="40c59154-33ad-449a-873b-65490e8cfe35" d="M152.12,77.82h0s0,0,0,0Z" transform="translate(-0.08 -0.01)"/><path class="40c59154-33ad-449a-873b-65490e8cfe35" d="M154,99.75c-.51-.07-.61.45-.85.77l0,0c.39,0,.84-.07.93-.54C154.11,99.9,154,99.75,154,99.75Z" transform="translate(-0.08 -0.01)"/><path class="40c59154-33ad-449a-873b-65490e8cfe35" d="M154.7,77.77c.05-.23-.09-.26-.24-.23s-.4-.13-.4.24l0,0c0,.16.11.26.27.33A.42.42,0,0,0,154.7,77.77Z" transform="translate(-0.08 -0.01)"/><path class="40c59154-33ad-449a-873b-65490e8cfe35" d="M154.59,95.89a.37.37,0,0,0-.23.21c0,.17.11.17.22.17l0,0a.22.22,0,0,0,.19-.16C154.79,95.89,154.7,95.89,154.59,95.89Z" transform="translate(-0.08 -0.01)"/><path class="40c59154-33ad-449a-873b-65490e8cfe35" d="M155.85,57.31c-.25.28-.77.24-.86.79,0,.15,0,.37.19.31l0,0a1.62,1.62,0,0,0,.81-.86C156.1,57.31,156,57.31,155.85,57.31Z" transform="translate(-0.08 -0.01)"/><polygon class="40c59154-33ad-449a-873b-65490e8cfe35" points="155.99 79.87 156.05 79.99 156.15 79.94 156.04 79.87 155.99 79.87"/><path class="40c59154-33ad-449a-873b-65490e8cfe35" d="M158.09,55.41c-.15,0-.41,0-.36.23s.33.25.53.25h0c.15,0,.45.15.41-.16S158.24,55.42,158.09,55.41Z" transform="translate(-0.08 -0.01)"/><path class="40c59154-33ad-449a-873b-65490e8cfe35" d="M162.29,112.41c-.18,0-.38,0-.5.21l.23.1c.21,0,.42,0,.48-.16h0C162.56,112.39,162.47,112.37,162.29,112.41Z" transform="translate(-0.08 -0.01)"/><path class="40c59154-33ad-449a-873b-65490e8cfe35" d="M162.66,102.55c-.53-.07-1,.38-1.47.38-.16,0-.35,0-.37.25s.14.3.28.4a3.48,3.48,0,0,0,2-.6v0a.2.2,0,0,1,0-.11C163.1,102.55,162.87,102.55,162.66,102.55Z" transform="translate(-0.08 -0.01)"/><path class="40c59154-33ad-449a-873b-65490e8cfe35" d="M164.89,42.78a38.18,38.18,0,0,0-.15-5.24c-.15-1.54.2-3.11-.27-4.62a.71.71,0,0,1,0-.29,10.38,10.38,0,0,0-.12-2.49,1.83,1.83,0,0,0-.5-1.12.34.34,0,0,0,.21-.24c-.09-.22-.3-.14-.41-.14s-.29,0-.29.15h-.2c-1,.09-1.78-.13-2.78,0-.75.09-1,1.82-1,2.67a31.85,31.85,0,0,1-.14,3.78,32.54,32.54,0,0,0-.16,3.27,14.77,14.77,0,0,0,0,2.66.63.63,0,0,1-.07.38,2.08,2.08,0,0,0-.17,1.23,56.58,56.58,0,0,1,.18,6.38c-.09,1.44.18,2.89.1,4.35v.88a.85.85,0,0,0-.6.47c-.06.19.31.13.31.13h.25c-.1,1.82-.25,4.61-.19,5.21a7.32,7.32,0,0,1,.11.8,50,50,0,0,0,.18,5.17,3,3,0,0,0,.47,1.65.37.37,0,0,0,.17.33,1.47,1.47,0,0,0,.61.2,3.64,3.64,0,0,0,.47.14c.7.18,2.26.7,2.9.08s.5-2.56.5-3.76c0-.51.1-1,.1-1.51a20.85,20.85,0,0,0,0-2.5h0c-.11-1.71.11-7.65.22-9.3C164.81,48.59,164.78,45.68,164.89,42.78ZM160,46a37.65,37.65,0,0,0-.15,4.25,1.22,1.22,0,0,1-.07.38,2.38,2.38,0,0,1-.06-.37v-2a28.09,28.09,0,0,0,0-3.67c0-.08.05-.25.1-.25a.16.16,0,0,1,.18.2A5.94,5.94,0,0,1,160,46Z" transform="translate(-0.08 -0.01)"/><path class="40c59154-33ad-449a-873b-65490e8cfe35" d="M166.39,85.72c0-.14-.42-.09-.73-.14s-.79-.15-.79.27.46-.06.74.15C165.83,85.72,166.29,86.19,166.39,85.72Z" transform="translate(-0.08 -0.01)"/><path class="40c59154-33ad-449a-873b-65490e8cfe35" d="M166.68,112.84c-.2,0-.52,0-.56.18s.2.07.32.07v0c.23-.17.56.09.75-.23C167.2,112.78,166.88,112.82,166.68,112.84Z" transform="translate(-0.08 -0.01)"/><path class="40c59154-33ad-449a-873b-65490e8cfe35" d="M167.71,48.8l.07,0a.69.69,0,0,0,.82-.53c.05-.16,0-.33-.19-.27-.4.13-.92.13-1.1.6v0C167.2,48.9,167.57,48.71,167.71,48.8Z" transform="translate(-0.08 -0.01)"/><path class="40c59154-33ad-449a-873b-65490e8cfe35" d="M167.4,81.09v0c.2,0,.25-.14.37-.28h0C167.6,80.88,167.4,80.88,167.4,81.09Z" transform="translate(-0.08 -0.01)"/><path class="40c59154-33ad-449a-873b-65490e8cfe35" d="M169.27,80.68c-.57,0-1.1-.47-1.57.16h.07c.4,0,.63.4.93.57v0c.3.18.57,0,.67-.3C169.43,80.94,169.5,80.68,169.27,80.68Z" transform="translate(-0.08 -0.01)"/><path class="40c59154-33ad-449a-873b-65490e8cfe35" d="M169.64,110.16c-.14,0-.28.09-.26.28a.29.29,0,0,0,.32.3v0a.32.32,0,0,0,.21-.32v-.08A.22.22,0,0,0,169.64,110.16Z" transform="translate(-0.08 -0.01)"/><path class="40c59154-33ad-449a-873b-65490e8cfe35" d="M170.37,95.8c0-.25-.15-.24-.29-.15s-.43-.12-.44.2c0,.15.17.18.33.17S170.34,96.05,170.37,95.8Z" transform="translate(-0.08 -0.01)"/><path class="40c59154-33ad-449a-873b-65490e8cfe35" d="M169.64,95.86h0Z" transform="translate(-0.08 -0.01)"/><path class="40c59154-33ad-449a-873b-65490e8cfe35" d="M171.19,111.26c-.34,0-.95-.21-.91.22s.56,0,.86,0v0c.24,0,.67,0,.67-.2S171.53,111.22,171.19,111.26Z" transform="translate(-0.08 -0.01)"/><path class="40c59154-33ad-449a-873b-65490e8cfe35" d="M171.24,110.12a.44.44,0,0,0-.38.49c0,.34.32.21.52.21.69-.15,1.44.19,2.09-.34a.57.57,0,0,1,.54,0v-.07c.79.81,1.19,0,1.66-.43a33.48,33.48,0,0,1-4.25.15A.47.47,0,0,0,171.24,110.12Z" transform="translate(-0.08 -0.01)"/><path class="40c59154-33ad-449a-873b-65490e8cfe35" d="M175.75,110c.05,0,.09,0,.09,0Z" transform="translate(-0.08 -0.01)"/><path class="40c59154-33ad-449a-873b-65490e8cfe35" d="M175.67,110l.08,0s-.06,0-.08,0Z" transform="translate(-0.08 -0.01)"/><path class="40c59154-33ad-449a-873b-65490e8cfe35" d="M177.3,75.42c-.77,0-1.48.49-2.27.34-.05,0-.18,0-.16.12s.15.16.25.16a13.12,13.12,0,0,1,2.08.11v-.07c.38.09,1,.58,1.1-.13S177.66,75.61,177.3,75.42Z" transform="translate(-0.08 -0.01)"/><path class="40c59154-33ad-449a-873b-65490e8cfe35" d="M182.08,29c-.66,0-.85.25-.91.87a39.58,39.58,0,0,0-.32,6.06,21.43,21.43,0,0,1,.07,2.66c-.12,1.46.12,5,.12,7.29l-1.31.76a.64.64,0,0,0-.1.13l.18.12a11.48,11.48,0,0,0,1.24-.56v1.17c-.08,1.44.16,3,0,4.44-.06.06,0,.15-.06.17a.16.16,0,0,1-.18-.16,2.26,2.26,0,0,1-.11-.37c-.59-2.17-1.87-8.66-2.47-10.83-.75-2.61-1.23-4.33-1.75-7-.28-1.21-.64-2.92-1-4.1a1.25,1.25,0,0,0-1-.86c-.86-.25-1.54.22-2.28.36a1,1,0,0,0-.77.87h0a.13.13,0,0,0-.12.14.18.18,0,0,0,.07.15h.08c0,1.14.07,2.63.13,3.7.12,2,0,4,0,6,0,.9-.34,1.74-.34,2.64.09,2.12-.13,4.24,0,6.36.07,1.13-.19,2.27-.19,3.41,0,1.36-.21,2.7-.15,4.07,0,1.11,0,2.22-.08,3.33.09,1-.07,7.75-.12,8.64a3,3,0,0,0,.28,1.48c.18.39.68.28,1,.46l.17.09a3.09,3.09,0,0,0,2.57-.2.74.74,0,0,0,.44-.77c0-1.61.08-9,.14-10.75s-.09-3.42-.09-5.12A29.12,29.12,0,0,0,175,48a1.93,1.93,0,0,1,0-.48c0-.25,0-.64.21-.67s.24.36.29.6c.35,1.48.8,2.85,1.2,4.4s.95,3,1.3,4.55c.47,2.06,1.59,13,2.18,15v0a2.34,2.34,0,0,0,2.86,1.66A3.64,3.64,0,0,1,184,73l.13-.13c.49-2.56.31-5.36.49-7.9.19-2.78.1-5.69.33-8.51,0-5.18.31-10.39.63-15.59a34,34,0,0,1,.22-3.63v-.07c.14-2.57.25-5.17.43-7.69-.29-.1-.66,0-.91-.17C184.28,28.62,183.17,29,182.08,29ZM171.46,59.16c-.07.07-.14-.07-.14-.17a.54.54,0,0,1,0-.18c.08-.15,0-.36.22-.44,0,0,.13.13.13.13A.81.81,0,0,1,171.46,59.16ZM175,42.65s.12-.06.12,0a1.07,1.07,0,0,1,.09.56A1.13,1.13,0,0,1,175,42.65Zm1.41,1.21a.93.93,0,0,1-.18-.58.5.5,0,0,1,.28.51A.11.11,0,0,1,176.36,43.86Zm2.35,6.86s.06,0,.07,0a1.13,1.13,0,0,1,.23.85A.78.78,0,0,1,178.71,50.72Zm2.76-17.14c.07-.1.08-.34.2-.31s.12.26.12.42,0,.34-.16.3A.32.32,0,0,1,181.47,33.58Zm.26,10s.05-.16.12-.11a.15.15,0,0,1,.07.15c0,.43,0,.85,0,1.27C181.55,44.49,181.73,44,181.73,43.59Zm.22,1.95c0,.08-.14.07-.14,0a.58.58,0,0,1,.06-.62A1,1,0,0,1,182,45.54Zm.7-4.31v.38a.18.18,0,0,1-.15.08c-.13,0-.06-.14-.06-.23.05-.24.1-.48.16-.72C182.78,40.88,182.65,41.09,182.65,41.23Zm1.13,11.05c-.23,0-.18-.2-.15-.34s0-.35.09-.35.14.38.16.47S184,52.31,183.78,52.28Z" transform="translate(-0.08 -0.01)"/><path class="40c59154-33ad-449a-873b-65490e8cfe35" d="M188.28,77a1.2,1.2,0,0,0-.29.26.11.11,0,0,0,.1.18v-.07a.42.42,0,0,0,.34-.25.12.12,0,0,0,0-.1A.11.11,0,0,0,188.28,77Z" transform="translate(-0.08 -0.01)"/><path class="40c59154-33ad-449a-873b-65490e8cfe35" d="M196.93,22.67c.35-.06.71-.11.81-.58,0-.18-.13-.31-.26-.23v-.07c-.33.21-.8.21-1,.74C196.47,22.67,196.77,22.67,196.93,22.67Z" transform="translate(-0.08 -0.01)"/><path class="40c59154-33ad-449a-873b-65490e8cfe35" d="M191.09,108.29c-.16,0-.37.09-.39.23s.13.14.3.14.28,0,.35-.19S191.25,108.28,191.09,108.29Z" transform="translate(-0.08 -0.01)"/><path class="40c59154-33ad-449a-873b-65490e8cfe35" d="M201.92,113.64a1,1,0,0,0-.29.4c0,.17.09.17.2.17h0a.45.45,0,0,0,.28-.44C202.12,113.64,202,113.54,201.92,113.64Z" transform="translate(-0.08 -0.01)"/><path class="40c59154-33ad-449a-873b-65490e8cfe35" d="M202.74,72c-1.63-.86-3.42-1.25-5.07-2-1.3-.59-1.07-1.33-1.07-2.79.08-2.58.2-5.17.3-7.74,0-1,.18-1.71,1.26-1.8a4.58,4.58,0,0,1,1.17,0h1.8a1.7,1.7,0,0,0,.44-.24c.43-.28.92-.69.86-1.28a9.6,9.6,0,0,1,0-1.61,2.39,2.39,0,0,0-.18-1.21c-.09-.2-.19-.43-.43-.43l.45-.23c0-.26,0-.32-.21-.2s-.39.25-.58.38a10.62,10.62,0,0,0-3.23-.2c-.9.16-1,.1-1.1-.9a7.11,7.11,0,0,1-.2-1.12c.09-1.66,0-11.66.21-13.29a3.91,3.91,0,0,0,.09-1.32.43.43,0,0,1,0-.11.64.64,0,0,1,.57-.72,17,17,0,0,1,3.53-.72,2,2,0,0,0,2-1.91c.05-.57.09-1.14.17-1.7a2.12,2.12,0,0,0,0-.71h0a.19.19,0,0,0,.16-.22.22.22,0,0,0-.25-.25v0a.76.76,0,0,0-.85-.66,42.87,42.87,0,0,0-5.55-.24c-1.33.11-2.52,0-3.93,0a3.21,3.21,0,0,0-.75.21c-.49.79-.31,2.47-.49,3.39a.35.35,0,0,1-.06.14c0,.92.06,1.84,0,2.75v.06a11,11,0,0,1,0,2.92c0,.21,0,.41,0,.62-.09,1.42-.2,9.19-.33,10.61a22.23,22.23,0,0,0-.21,4.54.61.61,0,0,1,0,.19A40.34,40.34,0,0,0,191,59.7a1.86,1.86,0,0,1-.07.57c-.4,1.53-.18,8.3-.18,9.69a13.38,13.38,0,0,1,0,1.68,8.66,8.66,0,0,1,0,1.61c-.12,1.15.82,2,2,2.46,2.64.64,5.11,1.83,7.75,2.46a9.67,9.67,0,0,0,2.34-.21,4.51,4.51,0,0,0,.55-.52h0a27.28,27.28,0,0,0,.73-3.46,3.59,3.59,0,0,0-.59-1.51Zm-1.81-16.71h.18a.65.65,0,0,1,.41.65c0,.18-.06.33-.25.37s-.27-.1-.27-.27a.61.61,0,0,1,0-.19C201.08,55.67,200.68,55.53,200.93,55.32Zm-1.83,1.57c.09,0,.24,0,.24.07-.08.25-.33.07-.47.15s-.31.08-.4-.1ZM202,31.22c.12-.22.13-.55.47-.6.06,0,.06.07.06.07,0,.4-.22.55-.53.61Zm-2.95-1a1.15,1.15,0,0,1,1-.21,1.2,1.2,0,0,1-1,.3Zm-7,37.31a3.7,3.7,0,0,0,0,.94,1.91,1.91,0,0,1-.1.34,2.33,2.33,0,0,1-.08-.36,2.41,2.41,0,0,1,0-.38c0-.19,0-.44,0-.56s0-.3.16-.3S192.05,67.41,192,67.52Zm4.26,5.86c-.11.14-.24.09-.4.07s-.22-.18-.16-.25.21,0,.33,0S196.39,73.24,196.28,73.38Zm-.36-14.32c-.2-.44.12-.84.12-1.26,0-.11,0-.28.17-.28s.14.22.17.39C196.19,58.26,196.32,58.76,195.92,59.06Zm5.75,18.4a3.69,3.69,0,0,1-.47,0l-.37.08c-.06,0-.13,0-.18,0s0-.13.06-.13c.34-.12.4-.68.91-.56.16,0,.38-.06.4.25v0A.34.34,0,0,1,201.67,77.46Z" transform="translate(-0.08 -0.01)"/><path class="40c59154-33ad-449a-873b-65490e8cfe35" d="M216.89,98a2.29,2.29,0,0,0,0,.37c.08.31-.06.93.38.77.18,0,.83-.65.63-1-.54-.94-.12-1.74.07-2.58a1.21,1.21,0,0,0-.29-1h0c-.15-.24-.43-.16-.39.07C217.48,95.8,216.89,96.81,216.89,98Z" transform="translate(-0.08 -0.01)"/><path class="40c59154-33ad-449a-873b-65490e8cfe35" d="M210.34,88.25c.08-.06.28-.13.28-.25.36-1,1.19-1.66,1.67-2.59a1.23,1.23,0,0,0,.14-.42c0-.14-.05-.35-.11-.37s-.23.1-.23.19a16.57,16.57,0,0,1-1.74,2.57,2.38,2.38,0,0,0-.28.55h0C210.05,88.13,210.1,88.29,210.34,88.25Z" transform="translate(-0.08 -0.01)"/><path class="40c59154-33ad-449a-873b-65490e8cfe35" d="M208.41,34a.48.48,0,0,0,.49-.29.28.28,0,0,0-.24-.28.32.32,0,0,0-.38.24h0C208.26,33.79,208.27,34,208.41,34Z" transform="translate(-0.08 -0.01)"/><polygon class="40c59154-33ad-449a-873b-65490e8cfe35" points="208.6 73.37 208.48 73.3 208.54 73.44 208.6 73.37"/><path class="40c59154-33ad-449a-873b-65490e8cfe35" d="M208.47,72.94c-.18.17-.09.28.08.36l.12-.36C208.6,72.94,208.65,72.77,208.47,72.94Z" transform="translate(-0.08 -0.01)"/><path class="40c59154-33ad-449a-873b-65490e8cfe35" d="M207.69,111c-.31.11-.61.28-.89.41s-.67.2-.51.67.52.12.75,0h0c.37-.18.85-.23,1-.77C208.06,111,208,110.9,207.69,111Z" transform="translate(-0.08 -0.01)"/><path class="40c59154-33ad-449a-873b-65490e8cfe35" d="M207.64,94.48a.7.7,0,0,0,.11-.23s-.14-.15-.14-.15h-.08a.16.16,0,0,0-.1.19h0C207.48,94.35,207.57,94.39,207.64,94.48Z" transform="translate(-0.08 -0.01)"/><path class="40c59154-33ad-449a-873b-65490e8cfe35" d="M207.62,91.42c-.42,0-.92.06-1.11.53-.12.28.27.28.47.28.45-.07,1-.07,1.26-.55h0C208.4,91.41,207.87,91.42,207.62,91.42Z" transform="translate(-0.08 -0.01)"/><path class="40c59154-33ad-449a-873b-65490e8cfe35" d="M207.61,91.11c.11,0,.29,0,.29-.28h0a.31.31,0,0,0-.33-.29h0a.31.31,0,0,0-.31.31h0A.28.28,0,0,0,207.61,91.11Z" transform="translate(-0.08 -0.01)"/><path class="40c59154-33ad-449a-873b-65490e8cfe35" d="M208.38,75.11a2,2,0,0,0-.83.68c-.09.18-.21.58-.42,0-.13-.38-.57,0-.77.22s-.54.36-.43.77a.35.35,0,0,0,0,.08.22.22,0,0,0,.3,0c.33-.32.54-.34.64.22,0,.09.21.15.28.2.85-.16,1.22-.9,1.7-1.48h0c.16-.2.39-.48.19-.76S208.61,75,208.38,75.11Z" transform="translate(-0.08 -0.01)"/><path class="40c59154-33ad-449a-873b-65490e8cfe35" d="M211.11,107c-.5.1-1.4,0-1.4.69,0,.49.72.86,1.29,1,.4-.14.92-.18.92-.69S211.61,106.9,211.11,107Z" transform="translate(-0.08 -0.01)"/><path class="40c59154-33ad-449a-873b-65490e8cfe35" d="M211.89,104.15a.56.56,0,0,0-.29.56c0,.21.12.27.27.21h0a.44.44,0,0,0,.23-.49C212.11,104.27,212.06,104.15,211.89,104.15Z" transform="translate(-0.08 -0.01)"/><path class="40c59154-33ad-449a-873b-65490e8cfe35" d="M213.16,115.49a1,1,0,0,0-.88.76c0,.2.13.34.38.34a1.33,1.33,0,0,0,.71-.81h0A.21.21,0,0,0,213.16,115.49Z" transform="translate(-0.08 -0.01)"/><path class="40c59154-33ad-449a-873b-65490e8cfe35" d="M214.76,31.77c-.14-.05-.14.14-.14.26.12.41.25.82.38,1.23.22-.11.18-.26.14-.49S215.16,32,214.76,31.77Z" transform="translate(-0.08 -0.01)"/><path class="40c59154-33ad-449a-873b-65490e8cfe35" d="M216.53,41.75c0-.15-.05-.15-.15-.15a.42.42,0,0,0-.28.4s.05.12.15.17A.62.62,0,0,0,216.53,41.75Z" transform="translate(-0.08 -0.01)"/><path class="40c59154-33ad-449a-873b-65490e8cfe35" d="M217.32,89.84v-.31c0-.26.07-.63-.23-.67s-.41.32-.41.57a6.24,6.24,0,0,1-.29,1.49.37.37,0,0,0,.11.48v-.05c.18.1.31,0,.45-.11A2,2,0,0,0,217.32,89.84Z" transform="translate(-0.08 -0.01)"/><path class="40c59154-33ad-449a-873b-65490e8cfe35" d="M217.3,100.08a.85.85,0,0,0-.22.09,2.44,2.44,0,0,0,.11,2.33c.15.07.15,0,.15-.1v-.1a6.72,6.72,0,0,0,.48-1.22A.86.86,0,0,0,217.3,100.08Z" transform="translate(-0.08 -0.01)"/><path class="40c59154-33ad-449a-873b-65490e8cfe35" d="M218,111.12c0-.22,0-.64-.2-.59s-.2.44-.2.69v-.1c0,.18-.11.56.17.55S218.05,111.34,218,111.12Z" transform="translate(-0.08 -0.01)"/><path class="40c59154-33ad-449a-873b-65490e8cfe35" d="M218.14,117.85c-.2,0-.21.16-.2.31s.05.31.22.31v-.1c.13,0,.18,0,.17-.17S218.34,117.88,218.14,117.85Z" transform="translate(-0.08 -0.01)"/><path class="40c59154-33ad-449a-873b-65490e8cfe35" d="M218.06,81.87c-.19,0-.19.25-.19.43a8.43,8.43,0,0,1,0,1.74c0,.44,0,.74,0,.86s0,.27.16.27h.06a.18.18,0,0,0,.13-.23v-.1c-.09-.89.35-1.77.09-2.56C218.26,82.1,218.25,81.86,218.06,81.87Z" transform="translate(-0.08 -0.01)"/><path class="40c59154-33ad-449a-873b-65490e8cfe35" d="M218.27,42.62A.47.47,0,0,0,218,43c0,.12,0,.27.11.27v-.1a.32.32,0,0,0,.36-.3C218.42,42.74,218.41,42.62,218.27,42.62Z" transform="translate(-0.08 -0.01)"/><path class="40c59154-33ad-449a-873b-65490e8cfe35" d="M218.69,36.54c0-.29.22-.58-.12-.78h0a.35.35,0,0,0-.48.13.71.71,0,0,0,0,.83c.13.19.35.4.19.63-.73,1.13.07,2.47-.43,3.62,0,.32,0,.69.38.69v-.1c.36.06.61,0,.6-.48s-.12-.9-.12-1.34A15.46,15.46,0,0,1,218.69,36.54Z" transform="translate(-0.08 -0.01)"/><path class="40c59154-33ad-449a-873b-65490e8cfe35" d="M219.21,8.9c-.22-.09-.36.06-.45.27a6,6,0,0,0-.35,1.09A17.77,17.77,0,0,1,218,13c-.07.16-.22.34,0,.49s.31-.11.42-.27c.73-1.1.54-2.54,1.07-3.66v-.1C219.52,9.11,219.43,9,219.21,8.9Z" transform="translate(-0.08 -0.01)"/><path class="40c59154-33ad-449a-873b-65490e8cfe35" d="M220.88,73.19c.24-.06.32-.39.31-.54s0-.33-.21-.26a.58.58,0,0,0-.34.55v-.1C220.63,73,220.64,73.25,220.88,73.19Z" transform="translate(-0.08 -0.01)"/><path class="40c59154-33ad-449a-873b-65490e8cfe35" d="M221.05,76.6c-.25,0,0,.38-.1.5s-.13.39,0,.39l.05-.1c.18,0,.18-.15.16-.32S221.3,76.58,221.05,76.6Z" transform="translate(-0.08 -0.01)"/><path class="40c59154-33ad-449a-873b-65490e8cfe35" d="M221,75.34h0a.25.25,0,0,0-.28.21.25.25,0,0,0,.27.33l.05-.1a.22.22,0,1,0,0-.44Z" transform="translate(-0.08 -0.01)"/><path class="40c59154-33ad-449a-873b-65490e8cfe35" d="M221.2,68.61c-.15,0-.16.15-.15.26a1.37,1.37,0,0,0,.1.31c.17,0,.12-.2.17-.3l0,0C221.37,68.71,221.35,68.61,221.2,68.61Z" transform="translate(-0.08 -0.01)"/><path class="40c59154-33ad-449a-873b-65490e8cfe35" d="M221.29,49.37c-.3,0-.44.41-.44.55v.44c-.06,1,.63,1.78.27,2.78,0,.1.07.28.18.21a.49.49,0,0,0,.2-.35,15.17,15.17,0,0,1,.13-2.43,4,4,0,0,1-.09-.62C221.49,49.73,221.59,49.39,221.29,49.37Z" transform="translate(-0.08 -0.01)"/><path class="40c59154-33ad-449a-873b-65490e8cfe35" d="M221.68,28.05c-.17-.41-.27-.85-.4-1.28,0-.1,0-.27-.14-.29s-.18.19-.18.32c-.15.44-.15.47-.28.3s0-.83-.43-.43A1.37,1.37,0,0,0,220,28c.06.18.2.37.36.27.71-.45.51.15.51.55a4.73,4.73,0,0,0,.15,2.39c.14.33.26.73-.3.88s-.48.72-.56,1.15a2.42,2.42,0,0,0,.5,1.44c.28.38.72.42.79-.11.16-1.21.57-2.46-.12-3.67l0,0a1.13,1.13,0,0,1,.21-1.58v0A1,1,0,0,0,221.68,28.05Z" transform="translate(-0.08 -0.01)"/><path class="40c59154-33ad-449a-873b-65490e8cfe35" d="M221.49,4.56c-.06,0-.12-.16-.2-.11s-.08.2-.08.31a5.18,5.18,0,0,1,0,2c0,.31-.05.69.31.7s.23-.4.23-.64a2.37,2.37,0,0,1,.08-1.32v0C222,5.13,221.74,4.86,221.49,4.56Z" transform="translate(-0.08 -0.01)"/></svg>