<svg id="988e7195-ec5d-4420-bc74-4db925df87c5" data-name="Layer 1" xmlns="http://www.w3.org/2000/svg" viewBox="0 0 224.48 128.32"><defs><style>.d1f77bdc-6e01-43dd-a037-d4c4e5c136bd{fill:#f0553c;}</style></defs><title>logo-tab</title><polygon class="d1f77bdc-6e01-43dd-a037-d4c4e5c136bd" points="42.83 47.68 42.8 47.74 42.85 47.74 42.83 47.68"/><path class="d1f77bdc-6e01-43dd-a037-d4c4e5c136bd" d="M40.37,70.63s-.07.07-.1.12.1.08.14.08.13,0,.13-.09S40.45,70.61,40.37,70.63Z"/><polygon class="d1f77bdc-6e01-43dd-a037-d4c4e5c136bd" points="40.65 49.1 40.68 49.04 40.63 49.03 40.65 49.1"/><path class="d1f77bdc-6e01-43dd-a037-d4c4e5c136bd" d="M21.24,63.59a.32.32,0,0,0,0,.17c.06.2-.09.44.1.62.15-.22.05-.43,0-.63A.48.48,0,0,0,21.24,63.59Z"/><path class="d1f77bdc-6e01-43dd-a037-d4c4e5c136bd" d="M21.35,63.2a.12.12,0,0,0,0-.08c0,.06-.05.11-.07.17Z"/><path class="d1f77bdc-6e01-43dd-a037-d4c4e5c136bd" d="M42.76,55.39s0,0,0,.08l0-.08a.22.22,0,0,0,0-.09C42.77,55.27,42.74,55.3,42.76,55.39Z"/><path class="d1f77bdc-6e01-43dd-a037-d4c4e5c136bd" d="M21.32,61.79a1.52,1.52,0,0,0,0-.82.7.7,0,0,0-.09-.17l0,.07a.74.74,0,0,0,0,.89A.19.19,0,0,0,21.32,61.79Z"/><polygon class="d1f77bdc-6e01-43dd-a037-d4c4e5c136bd" points="42.63 42.95 42.59 43.02 42.65 43.03 42.63 42.95"/><polygon class="d1f77bdc-6e01-43dd-a037-d4c4e5c136bd" points="43.78 66.44 43.84 66.41 43.76 66.38 43.78 66.44"/><polygon class="d1f77bdc-6e01-43dd-a037-d4c4e5c136bd" points="4.9 35.56 4.94 35.51 4.89 35.5 4.9 35.56"/><path class="d1f77bdc-6e01-43dd-a037-d4c4e5c136bd" d="M21.44,72.61a.82.82,0,0,0,.06.26c0-.05.07-.1.07-.15s0-1.5,0-1.61C21.52,71.19,21.44,72.56,21.44,72.61Z"/><path class="d1f77bdc-6e01-43dd-a037-d4c4e5c136bd" d="M42.72,53.91c-.1,0-.08.14,0,.22a3.4,3.4,0,0,0,.12.34l.06-.23C42.82,54.09,42.88,53.92,42.72,53.91Z"/><path class="d1f77bdc-6e01-43dd-a037-d4c4e5c136bd" d="M27,33.66c-.75-.24-.91-.14-1,.67-.24,2.41-.08,4.82-.14,7.24,0,.36-.13,12.11-.08,12.47.08.7.55.93,1.15.58a1.84,1.84,0,0,0,.73-.87c.75-1.58,1-14.66,1.1-16.35a5.44,5.44,0,0,1,0-1A2.76,2.76,0,0,0,27,33.66Z"/><path class="d1f77bdc-6e01-43dd-a037-d4c4e5c136bd" d="M29.18,41.45s0,0,0-.06l-.07.09Z"/><path class="d1f77bdc-6e01-43dd-a037-d4c4e5c136bd" d="M29.59,38.56a5,5,0,0,1-.07.56c0,.26-.1.51-.15.77s-.13.41,0,.44.14-.25.18-.4.09-.51.12-.71S29.78,38.73,29.59,38.56Z"/><path class="d1f77bdc-6e01-43dd-a037-d4c4e5c136bd" d="M32.84,34.16l-.05,0,.05.09Z"/><path class="d1f77bdc-6e01-43dd-a037-d4c4e5c136bd" d="M21.49,70s0,.06,0,.09,0,.11.09.06,0,0,0-.08S21.54,69.94,21.49,70Z"/><path class="d1f77bdc-6e01-43dd-a037-d4c4e5c136bd" d="M33.12,34.73a.57.57,0,0,0-.26-.48,20.49,20.49,0,0,0,.4,3.31l0,.18c.14,0,.08-.12.11-.19a1.37,1.37,0,0,0,.08-1A5,5,0,0,1,33.12,34.73Z"/><polygon class="d1f77bdc-6e01-43dd-a037-d4c4e5c136bd" points="24.85 74.08 24.88 74.02 24.84 74.01 24.85 74.08"/><path class="d1f77bdc-6e01-43dd-a037-d4c4e5c136bd" d="M31.89,56.23c0,.08.08.13.11.08a1.48,1.48,0,0,0,.1-.39c0-.06,0-.14,0-.13A2.14,2.14,0,0,0,31.89,56.23Z"/><path class="d1f77bdc-6e01-43dd-a037-d4c4e5c136bd" d="M31.36,57.25c-.34.44-.67.89-1,1.34.61-.22.81-.85,1.23-1.26,0,0,0-.15,0-.17S31.42,57.18,31.36,57.25Z"/><path class="d1f77bdc-6e01-43dd-a037-d4c4e5c136bd" d="M25.16,59.29s0,.13,0,.16a1.69,1.69,0,0,0,.94-.38s-.08-.14-.09-.13C25.75,59.05,25.41,59.05,25.16,59.29Z"/><path class="d1f77bdc-6e01-43dd-a037-d4c4e5c136bd" d="M25.11,34.5l-.06-.13a.45.45,0,0,0-.13.1c-.05.07,0,.12,0,.12S25.06,34.53,25.11,34.5Z"/><polygon class="d1f77bdc-6e01-43dd-a037-d4c4e5c136bd" points="23.34 32.77 23.4 32.76 23.35 32.72 23.34 32.77"/><polygon class="d1f77bdc-6e01-43dd-a037-d4c4e5c136bd" points="22.22 30.22 22.23 30.16 22.14 30.18 22.22 30.22"/><path class="d1f77bdc-6e01-43dd-a037-d4c4e5c136bd" d="M23,34.69c-.1,0-.12.13-.11.22s0,.38.11.43.1-.15.14-.25S23.24,34.74,23,34.69Z"/><path class="d1f77bdc-6e01-43dd-a037-d4c4e5c136bd" d="M25.3,55.91a.22.22,0,0,0,.32,0,1.54,1.54,0,0,0-.17-.19,1,1,0,0,0-.24-.07A.46.46,0,0,0,25.3,55.91Z"/><path class="d1f77bdc-6e01-43dd-a037-d4c4e5c136bd" d="M23.45,71.14s0,1.42,0,1.46.07-1.51.07-1.6,0-.1-.05-.18A2.55,2.55,0,0,0,23.45,71.14Z"/><path class="d1f77bdc-6e01-43dd-a037-d4c4e5c136bd" d="M24.11,31.7c-.1,0-.18.08-.15.19a.14.14,0,0,0,.22.09.62.62,0,0,0,.18-.18A.17.17,0,0,0,24.11,31.7Z"/><path class="d1f77bdc-6e01-43dd-a037-d4c4e5c136bd" d="M175.07,42.65c0-.06-.13,0-.12,0a1.13,1.13,0,0,0,.21.56A1,1,0,0,0,175.07,42.65Z"/><path class="d1f77bdc-6e01-43dd-a037-d4c4e5c136bd" d="M117,84.56a19.64,19.64,0,0,0-.49-2.25c-.05-.09-.07-.23-.21-.2s-.08.14-.09.21c-.18.93-.37,3.4-.54,4.32-.08.38.16.42.44.4,1,0,1.34-.07,1.11-1C117.14,85.61,117.1,85,117,84.56Z"/><path class="d1f77bdc-6e01-43dd-a037-d4c4e5c136bd" d="M150.39,45.77c-.18,0-.17.15-.21.25a.52.52,0,0,0,0,.28c0,.32-.13.67.15,1,.2-.28.12-.61.16-1,0,0,0-.1,0-.2S150.42,45.77,150.39,45.77Z"/><path class="d1f77bdc-6e01-43dd-a037-d4c4e5c136bd" d="M178.71,50.72a.78.78,0,0,0,.3.8c0-.29,0-.62-.23-.85C178.77,50.67,178.71,50.7,178.71,50.72Z"/><path class="d1f77bdc-6e01-43dd-a037-d4c4e5c136bd" d="M149.39,63.9c-.17,0-.5.31-.47.51s.2.21.36.25.31-.25.31-.47A.28.28,0,0,0,149.39,63.9Z"/><path class="d1f77bdc-6e01-43dd-a037-d4c4e5c136bd" d="M176.18,43.28a.93.93,0,0,0,.18.58s.08,0,.1-.07A.5.5,0,0,0,176.18,43.28Z"/><path class="d1f77bdc-6e01-43dd-a037-d4c4e5c136bd" d="M159.86,44.32c-.05,0-.11.17-.1.25a26.45,26.45,0,0,1,0,3.67c0,.68,0,1.36,0,2a2.58,2.58,0,0,0,.06.37,1.27,1.27,0,0,0,.07-.38,38.48,38.48,0,0,1,.15-4.25,6.46,6.46,0,0,0,0-1.46C160.06,44.43,160,44.3,159.86,44.32Z"/><path class="d1f77bdc-6e01-43dd-a037-d4c4e5c136bd" d="M171.54,58.37c-.2.08-.14.29-.22.44a.58.58,0,0,0,0,.18c0,.1.07.24.14.17a.81.81,0,0,0,.21-.66S171.55,58.36,171.54,58.37Z"/><path class="d1f77bdc-6e01-43dd-a037-d4c4e5c136bd" d="M136.19,55.83c0,.16,0,.41.13.42s.14-.22.15-.36c.05-.65.09-1.29.13-1.93A3.56,3.56,0,0,0,136.19,55.83Z"/><polygon class="d1f77bdc-6e01-43dd-a037-d4c4e5c136bd" points="107.86 46.38 107.91 46.35 107.86 46.33 107.86 46.38"/><polygon class="d1f77bdc-6e01-43dd-a037-d4c4e5c136bd" points="111.94 50.8 112 50.76 111.93 50.72 111.94 50.8"/><path class="d1f77bdc-6e01-43dd-a037-d4c4e5c136bd" d="M109.66,32.92a.16.16,0,0,0,.16-.18.29.29,0,0,0-.27-.21c-.1,0-.18,0-.15.17A.27.27,0,0,0,109.66,32.92Z"/><path class="d1f77bdc-6e01-43dd-a037-d4c4e5c136bd" d="M108.68,48.75c0,.07,0,.11.07.08s0,0,0-.07l0-.07Z"/><path class="d1f77bdc-6e01-43dd-a037-d4c4e5c136bd" d="M110.76,39.88a6.34,6.34,0,0,1,0-.77,10.59,10.59,0,0,0-.35-3.31,2.24,2.24,0,0,0-1.34-1.55c-1-.5-1-.51-1,.68,0,.32-.11.65-.08,1a39,39,0,0,1-.16,4.59,10.2,10.2,0,0,0,.28,3.21c.17.54.31.61.78.3a2.57,2.57,0,0,0,.54-.5C110.23,42.44,111,41.37,110.76,39.88Zm-1.26,2.17c-.09,0-.19-.1-.13-.16a1.13,1.13,0,0,1,.42-.22c.08,0,.15,0,.12.16A.46.46,0,0,1,109.5,42.05Z"/><path class="d1f77bdc-6e01-43dd-a037-d4c4e5c136bd" d="M111.88,33a.83.83,0,0,0-.08.12l0,0,.09-.12Z"/><path class="d1f77bdc-6e01-43dd-a037-d4c4e5c136bd" d="M110.67,46.56c.07,0,.19,0,.13-.16Z"/><path class="d1f77bdc-6e01-43dd-a037-d4c4e5c136bd" d="M106.94,34.12s-.11.15-.11.23,0,.43.22.48.09-.17.13-.27S107.19,34.15,106.94,34.12Z"/><path class="d1f77bdc-6e01-43dd-a037-d4c4e5c136bd" d="M192,67.2c-.15,0-.15.18-.16.3s0,.37,0,.56h0a1.61,1.61,0,0,0,0,.38,2.33,2.33,0,0,0,.08.36,1.91,1.91,0,0,0,.1-.34,3.71,3.71,0,0,1,0-.94C192.05,67.41,192.14,67.23,192,67.2Z"/><path class="d1f77bdc-6e01-43dd-a037-d4c4e5c136bd" d="M200,30a1.14,1.14,0,0,0-1,.21s0,.08,0,.09C199.45,30.41,199.72,30.17,200,30Z"/><path class="d1f77bdc-6e01-43dd-a037-d4c4e5c136bd" d="M202.48,30.69s0-.07-.06-.07c-.34.05-.35.38-.47.6a.24.24,0,0,0,0,.08C202.26,31.24,202.5,31.09,202.48,30.69Z"/><path class="d1f77bdc-6e01-43dd-a037-d4c4e5c136bd" d="M196.05,73.2c-.12,0-.27-.07-.33,0s0,.23.16.25.29.07.4-.07S196.16,73.23,196.05,73.2Z"/><path class="d1f77bdc-6e01-43dd-a037-d4c4e5c136bd" d="M224.12,16.1a17.81,17.81,0,0,0,.29-4,4.55,4.55,0,0,1-.15-1.78c.46-1.4.07-2.7-.13-4.06-.12-.84-.13-1.73-.27-2.59a.72.72,0,0,1,.11-.42c.4-.78.26-1.52-.46-1.63a7.82,7.82,0,0,0-2.38-.32,11.11,11.11,0,0,1-2.7.1,29.43,29.43,0,0,0-3.73-.2A54.54,54.54,0,0,1,208.18,1a10.3,10.3,0,0,0-2.07.14A6.1,6.1,0,0,1,203.2,1,1.85,1.85,0,0,0,201.88.9a6,6,0,0,1-1.68.21c-.84.06-1.63-.32-2.48-.3-.64,0-1.37.38-1.9.11-1-.5-2,.3-3-.3a10.6,10.6,0,0,0-1.38-.46c-.24-.09-.56-.29-.68,0-.4.84-1,.46-1.61.47A4.88,4.88,0,0,1,187.9.46c-.94-.27-1.89.2-2.79-.14a3.11,3.11,0,0,0-2.38,0,5.83,5.83,0,0,1-2.07.33c-1.56.07-3.13-.1-4.7,0a32.77,32.77,0,0,1-5.67-.34A60.18,60.18,0,0,0,159.72.22c-2.07.13-4.12.36-6.19.4-1.11,0-2.32-.83-3.37.23,0,0-.11,0-.16,0-1.23-.23-2.43.52-3.68,0-.35-.13-.83.21-1.25.18a9,9,0,0,0-2.79.22,18.51,18.51,0,0,1-3.48.29c-1.32.11-2.68-.06-4,0-3,.09-5.93.05-8.89.16s-6-.5-8.94.11a9,9,0,0,1-2.37.06c-1-.07-2.09-.1-3.14-.15-2.12-.1-4.23.36-6.38.08s-4.28-.52-6.27.74c-.06,0-.16,0-.23,0-1-.34-2-1.27-3.18-.37,0,0-.15,0-.23,0C93.5,2,91.87,1.39,90.2,2c-.16.06-.36-.08-.55-.09-.87-.05-1.78-.85-2.57-.33a2.18,2.18,0,0,1-1.89.09c-1.76-.38-3.56,0-5.3-.47-.6-.16-1.19.28-1.76-.1a1.41,1.41,0,0,0-1.82.09.66.66,0,0,1-.81.13C74.32.64,73.08.94,71.86,1c-1,.06-2.07.2-3.11.32s-2.19-.61-3.29.05c-.12.07-.31,0-.48,0a13.9,13.9,0,0,0-2.49-.12c-1.88.24-3.81-.21-5.64.55a.49.49,0,0,1-.38-.08,3.05,3.05,0,0,0-2.21-.21,10.42,10.42,0,0,1-3.43.12,24,24,0,0,0-5.16.32c-1.09.13-2.2.22-3.29.4-.46.08-.8-.35-1.26-.23a25.44,25.44,0,0,1-4,.48,33.71,33.71,0,0,0-4,.17,4.35,4.35,0,0,1-2.39-.1,1.62,1.62,0,0,0-1.5.17c-.81.59-1.66.18-2.48.2-1.12,0-2.23,0-3.36,0-1.63.09-3.22.81-4.92.2a10.38,10.38,0,0,0-2.8-.12c-1.44-.06-2.88.09-4.33,0C10.22,3,9,2.67,7.91,3.15c-1.52.66-3.07.16-4.6.2a5.49,5.49,0,0,0-1.91.49A.61.61,0,0,0,1.33,5a.78.78,0,0,1,.4.8,25.54,25.54,0,0,0-.11,4.55,25.19,25.19,0,0,1,0,3.68c-.09,1.24.21,2.44.16,3.68s.12,2.78,0,4.13a37.55,37.55,0,0,1-.19,4.86,3.61,3.61,0,0,0,.19,1.69,3.44,3.44,0,0,1,0,1.32,25.28,25.28,0,0,0-.44,5.49c.14,1.56-.28,3.18.39,4.69a.65.65,0,0,1-.06.35,9,9,0,0,0-.37,3.12c-.05,1.89.12,3.79-.06,5.69a1.88,1.88,0,0,0,.3,1.2c.11.17.31.33.25.54-.28,1-.16,2.14-.37,3.17a3.66,3.66,0,0,0,.06,2.29,1.22,1.22,0,0,1,.06.88,21,21,0,0,0-.43,5.48A30.79,30.79,0,0,1,1,66.07c-.3,2.23,0,4.45-.19,6.68C.67,74.16.63,75.63.65,77.09c0,2.21.15,4.42.13,6.64S1,88.31.86,90.61c0,.23-.14.52.17.61.48.14.37.46.18.75A2.32,2.32,0,0,0,1,93.36c.1,2.66-.21,5.3-.22,8a23.88,23.88,0,0,1,.06,3.47c-.36,2.12.24,4.2-.1,6.32-.23,1.4-.06,2.91-.41,4.33a4.37,4.37,0,0,0,0,1.53c.12,1.17.07,2.35.09,3.52,0,.88-.52,1.63-.27,2.54a4.8,4.8,0,0,1,.3,1.8c-.07.75.27,1,.84,1a.79.79,0,0,1,.78.51,3,3,0,0,0,4,1.71.58.58,0,0,1,.61,0,1.65,1.65,0,0,0,1,.24,140,140,0,0,1,16-3.47.38.38,0,0,1,.23-.3c.15,0,.26.08.29.21,2.09-.35,4.19-.67,6.28-1,8.94-1.37,17.82-3,26.77-4.28,20.33-2.95,40.89-5.33,61.54-5.47,7.17,0,14.33.17,21.48.58a.41.41,0,0,1,.23-.07c1.85.09,3.61-.73,5.46-.58.15,0,.33,0,.41.19a1.21,1.21,0,0,1-.36.1,6.83,6.83,0,0,0-2.54.56c12.08.8,24.12,2.15,36,3.84a382.09,382.09,0,0,1,38,7c2.33-.1,3.15-1.09,3.3-3.86.06-1,.24-2,.33-3,.14-1.51.23-3,.38-4.54.17-1.78-.05-3.57.09-5.34.21-2.48.25-5,.39-7.44.11-1.89.17-3.78.28-5.67.14-2.43.41-4.86.38-7.31,0-.71.42-1.41,0-2.15,0-.07.07-.28.16-.38a1.09,1.09,0,0,0,.17-.93,9.28,9.28,0,0,1,.05-2.17,48.38,48.38,0,0,0,.71-5.27c.05-1.64.34-3.28.24-4.91a35.73,35.73,0,0,1,.11-5.38c.2-2.53.17-5.07.25-7.6,0-1.42-.38-2.83-.29-4.22s0-2.92.09-4.38c.06-2.11-.27-4.23-.2-6.32.1-3,0-5.91-.07-8.84-.07-2.14.09-4.25.1-6.37,0-1.28-.42-2.64.11-4a2.4,2.4,0,0,0-.2-1.76,1.24,1.24,0,0,1-.08-.61q.15-1.84.21-3.69C224,18.38,224,17.23,224.12,16.1ZM3.75,12.79c.17-.06.22.11.23.27,0,.32-.19.58-.48.64s-.32-.12-.29-.32A.78.78,0,0,1,3.75,12.79Zm-.24,7.37a.55.55,0,0,1,.51.49c0,.3-.24.3-.43.29a.44.44,0,0,1-.45-.43C3.12,20.24,3.28,20.12,3.51,20.16Zm0,37c-.24-.12-.18-.39-.24-.59s0-.52.31-.54.23.16.19.31S3.63,56.87,3.54,57.14Zm.06,1.42c0,.18,0,.36-.2.38s-.2-.16-.2-.31,0-.33.2-.35S3.58,58.44,3.6,58.56Zm-.25,1.68c-.16,0-.23-.08-.26-.23s.07-.31.23-.31.23.13.2.29S3.42,60.22,3.35,60.24Zm.11,17.42c0-.38,0-.78.43-1,0,0,.18.07.18.11C4.05,77.25,3.71,77.41,3.46,77.66ZM4,19.35a.72.72,0,0,1-.22-.24.11.11,0,0,1,.12-.17c.14,0,.22.13.26.29S4.08,19.39,4,19.35Zm.87,35.94a.19.19,0,0,1-.29,0c-.2-.16-.18-.41-.2-.65a2.25,2.25,0,0,1,0-.26,1.24,1.24,0,0,1,0-.27c0-.2-.07-.52.14-.54s.14.32.18.49.08.35.12.52S5,55.06,4.88,55.29Zm.2,35.5S5,90.6,5,90.5s0-.27.15-.21.09.18.12.24S5.21,90.84,5.08,90.79Zm.55-56.07c0,.62-.52,1.14-.33,1.82a1.13,1.13,0,0,1,0,.26c0,.26,0,.71-.18.72s-.2-.43-.24-.67c-.12-.8-.67-1.54-.3-2.43.15-.34.22-.87.65-.76S5.67,34.29,5.63,34.72Zm.06-3.65c-.05.28,0,.75-.32.73S5.16,31.26,5,31s0-.48.26-.47A.41.41,0,0,1,5.69,31.07ZM5.7,30c-.22-.14-.22-.45-.25-.72s0-.41.1-.37c.38.14.06.59.26.79C5.8,29.81,5.84,30,5.7,30Zm6.1,20.47c.39-1.11-.11-2.24.09-3.35,0-.24.08-.55.32-.57s.17.35.22.54a7,7,0,0,1,.11,2.08,3.68,3.68,0,0,0,.15,1.49,1.82,1.82,0,0,1-.14,1.14c0,.15-.14.26-.3.22a.27.27,0,0,1-.15-.42c.23-.34.24-.56-.15-.74A.49.49,0,0,1,11.8,50.42ZM7,48c-.24.07-.22-.26-.22-.44.11-.49,0-1.11.57-1.26.17-.05.19.21.12.33C7.27,47.07,7.69,47.82,7,48ZM8,125.9c-.19,0-.42,0-.45-.26s.17-.28.32-.32.36.08.45.26S8.13,125.89,8,125.9ZM9.31,38.49c-.19,0-.24-.1-.2-.27.11-.39.14-.89.49-1,.19-.08,0,.33.09.49C9.77,38.07,9.72,38.4,9.31,38.49Zm1.52,68.92a.28.28,0,0,1-.27-.31c0-.24.08-.57.26-.6s.14.32.19.5A.33.33,0,0,1,10.83,107.41Zm.42-53.27c-.24,0-.14-.33-.2-.51s-.09-.42.17-.38.23.3.23.51S11.46,54.17,11.25,54.14Zm.63,54.06c.39.24.92.39,1.19.78s.41,1.21.9,1.65a.28.28,0,0,1-.05.39c-.06,0-.2,0-.28-.08a10.18,10.18,0,0,1-2-2.33C11.49,108.4,11.56,108.22,11.88,108.2ZM12.14,126c-.09,0-.21-.11-.23-.19s.1-.18.21-.19.22.07.23.2A.15.15,0,0,1,12.14,126Zm.69-4.79c-.18,0-.41-.14-.38-.37s.33-.32.57-.33.28.12.27.34S13.09,121.22,12.83,121.16Zm1.06-4.74c-.24,0-.33-.18-.33-.41s.13-.23.28-.21.43.06.45.3S14.05,116.4,13.89,116.42Zm1-36.57a2.36,2.36,0,0,1-1.58,1.54c-.28.13-.56-.11-.69-.35-.2-.39.14-.31.33-.37s.12-.29.12-.42,0-.22-.05-.31c0-.45-.11-1.12.24-1.23a2.37,2.37,0,0,1,1.47.25C15,79.09,15,79.5,14.87,79.85Zm.31-7.37,0-.08h0ZM15.82,120c-.18,0-.23-.13-.23-.29s0-.27.1-.3.24.07.28.22A.31.31,0,0,1,15.82,120Zm-.52-49.3c-.17-.09-.53.17-.52-.32,0-.28.86-1.18,1.08-1.13s.33.33.34.62C16.23,70.57,15.83,70.69,15.3,70.67ZM18.92,9.51a.44.44,0,0,1-.32-.35s.08-.15.13-.16.27.15.31.34S19,9.53,18.92,9.51ZM33.86,7.85l.28.11c-.2.3-.53.35-.81.47-.1.05-.27,0-.23-.16C33.21,7.86,33.6,8,33.86,7.85Zm-13.51.91.85-.27c.31-.1.64-.23.91.09a.55.55,0,0,1,.05.59.57.57,0,0,1-.78.33,1.46,1.46,0,0,0-.84.11c-.29.09-.47-.11-.55-.39S20.13,8.82,20.35,8.76Zm-.07,116.32c-.14,0-.28,0-.29-.2s.11-.18.22-.2.25,0,.32.14A.26.26,0,0,1,20.28,125.08Zm11.5-26.71a.15.15,0,0,1-.18-.19.42.42,0,0,1,.18-.25c.11-.07.2,0,.23.13S31.93,98.34,31.78,98.37Zm2-57.46C33.65,42.14,33.34,54.79,33,56a6.74,6.74,0,0,1-3.7,4.44,14.78,14.78,0,0,1-2.27.92,1,1,0,0,0-.72.82c-.13.62-.06,1.24-.16,1.86a21.46,21.46,0,0,0-.44,4c0,1.32-.1,4-.06,5.25,0,.46,0,.92,0,1.38,0,1.12-.46,1.6-1.57,1.67a1.53,1.53,0,0,0-.66.16,3.36,3.36,0,0,1-2,.06.59.59,0,0,1-.61-.64c.16-1.61-.31-4.51-.11-6.11a38.75,38.75,0,0,0-.07-4.31c0-.72-.28-1.41-.26-2.14s.06-1.75.08-2.62c0-1.15.11-2.29,0-3.44a4.24,4.24,0,0,1,.17-1.45c.24-.82.12-13.07.24-13.91a3.71,3.71,0,0,1,0-.58c.6-2.4.16-4.87.41-7.29a4.44,4.44,0,0,0-.17-1.44,3.25,3.25,0,0,1,0-1.75,5.11,5.11,0,0,0,.06-1.17c0-.33.18-.5.49-.48.92.07,1.83-.2,2.75-.09a1,1,0,0,0,.39,0A5.08,5.08,0,0,1,27.34,29a7.91,7.91,0,0,1,3.58,1,3.67,3.67,0,0,1,1.45,1.28.87.87,0,0,0,.15.25c1.16,1.08,1.4,2.55,1.68,4a8.85,8.85,0,0,1,.07,1.27A22.34,22.34,0,0,1,33.83,40.91Zm2.22,4.23,0-.06.06,0ZM62.19,33.65l.13,0,0,.08-.13,0A.41.41,0,0,0,62.19,33.65ZM52.2,3.53a.27.27,0,0,1,.2-.11c.11,0,.2.05.22.2a.17.17,0,0,1-.24.15C52.27,3.75,52.16,3.68,52.2,3.53ZM51.09,77.4c.12,0,.19.09.16.23a.33.33,0,0,1-.35.28c-.11,0-.17-.1-.17-.24A.35.35,0,0,1,51.09,77.4ZM38.57,44.53s-.12,0-.12-.08,0-.14.13-.12.06.08.1.12S38.6,44.54,38.57,44.53Zm2.25,29.68a9.1,9.1,0,0,1-1,.37.2.2,0,0,1-.24-.18.46.46,0,0,1,.29-.49c.25-.11.54,0,.78-.17s.32-.5.51-.2S41.05,74.09,40.82,74.21Zm1.27,36.2c-.16,0-.25-.07-.2-.21a.39.39,0,0,1,.37-.28s.13.12.12.16A.4.4,0,0,1,42.09,110.41Zm2.8-39.86a27.43,27.43,0,0,0-4.37,1c-1.14.25-1.83-.22-1.77-1.37.09-1.79-.13-12.05,0-13.84s0-3.52.17-5.29c.14-1.16-.19-2.34-.12-3.52s0-2.16,0-3.22c0-1.59.31-3.16.16-4.75a8.19,8.19,0,0,1,.07-1.85A22.39,22.39,0,0,0,39.05,31,2.27,2.27,0,0,1,39.88,29a.9.9,0,0,1,.93-.18,8.71,8.71,0,0,0,2.44.22c.42,0,.56.17.57.6,0,1.37.07,2.74.14,4.12s.23,2.54.18,3.81c-.06,1.5,0,3-.07,4.49a44.83,44.83,0,0,0-.28,5.18,12.82,12.82,0,0,1-.16,1.95c-.06.91-.06,1.81,0,2.72h0c.16-.08.13.11.12.23l-.11.2c0,.82.06,1.63.1,2.45s0,8.74,0,9.42c.08,1.41.18,1.34,1.36,1.34.59,0,1.18,0,1.77-.07.44,0,.6.17.74.59a8.64,8.64,0,0,1,.16,3.12,1,1,0,0,1-1,.91C46.23,70.12,45.6,70.39,44.89,70.55Zm5.94,9.32A7.86,7.86,0,0,1,47.67,81c-.07,0-.25,0-.32-.1s0-.32.14-.44a1.55,1.55,0,0,0,.32-.7c.11-.57.75-.87.95-.73.66.42,1.26,0,1.87.07.22,0,.53-.17.62.2S51,79.73,50.83,79.87Zm.77-28.55.09-.1.06.05-.09.1ZM63.82,67a3,3,0,0,0-1.2.35c-.73.42-1.58-.12-2.13-.74a1.31,1.31,0,0,1-.18-.75A24.6,24.6,0,0,0,60,62.68c-.08-.38-.24-5.86-.38-6.23-.21-.54-1.35-.37-1.8-.41s-.57.38-.67.71-.24,5.87-.26,6.37-.11,1.18-.21,1.86l-.09,1.56a6.4,6.4,0,0,1-.09,1.14,4,4,0,0,1-1.83,1c-.88.24-2.27.51-2.86-.28v-.25a1.44,1.44,0,0,1-.1-.58c0-2.46,1.37-20.72,1.47-21.71.21-2.09.66-4.15.67-6.27a6.67,6.67,0,0,1,.37-2,14.73,14.73,0,0,0,.14-1.49,64.16,64.16,0,0,0,1.13-6.46c.08-.84.22-.94,1-.92h.89c.84-.06,1.67.25,2.53.14.46-.06,1.13.79,1.15,1.4a26.29,26.29,0,0,0,.56,3.17c.18,1.13.17,2.28.36,3.4.31,1.75.14,3.53.53,5.27a12.1,12.1,0,0,1,.28,2c.12,2.49,2.13,16.95,2.07,19.37,0,.68.13,1.37.18,2.06C65.14,66.55,64.85,66.87,63.82,67ZM124,30.39c.16,0,.27,0,.26.23A.37.37,0,0,1,124,31a.27.27,0,0,1-.28-.26C123.68,30.53,123.83,30.44,124,30.39Zm-5.56-17.31a4.27,4.27,0,0,1,.8,0c.12,0,.33-.05.32.15s-.2.11-.33.09-.53,0-.79-.05-.76.14-.73,0C117.78,12.89,118.17,13.12,118.43,13.08Zm1,37.64a.27.27,0,0,1-.27.24c-.11,0-.23,0-.19-.18a.42.42,0,0,1,.23-.2C119.35,50.54,119.45,50.57,119.48,50.72ZM118.1,37.3s.09.11.12.14a2.19,2.19,0,0,1-1.29.61c-.05,0-.08-.2-.06-.21A2.24,2.24,0,0,1,118.1,37.3ZM114.7,29c.35.14.58-.12.84-.25a.45.45,0,0,1,.62.28c.14.38-.18.45-.4.53-.53.2-1-.3-1.48-.31,0,0-.08-.11-.07-.13C114.34,28.89,114.55,29,114.7,29ZM71.83,63.86c-.07-.27-.3-.42-.47-.62a4,4,0,0,1-.91-1.73c-.19-1.08-.81-2.09-.59-3.25a4.09,4.09,0,0,1-.36-1.89c-.25-2.21-.38-6.5-.41-8.72,0-.85,0-1.7-.11-2.54a5,5,0,0,1,.11-2.24.57.57,0,0,0,.06-.28c-.39-2.44.25-4.8.53-7.19a25.33,25.33,0,0,1,.75-3.54,4.29,4.29,0,0,1,2.82-3,1.25,1.25,0,0,1,.37-.09A9.47,9.47,0,0,1,79.45,30a4.9,4.9,0,0,1,2.29,3.31,20,20,0,0,1,.46,4c-.09.39.3.91-.17,1.26s-.82,0-1.23.07c-.62,0-1.23.18-1.85.27-.09,0-.18.09-.27.11-1.32.28-1.81,0-1.8-1.38,0-1.05-.25-2.08-.23-3.13a1,1,0,0,0-.61-.94.69.69,0,0,0-1,.18,3.07,3.07,0,0,0-.58,1.12,46.66,46.66,0,0,0-.66,5.26,4.19,4.19,0,0,1,0,.5A31.18,31.18,0,0,0,74,49.11c.18,1.61.25,5.29.37,6.9A9,9,0,0,0,75,59.18c.18.43.31.87.92.86a1.39,1.39,0,0,0,1.38-.88,22.9,22.9,0,0,0,.93-3.36c.25-.9.39-1,1.31-.87.72.09,1.44,0,2.16.16s1,.26,1,1.06a16.56,16.56,0,0,1-.94,5,10.06,10.06,0,0,1-2.12,3.13,5.61,5.61,0,0,1-6,1.22C72.8,65.15,72.06,64.8,71.83,63.86Zm3.69,17.2c-.07,0-.16,0-.12-.1a.76.76,0,0,1,.21-.23s.07,0,.19.14C75.7,80.94,75.61,81,75.52,81.06Zm0-7.23c-.2-.1-.61,0-.57-.39s.36-.47.68-.46a.4.4,0,0,1,.44.48C76,73.83,75.74,73.83,75.47,73.83Zm2.59-.36a.83.83,0,0,1,.78-.51c.11,0,.19.08.17.26a1.52,1.52,0,0,1-.8.49C78.08,73.74,78,73.6,78.06,73.47ZM79.21,105c-.17,0-.48.1-.42-.22s.38-.27.62-.28.49,0,.46.23C79.81,105.18,79.42,104.88,79.21,105Zm2.06,0c-.12,0-.32,0-.32-.14s.23-.19.37-.19.38-.09.36.17S81.42,105,81.27,105ZM95.4,77.46a1.51,1.51,0,0,1-.5.27c-.72.29-1.46.58-2.21.81,0,0,.09,0,.08.1,0,.27-.29.19-.45.26s-.24,0-.2-.14l0-.07a7.57,7.57,0,0,1-1.17.23.66.66,0,0,0-.7.66c-.13,1.36-.31,2.74-.41,4.13s-.22,3-.32,4.57c-.08,1-.15,7.58-2,7-.19-.07-.38,0-.57-.06-.85-.19-.91-1.21-.89-1.92,0-.23,0-.46,0-.68,0-2.43.09-4.86.13-7.3,0-1.33,0-2.66.07-4,0-.68.55-2-.54-1.91a24.54,24.54,0,0,1-3.64.22,1.39,1.39,0,0,1-1-.36,1,1,0,0,1,0-1.19,2.05,2.05,0,0,1,1.07-.66,17.86,17.86,0,0,1,1.88-.48c1-.2,2.11-.37,3.17-.5,1.36-.18,2.73-.3,4.1-.36a6.83,6.83,0,0,1,3.72.44.76.76,0,0,1,.43.45A.57.57,0,0,1,95.4,77.46Zm-2.23-5.84c-.17.07-.39.37-.52.08s.25-.24.39-.35a1.38,1.38,0,0,1,1-.14C93.76,71.35,93.47,71.5,93.17,71.62Zm.91.35a2.55,2.55,0,0,1,.53-.18c.28-.06.55-.3.84-.06a.29.29,0,0,1,0,.24c-.22.37-.56.26-.93.25-.1,0-.26,0-.42,0s-.1-.09-.16-.14S94,72,94.08,72Zm2.19-1.09a9.23,9.23,0,0,1-2.21.33c.67-.57,1.52-.47,2.28-.7,0,0,.18.06.19.1A.26.26,0,0,1,96.27,70.88Zm0-6.47h-.9c-.28,0-.6,0-.91,0-1.6.14-3.2.17-4.8.31-1.21.11-1.93.39-2.23-.29a.43.43,0,0,1,0-.12v0a2.9,2.9,0,0,1-.11-.62,1.28,1.28,0,0,1-.07-.34c-.12-1-.25-2-.34-3-.27-3.26-.1-7.19-.22-10.45-.1-3,0-6-.08-8.93a17.94,17.94,0,0,1,.4-4.78,4.28,4.28,0,0,0,.07-1.07,29.37,29.37,0,0,1,.4-4.78c.1-.56.45-.89.94-.77a7.45,7.45,0,0,0,2.54-.1l.38,0,0-.06,0,.06a12.93,12.93,0,0,0,2.53-.46,10.5,10.5,0,0,1,3.22-.13c.42,0,.64.26.67.69a5.86,5.86,0,0,1-.13,2.91,2.55,2.55,0,0,0-.11.68c-.13,1.08-.19,1.13-1.31,1.36-.93.19-1.88.22-2.83.32-.35,0-.53.15-.58.51a13,13,0,0,0-.31,3.41c.14,1.18-.11,2.35,0,3.53,0,.26,0,.52,0,.79.06,1,.3,1.19,1.23.95a12.52,12.52,0,0,1,2.44-.17c.69,0,.81.18.86.89.06,1-.3,2-.32,3,0,.42-.37.67-.8.76s-1,.17-1.44.31a1.56,1.56,0,0,0-1.2,1.37c-.32,2.08-.28,4.19-.55,6.27a3.22,3.22,0,0,0,0,1c.08.64.4,1.81,1.08,1.89a6.35,6.35,0,0,0,2.5.21c.69-.18,1.31.29,1.94.53.27.11.31.5.28.8-.08.85-.15,1.7-.28,2.54s-.41,1-1.26,1C96.83,64.41,96.56,64.41,96.3,64.41ZM93.74,40.13a1.48,1.48,0,0,1,.25.14c0,.21-.12.22-.23.21s-.21,0-.22-.17A.16.16,0,0,1,93.74,40.13Zm-.46-1.05s0-.12,0-.14a.36.36,0,0,1,.55-.07l-.07,0Zm.58-.2c.08.11.19.2.15.37s-.08,0-.12,0Zm.3,2.84c.1.09.2.16.2.2-.06.36-.33.51-.6.64a.1.1,0,0,1-.11-.15C93.8,42.18,94,42,94.16,41.72Zm8.49,49.81c-.06-.19-.11-.27-.09-.33a1.18,1.18,0,0,1,.16-.29c0,.07.08.15.07.21A2,2,0,0,1,102.65,91.53Zm3.28,4-.09-.06a1.79,1.79,0,0,1-.33-.39,23.92,23.92,0,0,1-1.66-2.86,15,15,0,0,1-1.26-2.73c-.15-.58-.53-.65-1-.28a1.62,1.62,0,0,0-.64,1c-.27,1.63,0,3.18-.73,4.75a1.55,1.55,0,0,1-2.38.24,1.69,1.69,0,0,1-.19-1.09c.17-3.21.44-6.42.77-9.62.16-1.62.34-3.23.52-4.85a12.33,12.33,0,0,0,.18-2.18c0-.54.07-1,.66-1.19a1.43,1.43,0,0,0,.39-.2,8.58,8.58,0,0,1,4.36.24h.1c1.41.59,2.49,1.25,2.92,2.83.56,2.1.32,4.9-1.14,6.54a7.28,7.28,0,0,1-1.5,1.44,11.72,11.72,0,0,0,1.24,3.76,9.82,9.82,0,0,1,.94,2.83C107.15,94.27,106.85,96.05,105.93,95.5Zm1.58-4.13c-.07.06-.18,0-.12-.1a2.22,2.22,0,0,1,.4-.41s.13-.08.18.08C107.83,91.08,107.68,91.23,107.51,91.37Zm1.93-34.76a15.77,15.77,0,0,1-1-2.67,7.3,7.3,0,0,0-.32-1.4c0-.08-.08-.23-.13-.23s-.14.16-.16.27c-.09.57-.22,1.14-.26,1.71-.17,2.4-.48,5.73-.58,8.13A1.8,1.8,0,0,1,105,64.18c-.59,0-1.19-.13-1.78-.19a.59.59,0,0,1-.59-.6,5.17,5.17,0,0,1-.09-1c.13-2-.16-5,.12-7.07a29.61,29.61,0,0,0-.11-4c0-1.38,0-2.75.12-4.12.12-1.56.1-3.13.22-4.7s-.11-3.25.08-4.88c.1-.86.16-1.72.25-2.58a27.28,27.28,0,0,0,0-3.26c0-.55.09-1.09.13-1.63a.83.83,0,0,1,.7-.77,3.59,3.59,0,0,1,1.24-.18c1.28.17,2.49-.32,3.73-.35a6.3,6.3,0,0,1,4.27,1.18,3.18,3.18,0,0,0,.37.27,5,5,0,0,1,2.13,4.74A12.13,12.13,0,0,0,116,37a27.1,27.1,0,0,1-.31,4.59c0,.51-.09,1-.13,1.54a14.58,14.58,0,0,1-1.64,5,2.64,2.64,0,0,1-.6.83,1.33,1.33,0,0,0-.38,1.55c.36,1.19.7,2.39,1.06,3.57a31.4,31.4,0,0,0,1.18,3.63c.53,1.2.61,2.54,1.13,3.73a2.73,2.73,0,0,1,.17.75,1.7,1.7,0,0,1-1,1.88,3.59,3.59,0,0,1-3.44-.49,30.09,30.09,0,0,1-1.53-3.68A15.55,15.55,0,0,0,109.44,56.61Zm4,13.93c0,.27-.24.3-.42.33s-.31,0-.32-.16.18-.34.35-.39A.3.3,0,0,1,113.48,70.54Zm5.71,24.9s-.08-.09-.07-.12c.11-.29.36-.27.58-.33C119.57,95.2,119.46,95.45,119.19,95.44Zm1.58-1.86c-.17.48-1.19.8-1.48.32a8.76,8.76,0,0,1-.85-2.62c-.12-.55-.44-1-.61-1.54-.11-.35-.36-.41-.72-.36-.7.09-1.29.49-2,.64-.22,0-.26.28-.33.46l-1.27,3.69c-.14.42-.38,1-.86,1.15a.77.77,0,0,1-.67-.15,1.35,1.35,0,0,1-.4-.93,18.45,18.45,0,0,1,.62-7,14.72,14.72,0,0,0,.34-1.63,46.9,46.9,0,0,1,1.21-5.5,4.51,4.51,0,0,0,.12-.82,20.14,20.14,0,0,1,.58-2.19c.35-.2.65-.46,1-.64a1.31,1.31,0,0,1,2,.58,15.07,15.07,0,0,1,1.13,2.45c.28.94.51,1.9.73,2.86s.43,1.92.63,2.88.49,2,.65,3.09v.07a24.93,24.93,0,0,1,.26,3.11A6.39,6.39,0,0,1,120.77,93.58Zm.52,2a.12.12,0,0,1-.09-.19,1,1,0,0,1,.3-.27c.09,0,.14,0,.13.15S121.48,95.6,121.29,95.59Zm.37-45.28a.82.82,0,0,1-.83-.42c-.15-.32.23-.27.41-.34h0a.47.47,0,0,1,.71.33A.31.31,0,0,1,121.66,50.31Zm.27-17.66a.3.3,0,0,1,.34-.29c.22,0,.34.14.33.39s-.12.32-.31.29S121.91,32.92,121.93,32.65Zm.35,16.47c0-.26,1.07-.93,1.25-.79s.07.14.09.18c0,.3-.93.94-1.18.87S122.27,49.26,122.28,49.12Zm1.46,44.5a2.49,2.49,0,0,1-.32.53c-.09-.09-.19-.14-.19-.19a.57.57,0,0,1,.32-.48C123.67,93.41,123.8,93.47,123.74,93.62Zm.17-50.52c-.1,0-.27,0-.26-.11s.26-.34.45-.45.2,0,.25.1A.55.55,0,0,1,123.91,43.1Zm56.78-11.36.05.06-.06.13-.05-.06A1.39,1.39,0,0,1,180.69,31.74Zm-.49,13.35c.05,0,.13,0,.26.07a1.86,1.86,0,0,1-.26.25c-.09.05-.22.07-.21-.11S180.12,45.14,180.2,45.09Zm-2-18.41c.14-.06.31,0,.26.2-.12.47-.57.32-.78.5-.17,0-.35,0-.31-.11C177.49,26.89,177.86,26.83,178.16,26.68Zm-7.07,15.5v.06h0Zm-.63,17.55,0,.06,0,0Zm-.26,19.66a1.08,1.08,0,0,1,.3,0c.95.13,1.88.24,2.81.38a.36.36,0,0,1,.34.42c-.05.22-.26.18-.41.16-1-.1-2-.19-3.05-.31-.22,0-.6,0-.59-.31S170,79.47,170.2,79.39ZM174,108.86c.09,0,.22,0,.2.18a.3.3,0,0,1-.42.11c-.08,0-.21-.19-.2-.21C173.67,108.73,173.84,108.87,174,108.86Zm-2.38-27.24c-.05,0-.11-.12-.13-.2s-.06-.23.07-.29.18.13.19.25S171.76,81.64,171.61,81.62ZM155.35,20.48c.14.13.23.17.24.24s-.07.22-.19.19-.13-.11-.14-.18S155.31,20.57,155.35,20.48Zm-1.06.23a.25.25,0,0,1,.34.09c0,.27-.22.24-.36.3s-.25.08-.28-.06S154.14,20.77,154.29,20.71Zm-3,1.83c.15.07.39.09.36.11a3.63,3.63,0,0,1-.84.46c-.13.05-.29-.12-.24-.27C150.74,22.39,151.12,22.69,151.33,22.54Zm-.5-2.8c.12,0,.22.1.14.23a.32.32,0,0,1-.27.12s-.09-.1-.13-.15A.24.24,0,0,1,150.83,19.74Zm-3.61-7.44c.32,0,.64,0,1,0v0l2.07.21c.11,0,.25,0,.25.17s-.15.17-.23.18c-1,.05-2,.09-3,.11-.15,0-.43,0-.44-.27S147,12.32,147.22,12.3Zm-.66,26c.12-.06.19.05.19.18a.4.4,0,0,1-.21.39c-.15,0-.24,0-.24-.16A.48.48,0,0,1,146.56,38.3Zm-2.23-17c.1,0,.25,0,.19.18s-.17.1-.23.13-.3,0-.24-.19S144.23,21.27,144.33,21.26Zm-9.1-8.6a.65.65,0,0,1,.24,0c.19,0,.52,0,.49.29s-.31.07-.48.07l-.4,0c-.21-.06-.53.15-.82-.1C134.54,12.59,134.9,12.7,135.23,12.66ZM126.7,59c.11,0,.17.11.17.26a.32.32,0,0,1-.36.23.19.19,0,0,1-.16-.25C126.4,59.07,126.52,59,126.7,59Zm.76,34.56c-.6.37-.92,0-1.18-.59a8.22,8.22,0,0,1-.3-3.21c0-1.18-.07-2.36-.09-3.53,0-2.93,0-5.84-.11-8.77a1.3,1.3,0,0,1,.15-.85,1.34,1.34,0,0,1,1.07-.36,2,2,0,0,1,1.39.31,1.7,1.7,0,0,1,.37,1.48c0,.32-.06.63-.08,1-.19,2.54,0,5.17-.12,7.71-.05,1.31-.12,2.61-.2,3.92C128.31,91.65,128.47,93,127.46,93.58Zm1.27,9.31c-.09,0-.15,0-.12-.16s.19-.2.36-.23.14.1.13.12C129.05,102.81,128.88,102.85,128.73,102.89Zm14.64-12a1.48,1.48,0,0,1-1,.68c-2.09.57-4.19,1-6.32,1.47-.78.15-1-.82-1-1.39a61.6,61.6,0,0,1-.39-6.92,69.89,69.89,0,0,1,.11-7.09,2.36,2.36,0,0,1,.28-1,1.61,1.61,0,0,1,1-.64,1.51,1.51,0,0,1,1.31.2c.45,0,.43,2.18.38,3.66.15-.08.3-.09.44.14.28.46-.18.64-.47.84l0,0c0,.12,0,.22,0,.27l0,5.88a5.37,5.37,0,0,0,0,1.5c.14.41.46.28.82.22,1.53-.27,3.53-.68,4.65.72a1.73,1.73,0,0,1,.38.89A1,1,0,0,1,143.37,90.93Zm3.16,11.21c-.09,0-.17-.06-.14-.16a.36.36,0,0,1,.36-.3s.14.11.14.16C146.86,102.05,146.7,102.11,146.53,102.14Zm1.15-.35c-.12,0-.3,0-.25-.21s.2-.15.32-.18.2,0,.22.17A.26.26,0,0,1,147.68,101.79ZM151.3,51c-.08,1.55-.42,3.07-.56,4.62s-.19,6.49-.25,8.13a4.77,4.77,0,0,0,0,1.07,1.27,1.27,0,0,1-.16.89c-.11.81-.41,1.18-1.36,1.17a20.7,20.7,0,0,1-3-.28,2.1,2.1,0,0,1-1.34-.24s0,0,0,0c-.32-.06-.51-.27-.7-.75a9.83,9.83,0,0,1-.67-2.93c-.07-.83-.33-4.86-.38-5.68-.1-1.52-.61-3-.41-4.53A7.46,7.46,0,0,0,142.3,51a43.8,43.8,0,0,0-.67-5c-.16-1-.51-1.88-.58-2.86,0-.09-.05-.19-.17-.16s-.09.09-.1.15c-.21,1.53-.4,3.07-.61,4.61-.47,3.4-.58,6.84-1.32,10.21a55.15,55.15,0,0,0-.36,5.91c-.07,1.26-.41,1.63-1.65,1.58a4.43,4.43,0,0,1-1.14-.17,2.23,2.23,0,0,0-1.53-.06.67.67,0,0,1-.83-.32,4,4,0,0,1-.7-1.6c-.18-.88-.34-2.48-.49-3.92l-.16,0a.46.46,0,0,1,.14-.09c-.09-.84-.18-1.6-.27-2.12-.19-1-.4-2-.55-3.06a51,51,0,0,1-.78-6.17,14.08,14.08,0,0,1-.18-2.15c-.19-2.16-.38-4.06-.52-6s-.16-3.52-.35-5.28a26.08,26.08,0,0,1-.15-4.05,2.73,2.73,0,0,1,.2-.94c.11-.26.27-.29.53-.29,1,0,2,0,3-.08,1.26-.1,1.64.18,1.68,1.48.08,2.46.23,5.7.54,8.15.15,1.18.21,2.74.24,3.94s.37,5.76.4,5.76c.2,0,.87-6.69,1-8.49s.44-3.6.49-5.42a11.57,11.57,0,0,1,1-4.87c.4-.8.55-.8,1.45-.79a13.79,13.79,0,0,1,2.64.57,1.16,1.16,0,0,1,1,1,28.58,28.58,0,0,1,.54,4.24,21,21,0,0,0,.48,3.23.13.13,0,0,1,.06,0c.19-.06.14.2.2.31a.76.76,0,0,0,.11.14c.15.17.62-.29.52.28a.58.58,0,0,1-.65.49,1.29,1.29,0,0,1,0,.19c.35,1.72.61,3.45.9,5.17.15.86.37,3.59.72,3.63s.58-4.87.6-5.58c.09-2.49.33-5,.62-7.44.12-1.06.17-2.13.19-3.2,0-.59.14-1.16.2-1.73s.26-.76.9-.79a14.75,14.75,0,0,0,2.48-.31A1.21,1.21,0,0,1,153,30.3a22.34,22.34,0,0,1-.12,5.23c-.15.79-.12,1.61-.24,2.41-.4,2.69-.45,5.41-.76,8.11C151.73,47.69,151.39,49.32,151.3,51Zm.82,26.82c.06-.33.51-.33.83-.35.15,0,.47-.08.41.21s-.39.35-.67.36S152.06,78.07,152.12,77.78Zm1,22.7c.24-.32.34-.84.85-.77.05,0,.14.15.12.19C154,100.41,153.55,100.43,153.16,100.48Zm.94-22.74c0-.37.25-.21.4-.24s.29,0,.24.23a.42.42,0,0,1-.33.3C154.21,78,154.1,77.9,154.1,77.74Zm.52,18.49c-.11,0-.24,0-.22-.17a.37.37,0,0,1,.23-.21c.11,0,.2,0,.22.18A.23.23,0,0,1,154.62,96.23Zm.6-37.86c-.17.06-.21-.16-.19-.31.09-.55.61-.51.86-.79.17,0,.25,0,.18.2A1.64,1.64,0,0,1,155.22,58.37ZM156.13,80l-.06-.12.05,0,.11.07Zm2.13-24.11c-.2,0-.48,0-.53-.25s.21-.24.36-.23.54,0,.58.31S158.41,55.84,158.26,55.88Zm4.24,56.67c-.06.19-.27.12-.48.16l-.23-.1c.12-.19.32-.17.5-.21S162.56,112.39,162.5,112.55Zm.6-9.58a3.55,3.55,0,0,1-2,.6c-.14-.1-.3-.2-.28-.4s.21-.25.37-.25c.51,0,.94-.45,1.47-.38.21,0,.44,0,.47.34A.32.32,0,0,0,163.1,103Zm1.3-42.18a23.17,23.17,0,0,1,0,2.5c0,.51-.07,1-.1,1.51,0,1.2.14,3.14-.5,3.76s-2.2.1-2.9-.08a4.41,4.41,0,0,1-.47-.14,1.42,1.42,0,0,1-.61-.2.37.37,0,0,1-.17-.33,3,3,0,0,1-.47-1.65C159,64.44,159,62.69,159,61c0-.27-.08-.53-.11-.8-.06-.6.09-3.39.19-5.21a1.14,1.14,0,0,1-.25,0s-.37.06-.31-.13a.84.84,0,0,1,.6-.47c0-.41,0-.72,0-.88.08-1.46-.19-2.91-.1-4.35a59,59,0,0,0-.18-6.38,2.1,2.1,0,0,1,.17-1.23.62.62,0,0,0,.07-.38,13.91,13.91,0,0,1,0-2.66,32.54,32.54,0,0,1,.16-3.27,31.77,31.77,0,0,0,.14-3.78c0-.85.25-2.58,1-2.67,1-.13,1.78.09,2.78,0a.66.66,0,0,1,.2,0c0-.13.18-.15.29-.15s.32-.08.41.14a.34.34,0,0,1-.21.24,1.85,1.85,0,0,1,.5,1.12,10.38,10.38,0,0,1,.12,2.49.72.72,0,0,0,0,.29c.47,1.51.12,3.08.27,4.62a38.14,38.14,0,0,1,.15,5.24c-.11,2.9-.08,5.81-.27,8.71C164.51,53.14,164.29,59.08,164.4,60.79ZM165.61,86c-.28-.21-.74.27-.74-.15s.48-.32.79-.27.76,0,.73.14C166.29,86.19,165.83,85.72,165.61,86Zm.83,27.09c-.12,0-.36.1-.32-.07s.36-.16.56-.18.52-.06.51,0C167,113.16,166.67,112.9,166.44,113.07Zm.87-64.47c.18-.47.7-.47,1.1-.6.17-.06.24.11.19.27a.69.69,0,0,1-.89.51C167.57,48.71,167.2,48.9,167.31,48.6Zm.09,32.54s0,0,0-.07c0-.22.22-.21.37-.24C167.65,81,167.6,81.15,167.4,81.14Zm1.3.27c-.32-.18-.55-.57-1-.59.47-.63,1-.2,1.57-.16.23,0,.16.26.1.43C169.27,81.45,169,81.59,168.7,81.41Zm1,29.31c-.2,0-.3-.11-.32-.3s.12-.26.26-.28a.22.22,0,0,1,.27.24C169.9,110.54,169.84,110.69,169.7,110.72Zm-.06-14.88c0-.34.3-.12.44-.21s.32-.1.29.15-.24.21-.4.22S169.63,96,169.64,95.84Zm1.5,15.62c-.3,0-.82.43-.86,0s.57-.18.91-.22.62-.19.62,0S171.38,111.47,171.14,111.46Zm2.87-1a.56.56,0,0,0-.54,0c-.65.53-1.4.19-2.09.34-.2,0-.5.13-.52-.21a.44.44,0,0,1,.55-.48,33.55,33.55,0,0,0,4.25-.15C175.19,110.45,174.79,111.22,174,110.41Zm1.66-.46a1,1,0,0,0,.17-.1C175.84,110,175.73,109.93,175.67,110Zm1.53-33.87a13.19,13.19,0,0,0-2.08-.11c-.1,0-.23,0-.25-.16s.11-.13.16-.12c.79.15,1.5-.36,2.27-.34.36.19,1.09-.18,1,.53S177.58,76.17,177.2,76.08Zm8.6-38.91a34,34,0,0,0-.22,3.63c-.32,5.2-.67,10.41-.63,15.59-.23,2.82-.14,5.73-.33,8.51-.18,2.54,0,5.34-.49,7.9L184,73a3.75,3.75,0,0,0-.93.11,2.34,2.34,0,0,1-2.87-1.68c-.59-2-1.71-12.94-2.18-15-.35-1.54-.9-3-1.3-4.55s-.85-2.92-1.2-4.4c-.05-.24-.05-.63-.29-.6s-.18.42-.21.67a1.93,1.93,0,0,0,0,.48,29.92,29.92,0,0,1,.18,5.6c0,1.7.15,3.41.09,5.12s-.1,9.14-.14,10.75a.74.74,0,0,1-.44.77,3.09,3.09,0,0,1-2.57.2l-.17-.09c-.32-.18-.82-.07-1-.46a3,3,0,0,1-.28-1.48c.05-.89.21-7.67.12-8.64a33.21,33.21,0,0,0,.08-3.33c-.06-1.37.14-2.71.15-4.07,0-1.14.26-2.28.19-3.41-.13-2.12.09-4.24,0-6.36,0-.9.34-1.74.34-2.64,0-2,.12-4,0-6-.06-1.07-.12-2.56-.13-3.7,0,0-.05,0-.08,0a.18.18,0,0,1-.07-.15.13.13,0,0,1,.14-.14v0a.94.94,0,0,1,.77-.87c.74-.14,1.42-.61,2.28-.36a1.24,1.24,0,0,1,1,.86c.36,1.18.72,2.89,1,4.1.52,2.67,1,4.39,1.75,7,.6,2.17,1.88,8.66,2.47,10.83a2.59,2.59,0,0,0,.11.37c0,.07.07.18.18.16s0-.11.06-.17c.16-1.47-.08-3,0-4.44,0-.31,0-.71,0-1.17a10.67,10.67,0,0,1-1.24.56l-.18-.12a.64.64,0,0,1,.1-.13l1.31-.76c0-2.34-.24-5.83-.12-7.29a21.48,21.48,0,0,0-.07-2.66,39.51,39.51,0,0,1,.32-6.06c.06-.62.25-.84.91-.87,1.09,0,2.2-.36,3.24.33.25.16.62.07.91.17C186.05,32,185.94,34.6,185.8,37.17Zm2.29,40.18c-.1,0-.16-.1-.1-.18a1,1,0,0,1,.29-.26.1.1,0,0,1,.15.12A.43.43,0,0,1,188.09,77.35Zm9.39-55.56c.13-.08.29.05.26.23-.1.47-.46.52-.81.58-.16,0-.46,0-.42-.14C196.68,22,197.15,22,197.48,21.79ZM191,108.66c-.17,0-.32,0-.3-.14s.23-.22.39-.23.33,0,.26.18S191.13,108.61,191,108.66Zm10.83,5.55c-.11,0-.25,0-.2-.17a1,1,0,0,1,.29-.4c.11-.1.2,0,.23.13A.44.44,0,0,1,201.87,114.21Zm1.54-36.77a5.38,5.38,0,0,1-.55.52,9.67,9.67,0,0,1-2.34.21c-2.64-.63-5.11-1.82-7.75-2.46-1.18-.5-2.12-1.31-2-2.46a8.65,8.65,0,0,0,0-1.61c-.05-.51.12-1,0-1.68,0-1.39-.22-8.16.18-9.69a1.82,1.82,0,0,0,.07-.57,40.34,40.34,0,0,1,.31-5.49,1.2,1.2,0,0,0,0-.19,22.23,22.23,0,0,1,.21-4.54c.13-1.42.24-9.19.33-10.61a4.28,4.28,0,0,0,0-.62h0a11.41,11.41,0,0,0,0-2.92v-.06c.06-.91,0-1.83,0-2.75a.59.59,0,0,0,.06-.14c.18-.92,0-2.6.49-3.39a3,3,0,0,1,.75-.21c1.41,0,2.6.11,3.93,0a41.37,41.37,0,0,1,5.55.24.76.76,0,0,1,.85.69v0h0c.16,0,.25.08.25.25a.19.19,0,0,1-.16.22,2.1,2.1,0,0,1,0,.71c-.08.56-.12,1.13-.17,1.7a2,2,0,0,1-2,1.91,17,17,0,0,0-3.53.72.65.65,0,0,0-.55.83,3.91,3.91,0,0,1-.09,1.32C197,39,197.09,49,197,50.66a7.11,7.11,0,0,0,.2,1.12c.11,1,.2,1.06,1.1.9a10.6,10.6,0,0,1,3.23.2c.19-.13.38-.26.58-.38s.21-.06.21.2l-.45.23c.24,0,.34.23.43.43a2.41,2.41,0,0,1,.18,1.21,9.6,9.6,0,0,0-.05,1.61c.06.59-.43,1-.86,1.28a1.73,1.73,0,0,1-.44.24c-.6,0-1.2,0-1.8,0a4.6,4.6,0,0,0-1.17,0h0c-1.08.09-1.23.8-1.26,1.8-.1,2.57-.22,5.16-.3,7.74,0,1.46-.23,2.2,1.07,2.79,1.65.75,3.44,1.14,5.07,2l.81.44a3.68,3.68,0,0,1,.59,1.51A26.45,26.45,0,0,1,203.41,77.44Zm14.31,17.13a1.21,1.21,0,0,1,.29,1c-.19.84-.61,1.64-.07,2.58.2.35-.45,1-.63,1-.44.16-.3-.46-.38-.77a2,2,0,0,1,0-.37c0-1.2.59-2.21.44-3.37C217.29,94.41,217.57,94.33,217.72,94.57Zm-7.61-6.64a2.37,2.37,0,0,1,.28-.55,16.33,16.33,0,0,0,1.74-2.57c0-.09.17-.21.23-.19s.13.23.11.37a1.39,1.39,0,0,1-.14.42c-.48.93-1.31,1.56-1.67,2.59,0,.12-.2.19-.28.25C210.1,88.29,210.05,88.13,210.11,87.93Zm-1.79-54.29a.32.32,0,0,1,.38-.24.28.28,0,0,1,.24.28.48.48,0,0,1-.49.29C208.27,34,208.26,33.79,208.32,33.64Zm.4,39.74-.06.07-.06-.14Zm-.13-.08c-.17-.08-.26-.19-.08-.36s.13,0,.2,0Zm-1.51,38.79c-.23.12-.59.47-.75,0s.23-.54.51-.67.58-.3.89-.41.37,0,.39.31C207.93,111.86,207.45,111.91,207.08,112.09Zm.39-17.8a.15.15,0,0,1,.18-.19s.14.1.14.15a.53.53,0,0,1-.11.23C207.57,94.39,207.48,94.35,207.47,94.29Zm.81-2.61c-.22.48-.81.48-1.26.55-.2,0-.59,0-.47-.28.19-.47.69-.51,1.11-.53C207.87,91.42,208.4,91.41,208.28,91.68Zm-1-.84a.31.31,0,0,1,.33-.31.31.31,0,0,1,.33.3c0,.25-.18.24-.29.28S207.24,91.09,207.25,90.84Zm1.66-15.06c-.48.58-.85,1.32-1.7,1.48-.07-.05-.27-.11-.28-.2-.1-.56-.31-.54-.64-.22a.21.21,0,0,1-.35-.06c-.11-.41.23-.58.43-.77s.64-.6.77-.22c.21.58.33.18.42,0a2,2,0,0,1,.83-.68c.23-.12.52-.37.72-.09S209.07,75.58,208.91,75.78ZM211,108.69c-.57-.14-1.31-.51-1.29-1,0-.67.9-.59,1.4-.69s.81.49.81,1S211.4,108.55,211,108.69Zm.87-3.77c-.15.06-.26,0-.27-.21a.55.55,0,0,1,.29-.56c.17,0,.22.12.23.28A.45.45,0,0,1,211.89,104.92Zm1.5,10.86a1.32,1.32,0,0,1-.71.81c-.25,0-.42-.14-.38-.34a1,1,0,0,1,.88-.76C213.32,115.46,213.44,115.61,213.39,115.78ZM215,33.26c-.13-.41-.26-.82-.38-1.23,0-.12,0-.31.14-.26.4.19.23.69.38,1C215.18,33,215.22,33.15,215,33.26ZM216.1,42a.43.43,0,0,1,.28-.4c.1,0,.17,0,.15.15a.6.6,0,0,1-.28.42C216.15,42.12,216.1,42.05,216.1,42Zm.4,49.4a.38.38,0,0,1-.11-.48,6.24,6.24,0,0,0,.29-1.49c0-.25.11-.61.41-.57s.24.41.23.67c0,.09,0,.18,0,.31a2,2,0,0,1-.37,1.4C216.81,91.32,216.68,91.45,216.5,91.35Zm.84,11c0,.07,0,.17-.15.1a2.42,2.42,0,0,1-.11-2.33,1,1,0,0,1,.22-.09.87.87,0,0,1,.52,1A7.21,7.21,0,0,1,217.34,102.3Zm.3,8.82c0-.25,0-.64.2-.69s.19.37.2.59.05.54-.23.55S217.66,111.3,217.64,111.12Zm.52,7.25c-.17,0-.21-.16-.22-.31s0-.34.2-.31.18.2.19.35S218.29,118.36,218.16,118.37Zm.06-33.54a.19.19,0,0,1-.19.24c-.13,0-.15-.15-.16-.27s0-.42,0-.86a7.87,7.87,0,0,0,0-1.74c0-.18,0-.42.19-.43s.2.23.25.4C218.57,83.06,218.13,83.94,218.22,84.83Zm-.16-41.67c-.13,0-.15-.15-.11-.27a.47.47,0,0,1,.32-.37c.14,0,.15.12.15.24S218.3,43.18,218.06,43.16Zm.15-1.61c-.33,0-.37-.37-.38-.69.5-1.15-.3-2.49.43-3.62.16-.23-.06-.44-.19-.63a.71.71,0,0,1,0-.83.35.35,0,0,1,.5-.12c.34.2.15.49.12.78a16.19,16.19,0,0,0,0,3.19c0,.44.11.89.12,1.34S218.57,41.61,218.21,41.55Zm1.26-32.12c-.53,1.12-.34,2.56-1.07,3.66-.11.16-.2.42-.42.27s-.07-.33,0-.49a17.58,17.58,0,0,0,.43-2.71,6,6,0,0,1,.35-1.09c.09-.21.23-.36.45-.27S219.52,9.11,219.47,9.43Zm1.17,63.41a.58.58,0,0,1,.34-.55c.17-.07.2.11.21.26s-.07.48-.31.54S220.63,73,220.64,72.84Zm.31,4.55c-.13,0-.08-.27,0-.39s-.15-.48.1-.5.09.3.11.47S221.18,77.4,221,77.39Zm0-1.61c-.18,0-.31-.1-.27-.33a.25.25,0,0,1,.3-.21.28.28,0,0,1,.26.29A.29.29,0,0,1,221,75.78Zm.37-7c-.05.1,0,.33-.17.3,0,0-.09-.2-.1-.31s0-.26.15-.26S221.37,68.71,221.36,68.83ZM221.5,53a.48.48,0,0,1-.2.35c-.11.07-.22-.11-.18-.21.36-1-.33-1.83-.27-2.78,0-.15,0-.3,0-.44s.14-.57.44-.55.2.36.25.58,0,.35.09.62A14.49,14.49,0,0,0,221.5,53Zm-.05-23.73a1.13,1.13,0,0,0-.17,1.63c.69,1.21.28,2.46.12,3.67-.07.53-.51.49-.79.11a2.43,2.43,0,0,1-.5-1.44c.08-.43,0-1,.56-1.15s.44-.55.3-.88a4.73,4.73,0,0,1-.15-2.39c0-.4.2-1-.51-.55-.16.1-.3-.09-.36-.27a1.39,1.39,0,0,1,.3-1.33c.4-.4.3.26.43.43s.13.14.28-.3c0-.13,0-.34.18-.32s.1.19.14.29c.13.43.23.87.4,1.28A1,1,0,0,1,221.45,29.31Zm.38-23.77a2.37,2.37,0,0,0-.08,1.32c0,.24.13.65-.23.64s-.34-.39-.31-.7a5.22,5.22,0,0,0,0-2c0-.11,0-.26.08-.31s.14.06.2.11C221.74,4.86,222,5.13,221.83,5.54Z"/><path class="d1f77bdc-6e01-43dd-a037-d4c4e5c136bd" d="M201.62,76.85c-.51-.12-.57.44-.91.56-.07,0-.11.09-.06.13s.12,0,.18,0l.37-.08a3.59,3.59,0,0,0,.47,0,.34.34,0,0,0,.35-.36C202,76.79,201.78,76.89,201.62,76.85Z"/><path class="d1f77bdc-6e01-43dd-a037-d4c4e5c136bd" d="M196.21,57.52c-.15,0-.16.17-.17.28,0,.42-.32.82-.12,1.26.4-.3.27-.8.46-1.15C196.35,57.74,196.44,57.53,196.21,57.52Z"/><path class="d1f77bdc-6e01-43dd-a037-d4c4e5c136bd" d="M181.79,33.69c0-.16,0-.39-.12-.42s-.13.21-.2.31,0,.37.16.41S181.77,33.81,181.79,33.69Z"/><path class="d1f77bdc-6e01-43dd-a037-d4c4e5c136bd" d="M182.6,40.74c-.06.24-.11.48-.16.72,0,.09-.07.19.06.23a.19.19,0,0,0,.15-.08c0-.12,0-.24,0-.38S182.78,40.88,182.6,40.74Z"/><path class="d1f77bdc-6e01-43dd-a037-d4c4e5c136bd" d="M181.81,45.54c0,.07.12.08.14,0a1,1,0,0,0-.08-.62A.59.59,0,0,0,181.81,45.54Z"/><path class="d1f77bdc-6e01-43dd-a037-d4c4e5c136bd" d="M181.92,43.63c0-.05,0-.1-.07-.15s-.12.07-.12.11c0,.44-.18.9.14,1.31C181.89,44.48,181.91,44.06,181.92,43.63Z"/><path class="d1f77bdc-6e01-43dd-a037-d4c4e5c136bd" d="M183.72,51.59c-.07,0-.06.21-.09.35s-.08.31.15.34.12-.13.1-.22S183.92,51.66,183.72,51.59Z"/><path class="d1f77bdc-6e01-43dd-a037-d4c4e5c136bd" d="M198.87,57.11c.14-.08.39.1.47-.15,0-.08-.15-.08-.24-.07l-.63.12C198.56,57.19,198.72,57.06,198.87,57.11Z"/><path class="d1f77bdc-6e01-43dd-a037-d4c4e5c136bd" d="M201,55.88a.41.41,0,0,0,0,.19c0,.17.08.31.27.27s.22-.19.25-.37-.09-.54-.41-.65c-.06,0-.15,0-.18,0C200.68,55.53,201.08,55.67,201,55.88Z"/><path class="d1f77bdc-6e01-43dd-a037-d4c4e5c136bd" d="M73.71,59.1s-.1.11-.09.14.08.21.15.23.11-.09.11-.17A.2.2,0,0,0,73.71,59.1Z"/><path class="d1f77bdc-6e01-43dd-a037-d4c4e5c136bd" d="M58.89,40.28a27.09,27.09,0,0,0-.86-3.8c-.06,0-.6,3.2-.61,3.29-.09.61-.18,1.5-.21,2.11-.15,2.55-.34,3.83-.47,6.37l0,1.26c0,.4,0,.79-.07,1.18-.06.85.43.77,1.26.78.63,0,1.4-.13,1.51-.79a4.49,4.49,0,0,0,.08-1c-.06-1.75-.26-3.71-.33-5.47A29.07,29.07,0,0,0,58.89,40.28Z"/><path class="d1f77bdc-6e01-43dd-a037-d4c4e5c136bd" d="M73.1,39c-.18,0-.15.18-.14.29a3.27,3.27,0,0,0,0,.44c.06-.17.13-.34.19-.52S73.22,39,73.1,39Z"/><path class="d1f77bdc-6e01-43dd-a037-d4c4e5c136bd" d="M87,81.06a.87.87,0,0,0,0,.23H87a.86.86,0,0,0,0-.23C87,81,87,81,87,81.06Z"/><path class="d1f77bdc-6e01-43dd-a037-d4c4e5c136bd" d="M73.15,49.61c0,.07,0,.13,0,.19l.14-.11c0-.06,0-.14-.07-.17S73.15,49.53,73.15,49.61Z"/><path class="d1f77bdc-6e01-43dd-a037-d4c4e5c136bd" d="M113.28,35.6a1,1,0,0,0-.29-.73c-.06,0-.13,0-.11.07.08.23.17.45.27.67S113.24,35.67,113.28,35.6Z"/><path class="d1f77bdc-6e01-43dd-a037-d4c4e5c136bd" d="M104.23,79.17a8.82,8.82,0,0,1-1.26-.64c-.37-.14-.71-.39-.94,0s-.23,4.12-.4,4.12a12.1,12.1,0,0,0-.15,2.75c.08.6.21.67.72.31s.77-.54,1.13-.84a4.77,4.77,0,0,0,1.91-3.4A2.54,2.54,0,0,0,104.23,79.17Z"/><path class="d1f77bdc-6e01-43dd-a037-d4c4e5c136bd" d="M91.58,35.46c0,.1.09.3.25.18A.55.55,0,0,0,92,35a.18.18,0,0,0-.21-.14A.44.44,0,0,0,91.58,35.46Z"/><path class="d1f77bdc-6e01-43dd-a037-d4c4e5c136bd" d="M61.74,45.44a1,1,0,0,0,.27.82c.18-.23.12-.52.15-.78a1.84,1.84,0,0,0-.21-.72C61.88,45,61.8,45.23,61.74,45.44Z"/><path class="d1f77bdc-6e01-43dd-a037-d4c4e5c136bd" d="M75.66,29.85s-.06-.07-.09-.11l-.17.05s0,.1.07.13S75.64,30,75.66,29.85Z"/><path class="d1f77bdc-6e01-43dd-a037-d4c4e5c136bd" d="M74.46,33.2a.2.2,0,0,0,.13-.23s-.1-.1-.11-.09a1.16,1.16,0,0,0-.18.2.46.46,0,0,0,0,.17Z"/><polygon class="d1f77bdc-6e01-43dd-a037-d4c4e5c136bd" points="112.2 51.41 112.15 51.41 112.17 51.47 112.2 51.41"/><path class="d1f77bdc-6e01-43dd-a037-d4c4e5c136bd" d="M71.28,45.39c0-.42,0-.78.06-1.13,0-.06,0-.16-.07-.16s-.13.09-.13.16a11.68,11.68,0,0,1-.08,2.13c0,.08,0,.21.1.2s.09-.14.13-.22C71.47,46,71.21,45.67,71.28,45.39Z"/><path class="d1f77bdc-6e01-43dd-a037-d4c4e5c136bd" d="M73.15,38.11s0,0,.06,0l.05-.08s0-.07,0-.08S73.13,38,73.15,38.11Z"/><path class="d1f77bdc-6e01-43dd-a037-d4c4e5c136bd" d="M71.26,48s-.08.08-.08.12,0,.14.06.14.17,0,.14-.15S71.31,48,71.26,48Z"/><path class="d1f77bdc-6e01-43dd-a037-d4c4e5c136bd" d="M105.65,31.47a.15.15,0,0,0-.16-.18.22.22,0,0,0-.14.1.14.14,0,0,0,.1.21C105.54,31.63,105.61,31.56,105.65,31.47Z"/><path class="d1f77bdc-6e01-43dd-a037-d4c4e5c136bd" d="M105.2,59.5c-.14.2-.34.36-.27.64,0,0,.11.07.13,0C105.27,60,105.16,59.74,105.2,59.5Z"/><polygon class="d1f77bdc-6e01-43dd-a037-d4c4e5c136bd" points="105.64 38.13 105.7 38.14 105.68 38.08 105.64 38.13"/><path class="d1f77bdc-6e01-43dd-a037-d4c4e5c136bd" d="M105.63,39.07a.71.71,0,0,0,0,.14h.07v-.14Z"/><path class="d1f77bdc-6e01-43dd-a037-d4c4e5c136bd" d="M106.77,53.66c0,.09,0,.22.12.22s.11-.19.13-.3,0-.31-.09-.44C106.78,53.28,106.8,53.48,106.77,53.66Z"/><path class="d1f77bdc-6e01-43dd-a037-d4c4e5c136bd" d="M105.11,37.77c0-.08,0-.23-.08-.21s-.08.25-.15.4,0,.21.05.33C105,38.11,105.06,38,105.11,37.77Z"/><path class="d1f77bdc-6e01-43dd-a037-d4c4e5c136bd" d="M106,62.43q0,.12.06.12s0,0,0-.06,0-.13,0-.13S106,62.4,106,62.43Z"/><path class="d1f77bdc-6e01-43dd-a037-d4c4e5c136bd" d="M103.27,58.9l0,.16s.06,0,.06-.06,0-.11,0-.16S103.27,58.88,103.27,58.9Z"/></svg>