<svg id="b918fd78-a876-4619-b06d-2b330a1192e8" data-name="Layer 1" xmlns="http://www.w3.org/2000/svg" viewBox="0 0 19.32 19.32"><defs><style>.\37 362d43b-7df8-4ab3-bcc6-d18b698a8724{fill:#f0553c;}</style></defs><title>social--search</title><path id="e6c3d6ed-004f-4e23-8fb7-adf4e60b5652" data-name="search" class="7362d43b-7df8-4ab3-bcc6-d18b698a8724" d="M19.66,18.17a1.47,1.47,0,0,1-.44,1,1.45,1.45,0,0,1-1,.44,1.38,1.38,0,0,1-1-.44l-4-4A8.14,8.14,0,0,1,5.34,16,8.17,8.17,0,0,1,2.73,14.3,8,8,0,0,1,1,11.69,8.08,8.08,0,0,1,1,5.34,8,8,0,0,1,2.73,2.73,8.17,8.17,0,0,1,5.34,1a8.08,8.08,0,0,1,6.35,0A8,8,0,0,1,16,5.34a8.14,8.14,0,0,1-.79,7.81l4,4A1.39,1.39,0,0,1,19.66,18.17Zm-7.47-6a5,5,0,0,0,1.52-3.68,5,5,0,0,0-1.52-3.67A5,5,0,0,0,8.51,3.31,5,5,0,0,0,4.84,4.84,5,5,0,0,0,3.31,8.51a5,5,0,0,0,1.53,3.68,5,5,0,0,0,3.67,1.52A5,5,0,0,0,12.19,12.19Z" transform="translate(-0.34 -0.34)"/></svg>