<svg id="794a8016-ccff-42db-ba7c-432dae25a74f" data-name="Layer 1" xmlns="http://www.w3.org/2000/svg" viewBox="0 0 36.86 36.86"><defs><style>.\31 d7d2373-4746-4975-b37a-2022f9276e97{fill:#f0553c;}</style></defs><title>social--instagram</title><path class="1d7d2373-4746-4975-b37a-2022f9276e97" d="M36.86,18.43c0,3.66,0,6.2-.12,7.6a11.27,11.27,0,0,1-3,7.73c-1.82,1.83-4.4,2.82-7.72,3q-2.12.12-7.61.12c-3.67,0-6.2,0-7.61-.12q-5-.24-7.72-3T.12,26C0,24.63,0,22.09,0,18.43s0-6.2.12-7.61q.24-5,3-7.72t7.72-3C12.23,0,14.76,0,18.43,0s6.2,0,7.61.12c3.32.16,5.9,1.15,7.72,3a11.25,11.25,0,0,1,3,7.72Q36.86,12.94,36.86,18.43ZM20.26,3.3h-6.2c-.57,0-1.35,0-2.31.07a19.12,19.12,0,0,0-2.48.24,9.1,9.1,0,0,0-1.71.45A6.11,6.11,0,0,0,5.45,5.45,6.2,6.2,0,0,0,4.06,7.56a9.1,9.1,0,0,0-.45,1.71,19.12,19.12,0,0,0-.24,2.48c0,1-.06,1.74-.07,2.31s0,1.42,0,2.53,0,1.73,0,1.84,0,.72,0,1.83,0,2,0,2.54,0,1.34.07,2.31a19,19,0,0,0,.24,2.47,9.44,9.44,0,0,0,.45,1.72,6.2,6.2,0,0,0,1.39,2.11A6.11,6.11,0,0,0,7.56,32.8a9.1,9.1,0,0,0,1.71.45,19.12,19.12,0,0,0,2.48.24c1,0,1.74.06,2.31.07H22.8c.57,0,1.34,0,2.31-.07a19,19,0,0,0,2.47-.24,9.44,9.44,0,0,0,1.72-.45,6.27,6.27,0,0,0,3.5-3.5,9.44,9.44,0,0,0,.45-1.72,19,19,0,0,0,.24-2.47c0-1,.06-1.74.07-2.31s0-1.42,0-2.54,0-1.72,0-1.83,0-.72,0-1.84,0-1.95,0-2.53,0-1.35-.07-2.31a19.12,19.12,0,0,0-.24-2.48,9.1,9.1,0,0,0-.45-1.71,6.27,6.27,0,0,0-3.5-3.5,9.44,9.44,0,0,0-1.72-.45,19,19,0,0,0-2.47-.24c-1,0-1.74-.06-2.31-.07Zm4.86,8.43a9.13,9.13,0,0,1,2.76,6.7,9.42,9.42,0,0,1-9.45,9.45,9.12,9.12,0,0,1-6.7-2.76A9.11,9.11,0,0,1,9,18.43a9.13,9.13,0,0,1,2.76-6.7A9.12,9.12,0,0,1,18.43,9,9.11,9.11,0,0,1,25.12,11.73Zm-2.35,11a6.13,6.13,0,0,0,0-8.68,6.14,6.14,0,0,0-8.69,0,6.16,6.16,0,0,0,0,8.68,6.14,6.14,0,0,0,8.69,0ZM29.83,7a2.22,2.22,0,0,1,0,3.12,2.16,2.16,0,0,1-1.56.65,2.22,2.22,0,0,1-2.21-2.21,2.22,2.22,0,0,1,2.21-2.21A2.16,2.16,0,0,1,29.83,7Z"/></svg>