<svg id="ba8de1f2-1715-4ef9-bac3-e83efcd95fd6" data-name="Layer 1" xmlns="http://www.w3.org/2000/svg" viewBox="0 0 126.3 140.05"><defs><style>.\34 559a874-bfdb-44c5-bab8-24dd3fd1ed46{fill:#f0553c;}</style></defs><title>wine-glass</title><g id="80d84435-00d1-4eb4-8e06-a6ceb11d6125" data-name="qT2dF1"><path class="4559a874-bfdb-44c5-bab8-24dd3fd1ed46" d="M48.05,83.57a10.22,10.22,0,0,1,.17-2,1.74,1.74,0,0,0-.68-1.65.52.52,0,0,0-.6-.05,14,14,0,0,1-4.7.91c-.44,0-.58-.17-.56-.52a23.73,23.73,0,0,1,.21-2.91c.17-1,.19-2,.27-3A53.49,53.49,0,0,1,43,68.9c.45-2.52.86-5.05,1.21-7.59.17-1.21.43-2.41.61-3.62s.34-2.18.43-3.28A16.25,16.25,0,0,1,46,50.89a36,36,0,0,0,.79-4.09c.31-1.48.61-2.95.92-4.42a28.51,28.51,0,0,0,.74-5.68c0-.11,0-.23,0-.34-.05-1.23-.14-1.32-1.35-1.4a3.08,3.08,0,0,1-.86-.12,1.27,1.27,0,0,0-1.76.84A4.67,4.67,0,0,1,43.81,37a.8.8,0,0,0-.15.43c-.08,1.36-.14,2.71-.22,4.07a47.66,47.66,0,0,1-.69,5.33c-.39,2.12-.86,4.22-1.23,6.35-.26,1.53-.75,3-1.15,4.53a31,31,0,0,0-.81,4c-.34,2.46-.6,5-1.18,7.38-.18.72-.13,1.49-.27,2.22-.25,1.28-.58,2.54-.83,3.81a25.12,25.12,0,0,0-.47,3c-.12,1.57-.28,3.13-.52,4.68a12.29,12.29,0,0,0,.08,3.32.76.76,0,0,0,.1.3.73.73,0,0,1,.54-.22c2,0,3.93-.34,5.91-.51A47.27,47.27,0,0,0,48,85.18C48,84.65,48,84.11,48.05,83.57ZM40,81.77c-.31,0-.2-.33-.16-.5s.12-.39.14-.61.09-.33.25-.33.11.21.14.33,0,.2,0,.29h0l0,.35A.42.42,0,0,1,40,81.77Z"/><path class="4559a874-bfdb-44c5-bab8-24dd3fd1ed46" d="M31.83,116.55c-1.69-3.45-3.43-6.83-5.26-10.2-.18-.34-1.4-2.7-2.84-5.17.19.46.38.92.59,1.38,1.18,2.52,2.62,5,3.89,7.43,1.15,2.24,2.39,4.42,3.63,6.59Z"/><path class="4559a874-bfdb-44c5-bab8-24dd3fd1ed46" d="M126.22,94.27a24.13,24.13,0,0,0-.43-3.36c-.25-1.13-.32-2.3-.5-3.45-.1-.6-.33-1.19-.38-1.79a41.31,41.31,0,0,0-1-5.42c-.28-1.3-.7-2.57-1-3.89-.13-.73-.31-1.45-.5-2.18-.38-1.52-1.08-2.94-1.47-4.47-.23-.91-.56-1.82-.81-2.73s-.67-1.87-1-2.83c-.48-1.61-1-3.22-1.51-4.81a1.56,1.56,0,0,1,0-1.22c.16-.35.09-.52-.24-.68a1.28,1.28,0,0,1-.74-1,9.53,9.53,0,0,0-.68-2.18,39.79,39.79,0,0,0-1.61-4.52,1.82,1.82,0,0,1-.28-.74,6.88,6.88,0,0,0-.61-2.07c-.62-1.7-1.4-3.33-2-5s-1.47-3.29-2.07-5c-.35-1-.88-2-1.22-3a40.48,40.48,0,0,0-1.52-3.82c-.74-1.6-1.7-3.08-2.4-4.7-.81-1.9-1.64-3.79-2.52-5.66a34.16,34.16,0,0,1-1.7-3.94,40.59,40.59,0,0,0-1.53-3.88c-.37-.81-.8-1.6-1.13-2.42a8.6,8.6,0,0,0-1-2.3,2.39,2.39,0,0,1-.59-.9,5.49,5.49,0,0,0-2.35-3,28.24,28.24,0,0,0-3.18-1.54,6.85,6.85,0,0,0-2-.6C85.79.64,83.21.65,80.64.41,79.46.3,78.28.37,77.1.15A16,16,0,0,0,73.25.09c-1.87.11-3.73.33-5.6.45s-3.84.46-5.77.66c-2.53.25-5.06.44-7.59.64-1.66.13-3.28.47-4.91.75-1,.16-1.93.36-2.88.47a37.76,37.76,0,0,0-4,.72c-1.65.38-3.34.53-5,1.05s-3.59,1.11-5.32,1.83c-1.95.81-3.79,1.87-5.77,2.63a24.76,24.76,0,0,0-5.73,3.08,4.11,4.11,0,0,1-.73.53,4.83,4.83,0,0,0-2.35,1.7,1.58,1.58,0,0,1-.84.67c-.43.13-1,1.05-.85,1.38.3.54,0,1-.05,1.46a48.9,48.9,0,0,1-1.11,4.79c-.29,1.08-.64,2.16-.84,3.26a15.92,15.92,0,0,0-.6,3.42.3.3,0,0,1-.05.16c-.59.85-.49,1.9-.82,2.83s-.06,1.82-.42,2.71a24.09,24.09,0,0,0-.72,2.93c-.34,1.23-.57,2.49-1,3.7-.28.84-.4,1.75-.64,2.61-.36,1.3-.6,2.64-1,3.93a29.28,29.28,0,0,0-.77,3.46c-.23,1.22-.54,2.42-.75,3.64a21.26,21.26,0,0,1-.73,3.18,17.15,17.15,0,0,0-.57,2.61,10.7,10.7,0,0,1-.55,2.11,23.13,23.13,0,0,0-1.38,5.67A36.52,36.52,0,0,1,2.86,74a29.06,29.06,0,0,0-1.24,5.31c0,.07-.06.14-.07.21A17.15,17.15,0,0,0,1,83.82a.29.29,0,0,1-.15.28,1.27,1.27,0,0,0-.47,1c0,.38-.09.76-.12,1.13A30.44,30.44,0,0,0,0,89.62c0,.91,0,1.83,0,2.75a46.66,46.66,0,0,0,.21,5.77c-.09.49.29.94.34,1.45a22.57,22.57,0,0,0,1.56,5.34c.54,1.54,1.18,3,1.86,4.53a45.29,45.29,0,0,0,3.49,6.23c.24.35.25.81.54,1.13.57.63,1.1,1.3,1.65,1.93.89,1,1.59,2.14,2.51,3.1a18.82,18.82,0,0,0,1.69,2,27.08,27.08,0,0,1,2.45,2.46c.44.43.83,1,1.31,1.39.66.58,1.18,1.31,1.88,1.85.19.15.46.19.6.42a6.74,6.74,0,0,0,1.72,1.73c.86.68,1.79,1.23,2.66,1.89A5,5,0,0,1,25,134,91.41,91.41,0,0,0,40.39,139c2.33.3,4.66.64,7,.95a10,10,0,0,1,2.73-.14,7.92,7.92,0,0,0,2.12.07,23.78,23.78,0,0,1,2.53-.1c1.47,0,2.94.17,4.42.24s2.74-.1,4.11-.18c1.57-.08,3.14-.18,4.71-.22,1,0,1.94-.2,2.9-.17a36.79,36.79,0,0,0,6.63-.47c.75-.12,1.5-.29,2.26-.42a1,1,0,0,1,.37-.18c2.71-.73,5.55-.68,8.31-1.19a27.47,27.47,0,0,0,8-3l.11-.06.54-.28a.67.67,0,0,1,.26-.09l.3-.15c.4-.15.8-.32,1.2-.49-.14,0-.26,0-.32-.13s.42-.22.67-.29l.86-.26a.48.48,0,0,0,.38-.13l0,0h0c-.08.15-.24.1-.37.12a.53.53,0,0,1,0,.2,48.7,48.7,0,0,0,24.8-23.73c.1-.46.2-.92.27-1.39a60.31,60.31,0,0,0,1.1-8A45.45,45.45,0,0,0,126.22,94.27ZM73.74,1.19a1.76,1.76,0,0,1,1-.11q2.84.24,5.65.53c1.75.17,3.51.28,5.24.58a13,13,0,0,1,5.7,2.08,10.08,10.08,0,0,1,2.13,1.94,6.88,6.88,0,0,1,.93,2.62A3.38,3.38,0,0,1,93.69,11a12.78,12.78,0,0,1-4.89,3.8c-1.22.61-2.41,1.29-3.63,1.91-.58.29-1.23.39-1.83.66-1.42.64-2.94,1-4.39,1.56a25.91,25.91,0,0,1-3.56.8c-1,.23-2.11.28-3.1.58-1.21.38-2.47.49-3.68.87a11.42,11.42,0,0,1-3.39.41c-.45,0-.83.22-1.27.23a29.74,29.74,0,0,0-5.15.49,12.62,12.62,0,0,1-3.25,0,19.89,19.89,0,0,0-5.23.12,11.19,11.19,0,0,1-2.52,0c-1.18,0-2.37-.05-3.55-.16A22.62,22.62,0,0,0,41.93,22a22.33,22.33,0,0,1-3.66-.1c-.94-.16-1.9-.31-2.85-.55a13.6,13.6,0,0,0-5.21-.83c-.34,0-.5-.24-.77-.32a.24.24,0,0,1,0-.15.31.31,0,0,1,.35-.15,15.56,15.56,0,0,0,2.16.12c1.95.22,3.92.35,5.84.7a31.41,31.41,0,0,0,5.3.29c1,0,2,0,3,0,1.25,0,2.47-.15,3.71-.24s2.4-.12,3.6-.16c1.46-.06,2.91,0,4.36-.16,1.26-.13,2.52-.17,3.78-.29A37.72,37.72,0,0,0,69,18.65c2.3-.72,4.63-1.3,7-1.87,1.48-.37,3-.69,4.46-1.07a21,21,0,0,0,5.37-1.78,34.86,34.86,0,0,0,4.71-2.78c.48-.39.94-.77,1.38-1.2,1.17-1.15.69-3.28,0-4.19a2.6,2.6,0,0,0-1.42-.67,18.48,18.48,0,0,1-3.28-1.45,5,5,0,0,0-2.66-.55,5.52,5.52,0,0,1-1.3-.22,5.11,5.11,0,0,1-1.87-.44A2.53,2.53,0,0,0,80,2.21a21.43,21.43,0,0,1-3.48-.48,2.39,2.39,0,0,0-.75-.05,9.1,9.1,0,0,1-2.08-.25c-.08,0-.18,0-.16-.12S73.68,1.23,73.74,1.19ZM19.23,16.06a13.15,13.15,0,0,1,2.51-2.49,16,16,0,0,1,2.17-1.34A4.53,4.53,0,0,0,25,11.47,15,15,0,0,1,28,9.73c1-.54,2.06-1,3.1-1.46,1.77-.81,3.58-1.5,5.41-2.16a12.56,12.56,0,0,1,2.05-.52A14.81,14.81,0,0,0,41.2,5c.66-.25,1.38-.14,2.08-.34a48.35,48.35,0,0,1,6.09-1.13c1.66-.26,3.31-.55,5-.77s3.65-.29,5.48-.35c1.13,0,2.25-.19,3.37-.33,1.3-.17,2.6,0,3.91-.07a25.35,25.35,0,0,1,5.43.29l.84.15h.13a89.75,89.75,0,0,1,10.6,1.46,9.68,9.68,0,0,1,2.57.95c1,.46,1.94.86,2.93,1.26A2.37,2.37,0,0,1,91,8.44a2.32,2.32,0,0,1-1.24,2.25A31.35,31.35,0,0,1,87,12.45c-1.39.63-2.75,1.32-4.21,1.84-1.2.44-2.46.55-3.66.94a32.62,32.62,0,0,1-4.37,1.14,31.44,31.44,0,0,0-4.27,1.09,13.5,13.5,0,0,0-2.5.75c-.54.32-1.35.21-2,.47a21.9,21.9,0,0,1-3.93.79,34.53,34.53,0,0,1-4.34.53c-2,.18-4-.05-6.07.08-1.28.08-2.56.15-3.84.28-1.71.18-3.43,0-5.15.05-2.28.08-4.5-.5-6.76-.57-1.37,0-2.7-.36-4-.39-2.35-.05-4.67-.51-7-.44-.4,0-.57-.25-.84-.41a13.56,13.56,0,0,0-3.82-1.52,3.47,3.47,0,0,1-1-.59C19,16.37,19.1,16.2,19.23,16.06ZM4.48,96.63c-.18,0-.3-.31-.34-.55a1,1,0,0,1,.17-.54c0-.08,0-.21.16-.17s.08.12.09.19,0,.26,0,.4h0a1,1,0,0,1,0,.17C4.56,96.31,4.65,96.63,4.48,96.63ZM10,110c-.05,0-.12,0-.14-.06a7.08,7.08,0,0,1-.7-1.37,1.35,1.35,0,0,1,0-.24,1.55,1.55,0,0,1,.14.2,4,4,0,0,1,.66,1.31A.43.43,0,0,1,10,110Zm1.76-3.16a.18.18,0,0,1-.23-.12c-.2-.43-.38-.87-.56-1.3-.09-.22,0-.24.19-.19a.52.52,0,0,1,.4.44c.06.31.16.62.26,1A.1.1,0,0,1,11.72,106.82ZM15.15,89l-1.4-.29c-.09,0-.2-.07-.18-.18s.15-.07.23-.09l1.44.1c.17,0,.38.06.33.3S15.31,89,15.15,89Zm10.07,43.14c-.24.29-.5-.2-.76-.35a26.89,26.89,0,0,1-4.1-3.44c-.08-.07-.19-.14-.17-.27s.09-.05.16-.09a2.6,2.6,0,0,1,.42.29,28.86,28.86,0,0,0,3.88,3.19C24.9,131.66,25.4,131.94,25.22,132.15Zm2.11,1.59c0,.11-.2.12-.33,0-.31-.24-.65-.47-.95-.73-.13-.12-.36-.32,0-.45.06,0,.1-.11.13-.18.07-.24.08-.66.38-.57a1.44,1.44,0,0,1,1,.81C27.52,133,27.24,133.33,27.33,133.74Zm17.57-14c0-.21-.06-.41-.11-.73,0,0,0,0,0-.1.08-.24-.15-.68.15-.69s.28.47.34.74.13.42.19.64.11.41-.17.47A.34.34,0,0,1,44.9,119.7Zm.93,5.5c-.09,0-.1-.09-.11-.16a7,7,0,0,0-.57-2.15,1.36,1.36,0,0,1,0-.46c0-.07,0-.16.12-.16a.19.19,0,0,1,.14.07,3.53,3.53,0,0,0,.55,1.41,3.58,3.58,0,0,0,0,1.23C46,125.07,46,125.19,45.83,125.2Zm5.54,9a.45.45,0,0,1-.36-.55.58.58,0,0,1,.09-.27c.12-.16,0-.51.29-.49s0,.39.2.51a2.13,2.13,0,0,1,0,.33C51.59,133.88,51.67,134.19,51.37,134.16Zm7.44-27.55c.1,1.36.09,2.73.06,4.09l0,1.23a25.49,25.49,0,0,1-.41,5.08c-.08.33.07.69-.06,1a.52.52,0,0,1-.12.18,50.53,50.53,0,0,0-.53,9,1.61,1.61,0,0,1,0,.31,1.15,1.15,0,0,0,.06.34c0,.18,0,.44-.11.42a.36.36,0,0,1-.12-.08,1.81,1.81,0,0,1-.95.86.8.8,0,0,1-1.21.64c-3.22-2-5.09-5.42-7-8.55a82.33,82.33,0,0,1-5.45-10.39c-.33,4.46-.87,8.91-1.1,13.39-.13,2.49.19,6.18-2.34,7.63a.73.73,0,0,1-.86,0,.67.67,0,0,1-.5,0,9.75,9.75,0,0,1-2.56-1.93.23.23,0,0,1-.08.14c-.17.09-.28-.1-.37-.2-1.14-1.31-2.28-2.62-3.4-3.95-.89-1.06-1.73-2.14-2.6-3.2A23.83,23.83,0,0,1,27,119.2c-.95-1.65-2-3.24-2.86-5l-.46-1a7.89,7.89,0,0,1-1.68-3,16.91,16.91,0,0,1-1.31-2.15,46.65,46.65,0,0,1-2.32-6.61c-.69-2.13-2.41-5.1-1.66-7.37a.76.76,0,0,1,1.19-.37c2.93-2.37,6.86,5.41,7.84,7.28,2.44,4.66,4.9,9.29,7.2,14,1,2,1.92,4.13,2.86,6.2.41-6,1.5-22.89,7.82-19.75,2.63,1.3,4.25,5,5.55,7.48,1.56,3,3.69,5.58,5.3,8.49a47,47,0,0,0,.46-8.31c-.3-5.13.45-10.21.38-15.29.23-.76.52-2.32,1.15-2.83,1.22-1,1.71,1.44,1.89,2a22.15,22.15,0,0,1,.75,3.51.52.52,0,0,0,.08.23c-.1,2.56-.29,5.12-.37,7.68v.06c0,.35,0,.69,0,1S58.78,106.27,58.81,106.61ZM29.2,100.83c.18-.07.22.12.26.23.33.76.64,1.53.95,2.3,0,.07.12.18,0,.25s-.17,0-.25-.09c-.3-.16-.22-.5-.37-.74a4.32,4.32,0,0,1-.72-1.59C29.09,101,29,100.88,29.2,100.83Zm8.65-4.63c.28,0,.71,0,.75.26s-.39.39-.64.44-.19-.3-.27-.43S37.63,96.17,37.85,96.2Zm3.49.69a.78.78,0,0,1,.62-.35c.3,0,.52,0,.58.37s-.11.5-.41.56a4.15,4.15,0,0,1-.56,0c-.18,0-.52.15-.63-.08S41.2,97.08,41.34,96.89Zm10.34,11.29a.34.34,0,0,1,.32-.28,1.58,1.58,0,0,1,1,.72c0,.11-.05.23-.15.15a1.85,1.85,0,0,0-.86-.21A.32.32,0,0,1,51.68,108.18Zm7.37-22.45c-.15,0-.31,0-.54,0s-.88.09-.91-.2.55-.17.85-.29a1.78,1.78,0,0,1,.51-.1c.17,0,.42-.17.47.12S59.27,85.69,59.05,85.73Zm1.2,20.73c-.14,1,0,2.1-.2,3.14,0,.1,0,.3-.08.29s-.1-.22-.1-.33c0-1.18,0-2.37,0-3.55a1.21,1.21,0,0,0,0-.57c0-1.78,0-3.56,0-5.34,0-.36,0-.73,0-1.09,0-.1,0-.2.11-.23s.18.06.23.14a1.71,1.71,0,0,1,.23,1c0,.91-.07,1.83-.07,2.74A32.29,32.29,0,0,1,60.25,106.46Zm8.91,22.44a.82.82,0,0,1-.63-.39,2.23,2.23,0,0,1-.32-.19,3.34,3.34,0,0,1-.89-1.68l-.39-4.16a124.77,124.77,0,0,1-1.74-15.71c-.21-4.74-1.64-9.5,0-14.12a.65.65,0,0,1,.42-.62A1.27,1.27,0,0,1,65.8,92l0,0a.39.39,0,0,0,.1-.16h.14a.76.76,0,0,1,.16.06,1.55,1.55,0,0,1,1.2.17c1.26-.25,1.93.73,2.28,2.33,1,4.78.61,10.13,1,15C70.81,111.3,73.47,129.35,69.16,128.9Zm22.47-11.07c-2.39-1.85-4.16-4.78-6-7.09-2.21-2.78-3.47-6.22-5.7-8.92.17.93.34,1.87.51,2.79l.21.41c.09.19.18.39,0,.57l0,0c.06.37.12.74.17,1.12l.39,2.8a8.84,8.84,0,0,1,.65,2c0,.31-.06.65-.09,1a.92.92,0,0,1-.19-.33c.53,3.71,1.11,7.41,2,11.06a2.17,2.17,0,0,1-1.86,2.62c-.72.81-1.74.88-3-.81-1.52-2-1.86-5.27-2.11-7.61-.09-.9-.19-1.81-.26-2.74-1.08-5.24-.67-10.54-1.16-16.37-.16-1.85-1.23-5.49.84-6.75a1.68,1.68,0,0,1,2.44.56,3.22,3.22,0,0,1,.64.33,3.13,3.13,0,0,1,.45.38c4,6.06,8,12.1,12.46,17.84a160.72,160.72,0,0,0-3.26-17.64c0-.8-.14-1.6-.17-2.18-.11-1.8-.62-3.8-.08-5.55a1.7,1.7,0,0,1,.22,0,.69.69,0,0,1,.55-.17,2.37,2.37,0,0,1,1.45.7.84.84,0,0,1,.48.48l.08.21A8.09,8.09,0,0,1,92,88.89c2.28,6.72,2.9,13.58,4.65,20.49a1.28,1.28,0,0,1,0,.19.8.8,0,0,1,.21.51C96.93,113.35,97,122,91.63,117.83ZM97,85.54c-.29,0-.52-.27-.68-.52a.39.39,0,0,1,.11-.56l.11,0a.31.31,0,0,1,.35.23A2.7,2.7,0,0,1,97,85C97,85.22,97.22,85.52,97,85.54Zm.08-12.13a20,20,0,0,0-3.18,1.29,30.13,30.13,0,0,1-3.55,1.41,11.88,11.88,0,0,1-6.56,2.14l-.23.08c-1.16.42-2.29.91-3.48,1.23a10.66,10.66,0,0,1-1.63.25l-.14.09a10.77,10.77,0,0,1-4.86.68.75.75,0,0,1-.44.16c-1.13.12-2.26.19-3.37.42-2,.41-4,1-6,1.36-1.31.25-2.64.44-4,.71-.91.18-1.84.27-2.75.52s-1.59.11-2.38.29c-.45.11-.91.15-1.36.22a.68.68,0,0,1-.45-.05c-1.4.23-2.82.24-4.27.34-1.75.12-3.48.37-5.22.49l0,0c.1.08.27.13.21.31s-.19.11-.3.12c-2.06.11-4.12.23-6.19.21-1.55,0-3.12,0-4.67-.1-1.71-.15-3.43,0-5.14-.19-.64-.07-1.28-.25-1.92-.33-1.52-.18-3-.54-4.52-.76a7.08,7.08,0,0,1-1.09-.14.37.37,0,0,1-.21,0c-.94-.06-1.88-.11-2.81-.19s-2.09-.24-3.13-.29c-2.1-.1-4.17-.38-6.25-.65a8.58,8.58,0,0,1-3.57-1.56c-1.08-.7-1-1.55-.72-2.56.42-1.71.77-3.43,1.18-5.14.22-.89.56-1.75.75-2.64.24-1.16.42-2.33.64-3.49s.49-2.15.73-3.22c.34-1.45.69-2.88,1.08-4.31.24-.87.25-1.82.56-2.66a23.43,23.43,0,0,0,.85-3.19c.42-2,.75-3.93,1.21-5.87.25-1,.63-2,.88-3,.45-2,.92-3.89,1.46-5.81.63-2.24,1-4.53,1.49-6.81.55-2.79,1.24-5.55,1.91-8.31.25-1,.63-2,.87-3,.29-1.26.7-2.49.9-3.76a4.75,4.75,0,0,1,.49-2.13c.11-.16.18-.45.45-.32s0,.32,0,.49a.83.83,0,0,1-.4.72c-.21.13-.22.3-.08.53a2.76,2.76,0,0,0,1.54,1.3c.78.21,1.45.69,2.26.83.34.06.63.39,1,.55a34.27,34.27,0,0,0,4.42,1.38c1.68.55,3.46.62,5.14,1.08,1,.27,1.95.44,2.9.74a18.28,18.28,0,0,0,4.37.45,20.63,20.63,0,0,1,3.5.33,15.63,15.63,0,0,0,5.15.24,40.89,40.89,0,0,1,7.34-.05,19.5,19.5,0,0,0,3.88-.28c1.41-.16,2.82-.22,4.23-.37s2.9-.22,4.34-.45c2.57-.42,5.07-1.19,7.65-1.59a33.35,33.35,0,0,0,5.18-1.41c1.23-.4,2.41-.93,3.65-1.32a28.2,28.2,0,0,0,5.87-2.92,25.22,25.22,0,0,0,3.06-2,8.51,8.51,0,0,0,1.35-1.67c.22-.31.4-.65.6-1s.48-.46.75,0c.49.8.81,1.67,1.24,2.49A33.59,33.59,0,0,1,99.21,18a39,39,0,0,0,1.86,3.92,26,26,0,0,1,1.78,4.22,6.27,6.27,0,0,0,.53,1.07,46.35,46.35,0,0,1,2.49,5.52c.63,1.79,1.47,3.49,2.07,5.29a.76.76,0,0,0,.08.21,10.27,10.27,0,0,1,1,2.3c.94,2.37,1.81,4.76,3,7a8.46,8.46,0,0,1,.41,1.35,14.87,14.87,0,0,0,1.06,3.31,11.06,11.06,0,0,1,.58,2,12.11,12.11,0,0,1,.8,2c.17.81.46,1.6.68,2.41a.5.5,0,0,1-.08.44c-.6,1-1.22,1.94-1.81,2.91a15.46,15.46,0,0,1-2.13,2.74c-.71.72-1.51,1.36-2.22,2.07a13.5,13.5,0,0,1-2.52,1.62,15.19,15.19,0,0,1-2.84,1.45c-.46.17-.84.49-1.3.7a20.08,20.08,0,0,0-2,1A17.56,17.56,0,0,1,97.11,73.41Zm17.73,20.82c-.35.55-.16,1.28-.6,1.8l0,0c.07.37-.32.41-.47.62s-.19,0-.14-.16c.27-.83.54-1.65.82-2.48,0-.09,0-.2.18-.18a.3.3,0,0,1,.15.16C114.8,94.05,114.87,94.18,114.84,94.23ZM100.56,117.6c-.22.06-.32-.32-.4-.53a15.46,15.46,0,0,1-.76-3.62c0-.1,0-.22.1-.23s.12.13.15.21a6.38,6.38,0,0,1,.48,1.91c.06.58.57,1,.43,1.64C100.54,117.2,100.76,117.55,100.56,117.6ZM106,121a.3.3,0,0,1-.39-.14,11.57,11.57,0,0,0-.56-1.3c0-.07,0-.23,0-.25s.22,0,.26.14a1.3,1.3,0,0,1,.09.39.86.86,0,0,0,.54.8.25.25,0,0,1,.17.24S106.06,120.93,106,121Zm5.28,2.45c-.92.8-1.65,1.84-2.88,2.23-.12,0-.22.26-.33.11s.1-.25.21-.34c.6-.5,1.2-1,1.83-1.46.37-.27.7-.58,1.06-.86a.35.35,0,0,1,.19-.1s.06.08.1.14A1.34,1.34,0,0,1,111.28,123.4Zm5.37-13.83c-.62,1.1-1.28,2.35-2.08,3.49-.19.28-.38.57-.56.86A13,13,0,0,1,111,117.2a9.42,9.42,0,0,1-2.7,1.68,1.63,1.63,0,0,1-1.23,0c-3.58-.08-4.43-6.67-5.13-9.67-.13-.58-.24-1.16-.35-1.74-.09-.21-.14-.43-.24-.64a4.38,4.38,0,0,1-.41-1.94c-.05-1.25-.33-2.36-.43-3.48a.53.53,0,0,1,0-.35c-.18-1.36-.35-2.72-.52-4.1-.45-3.73-2.46-7.38-2.1-11.13v0A1.61,1.61,0,0,1,98.76,84c1.73-1.89,3.21-4,4.87-5.9a28.4,28.4,0,0,0,3.78-4.87,17.7,17.7,0,0,0,1.47-1.53c.7-.46,1.38-.5,1.78.57a.83.83,0,0,1,.13.18c2.87,6-5,11.07-8.57,15.17.67,3.47,1.59,7.05,2.45,10.5,2-1.52,3.82-3.16,5.71-4.84.88-.78,2.49-2.1,3.56-.86s-.37,3.11-1.4,4.24a19.66,19.66,0,0,1-6.63,6.87c.46,2.22.88,4.47,1.37,6.69.08.18.16.35.26.53a1.12,1.12,0,0,1,.15.93.8.8,0,0,0,0,.15,57,57,0,0,0,6.42-6.39.67.67,0,0,1,.58-.28,31.23,31.23,0,0,1,3-2.75.84.84,0,0,1,1.3.17C120.29,104.93,117.74,107.62,116.65,109.57Zm-11.5-13.13c-.34-.11-.24-.49-.38-.73s0-.27.12-.24a.89.89,0,0,1,.67.54C105.65,96.26,105.37,96.33,105.15,96.44Zm15.13-21.6a.26.26,0,0,1-.33-.23l-.16-1.14a1.7,1.7,0,0,1,0-.28c0-.06,0-.17.08-.17s.16.07.17.11a7,7,0,0,0,.49,1.46C120.58,74.75,120.41,74.81,120.28,74.84Z"/><path class="4559a874-bfdb-44c5-bab8-24dd3fd1ed46" d="M109,77.93c-.61.74-1.23,1.46-1.86,2.17-.82.94-1.6,1.91-2.37,2.88A22.71,22.71,0,0,0,109,77.93Z"/><path class="4559a874-bfdb-44c5-bab8-24dd3fd1ed46" d="M39.42,129.5c1.14-2.06.87-6.51,1-8.69C40.14,123.71,39.81,126.61,39.42,129.5Z"/><path class="4559a874-bfdb-44c5-bab8-24dd3fd1ed46" d="M85,64.33c0-.66,0-1.33,0-2-.07-1.41,0-2.92-.58-3.12s-2.6-.29-3,.38a3.93,3.93,0,0,0-.33,1.9,13.72,13.72,0,0,1-.32,6.31c-.5,1.33-1.53,2.16-2.89,1.28-2.26-1.47-2.87-6.25-3.36-8.69a65.4,65.4,0,0,1-1.29-8.13,22.21,22.21,0,0,1-.67-10.93c.31-1.38.81-3.62,2.68-3.43,2.1.22,2.86,6.21,5,5.36l.17,0a6,6,0,0,0,1-2.7,1.56,1.56,0,0,0,0-.57,5.52,5.52,0,0,1-.21-1.52,1,1,0,0,0-.26-.75c-.79-.83-1-2-1.57-2.9-.23-.36-.48-.69-.73-1A10.72,10.72,0,0,1,77.32,32a1.06,1.06,0,0,0-.52-.43,8.11,8.11,0,0,0-2.89-.89,2.09,2.09,0,0,0-1.31.53,9.86,9.86,0,0,0-3.28,4.23,12.93,12.93,0,0,0-1,5.19,42,42,0,0,0,.51,7.5,14.62,14.62,0,0,1,.32,3.12,6.83,6.83,0,0,0,.27,1.53c.32,1.61.46,3.25.71,4.88.16,1,.34,2.11.53,3.16a.9.9,0,0,1,.1.34c.15,1.74,1,3.49,1.26,5.26.09.63.19,1.26.3,1.88.12.43.25.86.39,1.28.4,1.19.82,2.37,1.3,3.53a7,7,0,0,0,3.5,3,9.43,9.43,0,0,0,1.79.31,5.69,5.69,0,0,0,1.33-.19,7.25,7.25,0,0,0,2-1.23c1.47-1.35,1.63-3.61,2.27-5.39a1.08,1.08,0,0,1,.14-.24A31.43,31.43,0,0,0,85,64.33ZM78,75.78c-.18.12-.26-.13-.35-.26-.23-.37-.47-.74-.71-1.1a.63.63,0,0,1-.13-.57,6,6,0,0,0,1.08,1.49C78,75.45,78.15,75.68,78,75.78Z"/><path class="4559a874-bfdb-44c5-bab8-24dd3fd1ed46" d="M38,40.47a12.83,12.83,0,0,0-.63-1.22,5.39,5.39,0,0,0-2.15-2c-1.72-.82-3.21-2.06-4.92-2.91-.91-.44-1.83-.86-2.76-1.27a4,4,0,0,1-.49-.29l0,0c-1-.18-1.94-.41-2.92-.58a2.34,2.34,0,0,0-1,.71s0,0,0,.07c-.13.42-.3.82-.46,1.22a4.5,4.5,0,0,1-.58,1.5s0,0,0,0l-.06.3a2.36,2.36,0,0,1-.19.89,23.49,23.49,0,0,0-1.23,4.31c-.29,1.48-.75,2.91-1,4.39-.14.7-.48,1.38-.68,2.1-.35,1.26-.64,2.55-1,3.81S17,54.3,16.67,55.69c-.4,1.62-.73,3.25-1,4.9-.09.65-.32,1.25-.45,1.89-.31,1.46-.31,3-.52,4.43-.33,2.29-.63,4.58-.86,6.88a34.54,34.54,0,0,0-.3,8,1.87,1.87,0,0,0,1.81,1.78,11.29,11.29,0,0,1,1.14.19,3.73,3.73,0,0,0,1.54,0c.36-.13.3-.41.38-.69,0,0,.16-.72.18-.72.11-.44.08-.51.19-.94.28-1.07.68-2.11.88-3.2a45.12,45.12,0,0,0,.9-5,29.25,29.25,0,0,1,1.06-5.33.66.66,0,0,1,.65-.48,24.62,24.62,0,0,0,4.05-1.06,10.1,10.1,0,0,0,2.1-.53,28,28,0,0,0,5.86-3.65A17,17,0,0,0,37.53,58a19,19,0,0,0,2-5.42,18.23,18.23,0,0,0,.76-4,13.53,13.53,0,0,0-.3-3.41A20.93,20.93,0,0,0,38,40.47ZM31.49,61a7.74,7.74,0,0,1-.73.55c-.09.06-.24.2-.35,0s0-.22.12-.29l1.14-1a.52.52,0,0,1,.21-.07s.05.09.15.25Zm.81-4.71c-.17.37-.27.76-.43,1.13A5.51,5.51,0,0,1,29.28,60a26.38,26.38,0,0,1-4.94,2.58c-.51.16-1,.4-1.46.58s-.54,0-.48-.39c.22-1.61.42-3.22.67-4.82.27-1.78.55-3.55.8-5.33.28-2,.28-4,.6-5.92A51.87,51.87,0,0,0,25,39.45c0-1.62,0-1.29,1.29-.87a8.27,8.27,0,0,1,3.77,2.32,9.92,9.92,0,0,1,2.12,3.47,46.81,46.81,0,0,1,1.25,6.19A13.59,13.59,0,0,1,32.3,56.28Z"/><path class="4559a874-bfdb-44c5-bab8-24dd3fd1ed46" d="M70.13,79.11a74.36,74.36,0,0,0-1.12-8,43.57,43.57,0,0,1-.66-4.72,63.42,63.42,0,0,0-1.55-7.76c-.47-1.93-.83-3.88-1.25-5.83s-.93-4-1.34-6c-.54-2.62-1.38-5.15-2-7.73a8.84,8.84,0,0,0-1.79-3.63c-.56-.63-1-1.45-1.68-1.88a2.91,2.91,0,0,0-2-.23s-.06,0-.09.06a11,11,0,0,1-.9,2.14c-2.53,6.51-3.1,13.57-4.64,20.38-1.37,6-2.56,12.19-3.57,18.32A2.16,2.16,0,0,0,48.84,76c.19.09.4.17.62.25a3.39,3.39,0,0,0,1,0,.37.37,0,0,0,.35-.42.55.55,0,0,1,.17-.4c1.28-1.38,1.38-3.22,1.69-5a14.56,14.56,0,0,1,.5-1.86,19.53,19.53,0,0,0,1-3.86c0-.63.22-1.23.3-1.85a.94.94,0,0,1,1-.89A18.31,18.31,0,0,0,60.7,60.3c.48-.22,1-.32,1.46-.54.25-.11.49,0,.47.33A18.06,18.06,0,0,0,63,63.53c.26,1.72.46,3.45.65,5.18.13,1.19.3,2.38.5,3.56.13.78.34,1.55.52,2.32a6.17,6.17,0,0,1,.12.73,2.7,2.7,0,0,0,.3,1,6.22,6.22,0,0,1,.44,1.6c.19,1.09.57,3.75.86,4.81a24.68,24.68,0,0,1,3.9-.6C70.27,81.66,70.18,79.58,70.13,79.11Zm-16.88-26-.81,3.55c0,.13,0,.37-.13.34s-.07-.27-.05-.4c.19-.87.29-1.76.48-2.63.24-1.11.55-2.2.82-3.29,0-.11,0-.27.14-.27s.09.16.14.26C53.64,51.53,53.44,52.34,53.25,53.15Zm7.66.08c-.82.25-1.67.14-2.48.34a.28.28,0,0,1-.28,0,.53.53,0,0,1-.17,0c-.44,0-.87,0-1.31,0a.48.48,0,0,1-.31-.75v0c0-.12.06-.27.08-.39.27-1.62.55-3.24,1-4.82s.9-3,1.22-4.5c0-.1,0-.24.19-.24a.24.24,0,0,1,.24.2,25.6,25.6,0,0,1,.64,2.51c-.12.44.14.81.28,1.19a15.76,15.76,0,0,1,.86,3.34c.1.84.28,1.66.45,2.48C61.37,53,61.27,53.12,60.91,53.23Zm6.7,17c-.22,0-.21-.24-.25-.42-.19-.89-.39-1.78-.56-2.67a31,31,0,0,1-.51-5c0-.07,0-.19,0-.2s.09.07.11.14c.2,1,.39,2,.55,2.74a31.87,31.87,0,0,0,.71,4.9C67.74,69.87,67.76,70.16,67.61,70.19Z"/><path class="4559a874-bfdb-44c5-bab8-24dd3fd1ed46" d="M18.14,120.94l-.65-.57c-.08-.07-.12-.16,0-.25a1.3,1.3,0,0,1,.23-.15c.31,0,.35.34.52.51a.41.41,0,0,1,.12.42C18.29,121,18.21,121,18.14,120.94Z"/><path class="4559a874-bfdb-44c5-bab8-24dd3fd1ed46" d="M73.31,134.19a1.11,1.11,0,0,1-.57.27c-.18,0-.38.07-.41-.14s.14-.26.29-.3a1.14,1.14,0,0,0,.47-.19c.11-.08.24-.15.34,0S73.41,134.08,73.31,134.19Z"/><path class="4559a874-bfdb-44c5-bab8-24dd3fd1ed46" d="M96.47,64a1.25,1.25,0,0,1-.7-.21c-.42.17-.89.33-1.43.51a1.38,1.38,0,0,1-1.72-1.55,17.15,17.15,0,0,1-.86-4.66c0-.21-.06-.42-.1-.63l-.21-2.69c0-.06,0-.11,0-.17-.12-.45-.25-.9-.37-1.35a1.31,1.31,0,0,1,.77-1.65c.85-.35,1.79-.5,2.24-1.39l-.21-.68a23.72,23.72,0,0,1-.55-2.79,1.3,1.3,0,0,1-.37-.19l-.13,0a.9.9,0,0,1-.4,0c-.45.17-.9.33-1.37.47a1.47,1.47,0,0,1-.65.1,2,2,0,0,1-.41.08l-.18,0a.47.47,0,0,1-.45-.24c-.48-.39-.44-1.18-.47-1.74,0,0,0,0,0-.07-.38-2-.59-4.11-.92-6.16-.24-1.47-.79-2.8-1-4.27a1.3,1.3,0,0,1,.85-1.32A8.93,8.93,0,0,0,90,32.52a5.85,5.85,0,0,0-.15-2.07c-.05-.25-.14-.48-.21-.72-.25-.94-.65-1.11-1.58-.87a7.09,7.09,0,0,1-2,.38c-.33,0-.67.28-1,.37-.53.13-1.07.21-1.61.32a1.23,1.23,0,0,0-1.1,1.52c0,.22,1.16,3.58,1.21,3.95,0,.2,1.32,4.41,1.59,5.76a1,1,0,0,0,.2.58l0-.14.06.14c-.2.25,0,.51,0,.76.29,1.28,1.6,10.28,1.69,12h0c.45,2.51,1,5.06,1.35,7.59.12.63.23,1.25.31,1.89a31.19,31.19,0,0,0,.53,4,3.55,3.55,0,0,0,1.14,2.26c.47.35.86.63,1.43.31.8-.43,1.74-.25,2.55-.58,1-.43,2.11-.64,3.1-1.15a1.71,1.71,0,0,0,.82-1.51C98.22,65.91,97.35,64,96.47,64Z"/><path class="4559a874-bfdb-44c5-bab8-24dd3fd1ed46" d="M112.27,56.62a6.15,6.15,0,0,0-.84-2.12c-.83-1.08-1.64-2.16-2.55-3.17A24.91,24.91,0,0,1,106.1,48a24.73,24.73,0,0,0-2.66-3.42c-.69-.74-.73-1-.24-1.86a9.74,9.74,0,0,0,1.18-6.23,5.7,5.7,0,0,1-.06-.58,12.41,12.41,0,0,0-1.74-5.74,6.6,6.6,0,0,0-1.22-1.36,9.78,9.78,0,0,0-1.58-1.57,2,2,0,0,0-1.22-.43,12.06,12.06,0,0,1-2.33,0,1.84,1.84,0,0,0-1.88.44,10,10,0,0,1-1.38,1,1.1,1.1,0,0,0-.22,1.48c.65,2.82,2.1,5.37,2.73,8.16a30.3,30.3,0,0,0,1.42,4.7c.08.44.16.88.22,1.32a2.33,2.33,0,0,0,.07.25c.26.76.38,1.58.63,2.34a1.06,1.06,0,0,1,.17.37A1.24,1.24,0,0,0,98,47s0,0,0,.06a.47.47,0,0,1,0,.22c.54,2.12.93,4.26,1.36,6.4a26.53,26.53,0,0,0,.72,3.88,54.8,54.8,0,0,1,1.29,5.92c.21.84.5,1.67,1.55,1.83a1.17,1.17,0,0,0,.33,0,6,6,0,0,0,1.4-.62c.61-.28.4-1,.49-1.49a10.22,10.22,0,0,0-.73-4.6,48.75,48.75,0,0,1-1.17-5.09c-.22-1.28-.58-2.53-.86-3.79,0-.1-.13-.23,0-.28s.17.06.22.16a24.36,24.36,0,0,0,1.84,3,4,4,0,0,0,1,1.17c.32.22.42.74.7,1.08a16.81,16.81,0,0,0,1.74,1.74,7.1,7.1,0,0,1,1,1.62,1.31,1.31,0,0,0,1.52.76h0c.07-.37.44-.34.67-.45A1.56,1.56,0,0,0,112.27,56.62Zm-12.14-14.5c-.44-1.07-.91-2.13-1.33-3.24a59.14,59.14,0,0,1-2.19-8.57.73.73,0,0,1,.91-.45c3,.92,3.6,4,3.82,6.92a14.46,14.46,0,0,1,.34,1.74,3.46,3.46,0,0,1-.15,1.4.58.58,0,0,1-.13.36c-.11.31-.24.61-.36.91a1.36,1.36,0,0,1-.1.21l-.12.32A.76.76,0,0,1,100.13,42.12ZM101.6,52c-.11,0-.13-.11-.17-.19-.4-.77-.48-1.65-.8-2.44-.15-.39-.26-.79-.37-1.19-.05-.18-.11-.42.16-.47s.34.16.39.35.1.44.14.67h-.06c.23,1,.47,2,.7,3C101.62,51.87,101.8,52,101.6,52Z"/><path class="4559a874-bfdb-44c5-bab8-24dd3fd1ed46" d="M63.59,127.78c-.15.1-.18-.16-.16-.3a2,2,0,0,1,.09-.33s0,0,0-.05-.08-.33,0-.5c.19.13.06.34.13.49S63.79,127.64,63.59,127.78Z"/><path class="4559a874-bfdb-44c5-bab8-24dd3fd1ed46" d="M82.68,73.8h0Z"/><path class="4559a874-bfdb-44c5-bab8-24dd3fd1ed46" d="M10.26,110.65l0-.15-.06,0,.09.12c0,.18,0,.39.23.47s.12-.06.11-.14C10.6,110.74,10.51,110.61,10.26,110.65Z"/><path class="4559a874-bfdb-44c5-bab8-24dd3fd1ed46" d="M29.84,90.57l-.08.06a.43.43,0,0,0,.09.13,4,4,0,0,0,.43.28c.13.07.27.16.42,0a.21.21,0,0,0,.08-.26c-.06-.16-.22-.11-.34-.14Z"/><path class="4559a874-bfdb-44c5-bab8-24dd3fd1ed46" d="M46.32,131.59c0-.08,0-.24-.1-.22s-.21.32-.28.5a.1.1,0,0,0,.12.14C46.31,132,46.31,131.78,46.32,131.59Z"/><path class="4559a874-bfdb-44c5-bab8-24dd3fd1ed46" d="M28.24,35.43c0-.13-.1-.2-.25-.16s-.19.15-.17.3.06.21.17.19A.34.34,0,0,0,28.24,35.43Z"/><path class="4559a874-bfdb-44c5-bab8-24dd3fd1ed46" d="M93.93,128.63c0-.12-.11-.1-.18-.1a.46.46,0,0,0-.43.23c-.06.12.11.13.19.11S93.85,128.81,93.93,128.63Z"/><path class="4559a874-bfdb-44c5-bab8-24dd3fd1ed46" d="M32.1,98.14c0,.16,0,.35.22.35s.1-.14.08-.22,0-.35-.2-.38S32.12,98.06,32.1,98.14Z"/><path class="4559a874-bfdb-44c5-bab8-24dd3fd1ed46" d="M48.06,133c0-.14,0-.24-.12-.21s-.21.25-.21.42,0,.25.11.17S48,133.11,48.06,133Z"/><path class="4559a874-bfdb-44c5-bab8-24dd3fd1ed46" d="M40.69,137.71c0,.06-.2.08-.17.23a.2.2,0,0,0,.26.15.23.23,0,0,0,.16-.27C40.92,137.7,40.82,137.7,40.69,137.71Z"/><path class="4559a874-bfdb-44c5-bab8-24dd3fd1ed46" d="M63.37,84.74a1,1,0,0,0,.31-.22c0-.06-.1-.1-.16-.06s-.33,0-.37.18S63.24,84.74,63.37,84.74Z"/><path class="4559a874-bfdb-44c5-bab8-24dd3fd1ed46" d="M37.16,102.2c0-.14,0-.21-.07-.15a3.44,3.44,0,0,0-.21.53s0,.08.07.12Z"/><path class="4559a874-bfdb-44c5-bab8-24dd3fd1ed46" d="M115.23,87.25a.23.23,0,0,0,.22.22c.16,0,.19-.08.17-.2s-.06-.23-.19-.24S115.27,87.16,115.23,87.25Z"/><path class="4559a874-bfdb-44c5-bab8-24dd3fd1ed46" d="M96.31,103.24c0,.11,0,.29.17.31s.15-.13.13-.24,0-.34-.2-.34S96.32,103.14,96.31,103.24Z"/><path class="4559a874-bfdb-44c5-bab8-24dd3fd1ed46" d="M108.79,93.47a.31.31,0,0,0,.17-.24c0-.09,0-.16-.11-.13a.32.32,0,0,0-.22.24C108.61,93.42,108.67,93.47,108.79,93.47Z"/><path class="4559a874-bfdb-44c5-bab8-24dd3fd1ed46" d="M12.16,107.46c-.13.06-.09.17-.09.25s-.09.28.11.31.2,0,.16-.15A2.44,2.44,0,0,0,12.16,107.46Z"/><path class="4559a874-bfdb-44c5-bab8-24dd3fd1ed46" d="M114.06,121.91c.1-.09.2-.18.16-.33a.12.12,0,0,0-.17-.09c-.12.05-.12.18-.12.29S114,121.93,114.06,121.91Z"/><path class="4559a874-bfdb-44c5-bab8-24dd3fd1ed46" d="M117.49,89.82c0-.07,0-.17-.14-.13s-.08.11-.09.17,0,.17.11.16S117.49,89.91,117.49,89.82Z"/><path class="4559a874-bfdb-44c5-bab8-24dd3fd1ed46" d="M87.08,122.45a.15.15,0,0,0-.14.17c0,.08,0,.16.12.17a.13.13,0,0,0,.13-.19C87.18,122.54,87.11,122.49,87.08,122.45Z"/><path class="4559a874-bfdb-44c5-bab8-24dd3fd1ed46" d="M42.64,82.21a1,1,0,0,0,0,.25.87.87,0,0,0,.11.18c0-.09,0-.18,0-.26S42.79,82.23,42.64,82.21Z"/><path class="4559a874-bfdb-44c5-bab8-24dd3fd1ed46" d="M9,107.84a.43.43,0,0,0-.13-.14c-.06,0-.1,0-.08.09a.41.41,0,0,0,.12.18C8.94,108,9,107.93,9,107.84Z"/><path class="4559a874-bfdb-44c5-bab8-24dd3fd1ed46" d="M101.5,127.23c0-.06-.07-.11-.11-.13a.07.07,0,0,0-.11.08.17.17,0,0,0,.08.13S101.44,127.27,101.5,127.23Z"/><path class="4559a874-bfdb-44c5-bab8-24dd3fd1ed46" d="M8.42,106.73s-.07.06-.07.08,0,.12.07.14.1,0,.08-.08A.5.5,0,0,0,8.42,106.73Z"/><path class="4559a874-bfdb-44c5-bab8-24dd3fd1ed46" d="M60.79,89.47a.93.93,0,0,0,.19.07.19.19,0,0,0,.13-.07c0-.09,0-.13-.13-.13S60.9,89.39,60.79,89.47Z"/><path class="4559a874-bfdb-44c5-bab8-24dd3fd1ed46" d="M72.93,107.51l.08,0s0,0,0,0l0-.08Z"/><path class="4559a874-bfdb-44c5-bab8-24dd3fd1ed46" d="M59.68,118.52a1,1,0,0,0,0-.21s0-.12-.08-.1,0,.07,0,.1S59.65,118.41,59.68,118.52Z"/><path class="4559a874-bfdb-44c5-bab8-24dd3fd1ed46" d="M8.63,107.29s-.05.06-.05.08.05,0,.07.07,0,0,0-.07S8.66,107.32,8.63,107.29Z"/><path class="4559a874-bfdb-44c5-bab8-24dd3fd1ed46" d="M29.66,131l0,0,.08.07,0-.05Z"/><path class="4559a874-bfdb-44c5-bab8-24dd3fd1ed46" d="M60,110.38s0,0,0,0,0,0,0,0l0,0S60,110.4,60,110.38Z"/><path class="4559a874-bfdb-44c5-bab8-24dd3fd1ed46" d="M11.22,56.94a4.41,4.41,0,0,1,.33-2.06c.48-1.91.94-3.81,1.5-5.7A26.22,26.22,0,0,0,14.28,45a36.37,36.37,0,0,1,1.24-4.8c.32-1.21.58-2.44.84-3.66a18.56,18.56,0,0,1,.75-2.29c.52-1.52,1-3,1.59-4.53a16.1,16.1,0,0,1,.65-2.18,9.43,9.43,0,0,0,.56-1.3.57.57,0,0,1,.68-.4c.35.09.25.38.22.62s0,.35.25.43c.74.24,1,.61.84,1.4a24.4,24.4,0,0,1-2.28,7.33,32.62,32.62,0,0,0-2.19,5.64c-.28,1-.74,2-1.08,3-.49,1.37-1,2.73-1.39,4.14-.43,1.57-.72,3.17-1.07,4.75-.24,1.07-.61,2.12-1,3.17a4.21,4.21,0,0,1-.89,1.32c-.13.15-.24.31-.48.21a.47.47,0,0,1-.32-.49C11.25,57.22,11.23,57.09,11.22,56.94ZM20.77,29a.33.33,0,0,0-.15-.35c-.17-.11-.23.08-.31.16a2,2,0,0,0-.45.59c-.39.76-.51,1.62-.85,2.39s-.48,1.76-.79,2.62a19.59,19.59,0,0,0-.94,3.2c0,.1,0,.31,0,.31s.19-.13.26-.24c.62-1,.76-2.13,1.38-3.13a13.83,13.83,0,0,0,1.52-4.28A9,9,0,0,0,20.77,29Z"/><path class="4559a874-bfdb-44c5-bab8-24dd3fd1ed46" d="M11.94,65.05a11.83,11.83,0,0,1-.29,2.78c-.38,2.2-.47,4.43-.74,6.64a9,9,0,0,1-1.44,4.06c-.41.61-.8.61-1.15,0a4.83,4.83,0,0,1-.51-3.28,31.67,31.67,0,0,0,.55-3.89,7.28,7.28,0,0,1,.52-2.47c.42-1,.25-2.07.53-3.09a4.23,4.23,0,0,1,.87-2.07c.53-.53.91-.52,1.3.14A2.44,2.44,0,0,1,11.94,65.05Zm-1,1.41c0-.19,0-.3-.08-.41s0-.4-.2-.41-.21.23-.25.39a14.36,14.36,0,0,0-.31,1.67c-.13,1.53-.67,3-.75,4.52C9.29,73.47,9.1,74.73,9,76c0,.12-.08.31.09.34s.22-.16.26-.3a29.89,29.89,0,0,0,.84-4.87,31.7,31.7,0,0,1,.64-4A3.35,3.35,0,0,0,10.94,66.46Z"/><path class="4559a874-bfdb-44c5-bab8-24dd3fd1ed46" d="M111.81,58.73Z"/><path class="4559a874-bfdb-44c5-bab8-24dd3fd1ed46" d="M111.82,62.05h0Z"/><path class="4559a874-bfdb-44c5-bab8-24dd3fd1ed46" d="M111.68,61.9v0Z"/><path class="4559a874-bfdb-44c5-bab8-24dd3fd1ed46" d="M111.83,62l-.15-.14v0l.15.13Z"/><path class="4559a874-bfdb-44c5-bab8-24dd3fd1ed46" d="M73.37,2.39h0Z"/><polygon class="4559a874-bfdb-44c5-bab8-24dd3fd1ed46" points="114.22 96.01 114.25 96 114.24 96.03 114.22 96.01"/></g></svg>