<svg id="737da6b2-a7a7-47f5-b21a-abf09dd599e9" data-name="Layer 1" xmlns="http://www.w3.org/2000/svg" viewBox="0 0 79.98 79.98"><defs><style>.\33 8546bec-746a-4144-a3f9-572fff3d608b{fill:#f3efe8}</style></defs><title>close</title><path class="38546bec-746a-4144-a3f9-572fff3d608b" d="M78 1.46a459.06 459.06 0 0 0-38 35.33q-2.74-2.59-5.53-5.15Q25 21.37 15.9 10.89c-.83-.94-2.09 0-1.93 1.06L3.14.36C2.11-.74.45.92 1.48 2l7.62 8.18c-.68-.54-1.35-1.1-2-1.64-1.2-.9-2.8.56-1.7 1.66L36 40.86c-1.47 1.57-2.94 3.14-4.4 4.73q-10.23 9.35-20.71 18.49c-.94.83 0 2.09 1.06 1.93L.36 76.84c-1.1 1 .56 2.69 1.66 1.66l8.16-7.62c-.54.68-1.1 1.35-1.64 2-.9 1.16.56 2.76 1.66 1.66L40 44.81l22.32 22.34a1.15 1.15 0 0 0 1.88-.39c4.2 4.3 8.4 8.61 12.66 12.86C78 80.7 79.47 79.1 78.52 78a458 458 0 0 0-34.47-37.25l23.1-23.09a1.15 1.15 0 0 0-.39-1.88c4.3-4.2 8.61-8.4 12.86-12.66C80.7 2 79.1.51 78 1.46z"/></svg>