<svg id="3d199031-8d75-4fd3-9e58-f2b4433e9e56" data-name="Layer 1" xmlns="http://www.w3.org/2000/svg" viewBox="0 0 54.16 66.68"><defs><style>.\35 fd122c5-ac45-4c7c-8d63-110d2616be5f{fill:#193942}</style></defs><title>corkscrew</title><path class="5fd122c5-ac45-4c7c-8d63-110d2616be5f" d="M54 24.65l.05.2c-.16.17-.41.3-.49.64l.38-.26a5.09 5.09 0 0 1-.16.78c-.13.39-.3.76-.46 1.14a10.59 10.59 0 0 1-.48 1.09 15.78 15.78 0 0 1-1.23 2.06c-.2.26-.42.5-.64.75s-.44.42-.63.65a6.74 6.74 0 0 1-1.78 1.59 3 3 0 0 1-1.29.55.42.42 0 0 0-.22.11.78.78 0 0 1-.74.18c-.35 0-.7-.11-1-.18a.87.87 0 0 1-.27-.14 3.19 3.19 0 0 0-.43-.32 2.92 2.92 0 0 1-1-.89c-.32-.33-.63-.68-.92-1a8 8 0 0 1-.88-1 4.56 4.56 0 0 0-.6-.73c-.14-.16-.29-.32-.43-.49l-.22-.22a2.62 2.62 0 0 1-.5-.55 2 2 0 0 0-.58-.58 1.18 1.18 0 0 1-.42-.41 1.62 1.62 0 0 0-.43-.4c-.16-.13-.35-.2-.39-.43 0 0 0-.05-.07-.06a13 13 0 0 1-1.22-.88c-.19-.12-.43-.18-.63-.29a4.06 4.06 0 0 1-.64-.29 1.9 1.9 0 0 0-.85-.2c-.34 0-.67-.05-1-.08-.06 0-.11-.06-.16-.08a.58.58 0 0 0-.21-.07l-1.45.1a13.31 13.31 0 0 1-1.54-.12 1.33 1.33 0 0 0-.21 0l-1.42-.1h-.48l-.87-.13c-.44-.07-.88-.13-1.32-.22a4.35 4.35 0 0 1-.75-.24c-.26-.1-.29-.11-.48.12a1.86 1.86 0 0 0-.21.28c-.51.89-1 1.79-1.52 2.7-.32.59-.65 1.18-1 1.74-.09.15-.15.33-.25.48-.41.66-.84 1.31-1.25 2-.31.5-.61 1-.91 1.52-.14.23-.25.49-.37.73l-.79 1.3c-.34.72-.68 1.43-1 2.14s-.69 1.31-1 2-.64 1.22-.97 1.86c-.19.37-.42.71-.6 1.08a3.28 3.28 0 0 0-.19.62l-.39.56a.23.23 0 0 1-.16.11c-.13 0-.18.09-.24.18-.33.46-.66.92-1 1.37a6.27 6.27 0 0 0-1.15 2.38 4.14 4.14 0 0 0 0 1.57 10.19 10.19 0 0 0 .6 1.87 7.46 7.46 0 0 1 .33.94.84.84 0 0 0 .08.2 2.56 2.56 0 0 1-.22 2.43 1.72 1.72 0 0 1-.68.6 3.28 3.28 0 0 1-2.05.42 6.52 6.52 0 0 0-1.17 0 6 6 0 0 0-1.11.2 3.3 3.3 0 0 0-.69.32c-.13.07-.13.21-.12.34a3.38 3.38 0 0 0 .33 1 5 5 0 0 1 .25.64 3.52 3.52 0 0 1 0 1.85 1.1 1.1 0 0 1-.91.9 6.13 6.13 0 0 0-.61.18 1.41 1.41 0 0 1-1 0 .88.88 0 0 0-.82.07c-.15.17-.15.25-.15.5a6.8 6.8 0 0 0 .31.86 2.08 2.08 0 0 1 .17 1.32 2.87 2.87 0 0 0 0 .31.7.7 0 0 1-.6.61 3.39 3.39 0 0 1-1.23.1 7 7 0 0 0-.79 0 .28.28 0 0 0-.32.28 1.55 1.55 0 0 0 0 .43 3.9 3.9 0 0 0 .22.76c.11.24 0 .41-.12.59s-.35.09-.47-.07a7.77 7.77 0 0 1-.73-1.07A6.74 6.74 0 0 1 0 64.18a1 1 0 0 1 0-.34c0-.18.06-.36.08-.54a.76.76 0 0 1 .78-.68 5 5 0 0 1 .56.09c.23 0 .46.09.69.1a1.41 1.41 0 0 0 .4-.15 4.06 4.06 0 0 0-.42-1.2c-.14-.27-.26-.55-.38-.83a.94.94 0 0 1-.04-.63 8.09 8.09 0 0 1 .33-.88.59.59 0 0 1 .54-.37 6 6 0 0 1 2 .08 1.14 1.14 0 0 0 1.11-.37.87.87 0 0 0 .06-.91c0-.09-.06-.19-.1-.29a7.24 7.24 0 0 0-.39-.79 1.55 1.55 0 0 1-.31-.78 4.21 4.21 0 0 1 0-1.23 2 2 0 0 1 .62-1.13 2.8 2.8 0 0 1 1.65-.65 7.7 7.7 0 0 1 1.27 0 1.05 1.05 0 0 1 .24.06c.2.05.39.11.58.14s.35.08.46 0a1.39 1.39 0 0 0 .51-.51 1.42 1.42 0 0 0-.2-1.67.81.81 0 0 1-.26-.5.37.37 0 0 0 0-.15 3 3 0 0 1-.42-1.41 5.2 5.2 0 0 1 .33-2.86 8.07 8.07 0 0 1 .5-.84c.21-.37.41-.74.63-1.1s.6-1 .9-1.45a1.8 1.8 0 0 0 .11-.2l-.26-.44.36-.61.72-1.3c.16-.3.33-.59.47-.89a6.75 6.75 0 0 0 .43-.95 7.4 7.4 0 0 1 .79-1.5c.25-.43.5-.86.73-1.3a4.71 4.71 0 0 0 .21-.52l.36-.91a.36.36 0 0 0 0-.18c0-.16.06-.25.14-.37s.3-.4.43-.61a11.71 11.71 0 0 1 .9-1.54c.28-.36.33-.81.62-1.16.08-.1.08-.27.15-.4.22-.44.47-.87.69-1.31.3-.61.58-1.24.88-1.86.14-.32.32-.61.47-.92a8.25 8.25 0 0 0 .59-1.52c.1-.35.2-.69.32-1s.26-.57.4-.88c-.31-.25-.62-.49-.93-.75a7.94 7.94 0 0 1-.73-.69c-.1-.12-.22-.22-.33-.33s-.52-.49-.76-.76c-.41-.45-.8-.91-1.21-1.37-.27-.29-.55-.57-.83-.86 0 0-.1 0-.14-.08a3.65 3.65 0 0 1-.43-.35c-.19-.18-.36-.38-.56-.55a12.89 12.89 0 0 0-1.1-.85c-.4-.26-.83-.48-1.25-.72a3.83 3.83 0 0 0-.61-.3c-.43-.15-.87-.28-1.3-.4a4.5 4.5 0 0 0-.63-.07 5.29 5.29 0 0 1-1.68-.52 6 6 0 0 0-1.09-.49 3.89 3.89 0 0 1-1.25-.71c-.29-.19-.58-.37-.86-.58s-.29-.11-.22-.47a6.83 6.83 0 0 0 0-1.11v-.14c.16-.22.08-.45.11-.68s.1-.49.15-.77a.46.46 0 0 1 .09.28.37.37 0 0 0 .09.25 7.8 7.8 0 0 0 1.55.79 5.14 5.14 0 0 0 1.56.15 9.27 9.27 0 0 0 1.4-.21 8.74 8.74 0 0 1 1.14-.08h.73a3.57 3.57 0 0 1 1.26.09c.32.08.65.1 1 .2.49.17 1 .39 1.44.58a3.59 3.59 0 0 1 1.14.61 22.79 22.79 0 0 1 2.53 2.48 6.88 6.88 0 0 0 .62.59 8.76 8.76 0 0 0 1.7 1.27 1.51 1.51 0 0 1 .26.18 4.76 4.76 0 0 0 2.37 1l2.7.42a1 1 0 0 0 .25 0 4.93 4.93 0 0 1 .94.11c.55.08 1.11.14 1.67.2.4.05.8.07 1.2.13a6.06 6.06 0 0 1 .7.19c.73.21 1.46.4 2.18.63.4.14.77.36 1.15.53.21.1.43.17.63.28l1.52.84A5.86 5.86 0 0 1 38.69 21c.21.22.45.41.66.63s.36.39.55.57a3.1 3.1 0 0 1 .83 1.35.24.24 0 0 0 .06.11c.31.33.62.67 1 1 .14.14.33.22.47.37a2.86 2.86 0 0 0 .76.46 5.91 5.91 0 0 0 .79.41 4.58 4.58 0 0 0 .73.18 8.29 8.29 0 0 1 .86.21 1.37 1.37 0 0 1 .44.28 1.2 1.2 0 0 0 .74.35l1.07-1.69-.34-.45a.53.53 0 0 1 .42.1l.25-.21a.54.54 0 0 0 .09-.12 11.3 11.3 0 0 1 1-1.57v-.1l-.29-.17c.1-.13.19-.21.35-.14a.31.31 0 0 0 .37-.08c.23-.22.48-.41.71-.64a.73.73 0 0 0 .11-.27 2 2 0 0 0 0-.25h-.27c-.08 0-.13-.13-.21-.19-.28-.21-.46-.54-.81-.68a2.25 2.25 0 0 1 .24-.08c.09 0 .19 0 .23.13a.46.46 0 0 0 .44.34c.19 0 .28.17.39.29s.31.26.58.06a.65.65 0 0 1 .79 0c-.08.14-.21.12-.33.13a.8.8 0 0 0-.54.23c-.44.42-.93.8-1.34 1.25a14 14 0 0 0-1 1.31 7 7 0 0 1-.84 1.25.16.16 0 0 0-.06.08 6 6 0 0 1-.76 1.29 7.82 7.82 0 0 0-.79 1.65c-.16.45-.33.91-.45 1.38s-.18.86-.26 1.3-.14.91-.22 1.36a1.51 1.51 0 0 1-.12.26.25.25 0 0 0 .08.36.41.41 0 0 1 .21.32c0 .15.12.24.32.28v-.8-.82a2 2 0 0 1 .1-.59 5.87 5.87 0 0 0 .13-.84 8 8 0 0 1 .31-1.28c.22-.61.51-1.19.79-1.78.19-.42.39-.83.61-1.24s.35-.59.53-.89.3-.51.46-.75.33-.43.47-.66a2.5 2.5 0 0 1 1.19-1 5.64 5.64 0 0 0 .93-.63.42.42 0 0 1 .32-.09l-.24.19-.16.19a.4.4 0 0 0 .36-.12.48.48 0 0 1 .43-.12c.32 0 .45-.12.38-.46a.6.6 0 0 1 .44.12.55.55 0 0 0 .64.07c-.3-.37-.36-.39-.76-.32h-.24a.41.41 0 0 1 .49-.19.78.78 0 0 0 .21 0 .39.39 0 0 1 .38.11.62.62 0 0 0 .66.17 2.18 2.18 0 0 1 .14.48 6.32 6.32 0 0 1 0 .87c0 .15 0 .33-.19.41.24.32.1.64 0 .95-.16-.09-.16-.09-.25 0zm-5.94 3.2c-.23.17-.25.21-.17.46a.43.43 0 0 0 .16-.47c.06 0 .17-.06.16-.07a.89.89 0 0 0-.09-.26h-.08zm-3.19 4.24c.08-.36.15-.67.19-1 0-.09 0-.2-.09-.29a1.49 1.49 0 0 0-.12-.14c-.38-.45-.75-.91-1.14-1.35a11.79 11.79 0 0 0-.9-.83c-.26-.23-.54-.46-.82-.68a4.21 4.21 0 0 1-.62-.47 7.73 7.73 0 0 1-.66-.85c-.14-.18-.28-.37-.41-.56a4.41 4.41 0 0 1-.47-.77 2.23 2.23 0 0 0-1-1.06 8.83 8.83 0 0 1-.8-.56 3.53 3.53 0 0 0-.83-.5 12.23 12.23 0 0 1-1.18-.65 5.58 5.58 0 0 0-1-.48 4.77 4.77 0 0 0-.7-.18c-.42-.1-.82-.3-1.24-.42a12.38 12.38 0 0 1-1.79-.77 4.42 4.42 0 0 0-1.45-.48 2.28 2.28 0 0 1-.7-.07 1.6 1.6 0 0 0-.8-.19c-.35-.24-.7.08-1.05 0-.17.19-.43.1-.65.2a2 2 0 0 1-.81.06c-.27 0-.53-.05-.79-.05a2.64 2.64 0 0 1-.92-.22c-.34-.13-.68-.26-1-.41a1.45 1.45 0 0 1-.63-.4 1.5 1.5 0 0 0-.25-.19c-.22-.17-.51-.23-.69-.47s-.32-.19-.41-.37h-.08a1.13 1.13 0 0 1-.61-.32c-.23-.16-.43-.38-.66-.55a8.31 8.31 0 0 1-1.45-1.13 12.39 12.39 0 0 0-.94-.83c-.54-.49-1.06-1-1.62-1.49a7.15 7.15 0 0 0-1.71-1.05 1.48 1.48 0 0 1-.27-.16 1.94 1.94 0 0 0-1.24-.55.61.61 0 0 1-.18-.05c-.31-.1-.61-.23-.92-.31l-1.32-.3c-.16 0-.32 0-.47-.05-.31 0-.61 0-.91-.09l-1-.12a7.22 7.22 0 0 0-1.2-.22.18.18 0 0 1-.09 0l-1-.42a.82.82 0 0 0 0 .31.56.56 0 0 1 0 .34c-.1.22-.11.23.09.39.4.3.8.61 1.22.89a3.59 3.59 0 0 0 1.22.5 2.09 2.09 0 0 1 .57.26 5.17 5.17 0 0 0 1.43.5c.48.11 1 .15 1.45.3a9.34 9.34 0 0 1 2.06.94 6.94 6.94 0 0 1 1 .58 8.57 8.57 0 0 1 1.53 1.36.58.58 0 0 0 .12.1 6.48 6.48 0 0 1 1.1 1c.6.63 1.16 1.29 1.72 1.94a1.22 1.22 0 0 0 .15.17l.58.57a3.79 3.79 0 0 0 .65.55 7.63 7.63 0 0 1 1 .73 4.15 4.15 0 0 0 .76.5c.31.16.58.38.88.56.06 0 .12.1.19.1a3.47 3.47 0 0 1 1.13.4 10.06 10.06 0 0 0 1.85.62 9.09 9.09 0 0 0 1.18.21c.29.05.58.1.87.13s.71.05 1.07.08.45.05.68.06a6.66 6.66 0 0 1 1.35.09 5.74 5.74 0 0 0 1.31 0 7.93 7.93 0 0 0 .84-.07 1 1 0 0 1 .25 0c.4.07.79.17 1.19.21a5.65 5.65 0 0 1 1.52.5 4.52 4.52 0 0 1 .85.43c.55.38 1.08.8 1.61 1.21a.55.55 0 0 1 .21.19 2.91 2.91 0 0 0 .86.85c-.1-.36-.32-.59-.4-.94a1.16 1.16 0 0 1 .15.07c.13.17.26.34.37.51a15.92 15.92 0 0 0 1.42 2 20.2 20.2 0 0 0 2.16 2 1 1 0 0 0 .17.1zm1.48-5a2.94 2.94 0 0 0-.35-.18 1.8 1.8 0 0 1-.58-.23.54.54 0 0 0-.29-.12c-.33-.07-.66-.11-1-.18a3.14 3.14 0 0 1-.95-.32 3 3 0 0 0-.9-.43s-.07-.08-.11-.11a1.53 1.53 0 0 0-.18-.18 5.64 5.64 0 0 1-1.3-1.28.67.67 0 0 1-.13-.21 3 3 0 0 0-.81-1.26c-.58-.61-1.2-1.19-1.82-1.76a3.22 3.22 0 0 0-.89-.66c-.22-.1-.43-.22-.64-.34a4.58 4.58 0 0 0-.69-.37 5.33 5.33 0 0 1-1.1-.46 9.83 9.83 0 0 0-1.61-.65 11.67 11.67 0 0 0-1.76-.46 2.63 2.63 0 0 0-.8-.13 2.8 2.8 0 0 1-.71-.06 3.22 3.22 0 0 0-.86-.11 3.2 3.2 0 0 1-1.27-.2h-.18a.58.58 0 0 1-.43 0l-.7-.18h-.11c-.05.17-.15.06-.23 0l-.33-.08-1.29-.2c-.19 0-.4 0-.59-.09-.39-.13-.76-.29-1.15-.41A1.35 1.35 0 0 1 22 16a.84.84 0 0 0-.24-.19 3.5 3.5 0 0 1-1-.61c-.28-.19-.52-.43-.78-.64a1.9 1.9 0 0 1-.21-.19c-.32-.32-.64-.63-.95-1a5.64 5.64 0 0 1-.81-.88c-.05-.09-.15-.14-.23-.21-.26-.22-.52-.43-.77-.66A2.48 2.48 0 0 0 15.9 11c-.2-.05-.38-.19-.58-.25-.37-.1-.63-.46-1.06-.44a4.54 4.54 0 0 0-1.59-.35 7 7 0 0 0-1.12 0 8.55 8.55 0 0 0-2.25.26 2.11 2.11 0 0 1-.66.06 5.11 5.11 0 0 1-1.5-.19 3 3 0 0 1-1-.42c-.07-.06-.22-.12-.27-.09s-.14 0-.2-.05-.13 0-.2 0c-.05.22.14.25.22.35a2.18 2.18 0 0 0 1.23.65 6.11 6.11 0 0 1 .83.17 1.21 1.21 0 0 0 .34 0l.5.06a9.73 9.73 0 0 0 1.07.12A5.82 5.82 0 0 1 11 11l1 .28a6.39 6.39 0 0 1 1.64.57c.39.23.77.48 1.18.69A9.73 9.73 0 0 1 17 14.12c.57.52 1.11 1.07 1.66 1.61a1.3 1.3 0 0 0 .22.19c.85.54 1.58 1.24 2.44 1.75.36.21.69.45 1 .68a2 2 0 0 1 .37.24 2.33 2.33 0 0 0 .93.53l.47.19a4.94 4.94 0 0 0 .88.33 7.05 7.05 0 0 0 2.59 0 3.46 3.46 0 0 1 1.6 0 3.66 3.66 0 0 0 .88.12 1.79 1.79 0 0 1 .61.12l.8.32.81.34 1.27.49c.27.1.54.2.81.27a6.9 6.9 0 0 1 2.22.89 5.84 5.84 0 0 0 .68.41 5.91 5.91 0 0 1 1.08.64 9.26 9.26 0 0 0 1 .73 1.49 1.49 0 0 1 .56.58c.13.25.25.51.4.75s.26.28.36.44a5.44 5.44 0 0 0 .87 1.15 3.83 3.83 0 0 0 .44.36c.13.1.28.18.41.29.59.54 1.19 1.07 1.76 1.63a10.54 10.54 0 0 1 .75.88.89.89 0 0 0 .32.32 12.63 12.63 0 0 1 1.17-3.25zm-3.18 4.4c.25.31.51.61.74.93a3 3 0 0 0 .76.67 1.67 1.67 0 0 0 .2.06v-.51c0-.16-.07-.28-.26-.29a.48.48 0 0 1-.24-.07c-.29-.27-.72-.36-1-.7a.38.38 0 0 1-.19-.06zm-21.7-9.28c-.5.51-.45 1.22-.72 1.8h.06l.85-1.68zM51.1 26a1.4 1.4 0 0 0-.48.8 7.12 7.12 0 0 0-.36.89c.12-.09.19-.12.21-.16a6.14 6.14 0 0 1 .58-1.07.39.39 0 0 0 .05-.46zm-.54-2.91h-.05a6.58 6.58 0 0 0-.54.38c-.23.2-.44.41-.65.63a.24.24 0 0 0 0 .34l.68-.66a2.72 2.72 0 0 0 .24-.24c.09-.1.2-.25.32-.41zm-4 9.28a4.84 4.84 0 0 0 .52-1.76 4.62 4.62 0 0 0-.5 1.8zm.86-2.82c.28-.39.28-.51 0-.84a4.32 4.32 0 0 0-.11.54c.03.12.09.2.13.34zm1.4-3.45c-.08 0-.15 0-.17.08l-.39.64v.12a1.58 1.58 0 0 0 .58-.8zM51 25a2 2 0 0 0-.45.62c.25-.02.27-.05.45-.62zm-3 5h.07a2 2 0 0 0 .29-1 1.37 1.37 0 0 0-.16.32c-.14.28-.2.49-.27.68zm3.17-6.65c.39-.18.39-.18.46-.54-.27.19-.46.26-.53.56zm-4.77 6.76a1.09 1.09 0 0 0-.11.61c.12-.28.13-.35.04-.59zm-23-5.46a.34.34 0 0 0 .42.17c-.17-.15-.17-.15-.49-.15zm28.1 0a.15.15 0 0 0-.26 0v.16c0 .02.17 0 .24-.06s-.05-.1-.05-.12zm-32.63 9.46h-.07l-.23.45h.05zm33.61-6.86l.06.05.19-.2c-.23-.1-.24.04-.25.15zM11.63 54.68l-.33.19c.17.05.3.01.33-.19zM46.55 31l-.07.33h.06zm-.07 1.76c.13-.09.19-.15.05-.28zm-26.93-2.35h-.07l-.07.2h.08zm.18-.55v.26c.07-.07.16-.12 0-.26zm4.14-6.47c0 .05-.08.09-.07.11s.06.05.09.06a.1.1 0 0 0 .05-.06.9.9 0 0 0-.07-.11zm-4.86 8l.08-.25a.36.36 0 0 0-.13.15s.04.1.04.13zm-.17.41h-.05l-.05.13zM49 24.69c.05 0 .07.06.08 0a.09.09 0 0 0 0-.06zM6.53 5.51a1.1 1.1 0 0 1 0-.31c.2-.49.4-1 .63-1.48a10.25 10.25 0 0 1 .59-1.07c.18-.29.4-.55.62-.84-.18-.14 0-.32 0-.51l.17.08a.18.18 0 0 0 .25-.06C9 1 9.23.71 9.45.42A3 3 0 0 1 9.86 0 .27.27 0 0 1 10 0a2.43 2.43 0 0 1 .73.16c.38.19.8.19 1.17.38l1.35.73A12.89 12.89 0 0 1 15 2.55 6.36 6.36 0 0 1 16.26 4a1.71 1.71 0 0 0 .82.72 6.84 6.84 0 0 1 .81.41 3.09 3.09 0 0 0 .71.28c.73.14 1.47.25 2.21.37.32.06.64.13 1 .18l.69.1c.2 0 .4 0 .6.06a8.36 8.36 0 0 0 1.12.14c.52 0 1 .13 1.55.2h.15a12.29 12.29 0 0 1 2.18.21.87.87 0 0 1 .22.05l1 .26.88.22.4.1c.37.07.75.11 1.12.2a6.44 6.44 0 0 1 .72.3c.47.22.94.43 1.4.67a9.69 9.69 0 0 1 1.55.85c.73.55 1.48 1.08 2.17 1.68.38.32.75.65 1.11 1l1.6 1.54a2.33 2.33 0 0 0 .35.27.5.5 0 0 1 .25.35.71.71 0 0 0 .31.41 4.51 4.51 0 0 1 .51.47c0 .05 0 .15.07.26a.56.56 0 0 1 .54.23c.58.26 1 .79 1.55 1.07l.26.12c.58.24 1.14.51 1.71.77s.9.5 1.37.71a3.24 3.24 0 0 0 .7.16l1.39.29a8.09 8.09 0 0 1 .82.19 3.58 3.58 0 0 1 1.12.48 1.17 1.17 0 0 0 .3.14s.11 0 .15.06c.25.23.49.46.75.68.06.06.13.09.17.18a1.07 1.07 0 0 1-.77-.18c-.21-.17-.41-.36-.61-.54a1.25 1.25 0 0 0-.84-.37c-.1-.11-.18-.25-.37-.23a3.58 3.58 0 0 1-1.34-.2 2.18 2.18 0 0 0-.29-.05l-.06.26a1.49 1.49 0 0 1-.53-.33 1.86 1.86 0 0 0-.51-.25c-.22-.1-.53 0-.68-.27a9 9 0 0 1-1.44-.75.22.22 0 0 0-.11-.05 1.32 1.32 0 0 1-.89-.39 1.37 1.37 0 0 0-.24-.07 1.69 1.69 0 0 1-.37-.15c-.22-.14-.42-.3-.63-.46a.1.1 0 0 1-.05 0 1.69 1.69 0 0 0-1.21-.5l-1.36-.26a1.56 1.56 0 0 1-.44-.07c-.34-.19-.75-.15-1.09-.33s-.7-.31-1-.47a2.79 2.79 0 0 1-.42-.28l-.34-.2a6.18 6.18 0 0 1-1.17-.73c-.42-.29-.85-.57-1.26-.87-.15-.1-.27-.24-.42-.33a3.84 3.84 0 0 0-1.4-.7c-.19 0-.37-.08-.56-.12l-1.83-.31c-.25.13-.51 0-.76 0-.44.06-.89.15-1.34.19a9.29 9.29 0 0 1-1.29.06c-.33 0-.67-.07-1-.1l-1.39-.07a1.28 1.28 0 0 1-.43-.1 5 5 0 0 1-1.3-1 7.9 7.9 0 0 1-.7-.94c-.11-.14-.17-.34-.36-.43a.28.28 0 0 1-.13-.17c0-.09-.07-.15-.17-.16-.15-.35-.54-.48-.74-.79a2.47 2.47 0 0 0-.37-.42 3.23 3.23 0 0 0-.46-.25.55.55 0 0 1-.21-.14c-.15-.22-.4-.31-.58-.48 0 0-.05-.05-.08-.05A3 3 0 0 1 18 5.88a1.26 1.26 0 0 0-.66-.18.83.83 0 0 1-.62-.17.13.13 0 0 0-.1 0 2.54 2.54 0 0 1-1.19-.27 3.13 3.13 0 0 0-.75-.26 1.31 1.31 0 0 1-.68-.33 4.14 4.14 0 0 1-.53-.67c-.12-.18-.32-.32-.31-.57-.34-.22-.52-.6-.8-.87s-.29-.28-.42-.43a2.91 2.91 0 0 0-.86-.7 5.46 5.46 0 0 1-.48-.36q-.36-.19-.75-.38a1.31 1.31 0 0 0-.37 0l-.59.81a.92.92 0 0 0 .18.12A2.3 2.3 0 0 1 10.36 3a.43.43 0 0 1 0 .19 5.65 5.65 0 0 1-.26 1c-.17.4-.57.4-.93.38s-.86-.13-1.28-.19l-.85-.12c-.13.34-.26.66-.39 1-.05.11-.12.2-.17.3zm34.83 10c0-.1.06-.19 0-.26s-.12-.26-.21-.29a.86.86 0 0 1-.34-.25c-.29-.3-.58-.61-.89-.9-.7-.66-1.41-1.32-2.12-2-.39-.35-.8-.68-1.21-1a4.53 4.53 0 0 0-1-.74.16.16 0 0 1-.1-.08 3.05 3.05 0 0 0-1-.72c-.13-.07-.24-.18-.38-.24-.59-.28-1.2-.52-1.78-.85a3.71 3.71 0 0 0-1.8-.5.63.63 0 0 1-.3-.07A7.2 7.2 0 0 0 29 7.24a1.87 1.87 0 0 0-.34 0c-.37-.09-.73-.2-1.1-.27s-.72-.11-1.09-.16H26c-.16 0-.6-.08-.91-.08a3.8 3.8 0 0 1-.82-.08l-.41-.07c-.28 0-.56-.06-.84-.12a3.66 3.66 0 0 0-.94-.1.78.78 0 0 1-.48-.07 1 1 0 0 0-.6-.15 1.26 1.26 0 0 1-.28 0c-.4-.08-.8-.17-1.2-.24a2.43 2.43 0 0 0-.47 0c0 .06 0 .1.06.11a2.78 2.78 0 0 1 .84.55c.22.17.47.31.66.49a17.43 17.43 0 0 1 1.89 2.14 5.85 5.85 0 0 0 1.34 1.38 1.65 1.65 0 0 0 .89.29 11.55 11.55 0 0 1 1.32.08 12.59 12.59 0 0 0 2.95-.11 7.17 7.17 0 0 1 1.79 0 12.84 12.84 0 0 1 2.3.46 3.16 3.16 0 0 1 .9.45c.35.26.68.53 1 .77l.63.42a2.09 2.09 0 0 1 .54.43c.15.2.46.14.54.4.46.25.91.51 1.38.73a11 11 0 0 0 1.44.56 11.56 11.56 0 0 0 1.33.25h.17l-.24.06zM17.26 5.22v-.08A1.78 1.78 0 0 0 17 4.9a2.76 2.76 0 0 1-1-.68 1.2 1.2 0 0 1-.29-.38 1.12 1.12 0 0 0-.27-.43c-.56-.5-1.13-1-1.73-1.46A8.77 8.77 0 0 0 11.47.66a2.07 2.07 0 0 0-.86-.18 5.38 5.38 0 0 0 .7.58 4.82 4.82 0 0 1 1.08 1c.46.56.88 1.15 1.33 1.73a1.79 1.79 0 0 0 1 .74 3 3 0 0 1 .79.24 1.45 1.45 0 0 0 .35.12l1 .28zm-10-1.4a1.72 1.72 0 0 1 .56.09 1.5 1.5 0 0 0 .5.18c.15 0 .3.09.46.11a1.54 1.54 0 0 0 .95 0 .71.71 0 0 0 .32-1.07l-.38-.58a.8.8 0 0 0-.15-.17 4.13 4.13 0 0 0-.94-.47l-.24.53a1.11 1.11 0 0 0 0-.13v-.14a6.92 6.92 0 0 0-1.03 1.65z"/><path class="5fd122c5-ac45-4c7c-8d63-110d2616be5f" d="M25.17 13.39c0-.15.34-.05.16-.29l.36-.07c.3.27.61.53.91.81a1.79 1.79 0 0 0 1.35.42 1.2 1.2 0 0 0 .81-.32 1.57 1.57 0 0 1 1.34-.28 3.63 3.63 0 0 1 1.38.49c.38.22.79.37 1.17.57a1.46 1.46 0 0 1 .42.32 2.64 2.64 0 0 0 .87.61 4.71 4.71 0 0 0 .84.42c.09 0 .14.15.22.24.13-.12.26-.06.41 0a4.86 4.86 0 0 0 .85.34 9.16 9.16 0 0 1 1.67.8.65.65 0 0 0 .17.08c.27.06.54.09.8.16a1.39 1.39 0 0 1 .37.23c.22-.12.39.15.62.13.14-.27.36-.08.54-.12v.18c.22-.12.45 0 .67-.1a1.69 1.69 0 0 1 .66 0v.09c.32.14.65-.14 1 0s.66.22 1 .37.64.24.79.61c.3-.11.44.18.66.29l.32.2a6.28 6.28 0 0 1 1.18.8c.21.22.41.44.62.65 0 0 .06.05.08.05.23 0 .33.2.51.28s.1.12.14.19 0 .18.1.19c.31.09.4.43.69.58-.15.09-.25.13-.39 0l-.52-.4-.94-.63c-.18-.15-.36-.29-.53-.45a5.17 5.17 0 0 0-1.06-.74c-.46-.27-.93-.53-1.38-.83a6.46 6.46 0 0 0-2-.81h-.13c-.41 0-.82 0-1.23-.07a8.77 8.77 0 0 0-1-.06 4.34 4.34 0 0 1-1-.22c-.35-.05-.65-.22-1-.24-.21 0-.41-.2-.62-.31a1.68 1.68 0 0 0-.3-.15c-.3-.12-.62-.2-.92-.32s-.68-.3-1-.46q-.77-.36-1.5-.75a1.32 1.32 0 0 1-.37-.29 2.63 2.63 0 0 0-1.17-.71 2.77 2.77 0 0 1-.46-.22 3.09 3.09 0 0 0-1.68-.55h-.41a.66.66 0 0 0-.58.23 1.35 1.35 0 0 1-.83.35 1.75 1.75 0 0 1-1.06-.12 2.43 2.43 0 0 1-.54-.43c-.21-.19-.39-.41-.61-.58a1.36 1.36 0 0 0-.45-.16zm16.2 4.81a1 1 0 0 0-.17-.09s-.06.08-.05.08a.63.63 0 0 0 .12.11s.06-.05.1-.1zm1 .16h-.11zM6.52 5.51l-.07.41c.57.24 1.14.45 1.69.71a3.78 3.78 0 0 0 .86.26c.35.08.7.17 1 .23a11.71 11.71 0 0 0 1.19.14h1.33a.36.36 0 0 0 .21 0A2.11 2.11 0 0 1 14 6.79a4.62 4.62 0 0 1 2 .3l1 .32a4.82 4.82 0 0 1 1 .52c.32.17.64.36.95.56A6.9 6.9 0 0 1 20.4 9.7a12.84 12.84 0 0 1 1.26 1.6c.18.28.38.54.59.81s.4.5.61.76a4.16 4.16 0 0 0 1.49 1 .31.31 0 0 0 .46-.13 1 1 0 0 1 .22-.19v.05c-.14.22-.27.45-.42.66a.24.24 0 0 1-.31.09 4.51 4.51 0 0 1-1.29-.71 5.22 5.22 0 0 1-.77-.79c-.43-.57-.8-1.19-1.24-1.76s-.66-.79-1-1.19-.52-.49-.78-.73A1.24 1.24 0 0 0 19 9l-1.67-1a3.65 3.65 0 0 0-1.07-.36 3 3 0 0 1-.48-.16 4.61 4.61 0 0 0-1.78-.4 2.46 2.46 0 0 0-1.07.24 2.79 2.79 0 0 1-1.11.31 13.4 13.4 0 0 1-2-.17A6.56 6.56 0 0 1 8.15 7a6.36 6.36 0 0 1-.75-.3 5.5 5.5 0 0 0-1.14-.4 2.4 2.4 0 0 0-.34 1.13 1.66 1.66 0 0 1-.09.37l-.12.51c-.13 0-.14-.05-.13-.13a3.11 3.11 0 0 1 .07-.44c.11-.39.24-.77.35-1.15a3.62 3.62 0 0 1 .53-1.08zM45.25 23c0 .36 0 .34-.22.47a.62.62 0 0 1-.78 0 2.26 2.26 0 0 0-.43-.24.84.84 0 0 1-.49-.64l.28-.36a1.68 1.68 0 0 1 1.1.56c.22.21.23.21.54.21z"/><path class="5fd122c5-ac45-4c7c-8d63-110d2616be5f" d="M42.71 20.78c0-.19.2-.33.36-.26a.29.29 0 0 0 .35-.06.91.91 0 0 1 .1.13c.07.14.16.13.29.1s.44-.06.67-.09h.09l.68.34-.08.27a.54.54 0 0 0 .51 0l.14.39.26-.17.32.26-.25.4c-.22-.14-.45-.25-.64-.4a3.9 3.9 0 0 0-1.1-.59c-.16-.07-.3-.17-.46-.23a1.83 1.83 0 0 0-1.24-.12zm3.56.94h-.26l-.07.08h.18a.53.53 0 0 0 .15-.08zM44.2 24.69a.49.49 0 0 1 .1.46h-.22v-.22h-.07a.41.41 0 0 1-.73-.21c0-.13-.08-.18-.19-.19s-.19-.07-.22-.22-.12-.18-.19-.28c.13-.19.26-.2.43 0s.24.29.37.43a.91.91 0 0 0 .68.28zm-.68-.09v.06c.16.25.22.27.4.12zM10.34 5.88l-.05-.46a1.83 1.83 0 0 1 .26-.21.19.19 0 0 1 .31.13c.14.36-.09.58-.52.54zM49.08 20.45v-.13l-.63-.56c-.08-.07-.14-.13-.07-.25s.34.18.49.3.29.27.45.42l-.22.22zM44.73 24.76a5.21 5.21 0 0 0 .52.28s.13 0 .2-.05a.17.17 0 0 1 .14.05c-.2.1-.36.22-.61.1s-.3 0-.46 0c-.08-.21.12-.25.22-.36zM53.58 21.28a.4.4 0 0 1-.33-.46c.24.08.27.18.33.46zM51.44 22.32a1.65 1.65 0 0 1 .83-.45l-.07.13-.31.12-.46.2zM47.24 25c-.19 0-.36 0-.43-.24zM42.71 20.78h-.55a.35.35 0 0 1 .55 0zM42.16 23.35v-.27c.15.06.15.06 0 .27zM52 21l.36-.13c-.17.13-.17.13-.36.13z"/><path class="5fd122c5-ac45-4c7c-8d63-110d2616be5f" d="M44.2 24.69l.53.08a.64.64 0 0 1-.54-.07zM41.48 22.18l-.12-.08v-.05l.12.09zM42.41 23.45h.14-.14zM21.91 22.7l-.17.3h.06zM29.3 22.13l.29.54-.1.2c-.27 0-.45-.07-.5-.23s.01-.35.31-.51z"/><path class="5fd122c5-ac45-4c7c-8d63-110d2616be5f" d="M21.91 22.7l-.15.3h-.06c.06-.1.11-.2.17-.29z"/></svg>