<svg id="988e7195-ec5d-4420-bc74-4db925df87c5" data-name="Layer 1" xmlns="http://www.w3.org/2000/svg" viewBox="0 0 224.48 128.32"><defs><style>.d1f77bdc-6e01-43dd-a037-d4c4e5c136bd{fill:#f0553c}</style></defs><title>logo-tab</title><path class="d1f77bdc-6e01-43dd-a037-d4c4e5c136bd" d="M42.83 47.68l-.03.06h.05l-.02-.06zM40.37 70.63s-.07.07-.1.12.1.08.14.08.13 0 .13-.09-.09-.13-.17-.11zM40.65 49.1l.03-.06-.05-.01.02.07zM21.24 63.59a.32.32 0 0 0 0 .17c.06.2-.09.44.1.62.15-.22.05-.43 0-.63a.48.48 0 0 0-.1-.16zM21.35 63.2a.12.12 0 0 0 0-.08c0 .06-.05.11-.07.17zM42.76 55.39v.08-.08a.22.22 0 0 0 0-.09c.01-.03-.02 0 0 .09zM21.32 61.79a1.52 1.52 0 0 0 0-.82.7.7 0 0 0-.09-.17v.07a.74.74 0 0 0 0 .89.19.19 0 0 0 .09.03zM42.63 42.95l-.04.07.06.01-.02-.08zM43.78 66.44l.06-.03-.08-.03.02.06zM4.9 35.56l.04-.05-.05-.01.01.06zM21.44 72.61a.82.82 0 0 0 .06.26c0-.05.07-.1.07-.15v-1.61c-.05.08-.13 1.45-.13 1.5zM42.72 53.91c-.1 0-.08.14 0 .22a3.4 3.4 0 0 0 .12.34l.06-.23c-.08-.15-.02-.32-.18-.33zM27 33.66c-.75-.24-.91-.14-1 .67-.24 2.41-.08 4.82-.14 7.24 0 .36-.13 12.11-.08 12.47.08.7.55.93 1.15.58a1.84 1.84 0 0 0 .73-.87c.75-1.58 1-14.66 1.1-16.35a5.44 5.44 0 0 1 0-1A2.76 2.76 0 0 0 27 33.66zM29.18 41.45v-.06l-.07.09zM29.59 38.56a5 5 0 0 1-.07.56c0 .26-.1.51-.15.77s-.13.41 0 .44.14-.25.18-.4.09-.51.12-.71.11-.49-.08-.66zM32.84 34.16h-.05l.05.09zM21.49 70v.09c0 .03 0 .11.09.06s0 0 0-.08-.04-.13-.09-.07zM33.12 34.73a.57.57 0 0 0-.26-.48 20.49 20.49 0 0 0 .4 3.31v.18c.14 0 .08-.12.11-.19a1.37 1.37 0 0 0 .08-1 5 5 0 0 1-.33-1.82zM24.85 74.08l.03-.06-.04-.01.01.07zM31.89 56.23c0 .08.08.13.11.08a1.48 1.48 0 0 0 .1-.39v-.13a2.14 2.14 0 0 0-.21.44zM31.36 57.25c-.34.44-.67.89-1 1.34.61-.22.81-.85 1.23-1.26v-.17c0-.02-.17.02-.23.09zM25.16 59.29v.16a1.69 1.69 0 0 0 .94-.38s-.08-.14-.09-.13c-.26.11-.6.11-.85.35zM25.11 34.5l-.06-.13a.45.45 0 0 0-.13.1c-.05.07 0 .12 0 .12s.14-.06.19-.09zM23.34 32.77l.06-.01-.05-.04-.01.05zM22.22 30.22l.01-.06-.09.02.08.04zM23 34.69c-.1 0-.12.13-.11.22s0 .38.11.43.1-.15.14-.25.1-.35-.14-.4zM25.3 55.91a.22.22 0 0 0 .32 0 1.54 1.54 0 0 0-.17-.19 1 1 0 0 0-.24-.07.46.46 0 0 0 .09.26zM23.45 71.14v1.46c0 .04.07-1.51.07-1.6s0-.1-.05-.18a2.55 2.55 0 0 0-.02.32zM24.11 31.7c-.1 0-.18.08-.15.19a.14.14 0 0 0 .22.09.62.62 0 0 0 .18-.18.17.17 0 0 0-.25-.1zM175.07 42.65c0-.06-.13 0-.12 0a1.13 1.13 0 0 0 .21.56 1 1 0 0 0-.09-.56zM117 84.56a19.64 19.64 0 0 0-.49-2.25c-.05-.09-.07-.23-.21-.2s-.08.14-.09.21c-.18.93-.37 3.4-.54 4.32-.08.38.16.42.44.4 1 0 1.34-.07 1.11-1-.08-.43-.12-1.04-.22-1.48zM150.39 45.77c-.18 0-.17.15-.21.25a.52.52 0 0 0 0 .28c0 .32-.13.67.15 1 .2-.28.12-.61.16-1v-.2c0-.1-.07-.33-.1-.33zM178.71 50.72a.78.78 0 0 0 .3.8c0-.29 0-.62-.23-.85-.01 0-.07.03-.07.05zM149.39 63.9c-.17 0-.5.31-.47.51s.2.21.36.25.31-.25.31-.47a.28.28 0 0 0-.2-.29zM176.18 43.28a.93.93 0 0 0 .18.58s.08 0 .1-.07a.5.5 0 0 0-.28-.51zM159.86 44.32c-.05 0-.11.17-.1.25a26.45 26.45 0 0 1 0 3.67v2a2.58 2.58 0 0 0 .06.37 1.27 1.27 0 0 0 .07-.38 38.48 38.48 0 0 1 .15-4.25 6.46 6.46 0 0 0 0-1.46c.02-.09-.04-.22-.18-.2zM171.54 58.37c-.2.08-.14.29-.22.44a.58.58 0 0 0 0 .18c0 .1.07.24.14.17a.81.81 0 0 0 .21-.66s-.12-.14-.13-.13zM136.19 55.83c0 .16 0 .41.13.42s.14-.22.15-.36c.05-.65.09-1.29.13-1.93a3.56 3.56 0 0 0-.41 1.87zM107.86 46.38l.05-.03-.05-.02v.05zM111.94 50.8l.06-.04-.07-.04.01.08zM109.66 32.92a.16.16 0 0 0 .16-.18.29.29 0 0 0-.27-.21c-.1 0-.18 0-.15.17a.27.27 0 0 0 .26.22zM108.68 48.75c0 .07 0 .11.07.08s0 0 0-.07v-.07zM110.76 39.88a6.34 6.34 0 0 1 0-.77 10.59 10.59 0 0 0-.35-3.31 2.24 2.24 0 0 0-1.34-1.55c-1-.5-1-.51-1 .68 0 .32-.11.65-.08 1a39 39 0 0 1-.16 4.59 10.2 10.2 0 0 0 .28 3.21c.17.54.31.61.78.3a2.57 2.57 0 0 0 .54-.5c.8-1.09 1.57-2.16 1.33-3.65zm-1.26 2.17c-.09 0-.19-.1-.13-.16a1.13 1.13 0 0 1 .42-.22c.08 0 .15 0 .12.16a.46.46 0 0 1-.41.22zM111.88 33a.83.83 0 0 0-.08.12l.09-.12zM110.67 46.56c.07 0 .19 0 .13-.16zM106.94 34.12s-.11.15-.11.23 0 .43.22.48.09-.17.13-.27.01-.41-.24-.44zM192 67.2c-.15 0-.15.18-.16.3s0 .37 0 .56a1.61 1.61 0 0 0 0 .38 2.33 2.33 0 0 0 .08.36 1.91 1.91 0 0 0 .1-.34 3.71 3.71 0 0 1 0-.94c.03-.11.12-.29-.02-.32zM200 30a1.14 1.14 0 0 0-1 .21v.09c.45.11.72-.13 1-.3zM202.48 30.69s0-.07-.06-.07c-.34.05-.35.38-.47.6a.24.24 0 0 0 0 .08c.31-.06.55-.21.53-.61zM196.05 73.2c-.12 0-.27-.07-.33 0s0 .23.16.25.29.07.4-.07-.12-.15-.23-.18z"/><path class="d1f77bdc-6e01-43dd-a037-d4c4e5c136bd" d="M224.12 16.1a17.81 17.81 0 0 0 .29-4 4.55 4.55 0 0 1-.15-1.78c.46-1.4.07-2.7-.13-4.06-.12-.84-.13-1.73-.27-2.59a.72.72 0 0 1 .11-.42c.4-.78.26-1.52-.46-1.63a7.82 7.82 0 0 0-2.38-.32 11.11 11.11 0 0 1-2.7.1 29.43 29.43 0 0 0-3.73-.2 54.54 54.54 0 0 1-6.52-.2 10.3 10.3 0 0 0-2.07.14A6.1 6.1 0 0 1 203.2 1a1.85 1.85 0 0 0-1.32-.1 6 6 0 0 1-1.68.21c-.84.06-1.63-.32-2.48-.3-.64 0-1.37.38-1.9.11-1-.5-2 .3-3-.3a10.6 10.6 0 0 0-1.38-.46c-.24-.09-.56-.29-.68 0-.4.84-1 .46-1.61.47a4.88 4.88 0 0 1-1.25-.17c-.94-.27-1.89.2-2.79-.14a3.11 3.11 0 0 0-2.38 0 5.83 5.83 0 0 1-2.07.33c-1.56.07-3.13-.1-4.7 0a32.77 32.77 0 0 1-5.67-.34 60.18 60.18 0 0 0-10.57-.09c-2.07.13-4.12.36-6.19.4-1.11 0-2.32-.83-3.37.23H150c-1.23-.23-2.43.52-3.68 0-.35-.13-.83.21-1.25.18a9 9 0 0 0-2.79.22 18.51 18.51 0 0 1-3.48.29c-1.32.11-2.68-.06-4 0-3 .09-5.93.05-8.89.16s-6-.5-8.94.11a9 9 0 0 1-2.37.06c-1-.07-2.09-.1-3.14-.15-2.12-.1-4.23.36-6.38.08s-4.28-.52-6.27.74h-.23c-1-.34-2-1.27-3.18-.37h-.23C93.5 2 91.87 1.39 90.2 2c-.16.06-.36-.08-.55-.09-.87-.05-1.78-.85-2.57-.33a2.18 2.18 0 0 1-1.89.09c-1.76-.38-3.56 0-5.3-.47-.6-.16-1.19.28-1.76-.1a1.41 1.41 0 0 0-1.82.09.66.66 0 0 1-.81.13C74.32.64 73.08.94 71.86 1c-1 .06-2.07.2-3.11.32s-2.19-.61-3.29.05c-.12.07-.31 0-.48 0a13.9 13.9 0 0 0-2.49-.12c-1.88.24-3.81-.21-5.64.55a.49.49 0 0 1-.38-.08 3.05 3.05 0 0 0-2.21-.21 10.42 10.42 0 0 1-3.43.12 24 24 0 0 0-5.16.32c-1.09.13-2.2.22-3.29.4-.46.08-.8-.35-1.26-.23a25.44 25.44 0 0 1-4 .48 33.71 33.71 0 0 0-4 .17 4.35 4.35 0 0 1-2.39-.1 1.62 1.62 0 0 0-1.5.17c-.81.59-1.66.18-2.48.2h-3.36c-1.63.09-3.22.81-4.92.2a10.38 10.38 0 0 0-2.8-.12c-1.44-.06-2.88.09-4.33 0C10.22 3 9 2.67 7.91 3.15c-1.52.66-3.07.16-4.6.2a5.49 5.49 0 0 0-1.91.49A.61.61 0 0 0 1.33 5a.78.78 0 0 1 .4.8 25.54 25.54 0 0 0-.11 4.55 25.19 25.19 0 0 1 0 3.68c-.09 1.24.21 2.44.16 3.68s.12 2.78 0 4.13a37.55 37.55 0 0 1-.19 4.86 3.61 3.61 0 0 0 .19 1.69 3.44 3.44 0 0 1 0 1.32 25.28 25.28 0 0 0-.44 5.49c.14 1.56-.28 3.18.39 4.69a.65.65 0 0 1-.06.35 9 9 0 0 0-.37 3.12c-.05 1.89.12 3.79-.06 5.69a1.88 1.88 0 0 0 .3 1.2c.11.17.31.33.25.54-.28 1-.16 2.14-.37 3.17a3.66 3.66 0 0 0 .06 2.29 1.22 1.22 0 0 1 .06.88 21 21 0 0 0-.43 5.48A30.79 30.79 0 0 1 1 66.07c-.3 2.23 0 4.45-.19 6.68-.14 1.41-.18 2.88-.16 4.34 0 2.21.15 4.42.13 6.64s.22 4.58.08 6.88c0 .23-.14.52.17.61.48.14.37.46.18.75A2.32 2.32 0 0 0 1 93.36c.1 2.66-.21 5.3-.22 8a23.88 23.88 0 0 1 .06 3.47c-.36 2.12.24 4.2-.1 6.32-.23 1.4-.06 2.91-.41 4.33a4.37 4.37 0 0 0 0 1.53c.12 1.17.07 2.35.09 3.52 0 .88-.52 1.63-.27 2.54a4.8 4.8 0 0 1 .3 1.8c-.07.75.27 1 .84 1a.79.79 0 0 1 .78.51 3 3 0 0 0 4 1.71.58.58 0 0 1 .61 0 1.65 1.65 0 0 0 1 .24 140 140 0 0 1 16-3.47.38.38 0 0 1 .23-.3c.15 0 .26.08.29.21 2.09-.35 4.19-.67 6.28-1 8.94-1.37 17.82-3 26.77-4.28 20.33-2.95 40.89-5.33 61.54-5.47 7.17 0 14.33.17 21.48.58a.41.41 0 0 1 .23-.07c1.85.09 3.61-.73 5.46-.58.15 0 .33 0 .41.19a1.21 1.21 0 0 1-.36.1 6.83 6.83 0 0 0-2.54.56c12.08.8 24.12 2.15 36 3.84a382.09 382.09 0 0 1 38 7c2.33-.1 3.15-1.09 3.3-3.86.06-1 .24-2 .33-3 .14-1.51.23-3 .38-4.54.17-1.78-.05-3.57.09-5.34.21-2.48.25-5 .39-7.44.11-1.89.17-3.78.28-5.67.14-2.43.41-4.86.38-7.31 0-.71.42-1.41 0-2.15 0-.07.07-.28.16-.38a1.09 1.09 0 0 0 .17-.93 9.28 9.28 0 0 1 .05-2.17 48.38 48.38 0 0 0 .71-5.27c.05-1.64.34-3.28.24-4.91a35.73 35.73 0 0 1 .11-5.38c.2-2.53.17-5.07.25-7.6 0-1.42-.38-2.83-.29-4.22s0-2.92.09-4.38c.06-2.11-.27-4.23-.2-6.32.1-3 0-5.91-.07-8.84-.07-2.14.09-4.25.1-6.37 0-1.28-.42-2.64.11-4a2.4 2.4 0 0 0-.2-1.76 1.24 1.24 0 0 1-.08-.61q.15-1.84.21-3.69c.02-1.12.02-2.27.14-3.4zM3.75 12.79c.17-.06.22.11.23.27 0 .32-.19.58-.48.64s-.32-.12-.29-.32a.78.78 0 0 1 .54-.59zm-.24 7.37a.55.55 0 0 1 .51.49c0 .3-.24.3-.43.29a.44.44 0 0 1-.45-.43c-.02-.27.14-.39.37-.35zm0 37c-.24-.12-.18-.39-.24-.59s0-.52.31-.54.23.16.19.31-.14.53-.23.8zm.06 1.42c0 .18 0 .36-.2.38s-.2-.16-.2-.31 0-.33.2-.35.21.14.23.26zm-.25 1.68c-.16 0-.23-.08-.26-.23s.07-.31.23-.31.23.13.2.29-.07.21-.14.23zm.11 17.42c0-.38 0-.78.43-1 0 0 .18.07.18.11.01.46-.33.62-.58.87zM4 19.35a.72.72 0 0 1-.22-.24.11.11 0 0 1 .12-.17c.14 0 .22.13.26.29s-.08.16-.16.12zm.87 35.94a.19.19 0 0 1-.29 0c-.2-.16-.18-.41-.2-.65a2.25 2.25 0 0 1 0-.26 1.24 1.24 0 0 1 0-.27c0-.2-.07-.52.14-.54s.14.32.18.49l.12.52c.04.17.18.48.06.71zm.2 35.5S5 90.6 5 90.5s0-.27.15-.21.09.18.12.24-.06.31-.19.26zm.55-56.07c0 .62-.52 1.14-.33 1.82a1.13 1.13 0 0 1 0 .26c0 .26 0 .71-.18.72s-.2-.43-.24-.67c-.12-.8-.67-1.54-.3-2.43.15-.34.22-.87.65-.76s.45.63.41 1.06zm.06-3.65c-.05.28 0 .75-.32.73s-.2-.54-.36-.8 0-.48.26-.47a.41.41 0 0 1 .43.54zM5.7 30c-.22-.14-.22-.45-.25-.72s0-.41.1-.37c.38.14.06.59.26.79-.01.11.03.3-.11.3zm6.1 20.47c.39-1.11-.11-2.24.09-3.35 0-.24.08-.55.32-.57s.17.35.22.54a7 7 0 0 1 .11 2.08 3.68 3.68 0 0 0 .15 1.49 1.82 1.82 0 0 1-.14 1.14c0 .15-.14.26-.3.22a.27.27 0 0 1-.15-.42c.23-.34.24-.56-.15-.74a.49.49 0 0 1-.15-.44zM7 48c-.24.07-.22-.26-.22-.44.11-.49 0-1.11.57-1.26.17-.05.19.21.12.33-.2.44.22 1.19-.47 1.37zm1 77.9c-.19 0-.42 0-.45-.26s.17-.28.32-.32.36.08.45.26-.19.31-.32.32zm1.31-87.41c-.19 0-.24-.1-.2-.27.11-.39.14-.89.49-1 .19-.08 0 .33.09.49.08.36.03.69-.38.78zm1.52 68.92a.28.28 0 0 1-.27-.31c0-.24.08-.57.26-.6s.14.32.19.5a.33.33 0 0 1-.18.41zm.42-53.27c-.24 0-.14-.33-.2-.51s-.09-.42.17-.38.23.3.23.51.01.41-.2.38zm.63 54.06c.39.24.92.39 1.19.78s.41 1.21.9 1.65a.28.28 0 0 1-.05.39c-.06 0-.2 0-.28-.08a10.18 10.18 0 0 1-2-2.33c-.15-.21-.08-.39.24-.41zm.26 17.8c-.09 0-.21-.11-.23-.19s.1-.18.21-.19.22.07.23.2a.15.15 0 0 1-.21.18zm.69-4.79c-.18 0-.41-.14-.38-.37s.33-.32.57-.33.28.12.27.34-.2.37-.46.31zm1.06-4.74c-.24 0-.33-.18-.33-.41s.13-.23.28-.21.43.06.45.3-.24.25-.4.27zm1-36.57a2.36 2.36 0 0 1-1.58 1.54c-.28.13-.56-.11-.69-.35-.2-.39.14-.31.33-.37s.12-.29.12-.42 0-.22-.05-.31c0-.45-.11-1.12.24-1.23a2.37 2.37 0 0 1 1.47.25c.27.08.27.49.14.84zm.31-7.37v-.08zm.62 47.47c-.18 0-.23-.13-.23-.29s0-.27.1-.3.24.07.28.22a.31.31 0 0 1-.15.37zm-.52-49.3c-.17-.09-.53.17-.52-.32 0-.28.86-1.18 1.08-1.13s.33.33.34.62c.03.7-.37.82-.9.8zm3.62-61.19a.44.44 0 0 1-.32-.35s.08-.15.13-.16.27.15.31.34-.04.19-.12.17zm14.94-1.66l.28.11c-.2.3-.53.35-.81.47-.1.05-.27 0-.23-.16.11-.41.5-.27.76-.42zm-13.51.91l.85-.27c.31-.1.64-.23.91.09a.55.55 0 0 1 .05.59.57.57 0 0 1-.78.33 1.46 1.46 0 0 0-.84.11c-.29.09-.47-.11-.55-.39s.14-.4.36-.46zm-.07 116.32c-.14 0-.28 0-.29-.2s.11-.18.22-.2.25 0 .32.14a.26.26 0 0 1-.25.26zm11.5-26.71a.15.15 0 0 1-.18-.19.42.42 0 0 1 .18-.25c.11-.07.2 0 .23.13s-.08.28-.23.31zm2-57.46c-.13 1.23-.44 13.88-.78 15.09a6.74 6.74 0 0 1-3.7 4.44 14.78 14.78 0 0 1-2.27.92 1 1 0 0 0-.72.82c-.13.62-.06 1.24-.16 1.86a21.46 21.46 0 0 0-.44 4c0 1.32-.1 4-.06 5.25v1.38c0 1.12-.46 1.6-1.57 1.67a1.53 1.53 0 0 0-.66.16 3.36 3.36 0 0 1-2 .06.59.59 0 0 1-.61-.64c.16-1.61-.31-4.51-.11-6.11a38.75 38.75 0 0 0-.07-4.31c0-.72-.28-1.41-.26-2.14s.06-1.75.08-2.62c0-1.15.11-2.29 0-3.44a4.24 4.24 0 0 1 .17-1.45c.24-.82.12-13.07.24-13.91a3.71 3.71 0 0 1 0-.58c.6-2.4.16-4.87.41-7.29a4.44 4.44 0 0 0-.17-1.44 3.25 3.25 0 0 1 0-1.75 5.11 5.11 0 0 0 .06-1.17c0-.33.18-.5.49-.48.92.07 1.83-.2 2.75-.09a1 1 0 0 0 .39 0 5.08 5.08 0 0 1 2.55-.14 7.91 7.91 0 0 1 3.58 1 3.67 3.67 0 0 1 1.45 1.28.87.87 0 0 0 .15.25c1.16 1.08 1.4 2.55 1.68 4a8.85 8.85 0 0 1 .07 1.27 22.34 22.34 0 0 1-.44 4.11zM36 45.14v-.06h.06zm26.19-11.49h.13v.08h-.13a.41.41 0 0 0 0-.08zM52.2 3.53a.27.27 0 0 1 .2-.11c.11 0 .2.05.22.2a.17.17 0 0 1-.24.15c-.11-.02-.22-.09-.18-.24zM51.09 77.4c.12 0 .19.09.16.23a.33.33 0 0 1-.35.28c-.11 0-.17-.1-.17-.24a.35.35 0 0 1 .36-.27zM38.57 44.53s-.12 0-.12-.08 0-.14.13-.12.06.08.1.12-.08.09-.11.08zm2.25 29.68a9.1 9.1 0 0 1-1 .37.2.2 0 0 1-.24-.18.46.46 0 0 1 .29-.49c.25-.11.54 0 .78-.17s.32-.5.51-.2-.11.55-.34.67zm1.27 36.2c-.16 0-.25-.07-.2-.21a.39.39 0 0 1 .37-.28s.13.12.12.16a.4.4 0 0 1-.29.33zm2.8-39.86a27.43 27.43 0 0 0-4.37 1c-1.14.25-1.83-.22-1.77-1.37.09-1.79-.13-12.05 0-13.84s0-3.52.17-5.29c.14-1.16-.19-2.34-.12-3.52s0-2.16 0-3.22c0-1.59.31-3.16.16-4.75a8.19 8.19 0 0 1 .07-1.85 22.39 22.39 0 0 0 .02-6.71 2.27 2.27 0 0 1 .83-2 .9.9 0 0 1 .93-.18 8.71 8.71 0 0 0 2.44.22c.42 0 .56.17.57.6 0 1.37.07 2.74.14 4.12s.23 2.54.18 3.81c-.06 1.5 0 3-.07 4.49a44.83 44.83 0 0 0-.28 5.18 12.82 12.82 0 0 1-.16 1.95c-.06.91-.06 1.81 0 2.72.16-.08.13.11.12.23l-.11.2c0 .82.06 1.63.1 2.45s0 8.74 0 9.42c.08 1.41.18 1.34 1.36 1.34.59 0 1.18 0 1.77-.07.44 0 .6.17.74.59a8.64 8.64 0 0 1 .16 3.12 1 1 0 0 1-1 .91c-.54.02-1.17.29-1.88.45zm5.94 9.32A7.86 7.86 0 0 1 47.67 81c-.07 0-.25 0-.32-.1s0-.32.14-.44a1.55 1.55 0 0 0 .32-.7c.11-.57.75-.87.95-.73.66.42 1.26 0 1.87.07.22 0 .53-.17.62.2s-.25.43-.42.57zm.77-28.55l.09-.1.06.05-.09.1zM63.82 67a3 3 0 0 0-1.2.35c-.73.42-1.58-.12-2.13-.74a1.31 1.31 0 0 1-.18-.75 24.6 24.6 0 0 0-.31-3.18c-.08-.38-.24-5.86-.38-6.23-.21-.54-1.35-.37-1.8-.41s-.57.38-.67.71-.24 5.87-.26 6.37-.11 1.18-.21 1.86l-.09 1.56a6.4 6.4 0 0 1-.09 1.14 4 4 0 0 1-1.83 1c-.88.24-2.27.51-2.86-.28v-.25a1.44 1.44 0 0 1-.1-.58c0-2.46 1.37-20.72 1.47-21.71.21-2.09.66-4.15.67-6.27a6.67 6.67 0 0 1 .37-2 14.73 14.73 0 0 0 .14-1.49 64.16 64.16 0 0 0 1.13-6.46c.08-.84.22-.94 1-.92h.89c.84-.06 1.67.25 2.53.14.46-.06 1.13.79 1.15 1.4a26.29 26.29 0 0 0 .56 3.17c.18 1.13.17 2.28.36 3.4.31 1.75.14 3.53.53 5.27a12.1 12.1 0 0 1 .28 2c.12 2.49 2.13 16.95 2.07 19.37 0 .68.13 1.37.18 2.06.1 1.02-.19 1.34-1.22 1.47zM124 30.39c.16 0 .27 0 .26.23a.37.37 0 0 1-.26.38.27.27 0 0 1-.28-.26c-.04-.21.11-.3.28-.35zm-5.56-17.31a4.27 4.27 0 0 1 .8 0c.12 0 .33-.05.32.15s-.2.11-.33.09-.53 0-.79-.05-.76.14-.73 0c.07-.38.46-.15.72-.19zm1 37.64a.27.27 0 0 1-.27.24c-.11 0-.23 0-.19-.18a.42.42 0 0 1 .23-.2c.14-.04.24-.01.27.14zM118.1 37.3s.09.11.12.14a2.19 2.19 0 0 1-1.29.61c-.05 0-.08-.2-.06-.21a2.24 2.24 0 0 1 1.23-.54zm-3.4-8.3c.35.14.58-.12.84-.25a.45.45 0 0 1 .62.28c.14.38-.18.45-.4.53-.53.2-1-.3-1.48-.31 0 0-.08-.11-.07-.13.13-.23.34-.12.49-.12zM71.83 63.86c-.07-.27-.3-.42-.47-.62a4 4 0 0 1-.91-1.73c-.19-1.08-.81-2.09-.59-3.25a4.09 4.09 0 0 1-.36-1.89c-.25-2.21-.38-6.5-.41-8.72 0-.85 0-1.7-.11-2.54a5 5 0 0 1 .11-2.24.57.57 0 0 0 .06-.28c-.39-2.44.25-4.8.53-7.19a25.33 25.33 0 0 1 .75-3.54 4.29 4.29 0 0 1 2.82-3 1.25 1.25 0 0 1 .37-.09A9.47 9.47 0 0 1 79.45 30a4.9 4.9 0 0 1 2.29 3.31 20 20 0 0 1 .46 4c-.09.39.3.91-.17 1.26s-.82 0-1.23.07c-.62 0-1.23.18-1.85.27-.09 0-.18.09-.27.11-1.32.28-1.81 0-1.8-1.38 0-1.05-.25-2.08-.23-3.13a1 1 0 0 0-.61-.94.69.69 0 0 0-1 .18 3.07 3.07 0 0 0-.58 1.12 46.66 46.66 0 0 0-.66 5.26 4.19 4.19 0 0 1 0 .5 31.18 31.18 0 0 0 .2 8.48c.18 1.61.25 5.29.37 6.9a9 9 0 0 0 .63 3.17c.18.43.31.87.92.86a1.39 1.39 0 0 0 1.38-.88 22.9 22.9 0 0 0 .93-3.36c.25-.9.39-1 1.31-.87.72.09 1.44 0 2.16.16s1 .26 1 1.06a16.56 16.56 0 0 1-.94 5 10.06 10.06 0 0 1-2.12 3.13 5.61 5.61 0 0 1-6 1.22c-.84-.35-1.58-.7-1.81-1.64zm3.69 17.2c-.07 0-.16 0-.12-.1a.76.76 0 0 1 .21-.23s.07 0 .19.14c-.1.07-.19.13-.28.19zm0-7.23c-.2-.1-.61 0-.57-.39s.36-.47.68-.46a.4.4 0 0 1 .44.48c-.07.37-.33.37-.6.37zm2.59-.36a.83.83 0 0 1 .78-.51c.11 0 .19.08.17.26a1.52 1.52 0 0 1-.8.49c-.18.03-.26-.11-.2-.24zm1.1 31.53c-.17 0-.48.1-.42-.22s.38-.27.62-.28.49 0 .46.23c-.06.45-.45.15-.66.27zm2.06 0c-.12 0-.32 0-.32-.14s.23-.19.37-.19.38-.09.36.17-.26.16-.41.16zM95.4 77.46a1.51 1.51 0 0 1-.5.27c-.72.29-1.46.58-2.21.81 0 0 .09 0 .08.1 0 .27-.29.19-.45.26s-.24 0-.2-.14v-.07a7.57 7.57 0 0 1-1.17.23.66.66 0 0 0-.7.66c-.13 1.36-.31 2.74-.41 4.13s-.22 3-.32 4.57c-.08 1-.15 7.58-2 7-.19-.07-.38 0-.57-.06-.85-.19-.91-1.21-.89-1.92v-.68c0-2.43.09-4.86.13-7.3 0-1.33 0-2.66.07-4 0-.68.55-2-.54-1.91a24.54 24.54 0 0 1-3.64.22 1.39 1.39 0 0 1-1-.36 1 1 0 0 1 0-1.19 2.05 2.05 0 0 1 1.07-.66 17.86 17.86 0 0 1 1.88-.48c1-.2 2.11-.37 3.17-.5 1.36-.18 2.73-.3 4.1-.36a6.83 6.83 0 0 1 3.72.44.76.76 0 0 1 .43.45.57.57 0 0 1-.05.49zm-2.23-5.84c-.17.07-.39.37-.52.08s.25-.24.39-.35a1.38 1.38 0 0 1 1-.14c-.28.14-.57.29-.87.41zm.91.35a2.55 2.55 0 0 1 .53-.18c.28-.06.55-.3.84-.06a.29.29 0 0 1 0 .24c-.22.37-.56.26-.93.25h-.42c-.16 0-.1-.09-.16-.14s.06-.08.14-.08zm2.19-1.09a9.23 9.23 0 0 1-2.21.33c.67-.57 1.52-.47 2.28-.7 0 0 .18.06.19.1a.26.26 0 0 1-.26.27zm0-6.47h-1.81c-1.6.14-3.2.17-4.8.31-1.21.11-1.93.39-2.23-.29a.43.43 0 0 1 0-.12 2.9 2.9 0 0 1-.11-.62 1.28 1.28 0 0 1-.07-.34c-.12-1-.25-2-.34-3-.27-3.26-.1-7.19-.22-10.45-.1-3 0-6-.08-8.93a17.94 17.94 0 0 1 .4-4.78 4.28 4.28 0 0 0 .07-1.07 29.37 29.37 0 0 1 .4-4.78c.1-.56.45-.89.94-.77a7.45 7.45 0 0 0 2.54-.1h.38v-.06.06a12.93 12.93 0 0 0 2.53-.46 10.5 10.5 0 0 1 3.22-.13c.42 0 .64.26.67.69a5.86 5.86 0 0 1-.13 2.91 2.55 2.55 0 0 0-.11.68c-.13 1.08-.19 1.13-1.31 1.36-.93.19-1.88.22-2.83.32-.35 0-.53.15-.58.51a13 13 0 0 0-.31 3.41c.14 1.18-.11 2.35 0 3.53v.79c.06 1 .3 1.19 1.23.95a12.52 12.52 0 0 1 2.44-.17c.69 0 .81.18.86.89.06 1-.3 2-.32 3 0 .42-.37.67-.8.76s-1 .17-1.44.31a1.56 1.56 0 0 0-1.2 1.37c-.32 2.08-.28 4.19-.55 6.27a3.22 3.22 0 0 0 0 1c.08.64.4 1.81 1.08 1.89a6.35 6.35 0 0 0 2.5.21c.69-.18 1.31.29 1.94.53.27.11.31.5.28.8-.08.85-.15 1.7-.28 2.54s-.41 1-1.26 1c-.14-.02-.41-.02-.67-.02zm-2.53-24.28a1.48 1.48 0 0 1 .25.14c0 .21-.12.22-.23.21s-.21 0-.22-.17a.16.16 0 0 1 .2-.18zm-.46-1.05v-.14a.36.36 0 0 1 .55-.07h-.07zm.58-.2c.08.11.19.2.15.37s-.08 0-.12 0zm.3 2.84c.1.09.2.16.2.2-.06.36-.33.51-.6.64a.1.1 0 0 1-.11-.15c.15-.23.35-.41.51-.69zm8.49 49.81c-.06-.19-.11-.27-.09-.33a1.18 1.18 0 0 1 .16-.29c0 .07.08.15.07.21a2 2 0 0 1-.14.41zm3.28 4l-.09-.06a1.79 1.79 0 0 1-.33-.39 23.92 23.92 0 0 1-1.66-2.86 15 15 0 0 1-1.26-2.73c-.15-.58-.53-.65-1-.28a1.62 1.62 0 0 0-.64 1c-.27 1.63 0 3.18-.73 4.75a1.55 1.55 0 0 1-2.38.24 1.69 1.69 0 0 1-.19-1.09c.17-3.21.44-6.42.77-9.62.16-1.62.34-3.23.52-4.85a12.33 12.33 0 0 0 .18-2.18c0-.54.07-1 .66-1.19a1.43 1.43 0 0 0 .39-.2 8.58 8.58 0 0 1 4.36.24h.1c1.41.59 2.49 1.25 2.92 2.83.56 2.1.32 4.9-1.14 6.54a7.28 7.28 0 0 1-1.5 1.44 11.72 11.72 0 0 0 1.24 3.76 9.82 9.82 0 0 1 .94 2.83c.06.56-.24 2.34-1.16 1.79zm1.58-4.13c-.07.06-.18 0-.12-.1a2.22 2.22 0 0 1 .4-.41s.13-.08.18.08c-.14.11-.29.26-.46.4zm1.93-34.76a15.77 15.77 0 0 1-1-2.67 7.3 7.3 0 0 0-.32-1.4c0-.08-.08-.23-.13-.23s-.14.16-.16.27c-.09.57-.22 1.14-.26 1.71-.17 2.4-.48 5.73-.58 8.13a1.8 1.8 0 0 1-1.99 1.73c-.59 0-1.19-.13-1.78-.19a.59.59 0 0 1-.59-.6 5.17 5.17 0 0 1-.09-1c.13-2-.16-5 .12-7.07a29.61 29.61 0 0 0-.11-4c0-1.38 0-2.75.12-4.12.12-1.56.1-3.13.22-4.7s-.11-3.25.08-4.88c.1-.86.16-1.72.25-2.58a27.28 27.28 0 0 0 0-3.26c0-.55.09-1.09.13-1.63a.83.83 0 0 1 .7-.77 3.59 3.59 0 0 1 1.24-.18c1.28.17 2.49-.32 3.73-.35a6.3 6.3 0 0 1 4.27 1.18 3.18 3.18 0 0 0 .37.27 5 5 0 0 1 2.13 4.74A12.13 12.13 0 0 0 116 37a27.1 27.1 0 0 1-.31 4.59c0 .51-.09 1-.13 1.54a14.58 14.58 0 0 1-1.64 5 2.64 2.64 0 0 1-.6.83 1.33 1.33 0 0 0-.38 1.55c.36 1.19.7 2.39 1.06 3.57a31.4 31.4 0 0 0 1.18 3.63c.53 1.2.61 2.54 1.13 3.73a2.73 2.73 0 0 1 .17.75 1.7 1.7 0 0 1-1 1.88 3.59 3.59 0 0 1-3.44-.49 30.09 30.09 0 0 1-1.53-3.68 15.55 15.55 0 0 0-1.07-3.29zm4 13.93c0 .27-.24.3-.42.33s-.31 0-.32-.16.18-.34.35-.39a.3.3 0 0 1 .43.19zm5.71 24.9s-.08-.09-.07-.12c.11-.29.36-.27.58-.33-.09.18-.2.43-.47.42zm1.58-1.86c-.17.48-1.19.8-1.48.32a8.76 8.76 0 0 1-.85-2.62c-.12-.55-.44-1-.61-1.54-.11-.35-.36-.41-.72-.36-.7.09-1.29.49-2 .64-.22 0-.26.28-.33.46l-1.27 3.69c-.14.42-.38 1-.86 1.15a.77.77 0 0 1-.67-.15 1.35 1.35 0 0 1-.4-.93 18.45 18.45 0 0 1 .62-7 14.72 14.72 0 0 0 .34-1.63 46.9 46.9 0 0 1 1.21-5.5 4.51 4.51 0 0 0 .12-.82 20.14 20.14 0 0 1 .58-2.19c.35-.2.65-.46 1-.64a1.31 1.31 0 0 1 2 .58 15.07 15.07 0 0 1 1.13 2.45c.28.94.51 1.9.73 2.86s.43 1.92.63 2.88.49 2 .65 3.09v.07a24.93 24.93 0 0 1 .26 3.11 6.39 6.39 0 0 1-.04 2.05zm.52 2a.12.12 0 0 1-.09-.19 1 1 0 0 1 .3-.27c.09 0 .14 0 .13.15s-.11.3-.3.29zm.37-45.28a.82.82 0 0 1-.83-.42c-.15-.32.23-.27.41-.34a.47.47 0 0 1 .71.33.31.31 0 0 1-.25.41zm.27-17.66a.3.3 0 0 1 .34-.29c.22 0 .34.14.33.39s-.12.32-.31.29-.34-.14-.32-.41zm.35 16.47c0-.26 1.07-.93 1.25-.79s.07.14.09.18c0 .3-.93.94-1.18.87s-.13-.14-.12-.28zm1.46 44.5a2.49 2.49 0 0 1-.32.53c-.09-.09-.19-.14-.19-.19a.57.57 0 0 1 .32-.48c.16-.09.29-.03.23.12zm.17-50.52c-.1 0-.27 0-.26-.11s.26-.34.45-.45.2 0 .25.1a.55.55 0 0 1-.4.44zm56.78-11.36l.05.06-.06.13-.05-.06a1.39 1.39 0 0 1 .1-.15zm-.49 13.35c.05 0 .13 0 .26.07a1.86 1.86 0 0 1-.26.25c-.09.05-.22.07-.21-.11s.17-.18.25-.23zm-2-18.41c.14-.06.31 0 .26.2-.12.47-.57.32-.78.5-.17 0-.35 0-.31-.11.16-.4.53-.46.83-.61zm-7.07 15.5v.06zm-.63 17.55v.06zm-.26 19.66a1.08 1.08 0 0 1 .3 0c.95.13 1.88.24 2.81.38a.36.36 0 0 1 .34.42c-.05.22-.26.18-.41.16-1-.1-2-.19-3.05-.31-.22 0-.6 0-.59-.31s.4-.28.6-.36zm3.8 29.45c.09 0 .22 0 .2.18a.3.3 0 0 1-.42.11c-.08 0-.21-.19-.2-.21.09-.21.26-.07.42-.08zm-2.38-27.24c-.05 0-.11-.12-.13-.2s-.06-.23.07-.29.18.13.19.25.01.26-.14.24zm-16.27-61.14c.14.13.23.17.24.24s-.07.22-.19.19-.13-.11-.14-.18.05-.16.09-.25zm-1.06.23a.25.25 0 0 1 .34.09c0 .27-.22.24-.36.3s-.25.08-.28-.06.15-.27.3-.33zm-3 1.83c.15.07.39.09.36.11a3.63 3.63 0 0 1-.84.46c-.13.05-.29-.12-.24-.27.17-.45.55-.15.76-.3zm-.5-2.8c.12 0 .22.1.14.23a.32.32 0 0 1-.27.12s-.09-.1-.13-.15a.24.24 0 0 1 .3-.2zm-3.61-7.44h1l2.07.21c.11 0 .25 0 .25.17s-.15.17-.23.18c-1 .05-2 .09-3 .11-.15 0-.43 0-.44-.27s.17-.38.39-.4zm-.66 26c.12-.06.19.05.19.18a.4.4 0 0 1-.21.39c-.15 0-.24 0-.24-.16a.48.48 0 0 1 .3-.41zm-2.23-17c.1 0 .25 0 .19.18s-.17.1-.23.13-.3 0-.24-.19.22-.15.32-.16zm-9.1-8.6a.65.65 0 0 1 .24 0c.19 0 .52 0 .49.29s-.31.07-.48.07h-.4c-.21-.06-.53.15-.82-.1.32-.37.68-.26 1.01-.3zM126.7 59c.11 0 .17.11.17.26a.32.32 0 0 1-.36.23.19.19 0 0 1-.16-.25c.05-.17.17-.24.35-.24zm.76 34.56c-.6.37-.92 0-1.18-.59a8.22 8.22 0 0 1-.3-3.21c0-1.18-.07-2.36-.09-3.53 0-2.93 0-5.84-.11-8.77a1.3 1.3 0 0 1 .15-.85 1.34 1.34 0 0 1 1.07-.36 2 2 0 0 1 1.39.31 1.7 1.7 0 0 1 .37 1.48c0 .32-.06.63-.08 1-.19 2.54 0 5.17-.12 7.71-.05 1.31-.12 2.61-.2 3.92-.05.98.11 2.33-.9 2.91zm1.27 9.31c-.09 0-.15 0-.12-.16s.19-.2.36-.23.14.1.13.12c-.05.21-.22.25-.37.29zm14.64-12a1.48 1.48 0 0 1-1 .68c-2.09.57-4.19 1-6.32 1.47-.78.15-1-.82-1-1.39a61.6 61.6 0 0 1-.39-6.92 69.89 69.89 0 0 1 .11-7.09 2.36 2.36 0 0 1 .28-1 1.61 1.61 0 0 1 1-.64 1.51 1.51 0 0 1 1.31.2c.45 0 .43 2.18.38 3.66.15-.08.3-.09.44.14.28.46-.18.64-.47.84v6.15a5.37 5.37 0 0 0 0 1.5c.14.41.46.28.82.22 1.53-.27 3.53-.68 4.65.72a1.73 1.73 0 0 1 .38.89 1 1 0 0 1-.19.63zm3.16 11.21c-.09 0-.17-.06-.14-.16a.36.36 0 0 1 .36-.3s.14.11.14.16c-.03.27-.19.33-.36.36zm1.15-.35c-.12 0-.3 0-.25-.21s.2-.15.32-.18.2 0 .22.17a.26.26 0 0 1-.29.28zM151.3 51c-.08 1.55-.42 3.07-.56 4.62s-.19 6.49-.25 8.13a4.77 4.77 0 0 0 0 1.07 1.27 1.27 0 0 1-.16.89c-.11.81-.41 1.18-1.36 1.17a20.7 20.7 0 0 1-3-.28 2.1 2.1 0 0 1-1.34-.24c-.32-.06-.51-.27-.7-.75a9.83 9.83 0 0 1-.67-2.93c-.07-.83-.33-4.86-.38-5.68-.1-1.52-.61-3-.41-4.53a7.46 7.46 0 0 0-.17-1.47 43.8 43.8 0 0 0-.67-5c-.16-1-.51-1.88-.58-2.86 0-.09-.05-.19-.17-.16s-.09.09-.1.15c-.21 1.53-.4 3.07-.61 4.61-.47 3.4-.58 6.84-1.32 10.21a55.15 55.15 0 0 0-.36 5.91c-.07 1.26-.41 1.63-1.65 1.58a4.43 4.43 0 0 1-1.14-.17 2.23 2.23 0 0 0-1.53-.06.67.67 0 0 1-.83-.32 4 4 0 0 1-.7-1.6c-.18-.88-.34-2.48-.49-3.92h-.16a.46.46 0 0 1 .14-.09c-.09-.84-.18-1.6-.27-2.12-.19-1-.4-2-.55-3.06a51 51 0 0 1-.78-6.17 14.08 14.08 0 0 1-.18-2.15c-.19-2.16-.38-4.06-.52-6s-.16-3.52-.35-5.28a26.08 26.08 0 0 1-.15-4.05 2.73 2.73 0 0 1 .2-.94c.11-.26.27-.29.53-.29 1 0 2 0 3-.08 1.26-.1 1.64.18 1.68 1.48.08 2.46.23 5.7.54 8.15.15 1.18.21 2.74.24 3.94s.37 5.76.4 5.76c.2 0 .87-6.69 1-8.49s.44-3.6.49-5.42a11.57 11.57 0 0 1 1-4.87c.4-.8.55-.8 1.45-.79a13.79 13.79 0 0 1 2.64.57 1.16 1.16 0 0 1 1 1 28.58 28.58 0 0 1 .54 4.24 21 21 0 0 0 .48 3.23.13.13 0 0 1 .06 0c.19-.06.14.2.2.31a.76.76 0 0 0 .11.14c.15.17.62-.29.52.28a.58.58 0 0 1-.65.49 1.29 1.29 0 0 1 0 .19c.35 1.72.61 3.45.9 5.17.15.86.37 3.59.72 3.63s.58-4.87.6-5.58c.09-2.49.33-5 .62-7.44.12-1.06.17-2.13.19-3.2 0-.59.14-1.16.2-1.73s.26-.76.9-.79a14.75 14.75 0 0 0 2.48-.31 1.21 1.21 0 0 1 1.63 1.2 22.34 22.34 0 0 1-.12 5.23c-.15.79-.12 1.61-.24 2.41-.4 2.69-.45 5.41-.76 8.11-.15 1.64-.49 3.27-.58 4.95zm.82 26.82c.06-.33.51-.33.83-.35.15 0 .47-.08.41.21s-.39.35-.67.36-.63.03-.57-.26zm1 22.7c.24-.32.34-.84.85-.77.05 0 .14.15.12.19-.09.47-.54.49-.93.54zm.94-22.74c0-.37.25-.21.4-.24s.29 0 .24.23a.42.42 0 0 1-.33.3c-.16-.07-.27-.17-.27-.33zm.52 18.49c-.11 0-.24 0-.22-.17a.37.37 0 0 1 .23-.21c.11 0 .2 0 .22.18a.23.23 0 0 1-.19.16zm.6-37.86c-.17.06-.21-.16-.19-.31.09-.55.61-.51.86-.79.17 0 .25 0 .18.2a1.64 1.64 0 0 1-.81.86zm.95 21.59l-.06-.12h.05l.11.07zm2.13-24.11c-.2 0-.48 0-.53-.25s.21-.24.36-.23.54 0 .58.31-.26.12-.41.16zm4.24 56.67c-.06.19-.27.12-.48.16l-.23-.1c.12-.19.32-.17.5-.21s.27-.02.21.14zm.6-9.58a3.55 3.55 0 0 1-2 .6c-.14-.1-.3-.2-.28-.4s.21-.25.37-.25c.51 0 .94-.45 1.47-.38.21 0 .44 0 .47.34a.32.32 0 0 0-.03.11zm1.3-42.18a23.17 23.17 0 0 1 0 2.5c0 .51-.07 1-.1 1.51 0 1.2.14 3.14-.5 3.76s-2.2.1-2.9-.08a4.41 4.41 0 0 1-.47-.14 1.42 1.42 0 0 1-.61-.2.37.37 0 0 1-.17-.33 3 3 0 0 1-.47-1.65C159 64.44 159 62.69 159 61c0-.27-.08-.53-.11-.8-.06-.6.09-3.39.19-5.21a1.14 1.14 0 0 1-.25 0s-.37.06-.31-.13a.84.84 0 0 1 .6-.47v-.88c.08-1.46-.19-2.91-.1-4.35a59 59 0 0 0-.18-6.38 2.1 2.1 0 0 1 .17-1.23.62.62 0 0 0 .07-.38 13.91 13.91 0 0 1 0-2.66 32.54 32.54 0 0 1 .16-3.27 31.77 31.77 0 0 0 .14-3.78c0-.85.25-2.58 1-2.67 1-.13 1.78.09 2.78 0a.66.66 0 0 1 .2 0c0-.13.18-.15.29-.15s.32-.08.41.14a.34.34 0 0 1-.21.24 1.85 1.85 0 0 1 .5 1.12 10.38 10.38 0 0 1 .12 2.49.72.72 0 0 0 0 .29c.47 1.51.12 3.08.27 4.62a38.14 38.14 0 0 1 .15 5.24c-.11 2.9-.08 5.81-.27 8.71-.11 1.65-.33 7.59-.22 9.3zm1.21 25.2c-.28-.21-.74.27-.74-.15s.48-.32.79-.27.76 0 .73.14c-.1.47-.56 0-.78.28zm.83 27.09c-.12 0-.36.1-.32-.07s.36-.16.56-.18.52-.06.51 0c-.19.32-.52.06-.75.23zm.87-64.47c.18-.47.7-.47 1.1-.6.17-.06.24.11.19.27a.69.69 0 0 1-.89.51c-.14-.09-.51.1-.4-.2zm.09 32.54v-.07c0-.22.22-.21.37-.24-.12.15-.17.3-.37.29zm1.3.27c-.32-.18-.55-.57-1-.59.47-.63 1-.2 1.57-.16.23 0 .16.26.1.43-.1.34-.37.48-.67.3zm1 29.31c-.2 0-.3-.11-.32-.3s.12-.26.26-.28a.22.22 0 0 1 .27.24c-.01.14-.07.29-.21.32zm-.06-14.88c0-.34.3-.12.44-.21s.32-.1.29.15-.24.21-.4.22-.34-.02-.33-.18zm1.5 15.62c-.3 0-.82.43-.86 0s.57-.18.91-.22.62-.19.62 0-.43.21-.67.2zm2.87-1a.56.56 0 0 0-.54 0c-.65.53-1.4.19-2.09.34-.2 0-.5.13-.52-.21a.44.44 0 0 1 .55-.48 33.55 33.55 0 0 0 4.25-.15c-.47.47-.87 1.24-1.66.43zm1.66-.46a1 1 0 0 0 .17-.1c0 .08-.11.01-.17.08zm1.53-33.87a13.19 13.19 0 0 0-2.08-.11c-.1 0-.23 0-.25-.16s.11-.13.16-.12c.79.15 1.5-.36 2.27-.34.36.19 1.09-.18 1 .53s-.72.22-1.1.13zm8.6-38.91a34 34 0 0 0-.22 3.63c-.32 5.2-.67 10.41-.63 15.59-.23 2.82-.14 5.73-.33 8.51-.18 2.54 0 5.34-.49 7.9L184 73a3.75 3.75 0 0 0-.93.11 2.34 2.34 0 0 1-2.87-1.68c-.59-2-1.71-12.94-2.18-15-.35-1.54-.9-3-1.3-4.55s-.85-2.92-1.2-4.4c-.05-.24-.05-.63-.29-.6s-.18.42-.21.67a1.93 1.93 0 0 0 0 .48 29.92 29.92 0 0 1 .18 5.6c0 1.7.15 3.41.09 5.12s-.1 9.14-.14 10.75a.74.74 0 0 1-.44.77 3.09 3.09 0 0 1-2.57.2l-.17-.09c-.32-.18-.82-.07-1-.46a3 3 0 0 1-.28-1.48c.05-.89.21-7.67.12-8.64a33.21 33.21 0 0 0 .08-3.33c-.06-1.37.14-2.71.15-4.07 0-1.14.26-2.28.19-3.41-.13-2.12.09-4.24 0-6.36 0-.9.34-1.74.34-2.64 0-2 .12-4 0-6-.06-1.07-.12-2.56-.13-3.7h-.08a.18.18 0 0 1-.07-.15.13.13 0 0 1 .14-.14.94.94 0 0 1 .77-.87c.74-.14 1.42-.61 2.28-.36a1.24 1.24 0 0 1 1 .86c.36 1.18.72 2.89 1 4.1.52 2.67 1 4.39 1.75 7 .6 2.17 1.88 8.66 2.47 10.83a2.59 2.59 0 0 0 .11.37c0 .07.07.18.18.16s0-.11.06-.17c.16-1.47-.08-3 0-4.44v-1.17a10.67 10.67 0 0 1-1.24.56l-.18-.12a.64.64 0 0 1 .1-.13l1.31-.76c0-2.34-.24-5.83-.12-7.29a21.48 21.48 0 0 0-.07-2.66 39.51 39.51 0 0 1 .32-6.06c.06-.62.25-.84.91-.87 1.09 0 2.2-.36 3.24.33.25.16.62.07.91.17-.18 2.52-.29 5.12-.43 7.69zm2.29 40.18c-.1 0-.16-.1-.1-.18a1 1 0 0 1 .29-.26.1.1 0 0 1 .15.12.43.43 0 0 1-.34.25zm9.39-55.56c.13-.08.29.05.26.23-.1.47-.46.52-.81.58-.16 0-.46 0-.42-.14.17-.53.64-.53.97-.74zm-6.48 86.8c-.17 0-.32 0-.3-.14s.23-.22.39-.23.33 0 .26.18-.22.14-.35.19zm10.83 5.55c-.11 0-.25 0-.2-.17a1 1 0 0 1 .29-.4c.11-.1.2 0 .23.13a.44.44 0 0 1-.28.44zm1.54-36.77a5.38 5.38 0 0 1-.55.52 9.67 9.67 0 0 1-2.34.21c-2.64-.63-5.11-1.82-7.75-2.46-1.18-.5-2.12-1.31-2-2.46a8.65 8.65 0 0 0 0-1.61c-.05-.51.12-1 0-1.68 0-1.39-.22-8.16.18-9.69a1.82 1.82 0 0 0 .07-.57 40.34 40.34 0 0 1 .31-5.49 1.2 1.2 0 0 0 0-.19 22.23 22.23 0 0 1 .21-4.54c.13-1.42.24-9.19.33-10.61a4.28 4.28 0 0 0 0-.62 11.41 11.41 0 0 0 0-2.92v-.06c.06-.91 0-1.83 0-2.75a.59.59 0 0 0 .06-.14c.18-.92 0-2.6.49-3.39a3 3 0 0 1 .75-.21c1.41 0 2.6.11 3.93 0a41.37 41.37 0 0 1 5.55.24.76.76 0 0 1 .85.69c.16 0 .25.08.25.25a.19.19 0 0 1-.16.22 2.1 2.1 0 0 1 0 .71c-.08.56-.12 1.13-.17 1.7a2 2 0 0 1-2 1.91 17 17 0 0 0-3.53.72.65.65 0 0 0-.55.83 3.91 3.91 0 0 1-.09 1.32C197 39 197.09 49 197 50.66a7.11 7.11 0 0 0 .2 1.12c.11 1 .2 1.06 1.1.9a10.6 10.6 0 0 1 3.23.2c.19-.13.38-.26.58-.38s.21-.06.21.2l-.45.23c.24 0 .34.23.43.43a2.41 2.41 0 0 1 .18 1.21 9.6 9.6 0 0 0-.05 1.61c.06.59-.43 1-.86 1.28a1.73 1.73 0 0 1-.44.24h-1.8a4.6 4.6 0 0 0-1.17 0c-1.08.09-1.23.8-1.26 1.8-.1 2.57-.22 5.16-.3 7.74 0 1.46-.23 2.2 1.07 2.79 1.65.75 3.44 1.14 5.07 2l.81.44a3.68 3.68 0 0 1 .59 1.51 26.45 26.45 0 0 1-.73 3.46zm14.31 17.13a1.21 1.21 0 0 1 .29 1c-.19.84-.61 1.64-.07 2.58.2.35-.45 1-.63 1-.44.16-.3-.46-.38-.77a2 2 0 0 1 0-.37c0-1.2.59-2.21.44-3.37-.04-.23.24-.31.39-.07zm-7.61-6.64a2.37 2.37 0 0 1 .28-.55 16.33 16.33 0 0 0 1.74-2.57c0-.09.17-.21.23-.19s.13.23.11.37a1.39 1.39 0 0 1-.14.42c-.48.93-1.31 1.56-1.67 2.59 0 .12-.2.19-.28.25-.24.04-.29-.12-.23-.32zm-1.79-54.29a.32.32 0 0 1 .38-.24.28.28 0 0 1 .24.28.48.48 0 0 1-.49.29c-.14.03-.15-.18-.09-.33zm.4 39.74l-.06.07-.06-.14zm-.13-.08c-.17-.08-.26-.19-.08-.36s.13 0 .2 0zm-1.51 38.79c-.23.12-.59.47-.75 0s.23-.54.51-.67.58-.3.89-.41.37 0 .39.31c-.15.54-.63.59-1 .77zm.39-17.8a.15.15 0 0 1 .18-.19s.14.1.14.15a.53.53 0 0 1-.11.23c-.07-.09-.16-.13-.17-.19zm.81-2.61c-.22.48-.81.48-1.26.55-.2 0-.59 0-.47-.28.19-.47.69-.51 1.11-.53.25 0 .78-.01.66.26zm-1-.84a.31.31 0 0 1 .33-.31.31.31 0 0 1 .33.3c0 .25-.18.24-.29.28s-.37-.02-.36-.27zm1.66-15.06c-.48.58-.85 1.32-1.7 1.48-.07-.05-.27-.11-.28-.2-.1-.56-.31-.54-.64-.22a.21.21 0 0 1-.35-.06c-.11-.41.23-.58.43-.77s.64-.6.77-.22c.21.58.33.18.42 0a2 2 0 0 1 .83-.68c.23-.12.52-.37.72-.09s-.03.56-.19.76zm2.1 32.91c-.57-.14-1.31-.51-1.29-1 0-.67.9-.59 1.4-.69s.81.49.81 1-.52.55-.92.69zm.87-3.77c-.15.06-.26 0-.27-.21a.55.55 0 0 1 .29-.56c.17 0 .22.12.23.28a.45.45 0 0 1-.23.49zm1.5 10.86a1.32 1.32 0 0 1-.71.81c-.25 0-.42-.14-.38-.34a1 1 0 0 1 .88-.76c.16-.03.28.12.23.29zM215 33.26c-.13-.41-.26-.82-.38-1.23 0-.12 0-.31.14-.26.4.19.23.69.38 1 .04.23.08.38-.14.49zm1.1 8.74a.43.43 0 0 1 .28-.4c.1 0 .17 0 .15.15a.6.6 0 0 1-.28.42c-.1-.05-.15-.12-.15-.17zm.4 49.4a.38.38 0 0 1-.11-.48 6.24 6.24 0 0 0 .29-1.49c0-.25.11-.61.41-.57s.24.41.23.67v.31a2 2 0 0 1-.37 1.4c-.14.08-.27.21-.45.11zm.84 11c0 .07 0 .17-.15.1a2.42 2.42 0 0 1-.11-2.33 1 1 0 0 1 .22-.09.87.87 0 0 1 .52 1 7.21 7.21 0 0 1-.48 1.22zm.3 8.82c0-.25 0-.64.2-.69s.19.37.2.59.05.54-.23.55-.15-.37-.17-.55zm.52 7.25c-.17 0-.21-.16-.22-.31s0-.34.2-.31.18.2.19.35-.04.16-.17.17zm.06-33.54a.19.19 0 0 1-.19.24c-.13 0-.15-.15-.16-.27s0-.42 0-.86a7.87 7.87 0 0 0 0-1.74c0-.18 0-.42.19-.43s.2.23.25.4c.26.79-.18 1.67-.09 2.56zm-.16-41.67c-.13 0-.15-.15-.11-.27a.47.47 0 0 1 .32-.37c.14 0 .15.12.15.24s-.12.32-.36.3zm.15-1.61c-.33 0-.37-.37-.38-.69.5-1.15-.3-2.49.43-3.62.16-.23-.06-.44-.19-.63a.71.71 0 0 1 0-.83.35.35 0 0 1 .5-.12c.34.2.15.49.12.78a16.19 16.19 0 0 0 0 3.19c0 .44.11.89.12 1.34s-.24.54-.6.48zm1.26-32.12c-.53 1.12-.34 2.56-1.07 3.66-.11.16-.2.42-.42.27s-.07-.33 0-.49a17.58 17.58 0 0 0 .43-2.71 6 6 0 0 1 .35-1.09c.09-.21.23-.36.45-.27s.31.21.26.53zm1.17 63.41a.58.58 0 0 1 .34-.55c.17-.07.2.11.21.26s-.07.48-.31.54-.25-.19-.24-.35zm.31 4.55c-.13 0-.08-.27 0-.39s-.15-.48.1-.5.09.3.11.47.02.33-.16.32zm0-1.61c-.18 0-.31-.1-.27-.33a.25.25 0 0 1 .3-.21.28.28 0 0 1 .26.29.29.29 0 0 1-.24.15zm.37-7c-.05.1 0 .33-.17.3 0 0-.09-.2-.1-.31s0-.26.15-.26.17.1.16.22zM221.5 53a.48.48 0 0 1-.2.35c-.11.07-.22-.11-.18-.21.36-1-.33-1.83-.27-2.78v-.44c0-.14.14-.57.44-.55s.2.36.25.58 0 .35.09.62a14.49 14.49 0 0 0-.13 2.43zm-.05-23.73a1.13 1.13 0 0 0-.17 1.63c.69 1.21.28 2.46.12 3.67-.07.53-.51.49-.79.11a2.43 2.43 0 0 1-.5-1.44c.08-.43 0-1 .56-1.15s.44-.55.3-.88a4.73 4.73 0 0 1-.15-2.39c0-.4.2-1-.51-.55-.16.1-.3-.09-.36-.27a1.39 1.39 0 0 1 .3-1.33c.4-.4.3.26.43.43s.13.14.28-.3c0-.13 0-.34.18-.32s.1.19.14.29c.13.43.23.87.4 1.28a1 1 0 0 1-.23 1.26zm.38-23.77a2.37 2.37 0 0 0-.08 1.32c0 .24.13.65-.23.64s-.34-.39-.31-.7a5.22 5.22 0 0 0 0-2c0-.11 0-.26.08-.31s.14.06.2.11c.25.3.51.57.34.98z"/><path class="d1f77bdc-6e01-43dd-a037-d4c4e5c136bd" d="M201.62 76.85c-.51-.12-.57.44-.91.56-.07 0-.11.09-.06.13s.12 0 .18 0l.37-.08a3.59 3.59 0 0 0 .47 0 .34.34 0 0 0 .35-.36c-.02-.31-.24-.21-.4-.25zM196.21 57.52c-.15 0-.16.17-.17.28 0 .42-.32.82-.12 1.26.4-.3.27-.8.46-1.15-.03-.17.06-.38-.17-.39zM181.79 33.69c0-.16 0-.39-.12-.42s-.13.21-.2.31 0 .37.16.41.14-.18.16-.3zM182.6 40.74c-.06.24-.11.48-.16.72 0 .09-.07.19.06.23a.19.19 0 0 0 .15-.08v-.38c0-.14.13-.35-.05-.49zM181.81 45.54c0 .07.12.08.14 0a1 1 0 0 0-.08-.62.59.59 0 0 0-.06.62zM181.92 43.63c0-.05 0-.1-.07-.15s-.12.07-.12.11c0 .44-.18.9.14 1.31.02-.42.04-.84.05-1.27zM183.72 51.59c-.07 0-.06.21-.09.35s-.08.31.15.34.12-.13.1-.22.04-.4-.16-.47zM198.87 57.11c.14-.08.39.1.47-.15 0-.08-.15-.08-.24-.07l-.63.12c.09.18.25.05.4.1zM201 55.88a.41.41 0 0 0 0 .19c0 .17.08.31.27.27s.22-.19.25-.37-.09-.54-.41-.65h-.18c-.25.21.15.35.07.56zM73.71 59.1s-.1.11-.09.14.08.21.15.23.11-.09.11-.17a.2.2 0 0 0-.17-.2zM58.89 40.28a27.09 27.09 0 0 0-.86-3.8c-.06 0-.6 3.2-.61 3.29-.09.61-.18 1.5-.21 2.11-.15 2.55-.34 3.83-.47 6.37v1.26c0 .4 0 .79-.07 1.18-.06.85.43.77 1.26.78.63 0 1.4-.13 1.51-.79a4.49 4.49 0 0 0 .08-1c-.06-1.75-.26-3.71-.33-5.47a29.07 29.07 0 0 0-.3-3.93zM73.1 39c-.18 0-.15.18-.14.29a3.27 3.27 0 0 0 0 .44c.06-.17.13-.34.19-.52s.07-.21-.05-.21zM87 81.06a.87.87 0 0 0 0 .23.86.86 0 0 0 0-.23c0-.06 0-.06 0 0zM73.15 49.61v.19l.14-.11c0-.06 0-.14-.07-.17s-.07.01-.07.09zM113.28 35.6a1 1 0 0 0-.29-.73c-.06 0-.13 0-.11.07.08.23.17.45.27.67s.09.06.13-.01zM104.23 79.17a8.82 8.82 0 0 1-1.26-.64c-.37-.14-.71-.39-.94 0s-.23 4.12-.4 4.12a12.1 12.1 0 0 0-.15 2.75c.08.6.21.67.72.31s.77-.54 1.13-.84a4.77 4.77 0 0 0 1.91-3.4 2.54 2.54 0 0 0-1.01-2.3zM91.58 35.46c0 .1.09.3.25.18A.55.55 0 0 0 92 35a.18.18 0 0 0-.21-.14.44.44 0 0 0-.21.6zM61.74 45.44a1 1 0 0 0 .27.82c.18-.23.12-.52.15-.78a1.84 1.84 0 0 0-.21-.72c-.07.24-.15.47-.21.68zM75.66 29.85s-.06-.07-.09-.11l-.17.05s0 .1.07.13.17.08.19-.07zM74.46 33.2a.2.2 0 0 0 .13-.23s-.1-.1-.11-.09a1.16 1.16 0 0 0-.18.2.46.46 0 0 0 0 .17zM112.2 51.41h-.05l.02.06.03-.06zM71.28 45.39c0-.42 0-.78.06-1.13 0-.06 0-.16-.07-.16s-.13.09-.13.16a11.68 11.68 0 0 1-.08 2.13c0 .08 0 .21.1.2s.09-.14.13-.22c.18-.37-.08-.7-.01-.98zM73.15 38.11h.06l.05-.08v-.08c0-.01-.13.05-.11.16zM71.26 48s-.08.08-.08.12 0 .14.06.14.17 0 .14-.15-.07-.11-.12-.11zM105.65 31.47a.15.15 0 0 0-.16-.18.22.22 0 0 0-.14.1.14.14 0 0 0 .1.21c.09.03.16-.04.2-.13zM105.2 59.5c-.14.2-.34.36-.27.64 0 0 .11.07.13 0 .21-.14.1-.4.14-.64zM105.64 38.13l.06.01-.02-.06-.04.05zM105.63 39.07a.71.71 0 0 0 0 .14h.07v-.14zM106.77 53.66c0 .09 0 .22.12.22s.11-.19.13-.3 0-.31-.09-.44c-.15.14-.13.34-.16.52zM105.11 37.77c0-.08 0-.23-.08-.21s-.08.25-.15.4 0 .21.05.33c.07-.18.13-.29.18-.52zM106 62.43q0 .12.06.12v-.06-.13s-.06.04-.06.07zM103.27 58.9v.16s.06 0 .06-.06v-.16c0-.05-.06.04-.06.06z"/></svg>