<svg id="4b39502a-6ed8-4108-8266-7db1613b00bd" data-name="Layer 1" xmlns="http://www.w3.org/2000/svg" viewBox="0 0 221.37 204.61"><defs><style>.\39 05bb632-47d4-4271-883b-6750307d0be9{fill:#a97031}</style></defs><title>logo</title><path class="905bb632-47d4-4271-883b-6750307d0be9" d="M188.16 137.48c.16.23.09.49.11.74a1.45 1.45 0 0 1-.26-.71c-.01-.08.09-.11.15-.03zM183.63 121.65c0-.06-.06-.16-.12-.19s-.22 0-.23.17 0 .18.1.19a.2.2 0 0 0 .25-.17zM195.34 123.75l-.06-.08a1 1 0 0 0-.08.16l.06.07zM196.62 129.61v-.18h-.09a.92.92 0 0 0 0 .18zM196.43 126.69l-.04.08.06.02-.02-.1zM183.12 136.89l-.05.06.06.01-.01-.07zM211.74 124.87c-.09 0-.2 0-.21.07a.19.19 0 0 0 .1.28c.11 0 .24 0 .26-.09s-.1-.13-.15-.26zM219.59 125.49c0 .09 0 .14.11.13a.16.16 0 0 0 .09-.06c.07-.07.06-.15 0-.16s-.14.06-.2.09zM214.07 121.49l-.09.05.09.04v-.09zM196.83 173.21v-.08s-.06 0-.07.07 0 .13.09.1-.03-.06-.02-.09zM194.28 173.13s0-.08-.05-.09-.13 0-.1.1a.11.11 0 0 0 .09 0s.04.01.06-.01zM160.45 121.84a1.52 1.52 0 0 0-2-1.52 18.3 18.3 0 0 1-3.14.39c-.81 0-1.06.23-1.14 1s-.23 1.45-.25 2.2c0 1.35-.09 2.71-.25 4.05-.36 3.13-.67 6.27-.78 9.42 0 .9-.16 7.89-.43 7.86-.44-.05-1.06-4.3-1.24-5.39-.37-2.19-.71-4.37-1.14-6.55a39.82 39.82 0 0 1-1-5.83 36.26 36.26 0 0 0-.69-5.36 1.48 1.48 0 0 0-1.25-1.31 12.44 12.44 0 0 0-3.61-.18c-1.64.17-1.53 1.56-1.76 2.66-.53 2.52-.25 3.32-.58 5.41-.38 2.33-.58 4.38-.76 6.67s-1.49 10.16-1.73 10.2c0 0-.83-5.6-.87-7.19s-.43-5.23-.62-6.73c-.39-3.1-.33-5.83-.43-9-.05-1.64-.07-2.43-1.68-2.29-1.25.1-2.51.09-3.77.09-.33 0-.54 0-.68.37a3.44 3.44 0 0 0-.25 1.19 32.86 32.86 0 0 0 .19 5.13c.23 2.22.27 4.46.44 6.68.18 2.41.42 4.81.66 7.55a16.87 16.87 0 0 0 .23 2.73 62.12 62.12 0 0 0 1 7.81c.19 1.3.46 2.58.69 3.87.33 1.81.62 6 1 7.79a5.17 5.17 0 0 0 .89 2c.27.37.59.37 1.06.41a9.16 9.16 0 0 1 1.93.08 5.53 5.53 0 0 0 1.45.22c1.57.06 2-.41 2.08-2a69.35 69.35 0 0 1 .46-7.49c.93-4.27 1.07-8.62 1.67-12.92.27-1.95.51-3.9.77-5.84 0-.07.07-.18.12-.19s.2.1.21.22c.1 1.23.53 2.4.74 3.61.35 2.09 2.06 12.16 2.35 14.06.22 1.47.61 6 .68 7a12.54 12.54 0 0 0 .84 3.71 2.4 2.4 0 0 0 .92 1 12.57 12.57 0 0 0 4.13.65c1.21 0 1.59-.45 1.73-1.48a12.05 12.05 0 0 0 .12-1.26v-1.22c.08-2.09.55-8.22.73-10.3s.6-3.88.71-5.85.54-4.14.78-6.21c.39-3.42.46-6.87 1-10.28.15-1 .11-2.05.3-3.05a27.86 27.86 0 0 0 .17-6.59zm-21.16 32.87c-.2 0-.19-.34-.17-.54a4.7 4.7 0 0 1 .53-2.37c-.05.82-.1 1.63-.16 2.45-.03.17.06.48-.2.46zm15.28 9.68a.35.35 0 0 1 .26.36c0 .29 0 .57-.4.6-.2-.05-.41-.09-.45-.32s.36-.69.58-.64zm2.6-22.38c0 .52.05.94-.2 1.3-.36-.36-.18-.8-.19-1.21a.79.79 0 0 1 0-.36c.06-.13 0-.35.27-.32 0 0 .06.22.07.34a1.64 1.64 0 0 1 .05.24z"/><path class="905bb632-47d4-4271-883b-6750307d0be9" d="M199.13 135.13a40.66 40.66 0 0 1 .27-4.59c.18-3.26.32-6.52.36-9.77-.36-.12-.84 0-1.15-.22-1.31-.86-2.72-.46-4.1-.41-.84 0-1.08.31-1.16 1.1a50.23 50.23 0 0 0-.41 7.68 26 26 0 0 1 .09 3.36c-.19 2.36.25 8.91.17 11.28-.07 1.88.25 3.76 0 5.63 0 .07 0 .2-.07.2s-.19-.1-.23-.2a4.44 4.44 0 0 1-.14-.46c-.75-2.75-2.37-11-3.13-13.71-.92-3.33-1.56-5.51-2.22-8.89-.3-1.54-.76-3.69-1.21-5.19a1.56 1.56 0 0 0-1.26-1.09c-1.09-.32-1.94.27-2.88.46a1.17 1.17 0 0 0-1 1.1c0 1.48.08 3.61.17 5.09.15 2.53 0 5.05 0 7.58 0 1.14-.49 2.21-.43 3.34.14 2.69-.14 5.37 0 8.06.09 1.43-.23 2.88-.25 4.32 0 1.72-.27 3.41-.19 5.15.06 1.42 0 2.88-.1 4.22.12 1.22-.09 9.82-.15 10.94a3.8 3.8 0 0 0 .36 1.87c.24.49.87.35 1.28.58l.22.11a3.87 3.87 0 0 0 3.25-.25.94.94 0 0 0 .57-1c0-2 .09-11.57.17-13.61s-.06-4.33-.11-6.49c0-2.37.26-4.74-.23-7.09a2 2 0 0 1 0-.6c0-.31 0-.82.26-.85s.3.46.37.76c.44 1.87 1 3.7 1.51 5.56s1.21 3.82 1.65 5.77c.59 2.62 2 16.43 2.75 19a3 3 0 0 0 3.64 2.12 5.12 5.12 0 0 1 1.17-.14l.23-.24c.65-3.24.4-6.8.62-10 .25-3.52.13-7.2.42-10.77.04-6.52.48-13.12.89-19.71zm-17.94 23.26c-.08.08-.17-.09-.17-.22a.84.84 0 0 1 0-.22c.1-.19 0-.46.28-.57a.31.31 0 0 1 .11.17 1 1 0 0 1-.22.84zm6.26-19.39a1.14 1.14 0 0 1-.24-.73.61.61 0 0 1 .35.64c-.01.09-.06.16-.11.09zm3 8.69s.08-.06.09-.05c.34.29.23.7.3 1.07a1 1 0 0 1-.42-1.02zm3.5-21.7c.09-.13 0-.45.26-.39s.19.33.15.53-.08.42-.2.38-.25-.3-.24-.51zm.33 12.67s.1-.09.15-.14.1.13.1.2c0 .53 0 1.07-.07 1.6-.46-.51-.17-1.1-.21-1.65zm.28 2.5c0 .07-.12.06-.17 0a.75.75 0 0 1 .07-.76 1.21 1.21 0 0 1 .06.77zm.89-5a.21.21 0 0 1-.18.1c-.16 0-.1-.18-.08-.3l.2-.91c.23.18 0 .44.14.63a3.31 3.31 0 0 1-.12.48zm1.43 13.51c-.29 0-.12-.31-.19-.44s0-.47.12-.43c.25.09.13.39.2.6s-.01.29-.17.27z"/><path class="905bb632-47d4-4271-883b-6750307d0be9" d="M181.25 159.1l-.04.06.06.02-.02-.08zM109.84 163.93c-.56-1.6-1.6-3-1.93-4.66a20 20 0 0 0-1.4-4.11 20.45 20.45 0 0 1-1.23-3.39 10.23 10.23 0 0 0-.4-1.77c0-.11-.11-.29-.17-.29s-.18.2-.2.34c-.12.72-.28 1.44-.33 2.16-.22 3-.6 7.26-.74 10.3a2.29 2.29 0 0 1-2.61 2.23c-.75 0-1.51-.17-2.26-.24a.77.77 0 0 1-.75-.76 6.73 6.73 0 0 1-.11-1.21c.17-2.58-.2-6.38.15-8.95a35.06 35.06 0 0 0-.14-5.07c0-1.74 0-3.48.16-5.22.16-2 .13-4 .28-5.95s-.14-4.13.1-6.18c.13-1.09.21-2.18.32-3.27a36.26 36.26 0 0 0 .07-4.13c0-.7.11-1.37.16-2.06a1.06 1.06 0 0 1 .89-1 4.42 4.42 0 0 1 1.57-.23c1.61.21 3.15-.41 4.72-.44a7.93 7.93 0 0 1 5.41 1.49c.15.12.31.24.47.35a6.38 6.38 0 0 1 2.7 6 16.2 16.2 0 0 0 .25 2.41 33.12 33.12 0 0 1-.39 5.82c-.05.65-.1 1.29-.16 1.94a18.21 18.21 0 0 1-2.07 6.28 3.28 3.28 0 0 1-.76 1.06 1.68 1.68 0 0 0-.48 2c.45 1.51.88 3 1.34 4.53a40.11 40.11 0 0 0 1.49 4.59c.68 1.53.78 3.22 1.43 4.73a3.58 3.58 0 0 1 .22.94 2.16 2.16 0 0 1-1.22 2.38c-.98.31-3.03.65-4.38-.62zM108 142.45c.06-.07.29 0 .19-.21l-.18.23zm-6.89 16.37c-.17.25-.43.45-.35.81 0 0 .14.08.17.06.27-.24.13-.58.17-.87zm7-25.82a13.6 13.6 0 0 0-.44-4.19 2.87 2.87 0 0 0-1.69-2c-1.32-.62-1.3-.64-1.27.87 0 .4-.14.81-.09 1.21a49.08 49.08 0 0 1-.21 5.82 12.83 12.83 0 0 0 .35 4.05c.22.69.4.78 1 .38a2.92 2.92 0 0 0 .69-.64c1-1.33 2-2.68 1.69-4.57a8 8 0 0 1 .04-.93zm2.83-5.36c-.08 0-.17 0-.14.09a9 9 0 0 0 .34.85c0 .09.11.08.16 0a1.28 1.28 0 0 0-.3-.95zm-7.36-.39c0-.25 0-.52-.3-.55 0 0-.13.19-.14.29s0 .54.28.6.18-.23.23-.35zm-2.92 4.31l.07.41c.07-.22.16-.43.22-.65s0-.3-.1-.27-.03.3-.12.49zm2.71 19.78c0-.19 0-.39-.11-.56a1 1 0 0 0-.2.66c0 .12 0 .28.15.27s.21-.25.23-.39zm3.63-26.41a.36.36 0 0 0-.34-.26c-.13 0-.23.06-.19.22a.34.34 0 0 0 .33.27.19.19 0 0 0 .2-.23zm-5.28-1.6a.2.2 0 0 0-.2-.23.25.25 0 0 0-.18.13.17.17 0 0 0 .12.27c.11.03.2-.06.25-.17zm.53 39.27c0-.1 0-.16-.07-.16s0 .05-.05.09 0 .16.07.16.03-.06.05-.09zm-3.49-4.6s-.06.05-.06.08a1.44 1.44 0 0 0 0 .21s.07-.05.06-.08a1.34 1.34 0 0 0 0-.21zm6.91-12.76l-.05-.08s-.06 0-.06.07 0 .13.09.1.01-.08.02-.11zm3.93-20l-.11.15.07.06.12-.15zm-5.09 17h.06-.05zm5.17 5.6h.07-.08zm-7.92-14.67V133h-.08v.17zm8.18 15.44v.07-.07zm-8.19-16.88v.06h.07zM220.44 181.53a35.18 35.18 0 0 0 .94-4.35 4.77 4.77 0 0 0-.75-1.91l-1-.56c-2.06-1.07-4.33-1.58-6.42-2.52-1.65-.75-1.4-1.68-1.35-3.53.09-3.26.25-6.55.37-9.81 0-1.26.23-2.17 1.6-2.28a6.16 6.16 0 0 1 1.48 0h2.27a2.29 2.29 0 0 0 .57-.3c.54-.41 1.16-.88 1.08-1.62a12.74 12.74 0 0 1 .07-2 3.13 3.13 0 0 0-.3-1.65c-.12-.26-.24-.53-.57-.55-1.5-.11-3-.59-4.5-.31-1.14.21-1.25.08-1.39-1.14a8.81 8.81 0 0 1-.24-1.42c.09-2.13 0-14.73.38-16.84a5 5 0 0 0 .11-1.67.82.82 0 0 1 .7-1.05 21.17 21.17 0 0 1 4.47-.91 2.54 2.54 0 0 0 2.5-2.42c.06-.72.11-1.44.22-2.16a4 4 0 0 0-.16-1.54 1 1 0 0 0-1.07-.88c-2.33 0-4.74-.57-7-.3-1.68.2-3.19 0-5 .05a4 4 0 0 0-.94.26c-.63 1-.4 3.13-.63 4.3a.84.84 0 0 1-.08.18c0 1.16.08 2.32 0 3.48v.07a14.85 14.85 0 0 1 0 3.7 7.36 7.36 0 0 1 0 .79c-.11 1.8-.25 11.64-.42 13.43a27.26 27.26 0 0 0-.27 5.74 1.33 1.33 0 0 1 0 .24 51 51 0 0 0-.39 7 2.25 2.25 0 0 1-.09.72c-.51 1.94-.16 10.52-.23 12.27.11.85-.11 1.48 0 2.13a10.79 10.79 0 0 1 0 2c-.12 1.46 1.06 2.48 2.57 3.11 3.34.81 6.47 2.31 9.81 3.12a11.8 11.8 0 0 0 3-.28 5.67 5.67 0 0 0 .66-.59zm-3.18-28h.22c.4.14.44.5.52.83s-.1.42-.31.47-.33-.13-.35-.35a.48.48 0 0 1 0-.23c.15-.25-.34-.47-.08-.73zm-2.28 2c.11 0 .33 0 .3.08-.1.32-.41.1-.59.2-.18-.07-.39.1-.51-.13zm3.6-32.51c.16-.29.17-.7.6-.76 0 0 .06.06.06.09 0 .5-.27.69-.69.77a.3.3 0 0 1 .04-.12zm-2.47-1.56c-.36.23-.7.53-1.18.37a.13.13 0 0 1 0-.11 1.46 1.46 0 0 1 1.19-.27zM206 169a4.75 4.75 0 0 0-.06 1.19 2.28 2.28 0 0 1-.14.43 3.31 3.31 0 0 1-.1-.46 3.49 3.49 0 0 1 0-.48v-.72c0-.24 0-.41.19-.37s.16.24.11.41zm4.9 7.57c-.15 0-.3-.15-.2-.32s.27-.1.42-.06.3.07.29.29-.34.1-.51.06zm.05-18.29c-.25-.56.11-1.06.15-1.59 0-.14 0-.37.22-.36s.18.28.21.49c-.24.42-.07 1.06-.53 1.44zm7.28 23.29a4.42 4.42 0 0 1-.59 0l-.48.1h-.22c-.04 0 0-.14.08-.17.43-.15.51-.86 1.14-.71.21.05.51-.07.51.3s-.19.43-.44.46z"/><path class="905bb632-47d4-4271-883b-6750307d0be9" d="M210.85 159.86a.36.36 0 0 0 .13-.41c0-.12-.12-.2-.23-.1a.41.41 0 0 0-.07.43.11.11 0 0 0 .17.08zM217.87 152.18c0-.14 0-.33-.24-.34s-.14.15-.16.26 0 .23.16.25.23-.01.24-.17zM212.35 153.23c0 .09.05.13.14.11s0 0 .07-.07l-.14-.12zM216.24 151.61l-.07-.04-.01.06.08-.02zM54.12 166.45c-.06-.87-.24-1.74-.22-2.6.07-3.06-2.47-21.38-2.62-24.52a14.83 14.83 0 0 0-.36-2.51c-.49-2.2-.27-4.46-.66-6.67-.25-1.42-.24-2.88-.47-4.3a33.94 33.94 0 0 1-.7-4c0-.77-.87-1.85-1.45-1.78-1.09.14-2.14-.25-3.22-.17H43.3c-1 0-1.22.1-1.32 1.16a80.87 80.87 0 0 1-1.43 8.19 17.2 17.2 0 0 1-.18 1.88 8.85 8.85 0 0 0-.47 2.56c0 2.68-.57 5.29-.85 7.93-.13 1.26-1.83 24.38-1.86 27.49a1.61 1.61 0 0 0 .13.74v.31c.74 1 2.51.66 3.62.36a5.06 5.06 0 0 0 2.31-1.32 7.3 7.3 0 0 0 .12-1.43l.11-2c.13-.87.24-1.73.27-2.36s.14-7.47.33-8.06c.13-.41.22-1 .85-.9s2-.17 2.28.51c.18.47.38 7.41.49 7.9a32.5 32.5 0 0 1 .39 4 1.54 1.54 0 0 0 .23.95c.69.78 1.77 1.48 2.69.93a3.78 3.78 0 0 1 1.52-.43c1.32-.15 1.68-.56 1.59-1.86zm-7.06-18.79c-.14.83-1.11 1-1.91 1-1.05 0-1.67.08-1.6-1 0-.5.06-1 .09-1.49l-.06-1.6c.17-3.22.4-4.84.59-8.06 0-.78.16-1.9.27-2.67 0-.11.69-4.15.77-4.17s1.07 4.67 1.09 4.8a38.56 38.56 0 0 1 .45 5c.09 2.22.34 4.7.41 6.92a5.94 5.94 0 0 1-.09 1.26zm3.19-5.6a1.32 1.32 0 0 1-.34-1l.27-.87a2.47 2.47 0 0 1 .26.92c-.04.28.04.65-.19.94zM17.66 130.11a27.85 27.85 0 0 1-.56 5.17c-.22 1.56-.62 17.57-1.05 19.07a8.51 8.51 0 0 1-4.68 5.65 19.23 19.23 0 0 1-2.88 1.17 1.18 1.18 0 0 0-.9 1c-.17.78-.08 1.56-.21 2.35a26.85 26.85 0 0 0-.56 5.05c0 1.66-.13 5-.07 6.65 0 .58-.05 1.15 0 1.74 0 1.43-.58 2-2 2.12a2 2 0 0 0-.84.2 4.21 4.21 0 0 1-2.55.08c-.44 0-.83-.31-.78-.81.21-2-.38-5.71-.14-7.74a47.44 47.44 0 0 0-.08-5.45c0-.91-.36-1.78-.33-2.71 0-1.11.09-2.22.11-3.33 0-1.45.14-2.9.05-4.35a5.33 5.33 0 0 1 .21-1.84c.3-1 .16-16.55.3-17.61a7 7 0 0 1 0-.74c.77-3 .2-6.16.53-9.22a5.6 5.6 0 0 0-.23-1.84 4.11 4.11 0 0 1 0-2.21 6.25 6.25 0 0 0 .11-1.51c0-.42.23-.63.62-.6 1.16.09 2.31-.26 3.47-.12a1.1 1.1 0 0 0 .49 0 6.62 6.62 0 0 1 3.19-.1 10.09 10.09 0 0 1 4.54 1.3 4.66 4.66 0 0 1 1.83 1.62 1.23 1.23 0 0 0 .19.32c1.47 1.36 1.77 3.22 2.12 5a11.2 11.2 0 0 1 .1 1.69zm-5.26 27.84l.24-.26c.82-.26 1.06-1.1 1.61-1.63a.22.22 0 0 0 0-.21c-.13-.1-.22 0-.29.11l-1.32 1.75-.25.25zm2-33.9zm-3.26 12l.09-.06a.21.21 0 0 0 0-.07l-.11.15zm-10 27.64a1.78 1.78 0 0 0 .15-.17v-.09l-.12.28v.29a.7.7 0 0 0 0 .24c.08.26-.12.56.13.79.18-.27.05-.53 0-.8a1 1 0 0 0-.11-.22zm0-3.2l-.06.11a.9.9 0 0 0 0 1.12.29.29 0 0 0 .1 0 1.8 1.8 0 0 0 0-1 .71.71 0 0 0-.01-.26zm9.46-29.63a7.48 7.48 0 0 1 0-1.25 3.49 3.49 0 0 0-2.26-3.48c-1-.3-1.16-.18-1.26.84-.3 3.05-.1 6.11-.17 9.17 0 .45-.16 15.34-.11 15.79.11.89.7 1.17 1.46.74a2.25 2.25 0 0 0 .92-1.1c1-2.04 1.34-18.57 1.45-20.74zm-3.24 27.42c0-.06-.1-.18-.11-.17a2.81 2.81 0 0 0-1.13.45v.2a2.18 2.18 0 0 0 1.24-.48zM3.57 127.9c-.06-.17.11-.44-.17-.5-.13 0-.15.16-.14.28s-.06.48.13.55.14-.23.18-.33zm11.34 26.38a.14.14 0 0 0 0-.16 3.3 3.3 0 0 0-.23.55c0 .1.1.17.14.1a2.13 2.13 0 0 0 .09-.49zm-9.8-30.54c-.08-.17-.2-.16-.32-.13s-.23.11-.19.25a.18.18 0 0 0 .28.11 1.15 1.15 0 0 0 .23-.23zM4 173.16a3 3 0 0 0-.07.4v1.85c0-.12.09-1.91.1-2a.76.76 0 0 0-.03-.25zm-2.45.37c-.05.1-.16 1.84-.16 1.9a1.58 1.58 0 0 0 .07.32c0-.06.09-.12.09-.19s.04-1.9.01-2.04zm4.49-46.36L6 127a.76.76 0 0 0-.17.13c-.06.08 0 .16.07.15s.1-.08.16-.12zm-4.47 45c0-.11-.05-.14-.12-.08s0 .07 0 .11.06.14.12.08.02-.07.02-.11zm4.14 5.11v-.07h.01zm8.67-40.78s-.06.05-.06.08.88-1.73 1-1.81-.8 1.79-.8 1.76-.09-.03-.12-.04zM3.89 125h-.06v.06zm-1.49-3.21v-.09h-.11zM93.86 159.19a5 5 0 0 0-2.37-.26c-1.29.25-4.7.5-5.56-.88a5.09 5.09 0 0 1-.33-2.21c-.09-1.31-.19-2.61-.19-3.92s.1-2.68.2-4a3.93 3.93 0 0 1 .4-2c.65-.88 2.6-.9 3.74-.86l1-.2c.54-.11 1-.43 1-1 0-1.29.48-2.53.4-3.83-.06-.9-.22-1.17-1.08-1.13a15.66 15.66 0 0 0-3.09.22c-1.18.3-2.17-.14-2.25-1.37v-1c-.17-1.49.14-2.72 0-4.21a16.52 16.52 0 0 1 .39-4.32c.07-.46 1-.7 1.43-.75 1.2-.13 2.4-.17 3.59-.41 1.41-.29 1.49-.35 1.65-1.72a3.19 3.19 0 0 1 .14-.86 7.61 7.61 0 0 0 .17-3.69c0-.54-.32-.88-.86-.88-1.36 0-2.59 0-4.08.17-1.3.12-2.46.38-3.73.5-1.06.1-2.15.17-3.28.27-.62.05-1.07.26-1.2 1a37.46 37.46 0 0 0-.5 6.05 5.83 5.83 0 0 1-.09 1.36 22.75 22.75 0 0 0-.51 6.05c.06 3.77 0 7.54.1 11.31.15 4.13-.07 9.11.28 13.24.11 1.28.27 2.56.42 3.83a2.08 2.08 0 0 0 .09.42 3.34 3.34 0 0 0 .14.78.53.53 0 0 0 .06.15c.39.86 1.3.51 2.83.37 2-.18 4.05-.21 6.07-.39A10.79 10.79 0 0 0 90 165H92.14c1.08 0 1.44-.31 1.6-1.33s.25-2.15.36-3.22c.03-.37.08-1.08-.24-1.26zm-9.65-30.59c-.21.15-.26-.1-.32-.22a.56.56 0 0 1 .2-.74.24.24 0 0 1 .27.18c.08.28.11.59-.15.78zM74.55 130.81c-.11.5.37 1.15-.21 1.59s-1 0-1.57.09c-.78.07-1.56.22-2.34.35-.12 0-.23.1-.35.13-1.67.36-2.28 0-2.27-1.74 0-1.34-.32-2.64-.29-4a1.36 1.36 0 0 0-.77-1.2.87.87 0 0 0-1.31.24 3.85 3.85 0 0 0-.74 1.42 58.87 58.87 0 0 0-.83 6.66v.62c-.57 3.57-.09 7.11.3 10.66.22 2 .31 6.7.47 8.73a11.16 11.16 0 0 0 .82 4c.23.54.39 1.11 1.16 1.09a1.76 1.76 0 0 0 1.75-1.11 28.6 28.6 0 0 0 1.18-4.26c.32-1.15.49-1.24 1.66-1.1.91.11 1.83 0 2.73.2 1.06.2 1.27.33 1.2 1.34a21 21 0 0 1-1.18 6.32 12.87 12.87 0 0 1-2.69 4 7.08 7.08 0 0 1-7.56 1.55c-1-.42-2-.87-2.27-2.06-.09-.35-.38-.53-.58-.79a5 5 0 0 1-1.16-2.18c-.24-1.37-1-2.65-.75-4.11a5.13 5.13 0 0 1-.45-2.39c-.32-2.8-.49-8.24-.52-11.05 0-1.07 0-2.14-.14-3.22a6.2 6.2 0 0 1 .14-2.83.77.77 0 0 0 .07-.36c-.49-3.09.32-6.08.68-9.1a31.62 31.62 0 0 1 1-4.49 5.45 5.45 0 0 1 3.48-3.81 1.64 1.64 0 0 1 .48-.11 12 12 0 0 1 7.38 1.61 6.24 6.24 0 0 1 2.93 4.19 25.19 25.19 0 0 1 .55 5.12zm-3-7l-.24-.24v-.07l.06.05zm.73 1.29l.27.45zm-7.72.45a1.63 1.63 0 0 0 .23-.07.26.26 0 0 0 .17-.28s-.13-.13-.14-.12a1 1 0 0 0-.23.25.59.59 0 0 0 0 .24zM60.73 141c0-.54.05-1 .07-1.43 0-.07 0-.2-.09-.21s-.16.12-.16.21a15.46 15.46 0 0 1-.1 2.69c0 .11 0 .27.13.26s.12-.18.17-.28c.25-.49-.12-.93-.02-1.24zm2.3-8.12c-.22 0-.18.23-.18.37s0 .37.05.55c.08-.22.17-.43.24-.65s.03-.27-.14-.32zm.77 25.48c0 .06-.12.14-.11.18s.1.27.18.29.14-.12.14-.22a.25.25 0 0 0-.21-.3zm2.35-37.17l-.21.06c0 .06 0 .14.09.17a.14.14 0 0 0 .25-.08s-.09-.16-.13-.2zm-2.83 25.21c0-.08 0-.18-.09-.22s-.14 0-.14.12a1.4 1.4 0 0 0 0 .23zm-2.62-2.2c0 .05-.11.1-.11.16s0 .17.08.18a.15.15 0 0 0 .18-.2c-.01-.05-.09-.09-.15-.14zm2.53-12.51v-.1c0-.01-.13 0-.1.13s.05 0 .08.06zM174 130.95c-.19-1.95.25-3.93-.35-5.85a1 1 0 0 1 0-.37 13 13 0 0 0-.15-3.16c-.12-.93-.6-1.8-1.51-1.72-1.27.11-2.26-.16-3.52 0-.92.12-1.24 2.31-1.24 3.38a37 37 0 0 1-.18 4.79c-.18 1.38-.14 2.76-.19 4.14a17.41 17.41 0 0 0 0 3.38.76.76 0 0 1-.08.48 2.51 2.51 0 0 0-.21 1.56 75.18 75.18 0 0 1 .22 8.08c-.11 1.83.23 3.66.13 5.51-.06 1-.46 7.45-.35 8.5 0 .34.08.68.13 1 .05 2.19.06 4.4.22 6.58a3.63 3.63 0 0 0 .6 2.09.42.42 0 0 0 .21.41 1.62 1.62 0 0 0 .77.25 5.21 5.21 0 0 0 .6.19c.88.22 2.89.87 3.67.1s.68-3.25.63-4.76c0-.64.1-1.27.13-1.91a28.84 28.84 0 0 0 0-3.16c-.14-2.18.14-9.69.27-11.84.23-3.68.2-7.36.34-11a48.72 48.72 0 0 0-.14-6.67zm-6.17 8.65c.18 0 .26.13.28.3a7.92 7.92 0 0 1 0 1.85 49.29 49.29 0 0 0-.18 5.39 1.87 1.87 0 0 1-.09.47 3.23 3.23 0 0 1-.08-.47v-2.58a35.28 35.28 0 0 0 0-4.65c-.07-.1 0-.3.06-.31zM29.83 172.81c-1.87.1-3.62.9-5.53 1.33-1.43.32-2.31-.28-2.23-1.73.12-2.27-.17-15.26.06-17.52s-.06-4.47.21-6.7c.18-1.46-.24-3-.15-4.46s.06-2.72 0-4.07c0-2 .4-4 .2-6a10.45 10.45 0 0 1 .09-2.34 28.53 28.53 0 0 0-.07-8.53 2.88 2.88 0 0 1 1.05-2.61 1.16 1.16 0 0 1 1.18-.23 11.11 11.11 0 0 0 3.09.28c.53 0 .71.22.72.75 0 1.74.1 3.48.18 5.22s.29 3.22.23 4.83c-.07 1.9 0 3.8-.09 5.68a54.68 54.68 0 0 0-.35 6.57 17.72 17.72 0 0 1-.2 2.46 64 64 0 0 0 .09 7.08c0 .87 0 11.07.07 11.93.1 1.79.23 1.7 1.73 1.7.75 0 1.49 0 2.24-.08.55 0 .77.21.94.74a11 11 0 0 1 .2 4 1.3 1.3 0 0 1-1.28 1.15c-.68 0-1.47.35-2.38.55zm-2.58-20.65c0-.19 0-.41-.16-.42s-.1.18-.07.29.1.28.16.42zM24 173.06c.06 0 .12.11.17.11s.16-.07.17-.12-.11-.17-.22-.14-.12.09-.12.15zm3.21-19.35a.38.38 0 0 0 0-.1v-.11c0-.01-.11 0-.08.11a.39.39 0 0 0 .07.1zm1.21 13.82v.08h.08zm-1.15-23.6v-.07.07zm-2.75 1.64h-.07v.08zm2.48-7.71l-.05.08H27zM102.58 204.33l.11.08c1.16.69 1.55-1.57 1.48-2.24a12.69 12.69 0 0 0-1.19-3.59 14.69 14.69 0 0 1-1.57-4.76 9.14 9.14 0 0 0 1.89-1.82c1.85-2.08 2.16-5.62 1.45-8.28-.54-2-1.91-2.84-3.7-3.59h-.12a11 11 0 0 0-5.52-.3 1.86 1.86 0 0 1-.5.26c-.75.26-.87.82-.83 1.51a16.41 16.41 0 0 1-.24 2.76q-.34 3.07-.66 6.14c-.41 4.05-.76 8.11-1 12.18a2.14 2.14 0 0 0 .24 1.38 2 2 0 0 0 3-.3c.92-2 .58-4 .93-6a2.09 2.09 0 0 1 .81-1.31c.59-.47 1.07-.38 1.26.35a19.58 19.58 0 0 0 1.59 3.46 30.81 30.81 0 0 0 2.11 3.63 2.16 2.16 0 0 0 .46.44zM99.4 191c-.45.38-.94.72-1.43 1.07-.64.46-.8.37-.91-.39a15.37 15.37 0 0 1 .2-3.49c.21 0 .22-4.73.51-5.22s.72-.2 1.19 0 1.28.81 1.6.81a3.2 3.2 0 0 1 1.27 2.94A6 6 0 0 1 99.4 191z"/><path class="905bb632-47d4-4271-883b-6750307d0be9" d="M96.22 188.34l.03.04v-.07l-.03.03zM121.26 195.44v-.09c-.2-1.33-.54-2.6-.82-3.91s-.51-2.44-.79-3.65-.58-2.43-.94-3.62a18.47 18.47 0 0 0-1.43-3.09 1.65 1.65 0 0 0-2.48-.74c-.43.23-.81.56-1.25.82a23.28 23.28 0 0 0-.73 2.77 5.41 5.41 0 0 1-.16 1 60.46 60.46 0 0 0-1.53 7 20.45 20.45 0 0 1-.43 2.06 23.23 23.23 0 0 0-.79 8.82 1.77 1.77 0 0 0 .51 1.19 1 1 0 0 0 .85.18c.61-.16.91-.93 1.1-1.46q.79-2.34 1.61-4.66c.08-.23.14-.52.41-.58.86-.19 1.6-.71 2.49-.82.46-.06.76 0 .91.46.22.67.61 1.25.77 2a10.84 10.84 0 0 0 1.07 3.32c.36.6 1.65.2 1.87-.41a8.13 8.13 0 0 0 .1-2.6 29.92 29.92 0 0 0-.34-3.99zm-5.64-1.75c-.36 0-.65 0-.56-.5.22-1.17.46-4.3.69-5.47 0-.1.06-.25.12-.27s.21.13.27.26a26.51 26.51 0 0 1 .62 2.85c.09.55.15 1.33.28 1.87.29 1.17-.21 1.23-1.41 1.26zM115.74 194.56z"/><path class="905bb632-47d4-4271-883b-6750307d0be9" d="M115.09 195c0-.11 0-.13-.13-.09a.17.17 0 0 0-.07.07c0 .08 0 .15.07.14s.09-.12.13-.12zM77.65 200.69l.17-9.24.09-5c0-.85.69-2.47-.68-2.41a34 34 0 0 1-4.62.28 1.78 1.78 0 0 1-1.24-.47 1.23 1.23 0 0 1 0-1.5 2.67 2.67 0 0 1 1.36-.84 20 20 0 0 1 2.39-.6q2-.38 4-.64 2.59-.33 5.2-.46c1.61-.08 3.24-.23 4.71.56a1 1 0 0 1 .54.56.71.71 0 0 1-.25.66 2 2 0 0 1-.64.35 19.08 19.08 0 0 1-5 1.5.84.84 0 0 0-.88.84c-.16 1.73-.39 3.47-.52 5.23l-.28 5.74c-.09 1.31-.19 9.61-2.46 8.81a5.86 5.86 0 0 0-.72-.07c-1.07-.25-1.15-1.54-1.13-2.44zm1-14.29h.07a1.06 1.06 0 0 0 0-.29c0-.11-.08-.11-.09 0a1.91 1.91 0 0 0 .04.29zM150.23 197.94a2.17 2.17 0 0 0-.48-1.12c-1.41-1.78-3.95-1.26-5.88-.91-.45.08-.86.24-1-.28a6.66 6.66 0 0 1 0-1.91v-7.44c0-.59.41-6.25-.41-6.25a1.92 1.92 0 0 0-1.66-.25 2 2 0 0 0-1.21.82 2.94 2.94 0 0 0-.35 1.24 87.68 87.68 0 0 0-.14 9 77.3 77.3 0 0 0 .5 8.76c.07.72.31 2 1.3 1.76 2.7-.53 5.36-1.14 8-1.86a1.89 1.89 0 0 0 1.25-.86 1.26 1.26 0 0 0 .08-.7zM131.5 183.53c-.23 3.21 0 6.54-.14 9.75q-.11 2.49-.25 5c-.07 1.28.14 2.95-1.14 3.72-.76.46-1.16-.07-1.5-.75-.57-1.16-.35-2.81-.38-4.06q-.07-2.24-.11-4.48c-.07-3.71 0-7.39-.15-11.1a1.25 1.25 0 0 1 1.55-1.53 2.48 2.48 0 0 1 1.75.39 2.14 2.14 0 0 1 .48 1.88q-.07.57-.11 1.18zM179.35 74.5a5.57 5.57 0 0 0 .46 1 1.22 1.22 0 0 0 1.05.36c.17-.08.32-.19.29-.43s0-.75-.28-1c-.07-.07 0-.15 0-.22a1.6 1.6 0 0 0-.61-.89 1 1 0 0 0-.94-.08c-.16 0-.31.21-.51.09l-.18-.11c-.16-.11-.31-.28-.53-.13a.62.62 0 0 0-.29.61c0 .15.08.3-.08.43s0 .16 0 .22a.73.73 0 0 1 .13.45c0 .3.4.22.56.41s.25 0 .3-.11a4 4 0 0 0 .37-.57c0-.06 0-.15.11-.15s.11.05.15.12zM148.62 86.92v-.01h-.01l.01.01zM145.63 86c-.11 0-.13.1-.16.16s.06.17.15.17.17-.09.17-.2-.08-.13-.16-.13zM144.03 85.76h.01-.01zM179 76.16a.12.12 0 0 0-.09.12c0 .07.05.13.12.13s.1-.08.09-.15a.1.1 0 0 0-.12-.1zM143.85 85.69v.07c0 .01.14 0 .21 0s-.13-.11-.21-.07zM144.03 85.76h.01-.01zM155.55 88.95h-.2l.12.06s.1-.01.08-.06zM146 86.21l.05.06h.06v-.06c0-.06-.11-.05-.11 0zM187.48 41.77zM187.6 41.83l-.12-.05v.06zM172.75 92.45z"/><path class="905bb632-47d4-4271-883b-6750307d0be9" d="M200.34 64.72c-.25 0-.48.14-.73 0-.29-.3-.13-.55.09-.79a.3.3 0 0 0 .08-.16 8 8 0 0 0 .07-1.39c0-.17-.16-.22-.29-.27a.78.78 0 0 0-.72 0c-.31.2-.53 0-.75-.12l-.1-.1c-.1-.32-.4-.39-.66-.49a2.54 2.54 0 0 0-.46-.09c-.08 0-.15-.06-.13-.13s-.06-.44 0-.65a.41.41 0 0 0-.06-.47c-.25-.26-.33-.69-.78-.74a.31.31 0 0 1-.06-.3 1.28 1.28 0 0 0-.06-.79 1.79 1.79 0 0 1-.08-.64.92.92 0 0 0-.21-.66 2 2 0 0 1-.23-.54.24.24 0 0 1 0-.26c.32-.36.19-.7 0-1.06a.89.89 0 0 1 0-.23.92.92 0 0 0-.81-.64 1 1 0 0 1-.82-.42c-.11-.19-.25-.36-.36-.54a6.1 6.1 0 0 1-.62-1.55 4 4 0 0 0-.36-.83.76.76 0 0 1-.09-.28 10 10 0 0 1-.18-1.12.35.35 0 0 0-.19-.29 2.77 2.77 0 0 0-1-.42h-.11c-.2-.35-.64-.34-.89-.62a.31.31 0 0 0-.15-.1.67.67 0 0 1-.43-.85c0-.09.09-.17 0-.26-.21-.33-.12-.72-.21-1.08a.57.57 0 0 1 0-.32 3.6 3.6 0 0 0 .06-.55c.06-.37.12-.75.17-1.12 0-.06.07-.12.11-.17a.5.5 0 0 0-.25-.81.18.18 0 0 1-.13-.1.75.75 0 0 0-.59-.45c-.32-.09-.56-.38-.89-.47a.09.09 0 0 1-.11 0 .32.32 0 0 0 0-.06c0-.26-.23-.32-.43-.39s-.16 0-.2 0a1.69 1.69 0 0 0-.88-.46l-.86-.24a2.44 2.44 0 0 0-1.17-1 .66.66 0 0 1-.18-.15h-.12c-.33-.31-.81-.35-1.17-.64a.53.53 0 0 1-.26-.49 2.13 2.13 0 0 0-.07-.81 6.73 6.73 0 0 0-.48-.91.11.11 0 0 0-.13 0 1.37 1.37 0 0 0-1.12.57c-.12.2-.24.26-.45.09a.84.84 0 0 0-.67-.06c-.31 0-.42-.2-.55-.37s.06-.27.2-.37.07-.47.11-.71v-.14a.52.52 0 0 0-.53-.51.92.92 0 0 0-1 .36c-.06.09-.14.09-.22 0-.41-.39-.81-.78-1.24-1.14a2.35 2.35 0 0 0-.49-.39.54.54 0 0 0-.78.4v.18c0 .06-.08.31-.3.15s-.36-.18-.42-.4a1.93 1.93 0 0 1-.78-.4 10.31 10.31 0 0 0-1.62-.95c-.22-.1-.32-.21-.24-.48a.81.81 0 0 0-.6-1c-.12 0-.17-.13-.25-.19a3.36 3.36 0 0 0-2 .84c-.2.16-.42.31-.63.48a.67.67 0 0 1-.91-.14l-.49-.56c-.3-.34-.68-.28-1.06.07a6.7 6.7 0 0 1-2.17 1.43 9.39 9.39 0 0 0-1.14.62c-.25.13-.37.08-.4-.13s0-.48-.22-.52a.68.68 0 0 0-.67.22c-.25.47-.75.45-1.12.68a6.81 6.81 0 0 0-1.07.59 8.68 8.68 0 0 0-1.85.84 1.34 1.34 0 0 0-.75.91c-.13.38-.13.38-.47.25a2.28 2.28 0 0 0-.94 0c-.18 0-.24.29-.17.53a5 5 0 0 0 .42.81l.06.13v.07a.69.69 0 0 1-.8.55 2 2 0 0 0-.62 0c-.21 0-.36 0-.42-.21-.12-.37-.42-.43-.74-.47a.35.35 0 0 0-.43.32c0 .26-.1.5.17.72s.16.52.33.75-.09.15-.17.2a13.47 13.47 0 0 0-1.23.93c-.36.3-.3.74-.39 1.12s-.14.8-.22 1.2a.37.37 0 0 0 .06.36.33.33 0 0 1 0 .52 6.3 6.3 0 0 0-.67.66.57.57 0 0 1-.66.12c-.34-.11-.5 0-.46.38 0 .1 0 .23-.05.27-.43.23-.64.74-1.16.85-.17 0-.32.2-.49.28a1.83 1.83 0 0 1-1.49 0 .83.83 0 0 0-.88.2.92.92 0 0 0 0 .8l.39.78c0 .05.06.12.1.14.39.16.44.57.62.87.09.14.13.29.32.3h.05c.09.1.3.16.23.3s-.25 0-.35-.05c-.28-.22-.69-.22-.86-.63-.05-.13-.31-.21-.49-.26a.44.44 0 0 1-.36-.44.28.28 0 0 0-.2-.27c-.17 0-.09.18-.2.2h-.06c-.2-.11-.3.06-.39.17s-.42.53-.61.81a1.9 1.9 0 0 0-.35.95 1.35 1.35 0 0 1-.33.84.79.79 0 0 0-.14.79 5.25 5.25 0 0 1 .13.89c0 .14-.1.25-.22.34s-.26.37 0 .6a.85.85 0 0 1 .29.63.34.34 0 0 0 .13.26c.2.19.08.26-.07.41a2.57 2.57 0 0 1-1.12.55c-.18.06-.35.16-.38.35s.13.27.27.36c.31.21.55.55 1 .5.2 0 .36-.2.6-.12s.23 0 .34.05.19 0 .2.13-.09.16-.17.19a2.7 2.7 0 0 1-.45.14c-.24.06-.44.14-.4.45 0 .12-.08.22-.12.33a1.16 1.16 0 0 0 .26 1c.2.31 0 .51-.09.72a1.39 1.39 0 0 0-.22.51 3.87 3.87 0 0 0 .14 2 1.49 1.49 0 0 0 1 .8 1.61 1.61 0 0 1 1 1c.13 0 .11.17.16.26a6.27 6.27 0 0 1 .38 1 .56.56 0 0 1 0 .39c-.09.32-.17.61.16.88a4.16 4.16 0 0 1 .54.66.2.2 0 0 1 0 .27.15.15 0 0 1-.23.06.26.26 0 0 0-.23 0 4.93 4.93 0 0 0-1.71 1.05s-.07.06-.07.1c0 .32-.2.6-.16.92a1 1 0 0 0 .39.72 2.48 2.48 0 0 1 .8.8c.18.09.09.21 0 .32a2.57 2.57 0 0 0-.19 1.22.41.41 0 0 0 .28.45.19.19 0 0 1 .11.13c.17.41.52.49.8.16s.28-.18.43 0l.35.33c.19.17.38.33.67.2s.18.07.15.16a.66.66 0 0 0 .1.54c.13.21 0 .33-.14.46a.45.45 0 0 0-.09.45c.06.35.3.74 0 1.11a.2.2 0 0 0 0 .28c.1.09.21 0 .3-.05a1.18 1.18 0 0 0 .27-.39.19.19 0 0 1 .22-.11.18.18 0 0 1 .14.17c0 .2 0 .39.08.59a.66.66 0 0 0 .3.54.22.22 0 0 1 .1.33c.23.29.37.26.8.18a1.89 1.89 0 0 0 .64-.21.61.61 0 0 0 .28-.28.77.77 0 0 1 .56-.36.12.12 0 0 1 .16.08c.18.57.72.79 1.11 1.16.37-.19.77-.33.91-.79a.32.32 0 0 1 .15-.18.16.16 0 0 0 .05-.26c-.21-.18 0-.4-.08-.59s0-.07.09-.07a.47.47 0 0 1 .32.14.28.28 0 0 0 .44 0 1.21 1.21 0 0 0 .23-.23.23.23 0 0 1 .4-.06c.24.25.48.16.73 0s.35-.14.46.14.25.38.47.28.47-.23.49-.53c0-.09 0-.2.08-.23s.09.13.16.18h.07s.08.1.07.11c-.24.34.09.6.15.89s.27.17.41 0a.4.4 0 0 1 .38-.12.4.4 0 0 0 .5-.31 4.81 4.81 0 0 1 .3-.67c.1-.23 0-.48 0-.65s.38-.07.54-.3a2.51 2.51 0 0 0 .52-1.29.22.22 0 0 1 .16-.19 7.4 7.4 0 0 1 2.18-.72 4.73 4.73 0 0 1 1.22 0 5 5 0 0 0 .56 0 .6.6 0 0 1 .66.49.2.2 0 0 0 0 .08 1 1 0 0 1 .21.79c0 .49-.08 1-.12 1.44a12.71 12.71 0 0 0-.11 1.86 1.13 1.13 0 0 0 0 .2 4.17 4.17 0 0 1 .04 2.42 8.5 8.5 0 0 0-.31 1.86 1.18 1.18 0 0 0 0 .33.66.66 0 0 1 0 .41 6.26 6.26 0 0 0-.43 1.07c-.06.2-.15.41-.21.62s-.2.33-.49.26a13.43 13.43 0 0 0-3.46 0 20.78 20.78 0 0 0-3.62.23 6.11 6.11 0 0 1-3.29-.18l-8.28-1.9-1.69-.39c-.62-.14-1.26-.35-1.89-.43a9.41 9.41 0 0 1-1.32-.16 19.07 19.07 0 0 0-2.22-.63v-.78-1.72a11.1 11.1 0 0 1-.63-4.84c0-3.89-.33-7.82-.14-11.69 0-.1 0-.21-.05-.3h.06a1.39 1.39 0 0 1 0-.26c.09-2 .17-3.95.27-5.92.14-2.74 0-5.47 0-8.21 0-1.39.12-2.78.13-4.17a11.76 11.76 0 0 0-.84-4.62 17.79 17.79 0 0 1-.65-1.79 16.14 16.14 0 0 0-1.92-3.93c-.84-1.38-1.83-2.67-2.65-4.06a15.86 15.86 0 0 1-2-5.37c-.12-.69 0-.8.73-.62 1.74.42 3.54.58 5.24 1.12l2.89 1.33c.33.17.65.33 1 .47.77.31 3.15 1.44 3.57 1.69a31 31 0 0 1 4.09 2.54 2.76 2.76 0 0 0 .85.54 22.25 22.25 0 0 1 3.72 2.09c.84.49 1.67 1 2.51 1.52s1.69-.13 1-.67c-1.67-1-3.34-2-5-3-1.93-1.21-3.91-2.36-5.91-3.46-.47-.26-.94-.49-1.42-.74a70.93 70.93 0 0 1 10.27 5.43l2.36 1.51c1.08.69 1.85-.36 1-.84l-2.28-1.47a69.73 69.73 0 0 0-15.41-7.53A55.92 55.92 0 0 0 128 21.9a2 2 0 0 1-.32-.93c-.26-2.23 0-4.62-.13-6.87 0-.13-.08-2.92-.1-4.23a10.34 10.34 0 0 1 .07-3.14 12.84 12.84 0 0 0 .37-4.57 1.76 1.76 0 0 0-1.7-1.6 10.33 10.33 0 0 1-2.66-.22 15.34 15.34 0 0 0-4.37-.28 15.42 15.42 0 0 1-1.9.19c-1.1 0-1.42.26-1.79 1.31a6.22 6.22 0 0 0-.14 3.78 10.43 10.43 0 0 1 .27 3.12c0 1.32-.21 9.89-.23 11.33a161.47 161.47 0 0 0-22.89 1.46 7.48 7.48 0 0 1 .06-1.57 41.51 41.51 0 0 0 .24-6.07 2.64 2.64 0 0 0-1.34-2.44 5.26 5.26 0 0 0-1.72-.49 27 27 0 0 0-3.72-.33 11.68 11.68 0 0 0-3.32.23c-.66.21-1.37.24-1.71.89s-.93 1.08-1 1.74c-.06 1.3-.26 2.64.44 3.86a3.35 3.35 0 0 1 .42 1.74c0 1.69.18 3.37.13 5.07-7 1.2-11.75 4.28-17.22 8.46-.56 1.06.81 1.49 2.38.47.69-.41.3-.11 1-.5 1.47-.82 6.43-3.31 8-4a19.58 19.58 0 0 1 5.17-1.54c.48-.09.63 0 .68.38a5.8 5.8 0 0 1 0 .67v2.74c.41 1.69 0 3.53 0 5.37a19.11 19.11 0 0 1-.53 2.64 12.19 12.19 0 0 1-.87 3.37 3.86 3.86 0 0 1-.73 1.25c-.93 1-1.67 2.08-2.64 3s-1.49 2.25-2.42 3.24a10.64 10.64 0 0 0-1.83 2.68 8.89 8.89 0 0 0-.92 4.57c.11 1.5.12 3 .26 4.5a25 25 0 0 1-.18 4.5c0 .74 0 1.48.08 2.22v.23a6.85 6.85 0 0 1 .06 1.41c.21 3.46.5 7 .55 10.4a6.85 6.85 0 0 1 .16 1.83 1 1 0 0 0 0 .17q.31 2.75.6 5.5a5.4 5.4 0 0 0-1.38-1A6.52 6.52 0 0 1 69 84.76c-.73-.78-1.42-1.6-2.12-2.4a2.21 2.21 0 0 0-2.29-.8 12.47 12.47 0 0 0-1.76.65 21.74 21.74 0 0 0-2.11 1.16c-.43.23-.61.67-.93 1a10.43 10.43 0 0 0-1.87 2.1c-.25.39-.49.35-.81 0a3.39 3.39 0 0 1-.51-.82c-.32-.6-.68-1.17-1.51-1-.32 0-.42-.15-.45-.41s0-.62 0-.92a22.43 22.43 0 0 1-.1-3.73v-2.72a33.19 33.19 0 0 1-.22-3.37c0-.18 0-.45.16-.46s.22.27.25.44a.68.68 0 0 0 1.16.49 1.2 1.2 0 0 1 1.54-.1c.14.07.29.15.4 0 .3-.4.68-.23 1-.12a2 2 0 0 0 1.16 0 3.11 3.11 0 0 1 1.29-.4 1.33 1.33 0 0 0 .75-.23c.21-.15.66-.14.58-.5s-.49-.28-.79-.32a14.32 14.32 0 0 1-4-.87c-.68-.3-1.36-.62-2.06-.9-1-.41-1.22-.85-1-1.63.11-.47.24-.54.67-.3a1.26 1.26 0 0 0 1 .23 1 1 0 0 1 .7.21 1.6 1.6 0 0 0 2 .18c.1-.07.2 0 .3 0 1.08.09 2.18.36 3.19-.33.08-.05.17 0 .25 0 .47 0 .46-.51.67-.78s0-.36-.13-.52a1.21 1.21 0 0 0-1.41-.33 1.22 1.22 0 0 1-.55.13c-1.25-.12-2.45-.53-3.68-.74a8.24 8.24 0 0 1-2.44-1.12.83.83 0 0 1-.4-1.05c.15-.37.49-.13.75-.17.09 0 .19.08.28.11a2.15 2.15 0 0 0 1.12.16 4.82 4.82 0 0 1 1.62.06c.38.06.84.15 1.15-.31a.51.51 0 0 1 .65-.19 3.13 3.13 0 0 0 1.91 0 1.4 1.4 0 0 0 .73-1.14 1 1 0 0 0-1.14-.65 12.76 12.76 0 0 1-1.72.06 10.53 10.53 0 0 1-4.65-.87c-.88-.44-.9-.39-.89-1.35v-.27c0-.3.14-.36.4-.25l.65.27a3.08 3.08 0 0 0 1.51 0 2.52 2.52 0 0 0 1.49-.68c.1-.09.2-.19.35-.16a8 8 0 0 0 1.71-.1 8.94 8.94 0 0 0 2.53-.82.42.42 0 0 0 .32-.48.52.52 0 0 0-.5-.43c-.34 0-.67-.1-1-.18a5.71 5.71 0 0 0-3.37.07 3.41 3.41 0 0 1-2.53 0 5.63 5.63 0 0 0-1-.32 1 1 0 0 1-.87-.93 10.41 10.41 0 0 1-.09-1.23c0-.41-.05-.93.18-1.12s.73 0 1.1.2a1.82 1.82 0 0 0 1.55.11 5.17 5.17 0 0 1 1.91-.5.37.37 0 0 0 .39-.3c.05-.21.16-.21.33-.11s.37.19.55.29a3 3 0 0 0 2.59 0 4.63 4.63 0 0 1 1.18-.4.54.54 0 0 0 .5-.49.56.56 0 0 0-.39-.59 2.18 2.18 0 0 0-.65-.14 8.73 8.73 0 0 1-1.86-.28c-.86-.3-1.76-.43-2.62-.72s-1.79-.67-2.69-1a4.67 4.67 0 0 1-1.26-.81 1 1 0 0 1-.44-1 3.35 3.35 0 0 0 0-1c-.07-.38.07-.49.44-.51.71 0 1.41.16 2.12.13a6.22 6.22 0 0 0 1.88-.16c.47-.18.67 0 1 .19a2.36 2.36 0 0 0 2.81 0c.1-.06.21-.17.3-.17 1 .06 1.61-.69 2.47-.9a2.88 2.88 0 0 0 .78-.3c.17-.1.25-.21.18-.39s-.16-.41-.39-.35a15.05 15.05 0 0 1-2 .14 7.37 7.37 0 0 1-2.45-.42 4.87 4.87 0 0 0-1.54-.28 1.34 1.34 0 0 1-.77-.14 3.18 3.18 0 0 0-1.28-.31 3.09 3.09 0 0 1-1.71-.52 2.12 2.12 0 0 0-.88-.38 1.31 1.31 0 0 1-1.21-1.33v-1.1c0-1 .07-1 1-.73a19.22 19.22 0 0 0 3.41.32 7.93 7.93 0 0 1 1.88.11 1.64 1.64 0 0 0 1.65-.38.86.86 0 0 1 .84-.26 2.76 2.76 0 0 1 .81.21.64.64 0 0 0 .83-.18 3.33 3.33 0 0 0 .6-1.12.6.6 0 0 0-.72-.79.56.56 0 0 1-.39 0 3.11 3.11 0 0 0-1.37-.32c-.77-.13-1.51-.41-2.28-.52a24.56 24.56 0 0 1-3.39-.59 3.46 3.46 0 0 0-.87-.3 4.23 4.23 0 0 1-2-.81c-.06 0-.15-.07-.12-.16s.11-.05.15 0a2 2 0 0 0 1.16-.1 3.72 3.72 0 0 1 2.35.15 1.79 1.79 0 0 0 1.59 0 .62.62 0 0 1 .67.07 1.55 1.55 0 0 0 .93.22.37.37 0 0 0 .42-.36.38.38 0 0 0-.35-.44c-.89-.16-1.7-.6-2.58-.82a6.59 6.59 0 0 1-2.24-1 23.37 23.37 0 0 1-2.73-2 2 2 0 0 1-.67-.85c0-.19 0-.44-.2-.53s-.42 0-.57.23-.17.17-.24.26a8.9 8.9 0 0 1-2.55 2.09c-.76.41-1.52.82-2.25 1.27a8.5 8.5 0 0 1-1.64 1 3.63 3.63 0 0 0-1.38 1 1 1 0 0 1-.83.42 2.41 2.41 0 0 0-.76.22c-.23.07-.33.25-.22.45.18.34 0 .44-.28.49s-.72.26-1.08.38-.27.25-.1.44a1.28 1.28 0 0 0 1.17.29 3.7 3.7 0 0 0 1.29-.66c.17-.12.37-.28.6-.11a.73.73 0 0 0 .59.1 6.68 6.68 0 0 0 1.61-.44c.35-.14.71-.4 1.1-.08a.22.22 0 0 0 .21 0c.33-.27.76-.06 1.11-.24a.15.15 0 0 1 .22.08c0 .12-.1.12-.16.17-.27.22-.66.26-.86.57a2.78 2.78 0 0 0-2.11.9.67.67 0 0 1-.33.21c-1.48.31-2.72 1.25-4.22 1.57a6 6 0 0 0-2.84 1.42 5.48 5.48 0 0 0-1.63.6.34.34 0 0 0-.21.47.34.34 0 0 0 .43.21 5 5 0 0 0 .93-.26 2.58 2.58 0 0 1 1.94-.09 3.89 3.89 0 0 0 1.91.17c.63-.08 1.21-.36 1.83-.48a3 3 0 0 0 1.29-.64 2.24 2.24 0 0 1 2.32-.08 1.11 1.11 0 0 0 1.4 0 .68.68 0 0 1 .28-.12c1-.18 1.6-1 2.51-1.32.09 0 .15-.16.27-.1s.11.2.09.31c-.06.34-.26.65-.35 1a3.84 3.84 0 0 1-1.81 2.24 15.86 15.86 0 0 1-5.45 2.16 4.06 4.06 0 0 0-1 .33 6.31 6.31 0 0 1-2.31.75 2.37 2.37 0 0 0-1.27.43c-.16.13-.23.33-.45.4s-.28.35-.12.56a.79.79 0 0 0 .86.33 5.22 5.22 0 0 1 2 .07 2.25 2.25 0 0 0 1.76-.32c.54-.38.72-.39 1.24 0a.5.5 0 0 0 .34.06 3.87 3.87 0 0 0 2.35-.76c.45-.39 1.15-.42 1.55-.83.6-.62 1.29-.23 1.93-.34 0 0 .11.09.16.14s.18.21.28.21c.47 0 .5.35.51.68a11 11 0 0 1 0 1.14.55.55 0 0 1-.11.23 6.27 6.27 0 0 1-1.53 1.31 7.91 7.91 0 0 1-2.63 1 9.06 9.06 0 0 0-1.52.57 3.35 3.35 0 0 1-1 .49 2.45 2.45 0 0 0-1.21.61.38.38 0 0 1-.43.11.67.67 0 0 0-.83.23.29.29 0 0 1-.48 0c-.11-.09-.25-.16-.37-.24a9.89 9.89 0 0 1-2.07-1.5c-.69-.83-1.34-.78-2.15-.13a7.78 7.78 0 0 1-1.88 1.2c-.22.09-.33.44-.56.4s-.44.17-.62.33A25.3 25.3 0 0 1 32 54.22a.3.3 0 0 0 0 .57c.46.17.94.46 1.46.15a1.56 1.56 0 0 1 1.18-.24.72.72 0 0 0 .62-.16c.34-.27.66-.58 1-.88.15-.14.18-.42.41-.44a2.9 2.9 0 0 0 1.22-.44c.24-.13.37 0 .37.26a1.2 1.2 0 0 1-.77 1.14 1.79 1.79 0 0 0-1 1.08c-.06.19-.21.33-.39.27a1.17 1.17 0 0 0-1.17.41 1.82 1.82 0 0 1-1 .78 1.31 1.31 0 0 0-.78.53c-.15.22-.42.5-.63.5-.52 0-.67.25-.79.68-.05.2-.12.36 0 .53a.54.54 0 0 0 .63.21c.43-.19.86-.37 1.3-.54a1.12 1.12 0 0 0 .54-.49 1 1 0 0 1 1.19-.53 1.49 1.49 0 0 0 1-.13 3.85 3.85 0 0 0 1.11-.71c.14-.12.31-.26.5-.07a1.92 1.92 0 0 1 0 1.4c-.68.49-1.31 1-2 1.54-.25.18-.59.27-.79.54a1.1 1.1 0 0 1-.82.44.45.45 0 0 0-.39.38.63.63 0 0 1-.61.41.74.74 0 0 0-.44.18 1.55 1.55 0 0 1-1.23.32c-.45-.06-.9 0-1.13.47a.23.23 0 0 1-.29.14 1.1 1.1 0 0 0-.77.13c-.26.12-.65.21-.57.56s.49.37.81.4a.37.37 0 0 0 .17 0 5.63 5.63 0 0 1 2-.3 3.3 3.3 0 0 0 2.41-1.12c.17-.19.38-.38.61-.28a1.41 1.41 0 0 0 1.17-.13 2.63 2.63 0 0 0 1.71-.89.2.2 0 0 1 .34 0c.06.28.29.64.09.84A12.26 12.26 0 0 1 37.15 63a9.91 9.91 0 0 0-1.4 1.19 2.27 2.27 0 0 1-.73.59 2.28 2.28 0 0 0-1 .71 1.18 1.18 0 0 1-1.29.53.59.59 0 0 0-.61.26 1 1 0 0 1-.74.4 1 1 0 0 0-.8.4.56.56 0 0 1-.46.21c-.48-.09-.65.25-.87.53s-.28.34-.08.54a.43.43 0 0 0 .6 0 2 2 0 0 1 .8-.32c.41-.1.89 0 1.21-.2.64-.38 1.17-.1 1.72.1a1.66 1.66 0 0 0 1.67-.17.58.58 0 0 1 .27-.15 4.54 4.54 0 0 0 2-.78l.32-.23c.45-.37.45-.38.75.14.1.12 0 .26 0 .38a6.51 6.51 0 0 1-.82 1.43 9.12 9.12 0 0 1-1.38 1.09A25.73 25.73 0 0 1 34 71.08c-.39.22-.59.72-1.1.76a3 3 0 0 0-1.47.48.76.76 0 0 1-.84.07.29.29 0 0 0-.34 0 2.44 2.44 0 0 1-1.25.71.36.36 0 0 0 0 .71 1.94 1.94 0 0 0 .43.08c.58 0 1.1-.36 1.69-.22a.12.12 0 0 0 .08 0 2.16 2.16 0 0 1 1.22-.31.92.92 0 0 0 .61-.23.8.8 0 0 1 .91-.13c.23.09.47.18.71.25a.7.7 0 0 0 .94-.34 1.32 1.32 0 0 1 .4-.38c.39-.32.89-.45 1.28-.76a5.34 5.34 0 0 0 .66-.65c.09-.12.22-.24.37-.14a.29.29 0 0 1 .14.38.94.94 0 0 0 0 .44 3.77 3.77 0 0 1 0 1.31A3 3 0 0 1 37 74.45c-.61.35-1.38.41-1.92.93-.06.05-.17 0-.25.08a17.54 17.54 0 0 0-2.36 1 14.78 14.78 0 0 1-2.29 1c-.25.07-.46.16-.48.43s.24.38.45.49a1 1 0 0 0 .57.05 5.16 5.16 0 0 0 1.11-.32 5.6 5.6 0 0 1 2.76-.34 2.45 2.45 0 0 0 1.37-.25 3 3 0 0 1 .68-.31 2.36 2.36 0 0 0 1.36-.94 3.61 3.61 0 0 1 0 1.65.77.77 0 0 1-.4.61c-.92.52-1.56 1.39-2.43 2a2.62 2.62 0 0 1-.76.43 2.87 2.87 0 0 0-1.29.8.38.38 0 0 0 0 .53.3.3 0 0 0 .42.12c.48-.32 1.09-.38 1.57-.7s1-.24 1.3-.67h.17a1.38 1.38 0 0 0 1-.24c.21-.14.27 0 .33.19a5.17 5.17 0 0 1 0 1.05c0 .3.25.51.21.8a7.65 7.65 0 0 0-.12 1.33c.06 1.06-.11 2.12-.13 3.19 0 1.24-.42 2.46-.39 3.71a2.6 2.6 0 0 1 0 .26.37.37 0 0 1-.35.38 14.07 14.07 0 0 1-1.43.22 1.17 1.17 0 0 0-.77.37c-.35.33-.58.78-1 1a.85.85 0 0 0-.53.44 2.49 2.49 0 0 1-.69 1 .28.28 0 0 0-.08.15c-.06.62-.54 1.14-.48 1.8v.1a14.4 14.4 0 0 0-1.7 3.11 1.42 1.42 0 0 1-.1-.46l-.12.09c-.34-5.24-.62-13.39.77-18.39a1.64 1.64 0 0 0 0-.69c-.06-.43-.41-.56-.83-.36-.12.46-.74 3.05-.79 3.39-.18 1.34-.36 2.67-.67 4a19.55 19.55 0 0 0-.71 5.09c.06 1.47-.09 2.91-.15 4.36 0 .83-.18 1.65-.22 2.47 0 .67.16 1.4.82 1.58a9.14 9.14 0 0 0 3.08.61 49 49 0 0 0 5.3-.56 50.18 50.18 0 0 1 6.5-.61 30.17 30.17 0 0 0 4.49-.26 6.48 6.48 0 0 1 2.46.08 2.89 2.89 0 0 0 1.12.05 9 9 0 0 1 3.14.07 12.66 12.66 0 0 0 2.69.29c1.38-.08 2.77-.1 4.16-.15a22.13 22.13 0 0 1 3.26-.12c2.58.29 5.19.23 7.76.67a10.07 10.07 0 0 0 1.92.07 22.68 22.68 0 0 1 3.94 0 40.24 40.24 0 0 0 4.51.18 22.09 22.09 0 0 0 3.37-.07 24.56 24.56 0 0 1 3.26-.1 21.28 21.28 0 0 0 3.82-.17c1.88-.3 3.74-.79 5.6-1.2a2.44 2.44 0 0 0 .54-.16 18.39 18.39 0 0 0 6.42-4.6c.62-.75 1.23-1.53.75-2.62a1.15 1.15 0 0 1 0-.55 4.38 4.38 0 0 0-.92-3.16c-.74-1.08-1.59-2.08-2.31-3.17a8.07 8.07 0 0 0-3.25-2.88 9.16 9.16 0 0 1-2.25-1.28 1.17 1.17 0 0 0-.52-.19 6 6 0 0 1-2.13-1 20.61 20.61 0 0 0-4.81-2.68 6.66 6.66 0 0 1-3-2.24 4.49 4.49 0 0 1 1.06-6.74 9.45 9.45 0 0 0 1.77-1.2 9.53 9.53 0 0 1 2.24-1.7 20.09 20.09 0 0 0 6.48-5.34 9.53 9.53 0 0 0 1.73-3.13 13.66 13.66 0 0 1 .58-2 5.35 5.35 0 0 0 .42-3 12.31 12.31 0 0 0-3.21-6.24c-1.1-1.25-2.5-2.24-3.62-3.52a5.18 5.18 0 0 1-1.29-2.42c0-.13 0-.27-.06-.4-.9-2.72-.84-8-.74-11.37-.13-1.19-.08-2.39-.16-3.58a.73.73 0 0 1 .79-.87c1.84-.09 3.66-.3 5.49-.54 2.08-.27 4.19-.33 6.29-.47.68 0 1.32-.27 2-.26 2.26 0 4.51.12 6.77 0a3.3 3.3 0 0 1 1.22.18.49.49 0 0 1 .38.58 18.69 18.69 0 0 1-.88 5.07c-.44 1.2-1.06 2.32-1.43 3.54a6.51 6.51 0 0 1-1.61 2.54 46.88 46.88 0 0 0-3.1 3.52c-.5.65-1.3 1-1.56 1.88a3.39 3.39 0 0 1-.91 1.54 1.58 1.58 0 0 0-.4.91c-.14.62-.24 1.26-.34 1.88a3.19 3.19 0 0 0 .35 2 47.18 47.18 0 0 1 3.19 5.79 7.69 7.69 0 0 1 .55 4.17c-.18 1.07-.26 2.16-.47 3.23a10.23 10.23 0 0 1-2.88 5.9c-.69.63-1.35 1.29-2 1.94a31.37 31.37 0 0 0-3.1 3.1 3.08 3.08 0 0 0-.83 1.92 4.21 4.21 0 0 0 1.46 3 11.14 11.14 0 0 0 4.21 2.34c.32.09.64.22 1 .34 1 .38 2.07.62 3.08 1a5.79 5.79 0 0 1 1.7.72 1.67 1.67 0 0 0 .84.3 18 18 0 0 1 3.83 1.16c1.42.59 2.8 1.28 4.2 1.93a13.3 13.3 0 0 1 3.45 2.07 11.5 11.5 0 0 1 3.77 5.48 8.19 8.19 0 0 1-.72 6.81 9.42 9.42 0 0 1-2.78 2.91c-.68.46-1.15 1.37-.9 1.68a1.7 1.7 0 0 0 1.85.43 15.34 15.34 0 0 1 2.23-.27c1.49-.11 3 .18 4.47-.41a2.67 2.67 0 0 1 1 0 3.76 3.76 0 0 0 .78 0 11.82 11.82 0 0 1 3 .05c1.27.09 2.55.12 3.82.14s2.55-.22 3.82-.19 2.34-.2 3.51-.24a16 16 0 0 1 3.48-.14 4.91 4.91 0 0 0 1.57 0 36.51 36.51 0 0 1 6.17-.39c1.8 0 3.59-.49 5.4-.1a.82.82 0 0 0 .22 0c3.93-.34 7.88 0 11.83 0a92.9 92.9 0 0 1 9.76.27 50.62 50.62 0 0 0 5.67-.17 1.72 1.72 0 0 0 1.47-1.83v-1.12c0-.37-.09-1.11-.23-2.08-.51-1.51-.62-3.42-1-4.78-.49-1.56-.8-3.16-1.24-4.74-.15-.54-.45-2.72-1-3a.9.9 0 0 0-.54.29 1.56 1.56 0 0 0-.29.59 4.62 4.62 0 0 0 0 1.27c.17 1 .39 2.11.55 3.05 0 .21 1 3.72 1 3.91s.06.35.1.61c-.82-.6-1.94-1.37-2.17-1.5A36.78 36.78 0 0 0 179.4 88a.49.49 0 0 0-.14-.08 54.81 54.81 0 0 0-7.07-2.1 4.6 4.6 0 0 1-.36-.89c-.24-.77-.49-1.54-.67-2.33a5.83 5.83 0 0 1-.1-1.46 4.91 4.91 0 0 1 .12-1.44 1.36 1.36 0 0 0 0-.73c-.1-.43 0-.86-.07-1.28a2.23 2.23 0 0 1-.05-.91 1.49 1.49 0 0 1 .14-.54 1 1 0 0 0 .1-.58c0-.17-.05-.35.18-.42.06 0 .07-.09.07-.15a2.12 2.12 0 0 1 .93-1.61c.26-.21.54-.41.8-.63a2.65 2.65 0 0 1 1.05-.43 3.27 3.27 0 0 0 1.51-.62.6.6 0 0 1 .58-.14c-.07.19 0 .42-.26.53s-.21.41-.35.6 0 .25.22.25h.27a2.58 2.58 0 0 1-.31.57c-.17.19 0 .45.07.63s.33.19.53.07a.33.33 0 0 1 .26-.05c.28.09.36-.09.44-.31a2.71 2.71 0 0 0 .12-1.49.38.38 0 0 1 .1-.36c.19-.17.16-.32 0-.49s-.14-.14-.09-.23.15 0 .23 0a1.57 1.57 0 0 1 1.14.48.29.29 0 0 0 .16.06c.54.08 1 .34 1.56.47h.11c.08.37.41.36.67.45s.18.37.27.56a5.4 5.4 0 0 0 .39.82 3.9 3.9 0 0 1 .3.54.37.37 0 0 0 .41.24.23.23 0 0 1 .27.15c0 .1-.07.18-.14.24-.39.33-.43.54-.17 1 .13.23.16.39-.17.42a.3.3 0 0 0-.23.17c-.15.31-.4.21-.62.15a.4.4 0 0 1-.31-.45c0-.38-.32-.43-.59-.52-.44-.11-.47-.05-.57.39s0 .42.27.47c0 0 .07 0 .06.09-.14.37.17.43.39.53a7.39 7.39 0 0 0 1 .46s.08 0 .08.08c0 .35.37.37.57.52a.35.35 0 0 0 .58-.12c.14-.23.24-.21.39 0s.44.51.66.76a4.36 4.36 0 0 1 .62.72 1.85 1.85 0 0 0 1.11.84c.21.06.12.16.09.27-.21.6.05 1.76.77 1.95h.11c.24-.22.69-.07.84-.46a.18.18 0 0 1 0-.08c.43-.34.38-.82.38-1.28a.89.89 0 0 1 .24-.47 1.06 1.06 0 0 0 .21-.52c0-.1 0-.18.12-.21a.22.22 0 0 1 .24.09 2.42 2.42 0 0 0 .85.64.47.47 0 0 0 .73-.3c0-.14.13-.11.23 0a.67.67 0 0 0 1 0c.09-.07.22-.15.07-.31s0-.22.08-.3.18-.11.29 0a.82.82 0 0 0 1 .19.12.12 0 0 1 .11 0c.2.18.35 0 .5-.08s.2-.23.05-.39-.18-.2-.12-.34c-.18-.18 0-.49-.26-.66s-.37-.44-.62-.61 0-.3.1-.32.32-.27.34-.44.19-.31.39-.28l1 .16c.23 0 .67-.33.56-.46a1.85 1.85 0 0 1-.24-.55 2.06 2.06 0 0 0-.54-.76c-.08-.07-.26-.2-.11-.34s.26-.29.51-.16a1.61 1.61 0 0 0 1.27 0 .93.93 0 0 0 .64-1 1.55 1.55 0 0 1 .06-.56c.07-.24.26-.31.42-.12s.33.12.48 0l.28-.26.17-.36v-.06l.06-.06.41-.28a.55.55 0 0 0 .22-.78c-.11-.19-.05-.47-.3-.6 0 0-.07-.18 0-.25a.9.9 0 0 0 0-.68c-.06-.14.07-.24.2-.21a1.75 1.75 0 0 0 .9-.12c.19 0 .35-.18.33-.33v-1a1.3 1.3 0 0 0-.23-.61 4.69 4.69 0 0 1-.22-.65.89.89 0 0 0-.11-.17.89.89 0 0 1 .19-.8c.09-.08.17 0 .25 0 .7 0 .82-.18.95-.83-.01-.31-.14-.41-.41-.43zm-56.84-2.33c-.2.06-.24-.14-.34-.24s0-.21-.06-.28c-.22-.3 0-.57 0-.84s.13-.19.26-.13a.34.34 0 0 1 .25.39c0 .24 0 .49-.05.74s.14.3-.06.36zm1.5-10.33c-.24 0-.31-.07-.3-.28a.45.45 0 0 1 .64-.41c.16.07.29.19.49.16a.22.22 0 0 1 .22.17c0 .1-.11.1-.17.14a3 3 0 0 1-.88.22zm.19 20.11a.81.81 0 0 0-.36.65.11.11 0 0 1-.13.1c-.08 0-.15-.07-.12-.14.11-.33.05-.68.15-1a.37.37 0 0 1 .39-.23c.12 0 0 .16.09.24s0 .1 0 .14a.21.21 0 0 1-.01.24zm.66-2.42a.83.83 0 0 1-.23.07 1.55 1.55 0 0 0-1.13.4.21.21 0 0 1-.3 0 .3.3 0 0 0-.19-.07c-.23 0-.35-.21-.19-.34s.47-.59.87-.68A.73.73 0 0 0 145 69c.47-.35.47-.35.87 0 0 0 0 .08.07.09s.36.1.34.31-.28.29-.42.35zm.71-5.22a.15.15 0 0 1-.21-.05c-.15-.22-.44-.4-.21-.73v-.14c-.19-.38-.16-.83-.32-1.22 0-.19 0-.17.14-.07s.3.49.51.7a.35.35 0 0 1 .07.28 2.09 2.09 0 0 0 .08 1.08.12.12 0 0 1-.05.16zm2.38-.87a.89.89 0 0 1 .17 0c.1 0 .18-.09.15-.19s0-.22.19-.24a.17.17 0 0 0 .14-.14c0-.18.15-.21.3-.23a1.32 1.32 0 0 0 .14.83v.06l.08.47c.06.35 0 .46-.34.58a1 1 0 0 1-1-.4c-.23-.4-.19-.54.17-.73zm-.19 8.67a.39.39 0 0 1 .3-.13c.18-.29.25 0 .37.07a.16.16 0 0 1 .13.17.17.17 0 0 1-.17.13.39.39 0 0 0-.29.19c-.07.09-.13.24-.26.2a.35.35 0 0 1-.24-.34zM150 75a.31.31 0 0 0-.17.26c0 .19-.1.24-.19.33s-.47.31-.61.57a1.72 1.72 0 0 1-.44.48.24.24 0 0 1-.33 0 .34.34 0 0 1-.17-.33v-.3a6.34 6.34 0 0 1 .43-1.3c.21-.31.57-.24.87-.35a4.35 4.35 0 0 1 .64-.09c.13 0 .15.05.11.16v.06c.04.27.15.51-.14.51zm.48-18.36a1.44 1.44 0 0 0 0 .43 1.21 1.21 0 0 1 0 .22c0 .06 0 .12-.12.09a.63.63 0 0 1-.08-.86c.07-.05.13-.15.23-.09s-.05.16-.05.24zM79.93 25.79c-.31.13-.79.2-1.1.32-1.24.44-3 .83-4.2 1.36s-4.94 2.6-5.53 2.95a5.83 5.83 0 0 1-1.57.6l-.21.06c4.14-3 8.63-5.52 13.59-5.91-.12.52-.21.3-.98.62zM59.54 67.86c.23 0 .46.09.68.16s.33.08.31.19-.24.09-.36.14c-.31 0-.49-.25-.72-.39v-.08a.34.34 0 0 1 .09-.02zm-1.08-4.33c.19.06.48-.07.55.16s-.18.12-.29.15-.38 0-.44-.2.1-.14.19-.11zm-1.08-5.26c.2 0 .43.05.49.27s-.14.1-.25.11-.43 0-.51-.25.18-.13.28-.13zm.55-7.09c.18-.1 1.1.42 1.1.63s-.07.12-.15.1c-.4-.07-.65-.39-1-.59-.01-.03-.02-.1.06-.14zm2.29-5.62h.63c.29 0 .72-.11 1.09.16.07.05.17.07.16.18s-.11.14-.2.15a2.15 2.15 0 0 1-1.73-.27.52.52 0 0 1-.1-.13s.11-.09.15-.09zm-2.84-.06c.08-.18.16-.44.43-.45a1 1 0 0 1 .67.31c.12.11.06.18-.08.19a3.13 3.13 0 0 0-.79.07c-.09-.03-.29.01-.23-.12zm-2.7-1.61a.81.81 0 0 1 .43.35c0 .08 0 .13-.08.12s-.39-.06-.43-.31c-.01-.05-.02-.19.08-.17zm9.24-5.82c.17 0 .36 0 .39.24s-.06.28-.2.25-.4-.07-.43-.3a.2.2 0 0 1 .24-.2zm-1.24-.31c.24 0 .49.12.47.36s-.33.15-.43.22c-.32 0-.57-.11-.56-.33s.32-.24.52-.26zm-2.69.7a2.38 2.38 0 0 1 1.42.12.21.21 0 0 1 .12.12c0 .09 0 .14-.11.16a1.13 1.13 0 0 1-.65.13 2 2 0 0 1-.8-.17c-.08 0-.21 0-.2-.13s.09-.2.23-.24zm-5.09-.81c.36.24.82.33 1.09.71a1 1 0 0 1-1.19-.62v-.08c0-.02.07-.04.09-.02zm.2-4.76c.14.07.37.09.4.3s-.13.21-.24.2-.31-.2-.36-.38.1-.13.2-.13zm-.7 37.82a.12.12 0 0 1 .11 0 .12.12 0 0 1 .07.18.67.67 0 0 0 .16.79c-.15-.06-.37.26-.43 0a1.35 1.35 0 0 1 .09-.97zM50 37.59c-.17.06-.25.24-.37.32h-.08s-.07-.08-.06-.1a1 1 0 0 1 .48-.49.1.1 0 0 1 .14.06.17.17 0 0 1-.11.21zM44.71 46c-.12-.05-.27-.1-.28-.27s.12-.11.2-.12.24.08.24.23-.03.16-.16.16zm4.36-1.72c-.1.16-.23.24-.38.07s.07-.22.15-.3.34-.28.57-.11zm-20 49.06a6.26 6.26 0 0 0-.06-.71 15.58 15.58 0 0 1 .2-2.63 7.85 7.85 0 0 1 .08-.87c-.06 1.57-.11 3.06-.23 4.24zM73.29 99a3 3 0 0 1-.85-.68c-.41-.36-.89-.66-1.29-1-.74-.69-1.6-1.24-2.34-1.93-.55-.52-1.23-.92-1.76-1.47s-1.43-1.22-2-1.93c-.26-.3-.71-.48-.68-1s0-.77.08-1.15c.08-.58.29-.65.76-.28L67 90.89c.62.47 1.24 1 1.8 1.47a21.59 21.59 0 0 0 1.93 1.54 1.46 1.46 0 0 1 .55.56 1.14 1.14 0 0 0 .92.8c.09.11 0 .29.21.35a2.31 2.31 0 0 1 1.06.78c0 .68.09 1.36.12 2a1.25 1.25 0 0 1-.05.41 1.34 1.34 0 0 1 .08.24 1.08 1.08 0 0 1-.33-.04zm-2.53-5.43C69.9 92.76 69 92 68.14 91.2s-1.56-1.48-2.39-2.2c-.56-.45-1.29-.84-1.11-1.78 0-.13 0-.29.11-.35s.22.06.3.15a17.64 17.64 0 0 0 1.59 1.3c.45.4 1 .74 1.4 1.15s1.27.56 1.51 1.29c0 0 .08 0 .12.06.73.46 1.21 1.25 2.06 1.56.1.48.64.5.87.79s.47.59.71.87c0 .6.07 1.21.11 1.81-.91-.73-1.8-1.49-2.66-2.29zm-4.84-8.29c.41.39.84.75 1.27 1.11.15.13.4.1.47.36a.89.89 0 0 0 .64.6c.63 0 .91.57 1.38.81.22.12.51.15.68.36a20.25 20.25 0 0 0 1.85 1.64s.13.13.19.07 0-.13-.08-.17c-.56-.41-1-1-1.53-1.4a7.62 7.62 0 0 1-1.24-1 12 12 0 0 0-1.67-1.47 15.78 15.78 0 0 1-1.82-1.78c-.08-.1-.23-.22-.09-.34s.28-.22.44-.11a12.09 12.09 0 0 1 1.22.85c.84.72 1.43 1.7 2.58 2.08a8 8 0 0 1 2.56 1.68c.17 1.67.33 3.35.46 5-.79-.79-1.63-1.54-2.43-2.33a25.73 25.73 0 0 0-2.41-2.08A18.35 18.35 0 0 1 65 85.78a.34.34 0 0 1 0-.47c.28-.42.49-.45.92-.04zM55.34 86c0-.05 0-.1.11-.21l.31.37a1.21 1.21 0 0 1 .31.73 2.14 2.14 0 0 1-.65-.44c-.17-.17-.09-.35-.08-.45zm0 1.31a2.61 2.61 0 0 1 .95.65c0 .2-.65.94-.79.87s-.69-.15-.8-.54a1.77 1.77 0 0 1 .62-1.03zm-.89 1.67c.21.12.52.18.54.48s-.17.38-.34.32-.52 0-.46-.32c0-.22-.1-.46.24-.53zM54 90.65c-.28.25-.37.69-.8.79 0-.44.31-.75.46-1.12 0-.12.23-.12.35 0s.13.24 0 .36zm-.55-20.89c.1-.67.07-1.36.23-2 0 0 .1-.05.15-.08a1.1 1.1 0 0 1-.15-.21c0-.08 0-.19.05-.23s.19 0 .23.15a.38.38 0 0 1 0 .38 1.84 1.84 0 0 1-.05 1.15 2.3 2.3 0 0 0-.17.86c0 .07 0 .17-.11.16s-.23-.13-.22-.18zm.48-6c-.3 0-.25-.27-.27-.47s0-.25.06-.22c.28.08.15.41.3.58s-.02.14-.14.13zm.07-1.6c0 .12 0 .24-.2.23s-.2-.1-.21-.23a10.89 10.89 0 0 1 .1-2.57c0-.11.06-.3.16-.29s0 .18.07.28a9.31 9.31 0 0 1 .19 1.5c-.01.32-.04.7-.11 1.08zm-.27-15.42c.11 0 .15.08.16.16s.14.45 0 .68a.13.13 0 0 1-.11 0c-.14-.2 0-.45-.13-.66s.07-.18.11-.19zM53 31.11a.34.34 0 0 1 .25.31c0 .11-.12.09-.17.13s-.23-.11-.19-.24-.02-.22.11-.2zm-.12 6c.12 0 .17.12.18.21a7.83 7.83 0 0 1 .13.91 7.79 7.79 0 0 0 .24 1.15c0 .14.09.29 0 .41s0 .36-.25.29a.39.39 0 0 1-.25-.43V38.2h-.07v-.84c-.06-.08-.11-.21-.01-.23zm-.19 48.11a5.22 5.22 0 0 1 .43-1.34 1.69 1.69 0 0 0 .2-1.15A12.72 12.72 0 0 1 53 79.5c.1-.68 0-1.35.08-2 .06-1.12 0-2.23 0-3.35a.52.52 0 0 1 0-.18c0-.12-.08-.32.09-.35s.15.18.21.3.27.4.23.65a12 12 0 0 0 0 2.36 13 13 0 0 1 .11 2.24c-.15 1.28 0 2.56-.1 3.84 0 .48.16 1 .14 1.48 0 .25 0 .45-.27.58a1.67 1.67 0 0 0-.41.4.32.32 0 0 1-.35.13c-.15-.08-.11-.25-.07-.36zm-.34-47.15h.07a.72.72 0 0 1 .08.62s-.07.08-.11.12a1.14 1.14 0 0 1-.06-.24 1 1 0 0 1-.01-.48zm0 1.43c.32.26.19.62.22.94 0 0 0 .07-.05.1s-.14-.07-.17-.12a1.1 1.1 0 0 1 .01-.9zM52 64.82a19.65 19.65 0 0 1-2.12 2.05.55.55 0 0 1-.18.12c-.84.22-1.52.8-2.34 1.06-.22.07-.38.31-.58.47a9.27 9.27 0 0 1-1.38 1c-.69.37-1.16 0-1.62-.4a1.42 1.42 0 0 0-.84-.44.91.91 0 0 1-.44-.19c-.46-.29-.86-.66-1.35-.91a2 2 0 0 1-.46-1.35c0-.14.13-.2.27-.13a2.78 2.78 0 0 0 2 .14 1.38 1.38 0 0 1 1.32.29 1.57 1.57 0 0 0 1 .32c.2 0 .32-.06.34-.25s.18-.28.42-.2a6.3 6.3 0 0 0 2.36 0c.24 0 .37-.32.35-.55a.59.59 0 0 0-.49-.56c-.91-.11-1.73-.54-2.64-.67-.11 0-.27 0-.24-.2s.21-.14.3-.09a2.63 2.63 0 0 0 1.48.09 1 1 0 0 1 .63.17 1.14 1.14 0 0 0 1.25 0 .64.64 0 0 1 .67 0 1.17 1.17 0 0 0 1.4-.06c.17-.11.33-.27.55-.25s.37-.16.48 0-.03.39-.14.54zm-.7 13.24c.08.85-.06 1.7 0 2.56 0 .54.06 1.08 0 1.62 0 .92-.12 1.84-.11 2.76 0 .67-.06 1.36-.08 2 0 .29-.23.45-.39.62a1.66 1.66 0 0 1-2.3.31 1 1 0 0 0-1-.11 3.5 3.5 0 0 0-1.85 1.85.54.54 0 0 1-.11.19c-.15.17-.22.52-.48.47s-.13-.38-.16-.58a.41.41 0 0 0-.25-.34 3 3 0 0 0-1.96-.41 1.79 1.79 0 0 0-.69.43 2.1 2.1 0 0 1-.37.24c-.41.19-.61.05-.6-.39v-.62c0-.85 0-1.7.09-2.55a1.67 1.67 0 0 0-.15-1 .94.94 0 0 1 0-.65 7.21 7.21 0 0 0-.07-2.32 4.37 4.37 0 0 1 0-1.06c0-.19.1-.26.29-.11s.56.38.82.6.89.27 1.34.4c.2.05.19-.18.16-.32a1.2 1.2 0 0 0-.62-.82c-.84-.46-1.19-1.35-1.75-2.07a.2.2 0 0 1 0-.28c.1-.08.19 0 .28 0 .45.28 1 .21 1.45.61a.24.24 0 0 0 .21 0c1-.38 2.05 0 3-.34a.35.35 0 0 0 .27-.43.91.91 0 0 0-1.1-.83 3 3 0 0 0-1.19.29.19.19 0 0 1-.28 0c-.67-.91-1.8-1.28-2.52-2.14a1.37 1.37 0 0 1-.18-1.27c.06-.13.15-.09.26-.09a1.4 1.4 0 0 1 1.05.65.74.74 0 0 0 .71.35 2.21 2.21 0 0 1 1.25.2.75.75 0 0 0 .48 0 3.4 3.4 0 0 1 2 .05.45.45 0 0 0 .55-.18c.16-.21 0-.38-.09-.57s-.33-.14-.21-.33a.61.61 0 0 1 .5-.24 1.35 1.35 0 0 1 .38.09c.18 0 .36.08.49-.09a.46.46 0 0 1 .62-.17.18.18 0 0 0 .21-.04 1.06 1.06 0 0 1 .82-.45 1.26 1.26 0 0 0 .63-.39.77.77 0 0 1 .5-.23c.36 0 .5.1.44.45-.08.55-.15 1.11-.23 1.66a12.54 12.54 0 0 0-.06 3.02zM42.64 91.5c-.22-.26.07-.52.09-.78s.24 0 .38.05a1 1 0 0 0 .3.05.24.24 0 0 0 .18-.1c.06-.1 0-.16-.12-.2a2.05 2.05 0 0 1-.61-.44c-.1-.1-.2-.22 0-.28a1.06 1.06 0 0 1 1.13.94 4.15 4.15 0 0 1-.09.51.64.64 0 0 1-.49.52.91.91 0 0 1-.77-.27zm.35 1c-.29.47-.77.76-1.09 1.2h-.1a2 2 0 0 1 0-.25 10.89 10.89 0 0 1 .46-1c.17-.31.47-.13.71-.08.08-.02.03.07.03.14zM37 99c-.14-.12.05-.2.09-.29.15-.35.51-.52.76-.77.67-.66 1.08-1.51 1.7-2.2a15.13 15.13 0 0 0 1.26-2.06c0-.07.08-.17.19-.16s.1.09.1.17a.29.29 0 0 1 0 .08c-.41.56-.51 1.28-1 1.79a3.39 3.39 0 0 0-.57.84 11.18 11.18 0 0 1-1.37 1.76c-.23.29-.35.69-.77.8-.22.04-.34.1-.39.04zm5.16-28.18a.47.47 0 0 1 .33.33c.11.38.39.42.7.33a1.73 1.73 0 0 1 1.17 0 1 1 0 0 0 .65.06 1.92 1.92 0 0 1 1.41.17.89.89 0 0 0 .85 0c.16-.1.35-.14.47.05s-.05.35-.19.43a1.49 1.49 0 0 0-.61.77 1.26 1.26 0 0 1-1 .83c-.3 0-.45.34-.76.35a1.5 1.5 0 0 1-.29-.08A14.43 14.43 0 0 1 41 71.4c-.29-.3-.18-.63-.26-.94 0-.11.11-.09.2-.05zm1.16 3.4c0 .17-.16.11-.26.13s-.49 0-.55-.31c0-.09 0-.27.2-.23s.49.09.56.39zm-2.11 2.33c.07-.06.13 0 .18.08l.52.63a2 2 0 0 1-.65-.49c-.11-.08-.2-.17-.1-.24zM50 70.61a3.6 3.6 0 0 0-.47.13c-.36.12-.52-.14-.68-.36s.15-.38.26-.38c.62-.31.84-1 1.45-1.34a2.41 2.41 0 0 0 .81-.52c.16-.19.31-.16.34.12s0 .29 0 .39A2 2 0 0 1 50 70.61zm-9.4-9.53c.26-.14.6 0 .81.22a5 5 0 0 0 2.22.9c.48.1.88.42 1.39.42.06 0 .12 0 .1.11s-.07.09-.11.13-.28 0-.42.09a5 5 0 0 0-1.49.61.67.67 0 0 1-.21.07 1.17 1.17 0 0 1-.6-.23 3 3 0 0 0-1.38-.75c-.46-.09-.47-.47-.45-.84s-.06-.62.16-.74zm.92-3.19a.4.4 0 0 1-.68 0 2.83 2.83 0 0 0-.29-.27s-.13-.13-.11-.17.15-.05.23-.06a6.48 6.48 0 0 1 1.36.27 1 1 0 0 0-.49.22zm.79 7.57c0 .14-.17.12-.28.12s-.31-.06-.3-.19.2 0 .25-.08.35-.04.35.14zm9.73-6.68c.2.17.15.47.14.71s-.22.26-.41.33a5.61 5.61 0 0 0-2.13 1.07 6.66 6.66 0 0 1-1.33.92c-.41.22-.35 0-.29-.27 0-.49-.73-1.29-1.25-1.16a3 3 0 0 1-2.29-.53 4.23 4.23 0 0 0-.88-.27c-.1 0-.22-.08-.19-.2s.15-.06.22 0a11.47 11.47 0 0 0 1.58.16h.17c.8.48 1.54 0 2.29-.16.19 0 .28-.24.48-.29s.5-.22.75.07.3 0 .44 0a.67.67 0 0 1 .77 0c.49.39.94.12 1.37-.13.2-.21.39-.41.57-.26zm-.51-8.5a.49.49 0 0 0 .09-.33c0-.11-.07-.27.11-.27s.2.17.22.25 0 .33-.07.46 0 .26-.2.2-.21-.16-.13-.32zm-5.63 2.64a.6.6 0 0 1 .52-.27c.07 0 .14 0 .12.17-.22 0-.2.39-.49.31-.05-.04-.2-.13-.13-.22zm-6.27.59c0-.39.14-.47.49-.28a2.73 2.73 0 0 1 .5.35c.56.51 1.46.35 1.93 1a5.85 5.85 0 0 1 1.71.39 2.12 2.12 0 0 0 .48.05.6.6 0 0 0 .62-.41c.08-.29-.18-.39-.38-.52s-.52-.17-.49-.42.37 0 .57 0c.58 0 1.14.21 1.73.23a6.93 6.93 0 0 0 3.65-.82 2.9 2.9 0 0 0 1.13-.81.21.21 0 0 1 .28-.06c.08 0 .07.12.07.19v2.11a.72.72 0 0 1-.49.83c-.9.46-1.82.88-2.73 1.33-.69.34-1.48.25-2.17.54s-.99-.05-1.53-.21a4.25 4.25 0 0 0-1.38-.27 2.33 2.33 0 0 1-1.77-.78 6.65 6.65 0 0 0-1-.83c-.46-.35-.73-.88-1.21-1.22-.06-.11.02-.27.01-.4zm.59 29.43c.06.37-.13.78-.09 1.16.08.79-.09 1.59.06 2.38a.77.77 0 0 1-.11.55c-.12.67.11 1.34 0 2 0 .08 0 .19-.1.22a.22.22 0 0 1-.23-.1 1.81 1.81 0 0 1-.3-.79 20.46 20.46 0 0 1 .1-2.37 1.85 1.85 0 0 1 0-.57 1.63 1.63 0 0 0 0-.95 1.23 1.23 0 0 1 .08-.85 3 3 0 0 0 .12-1.31v-3.93c0-.19-.06-.5.19-.51s.24.32.24.51a17.18 17.18 0 0 1-.13 2.68 6.33 6.33 0 0 0 .2 1.87zm-.92-12.85c0-.14 0-.39.2-.3s.5-.08.51.26a7.59 7.59 0 0 0 .07 1c0 .09.05.27-.09.28s-.13-.14-.13-.25a.5.5 0 0 0-.28-.5c-.12.75.14 1.49.08 2.24a.84.84 0 0 1-.08.42c-.19.07-.24 0-.24-.19a19.48 19.48 0 0 1-.04-2.96zm-.17 6a.8.8 0 0 1 .13-.62s.06-.06.05-.07c-.31-.47 0-1-.07-1.45 0-.15-.05-.29.09-.4s.25-.11.27 0c.07.25.29.49.16.74a.84.84 0 0 0-.09.55 4.2 4.2 0 0 1-.09 1.26c0 .3-.17.42-.46.37s-.1.1-.13 0 .01-.28.14-.38zM39 77c.19 0 .18.16.18.29s0 .18-.11.2a.42.42 0 0 1-.25-.29.18.18 0 0 1 .18-.2zm-.18 3.82c.26 0 .07.27.1.32s0 .23.05.31 0 .2-.1.22-.15-.1-.18-.2a1.56 1.56 0 0 1 0-.17c-.06-.17-.16-.45.09-.47zm-6.71 15.96v-.08.06zm-.19 3.87h-.14a.4.4 0 0 1-.36-.06 1.29 1.29 0 0 1-.31-.09 9.39 9.39 0 0 0 .89-1.68c.33-.69.73-2 1.13-2.63l.06-.08c0-.07 0-.13.07-.2a11.22 11.22 0 0 1 1.86-2.47 2.15 2.15 0 0 1 2-.52 2.29 2.29 0 0 0 2.19-.79c.29-.32.74-.33 1.09-.56a.18.18 0 0 1 .24 0c.06.1 0 .2 0 .29-.2.51-.58.93-.78 1.43A22 22 0 0 1 38.45 96c-.15.25-.45.37-.58.59a8 8 0 0 1-1.84 2v.06a1 1 0 0 0-.06.12h-.08c-.18.22-.37.44-.53.68s-.16.26-.24.39a.2.2 0 0 1-.09.21l-.08.08a2.61 2.61 0 0 1-.36.47c-.91.05-1.79.08-2.67.05zm5.59-.29a2.49 2.49 0 0 0 .29-.29c.1-.14.14-.32.25-.46a22.69 22.69 0 0 1 2.41-2.91A16.92 16.92 0 0 0 42 94.87c.77-.88 1.61-1.71 2.33-2.64a2.6 2.6 0 0 1 .32-.36A13.83 13.83 0 0 0 47 89.22a.94.94 0 0 1 1.3-.36 7.53 7.53 0 0 0 1.23.35.63.63 0 0 0 .55-.09A10.39 10.39 0 0 0 52 87.53a12.61 12.61 0 0 1 1.33-1.22c.08-.08.18-.16.19 0a1.35 1.35 0 0 1-.3 1.2.78.78 0 0 0-.19.29 7.62 7.62 0 0 1-1.46 2.43 2.91 2.91 0 0 0-.78 1.25 2 2 0 0 1-.5 1 4 4 0 0 0-.53.65c-.6 1.07-1.36 2-2 3.09-.12.19-.37.3-.47.52a8.3 8.3 0 0 1-1.62 2.1l-.63.74h-.36c-2.39.17-4.77.52-7.17.78zm14.93-10c.05-.14.13-.35.28-.26s0 .26-.1.36a.82.82 0 0 0-.27.67c0 .29-.26.48-.42.69-.57.74-1 1.54-1.56 2.31-.07.1-.14.23-.27.18s-.06-.2 0-.31 0-.19.11-.24c.67-.51.87-1.34 1.36-2 .33-.44.4-1.07.9-1.42zm.56 8.87a.44.44 0 0 1-.19 0 16.64 16.64 0 0 0-2.11.17 3 3 0 0 1-.9-.07l-2.8.17q.32-.34.6-.7c.84-1.09 1.8-2.09 2.54-3.26a1.11 1.11 0 0 1 .4-.35c.6-.33.86-1 1.46-1.36v-.12a2 2 0 0 1 .48-.68c.28-.31.7-.44.95-.76A30.86 30.86 0 0 1 56 89.5c.22-.23.55-.38.65-.71a2.63 2.63 0 0 1 .75-1c.44-.47 1.16-.68 1.3-1.44a.83.83 0 0 1 .38-.52 11.53 11.53 0 0 0 1.58-1.24.45.45 0 0 1 .15-.26 11.71 11.71 0 0 1 3.38-1.77 2.27 2.27 0 0 1 .57-.07.34.34 0 0 1 .36.2c.07.14 0 .21-.12.3a2.44 2.44 0 0 1-.29.34 8.06 8.06 0 0 0-1.45 1.86.76.76 0 0 0-.12.33c-.1.94-.22 1.87-.28 2.82a14.15 14.15 0 0 1-.13 1.88 8.13 8.13 0 0 1-1.91 3.15 12 12 0 0 1-1.41 1.66.81.81 0 0 1-.43.24c-.48.51-1 1-1.44 1.53a9.25 9.25 0 0 0-1.85 2.42 1.31 1.31 0 0 1-.11.17 3.28 3.28 0 0 1-.51-.28zm5.34-.3c.28.29.72.33 1 .58l-1.59-.14c.1-.14.21-.28.31-.42a.18.18 0 0 1 .28-.02zm1.92.65a14.52 14.52 0 0 1-1.46-1.28c-.23-.23-.1-.42 0-.57s.37-.54.63-.34a10.23 10.23 0 0 1 1.21.79 17.53 17.53 0 0 0 1.75 1.47c-.68-.01-1.39-.03-2.13-.07zm5.32-.07c-.78.07-1.57.11-2.37.13-.12-.1-.25-.2-.38-.29a22.21 22.21 0 0 1-2.65-2.39c-.18-.17-.33-.39 0-.57a4.38 4.38 0 0 0 1-.77c.2-.21.33-.16.51 0a6.68 6.68 0 0 0 1.12 1.06 6.59 6.59 0 0 1 1.16.74 28.72 28.72 0 0 0 2.75 2.19h-.57a1.25 1.25 0 0 1-.57-.1zm3.31.1h-1.44c-.77-.57-1.56-1.12-2.29-1.75a14.75 14.75 0 0 1-2.67-2.36c-.5-.7-.56-.66-.06-1.39.36-.52.52-.55.95-.06a11.6 11.6 0 0 0 1.39 1.4c1 .84 1.93 1.79 3 2.63.24.19.53.32.74.52.39.37.8.72 1.21 1.06h-.4a1.1 1.1 0 0 1-.44-.05zm3 .25a3.28 3.28 0 0 0-.38-.09c-.08.17-.26.07-.4.09s-.35-.07-.52-.1c-.25-.21-.5-.42-.74-.65a7 7 0 0 0-1.46-1.27c-.46-.26-1.09-.45-1.26-1.09h-.07a17.32 17.32 0 0 1-2.5-2.39c-.28-.28-.48-.64-.76-.91-.58-.58-.59-.57 0-1.16a.31.31 0 0 1 .46-.05c.84.5 1.4 1.34 2.27 1.83a2.39 2.39 0 0 1 1 .79c.11.19.34.33.49.54s.38.48.74.29c.1-.05.21 0 .17.11-.14.32.13.42.28.57 1 1 2.37 1.6 3.28 2.73 0 0 .08.07.11.06.31-.07.45.16.62.33a1 1 0 0 1-1.31.37zm5.5-5.86c-.12.06-.21-.07-.19-.19s.19-.42.46-.36c.09 0 .17.12.24.18-.03.3-.33.25-.51.37zm.54-43.67c-.22.2-.56.18-.78.41s-.18.48-.46.27a1.2 1.2 0 0 1 .26-.57 1.41 1.41 0 0 1 .78-.6A1.33 1.33 0 0 1 78 50c.08.11 0 .23-.07.3zm25.32 44.83a4.67 4.67 0 0 1 1.75-1.92 12.32 12.32 0 0 1-.95 2c-.07.13-.13.3-.25.35-.3.12-.63.51-.89.28s.23-.49.34-.74zm-1.76.21c.13-.12.3-.27.45-.05a.31.31 0 0 1-.1.47 2.76 2.76 0 0 1-.61.14.81.81 0 0 1 .26-.58zm-1 .69c.21-.17.46-.11.7-.11-.19.16-.36.33-.56.47s-.28.19-.35 0 .1-.3.21-.42zm-2.57-6.26a.92.92 0 0 1 .87-.39c.41.1.28.53.35.8s0 .42-.18.53-.36-.13-.5-.26a.77.77 0 0 1-.16-.16c-.12-.19-.62-.19-.38-.52zm-7.18 8.43a3.33 3.33 0 0 1-.94.34c-.22 0-.59-.13-.6-.39s.35-.15.54-.23a.91.91 0 0 1 .27 0l.62.07a1.2 1.2 0 0 1 .2.06c-.03.03-.04.13-.09.15zm6.18-.81a8.63 8.63 0 0 1-2.21.72c-.06 0-.17 0-.19-.08a.18.18 0 0 1 .16-.23 5.7 5.7 0 0 0 2.18-.65c.13 0 .2 0 .19.08a.23.23 0 0 1-.12.15zM96.75 85c.26-.11.56-.31.84-.19s.12.47.21.66a5 5 0 0 1-.09.6.61.61 0 0 1-.46.44c-.31.06-.33-.21-.39-.42a2.66 2.66 0 0 0-.21-.51c-.12-.27-.14-.52.1-.58zm-.28 6a1.27 1.27 0 0 1 .43 0c.13 0 .33 0 .31.2 0 .06-.16.12-.26.15a4.13 4.13 0 0 1-.43.09c-.15-.07-.4 0-.42-.22.01-.06.24-.16.37-.22zm-.94 1.51c0 .43-.06.86-.64.89 0-.25 0-.42-.35-.36a12.66 12.66 0 0 0-3 1.23c-.16.08-.33.27-.48.07s0-.4.24-.5a9.51 9.51 0 0 1 4.23-1.32zm-1.88-2a2.62 2.62 0 0 1 1.21-.51 4.15 4.15 0 0 1-1.1.7c-.1 0-.23.11-.28 0s.08-.16.17-.22zM93.24 87a.26.26 0 0 1-.21.23l-3 .89c-.09 0-.21 0-.32-.05a1.14 1.14 0 0 1 .18-.09l3.17-.98h.18zM90 86.69c.43-.31 1-.13 1.36-.45l.17.07c0 .06-.06.15-.12.18a11.87 11.87 0 0 1-1.22.58 3.29 3.29 0 0 1-1.38.27c.19-.55.83-.4 1.19-.65zm-2 5.46a8.28 8.28 0 0 0 2.32-.79h.2a.75.75 0 0 1 0 .12l-.27.18-1.45.86a.93.93 0 0 1-.64.16c-.16 0-.29-.12-.28-.29s.12-.24.12-.25zm-6.69-78.48c.3-2 2.2-2.09 3.94-2h.07c1.65 0 4.93-.69 5.88 1.19a4.29 4.29 0 0 1-.2 3.03 1.36 1.36 0 0 1-.54.47l-.18.09h-.11a8.93 8.93 0 0 1-2.73.2c-1.17 0-2.32-.12-3.48-.19a5.09 5.09 0 0 1-1.76-.12c-1.06-.41-1.03-1.73-.89-2.67zm-.81 36.51s.08.09.12.15c0 .22-.79.74-1 .63a.2.2 0 0 1-.06-.19 1.08 1.08 0 0 1 .94-.59zm0 3.1c.07 0 .12.12.05.15a2.56 2.56 0 0 1-1.21.41 2.21 2.21 0 0 1 1.11-.56zm-.73 2.29c.05-.17.22-.18.35-.24a2.62 2.62 0 0 1 .74-.24c.25 0 .56-.36.73 0 .05.11-.34.33-.6.39l-.7.15zm.82 37.3c-.13 0-.18-.11-.17-.24s.17-.32.37-.35.22 0 .23.16-.2.44-.48.44zm.85 3c.41-.43 1-.44 1.5-.6a4.26 4.26 0 0 1 1.06-.04 3 3 0 0 1-.82.54 5.54 5.54 0 0 1-1.79.13zm7.26-47.24c-.18 0-.4.05-.38-.23s.3-.46.68-.4c.13 0 .47-.09.41.26s-.41.39-.75.4zm1 .44a.29.29 0 0 1 .36.11c-.08.11-.11.19-.16.23-.7.42-1.39.84-2.1 1.25-.12.07-.29.13-.4 0s0-.27 0-.41.21-.54.55-.64c.59-.15 1.15-.33 1.72-.51zm-1.62-4.64c-.16.14-.36.32-.57.1s-.08-.35 0-.51A2.63 2.63 0 0 1 89 42.79a2.32 2.32 0 0 1-.95 1.68zm-.41 2.28c.12 0 .2.06.22.21a.57.57 0 0 1-.6.51c-.11 0-.26 0-.23-.17a.72.72 0 0 1 .58-.51zm-2.44 3c-.11 0-.23 0-.25-.16a.25.25 0 0 1 .09-.2 7.89 7.89 0 0 1 1.93-.83.18.18 0 0 1 .26.13.41.41 0 0 1-.1.3 3.27 3.27 0 0 1-1.96.82zm.87.88a1.11 1.11 0 0 1-.78.32c-.11 0-.22-.09-.2-.21s.68-.54.91-.45.14.26.04.4zm-.65-6.23c-.37.35-.5 1-1.16 1.06a7.12 7.12 0 0 1 3.12-3.35 7.14 7.14 0 0 1-1.99 2.35zm-1 47.4c.17 0 .36 0 .41.13s-.15.22-.28.28a1.69 1.69 0 0 1-.52.2c-.22 0-.51 0-.54-.27s.28-.28.49-.31.31.04.44.03zM84 51.3a1 1 0 0 1 .1.19.21.21 0 0 1-.17.24l-.66.12c-.28 0-.61.38-.81.11s.13-.47.38-.56.68-.65 1.16-.1zm-1.06-6c.35 0 .48-.27.63-.51a.67.67 0 0 1 .69-.39 2.8 2.8 0 0 1-1 1.25c-.09.08-.22.27-.34.06s-.02-.3-.02-.44zm-.39 48.6a2.19 2.19 0 0 1 .54-.07c.48 0 1-.37 1.42.15a1.78 1.78 0 0 1-1.39.19c-.17 0-.36.07-.54.08a.22.22 0 0 1-.17-.1c-.1-.15 0-.25.1-.28zm4.89 1.36c.05.51-.5.56-.68.89a1.19 1.19 0 0 0-.77 0 4.31 4.31 0 0 1-2.17.38c-.19 0-.42.25-.56 0l.41-.32c.14-.11.19-.17.29-.17 1.2.06 2.25-.71 3.44-.81zM87 91.71v.1c-.05.21-.85.64-1 .54s0-.17 0-.17a1.78 1.78 0 0 0 .83-.54s.17.04.17.07zm-.22-1.34v.18a.54.54 0 0 1-.67.27 1.78 1.78 0 0 1-.31 0c-.06 0-.11-.07-.16-.11a.72.72 0 0 1 .17-.12 2.51 2.51 0 0 1 .32-.07zM90 54.2c-.11 0-.26 0-.15-.16s.3-.52.65-.51a.18.18 0 0 1 .18.22c-.14.33-.43.4-.68.45zm.61-2.2a2.27 2.27 0 0 1-1 .41c-1.06.33-2.13.63-3.2.93-.17 0-.4.11-.48-.11s.15-.31.3-.41a.83.83 0 0 1 .4-.18 7.28 7.28 0 0 0 3.22-.78 3.63 3.63 0 0 1 .65-.15c.11 0 .22 0 .24.1s-.08.19-.13.19zm.32-7.38a.44.44 0 0 1-.39-.34c-.05-.18-.15-.36 0-.52a.19.19 0 0 1 .29 0 1.13 1.13 0 0 1 .32.7c.01.12-.09.18-.22.18zm.44-8.83c0 .39-.08.55-.48.55-2.06 0-4.11.09-6.17.09a8.32 8.32 0 0 1-1.55-.28.79.79 0 0 1-.64-.7 6.13 6.13 0 0 1-.18-1.56c.12-1.36-.06-2.71-.07-4.43.13-1.28 0-2.94.13-4.59a18.57 18.57 0 0 0 0-2.26c0-1.31-.07-2.63-.1-3.94 0-.53.25-.69.76-.73 2.24-.21 4.48-.17 6.72-.19h.06c1.5 0 1.53.74 1.45 2.1-.13 2.3.12 4.57.05 6.86q.09 1.4.14 2.81c.05 2.1-.33 4.19-.12 6.29zM96.87 49c.16-.17.32-.33.58-.24.05 0 .08.11.13.19a2.19 2.19 0 0 1-.68.85s-.15 0-.17-.08a.59.59 0 0 1 .14-.72zm-2.72 2.95a.38.38 0 0 1 .49-.12c.11 0 .19.18.13.26a1.88 1.88 0 0 1-.83.63c-.08-.06-.18-.1-.18-.14-.02-.33.24-.47.39-.67zm.19 1.44c.07-.07.2-.07.33-.11s.23.07.27.15a.27.27 0 0 1-.16.36.87.87 0 0 1-.42.1c-.44 0-.79.39-1.25.25.12-.77.89-.44 1.23-.79zm19.34-31.93a10.75 10.75 0 0 0-3 0 2.47 2.47 0 0 1-.67 0 19.07 19.07 0 0 0-3.36 0c-2.35.15-4.68.53-7 .6-1.91.05-3.79.52-5.71.33a1.91 1.91 0 0 0-.45 0c-.38.05-.58.08-.69 0A159.17 159.17 0 0 1 115.13 21c-.23.41-.68.51-1.45.42zM106.91 74a1.14 1.14 0 0 1-.26-.93c0-.09.09-.27.17-.1a7.88 7.88 0 0 1 .35 1c-.1.22-.17.18-.26.03zm4.47-2.11c-.28 0-.18-.26-.19-.41s0-.36.13-.36.15.27.21.38.01.43-.15.43zm.14-9c0 .07-.13 0-.14-.05 0-.46-.24-.94.23-1.3a.83.83 0 0 0 0 .08 1.39 1.39 0 0 1-.09 1.32zm.1-1.4a1.05 1.05 0 0 1 .18-1.07.1.1 0 0 1 .1 0c.25.51-.11.79-.28 1.12zm.75-4.92c.13-.28-.27-.84.24-.89.25 0 .16.58.19.89s.3.87-.22.88-.24-.45-.22-.82zm.76 7.83c0 .17 0 .45-.24.42s-.12-.28-.12-.47-.06-.82.35-.85c.18.05.06.64.01.96zM118 1.22a18.33 18.33 0 0 1 3.91.08 13.23 13.23 0 0 1 3.06.13c.52 0 1.06 0 1.4.47a2.78 2.78 0 0 1 .2 1.9 3.12 3.12 0 0 1-.27 1.47 1.48 1.48 0 0 1-1 .57 11.1 11.1 0 0 1-2.94.23 30.54 30.54 0 0 1-5.09-.15.66.66 0 0 1-.56-.46.57.57 0 0 1-.07-.08C116 4 116.31 1.6 118 1.22zm.27 42.48a.19.19 0 0 1-.16-.08 2.22 2.22 0 0 1 .83-.7s.06.1.09.16a1.25 1.25 0 0 1-.76.62zm.22-4.59c0-.25.05-.52.31-.63s.18.09.19.27a.45.45 0 0 1-.38.49s-.13-.08-.12-.13zm1.38-.64c0 .15 0 .31-.21.3 0 0-.1-.18-.1-.28a3.8 3.8 0 0 0-.19-1.09c-.11-.34 0-.63.37-.67s.31.32.33.56v.26c.14.33-.19.59-.2.92zm-.58-9.27v-.62c0-.2.17-.53.37-.44s-.07.33-.09.52a.88.88 0 0 1-.27.54zm2.27 4.48a.18.18 0 0 1-.2-.19 1.05 1.05 0 0 1 .38-.76c.1-.09.19 0 .21.12.05.3-.18.79-.39.83zm.63-4.64a2.55 2.55 0 0 1-.36.25c-.15.07-.21 0-.19-.14s.1-.28.12-.42 0-.61.38-.7a.21.21 0 0 1 .18.09.83.83 0 0 1-.13.88zM121 24.53a8.64 8.64 0 0 0-2.58 0 9.86 9.86 0 0 0-1 0c-.53.05-.64-.22-.63-.68v-2.9c0-.64.08-1.25.12-1.85-.19-3.05-.17-6-.14-9.11 0-1.21 0-2.17.8-2.47a1.7 1.7 0 0 1 .91-.18h2.28a7.76 7.76 0 0 1 2 0c.91.07 1.83.08 2.74.08a.58.58 0 0 1 .34.11.64.64 0 0 1 .23.61v.23a37.62 37.62 0 0 1 .15 4.94 5.73 5.73 0 0 0 0 .9 49 49 0 0 1 .4 8.87c0 1-.06 1-1 1.3a7.94 7.94 0 0 1-4.62.15zm2.8 11.26c-.19.08-.34-.09-.39-.28a.5.5 0 0 1 .23-.62c.23 0 .32.06.32.22s.14.55-.16.68zm1.59 41a5.32 5.32 0 0 1-.83-.34.28.28 0 0 1-.16-.37c.06-.12.2-.1.3 0 .32.16.77.08.95.47 0 .12-.09.24-.26.19zm1.49 6.69c0 .07-.09.06-.18 0a4.16 4.16 0 0 1-.95-1s.08-.06.09-.05l1 .87c.04.06.05.1.04.13zm2.1-35.6h.1c.36.18.39.5.37.85v.19a1.38 1.38 0 0 1-.17-.26c-.11-.32-.39-.51-.28-.83zm.48 48.38c-.12.21-.13.51-.45.55 0 0-.06-.05-.06-.08a1.33 1.33 0 0 1 .51-.82c.17-.15 0 .1.1.12s-.06.11-.1.17zm.17-35.14a.62.62 0 0 1-.11.17c-.05 0-.13-.07-.16-.12a3 3 0 0 1-.15-.41.87.87 0 0 1 .08-.73.19.19 0 0 1 .18 0c.26.16.2.44.22.69s-.03.2-.06.35zm1.84 37.31l-.43.06c-.11 0-.42.28-.24-.16a6.23 6.23 0 0 1 .41-.92c.22-.37-.17-.89.32-1.17 0 .44-.09.87-.1 1.31s.03.53.04.83zm0-57c0-.16 0-.43.25-.37s.14.3.17.45 0 .35-.2.34-.2-.27-.2-.44zm.33 6.81a.32.32 0 0 1-.24-.34c0-.15 0-.29.2-.35a.41.41 0 0 1 .28.41c.04.15-.04.29-.22.26zm.87 40.64c-.27 0-.21-.23-.25-.38a1.43 1.43 0 0 1-.1-1 .19.19 0 0 1 .17-.06c.38.26.17.68.27 1s.08.4-.07.42zm.61-49.14c-.19 0-.16-.19-.19-.32-.08-.31-.4-.55-.25-.91a.19.19 0 0 1 .18-.07c.42.19.36.59.4.93.01.13.06.33-.12.35zm.54 45.64v-.41c0-.11 0-.42.12-.43s.2.25.22.42a1.67 1.67 0 0 1 0 .45.24.24 0 0 1-.12.17c-.18.03-.19-.11-.21-.22zm.7 12.14a.7.7 0 0 1-.59-.6.31.31 0 0 1 .18-.37c.4 0 .42.36.49.65.05.1.17.33-.06.3zm.39-18.1a1 1 0 0 1-.22-.72v-.67c0-.23-.18-.58 0-.86.3.26.14.6.17.91s0 .44.07.66.22.44 0 .66zm.48-8.56c-.3-.24-.22-.59-.24-.9a1 1 0 0 1 .08-.3c.27.25.21.59.25.93zm51.22-22.63a3.4 3.4 0 0 0 .37.2 2.78 2.78 0 0 1 .52.64c0 .05.14.09.05.16s-.13 0-.18-.05a2.54 2.54 0 0 0-.54-.47 1.28 1.28 0 0 1-.37-.39c.03-.15.14-.14.17-.11zm-.36 4.51a.24.24 0 0 1 .33.17 2.29 2.29 0 0 1 .16.47c0 .14.06.24-.1.31s-.21-.08-.27-.18c-.16-.1-.18-.28-.25-.43a.24.24 0 0 1 .15-.36zm-.78 4.91l.63-.53c.14-.12.27-.15.39 0a1.26 1.26 0 0 0 .28.24c.18.15.18.26 0 .38a1.65 1.65 0 0 1-1.17.19c-.05.06-.12.1-.16 0a.24.24 0 0 1 .04-.3zm.57 7.25c-.05.14-.07.35-.27.36s-.33-.29-.32-.62a.18.18 0 0 1 .17-.15c.1-.03.47.3.43.38zm-1-15.4a.55.55 0 0 0 .08.16.23.23 0 0 1 0 .28.2.2 0 0 1-.27 0 4.14 4.14 0 0 0-1.09-.43.16.16 0 0 1-.11-.19.34.34 0 0 1 .46-.29c.48-.13.83-.1.96.44zm-1.29 7.62a2.15 2.15 0 0 1-.45-1.37c0-.11 0-.23.1-.29a.21.21 0 0 1 .25 0c.16.16.41.24.49.48a5.81 5.81 0 0 1 .55.43.32.32 0 0 1 .15.33.34.34 0 0 1-.28.27.61.61 0 0 0-.41.21c-.15.14-.32.18-.4-.09zm0-17.64c0 .09-.08.06-.12 0a.11.11 0 0 1 .14-.02zm-.35 8a.24.24 0 0 1 .29.1c.12.14.31.21.4.4s.11.07.09.15-.1.12-.18.11a1.34 1.34 0 0 0-.2 0c-.17 0-.26-.17-.41-.22s-.23 0-.2-.17a.41.41 0 0 1 .22-.35zm-.76 11.65a4.74 4.74 0 0 0 .45.29c.12.06 0 .25.15.33l-.05.07h-.08l-.61-.41c-.08-.05-.15-.14-.1-.22a.2.2 0 0 1 .25-.05zm0 2.15c.13.05.3.12.34.26s-.16.14-.23.21a.38.38 0 0 0-.08.12c0 .11 0 .28-.24.23a.31.31 0 0 1-.22-.37.35.35 0 0 0-.11-.35.2.2 0 0 1-.08-.15c0-.14.09-.21.22-.13a2.82 2.82 0 0 0 .37.19zm-1.2-8a2.24 2.24 0 0 1 .43-.66.14.14 0 0 1 .19 0l.06.18c.11 0 .09.08 0 .12a.52.52 0 0 1-.45.63c-.17.02-.31-.1-.25-.25zm-.19 2a.46.46 0 0 1 .19-.44c.16-.08.31 0 .45.15a1.15 1.15 0 0 1 .16 1.14.16.16 0 0 1-.18.08.94.94 0 0 1-.62-.84s-.02-.04-.02-.07zm-.2-3.22a.12.12 0 0 1 0 .16 1.54 1.54 0 0 0-.23.53c0 .12-.17.16-.29.16a.1.1 0 0 1-.11-.11.91.91 0 0 0-.05-.39c0-.07 0-.14.09-.12a.46.46 0 0 0 .44-.19s.1-.1.1-.02zm-1.33-2.32a.7.7 0 0 1 .83-.05.34.34 0 0 1 .12.37c0 .11-.09.2-.2.18a4.76 4.76 0 0 1-.62-.19c-.14-.05 0-.23-.12-.32zm-.86-5.67c.07-.17 0-.43.27-.43.44 0 .58.18.48.54a.24.24 0 0 0 0 .17.17.17 0 0 1-.09.24.23.23 0 0 1-.27 0c-.08-.07-.14-.18-.25-.21s-.22-.14-.16-.29zm.37 24c-.13.29 0 .37.2.49s.14 0 .1.11a.15.15 0 0 1-.16.06 6.5 6.5 0 0 1-.92-.32c-.2-.12-.21-.31 0-.45a.6.6 0 0 0 .28-.37c0-.21.19-.18.29-.08s.26.49.19.63zm-.83-3.88c0-.07 0-.13.13-.14s.09.07.13.1 0 .24.19.23.15.09.08.2-.19.12-.34.16h-.11c-.37-.09-.13-.3-.1-.48zM177 63a1.49 1.49 0 0 1 .86-.27c.1-.05.18-.09.23.06s.07.2-.07.26a.92.92 0 0 0-.34.28.35.35 0 0 1-.37.11 1.38 1.38 0 0 1-.51-.21c0-.15.11-.23.2-.23zm-1.74-14.68c.09-.05.17 0 .25 0a.49.49 0 0 1 .15.21 1.75 1.75 0 0 0 .25.46c0 .16.21.31 0 .48 0-.09-.08-.06-.12 0l-.3-.23a.5.5 0 0 0-.12-.3 1.37 1.37 0 0 1-.17-.44c-.03-.06-.05-.16.05-.21zm.32 12.22h.19c.08 0 .2 0 .23.09s-.07.13-.13.18l-.76.57a.16.16 0 0 1-.19 0 .23.23 0 0 1-.12-.22c0-.44.2-.62.77-.65zm-.89 6.32c.22-.11.49-.22.53-.52a.9.9 0 0 1 .12-.36.54.54 0 0 0 0-.56c-.08-.17-.26-.39-.08-.57a2.2 2.2 0 0 1 1.11-.71c.15 0 .3 0 .33.17a6.73 6.73 0 0 1 .09.78c0 .15-.11.16-.23.18-.32.05-.5.35-.77.48s0 .24 0 .36-.06.1-.07.16c-.08.37-.43.7-.14 1.12a.39.39 0 0 1-.08.42v.06c0 .14.16.16.24.23a2.58 2.58 0 0 1-1.11.4.71.71 0 0 0-.64.36c-.07.1-.14.19-.26.14s-.32 0-.46-.1-.11 0-.11 0h.1c.27-.11.32-.3.13-.51 0-.05-.08-.09 0-.15s0-.22 0-.34c0-.33.25-.77.46-.72s.58-.18.83-.35zm-.47-8.64c.11 0 .16.08.19.16a1.19 1.19 0 0 1 .06.53c0 .12 0 .13-.11.13-.31 0-.42-.24-.3-.64.02-.12.04-.21.15-.21zm-.22-1.87c.13 0 .18.05.14.18s-.14.21-.08.31c.16.27-.07.42-.17.61s-.13.14-.2.08a.64.64 0 0 1-.32-.54.92.92 0 0 1 .63-.64zm-.84 4.37a.3.3 0 0 1 .4-.28c.21.05.2.24.15.42a.47.47 0 0 0 .08.53c.1.1.18.22 0 .36a.31.31 0 0 1-.44 0c-.07 0-.1-.16-.22-.13s-.14-.11-.17-.2.12-.42.16-.7zm-1.34 8.58a.18.18 0 0 1-.25-.18c0-.32.3-.18.44-.25s.25 0 .25.11-.26.27-.48.32zm-.9-6.51c.17-.09.31 0 .4.16s.07.11.14.07.07-.11 0-.17a1.47 1.47 0 0 1 .45-.58.4.4 0 0 1 .59.05c.15.16.21.34 0 .52s-.21.13-.27.23c-.23.41-.69.57-1 .92-.13.16-.24.08-.28-.11s-.11-.45-.16-.68-.08-.32.09-.41zm-2.29-8.46a1.27 1.27 0 0 1 .28-.54 1.06 1.06 0 0 0 .35-.66l.12-.07c.14 0 .25.09.36.1s.17.18.2.3 0 .33-.13.36a2.14 2.14 0 0 0-1 .6c-.16.1-.26.02-.22-.09zm-.95-.88c.06-.14.11-.29.27-.27s.13.22.2.37c-.14.21-.05.49-.17.73a1.53 1.53 0 0 1-.21.29.18.18 0 0 1-.12.07c-.07 0-.06-.09-.08-.14-.24-.39-.07-.71.07-1.05zm-.27 9.08a.62.62 0 0 0 .26-.6c-.08-.22.09-.22.21-.2a.5.5 0 0 0 .58-.31.28.28 0 0 1 .34-.18c.14 0 .16.21.15.35a2.42 2.42 0 0 0 0 .59 4.44 4.44 0 0 1-.17 1.46.16.16 0 0 1-.16.16.15.15 0 0 1-.14-.13c0-.2-.21-.26-.37-.3a1.62 1.62 0 0 1-.69-.4c-.26-.17-.23-.29-.05-.44zm-1.65-15.31c0-.17.15-.19.29-.16a1.36 1.36 0 0 1 .88.75c.07.12.07.33-.2.29a2 2 0 0 1-1-.88zm.65 15c-.16 0-.12-.19-.12-.3a.54.54 0 0 0-.17-.41.92.92 0 0 1-.08-1.15s0-.08.08-.07.43.26.47.51-.18.71.17 1v.06c0 .06-.3.38-.39.36zm.35 3.18c-.1.26.06.58-.2.78h-.07a.15.15 0 0 1-.13-.08c-.08-.13-.12-.28-.31-.28s-.06-.06-.05-.09a1.81 1.81 0 0 1 .3-.65.15.15 0 0 1 .22 0c.05.11.25.18.2.32zm-1.37-1c-.12.47-.23.94-.33 1.41 0 .13-.06.24-.2.26a.24.24 0 0 1-.28-.22c-.08-.43-.43-.64-.7-.91s-.26-.38-.22-.41.32 0 .44.16a.34.34 0 0 0 .56 0c.14-.16.28-.34.41-.51a.2.2 0 0 1 .18-.1.26.26 0 0 1 .1.28zm-2.51-4.4a1.54 1.54 0 0 0-.22-.09c-.29 0-.34-.23-.31-.47.27 0 .55.27.82 0s.36-.1.56 0 .29.25.25.5-.32.52-.45.79c0 .1-.07.2-.22.21s-.31-.27-.46-.41 0-.16.09-.22.12-.31-.06-.31zm.28-6.32c-.07.11-.2.22-.29.15a5.06 5.06 0 0 1-.53-.57c0-.14.16-.13.27-.11s.29.2.44.3.19.07.11.2zm0 4.39c.12 0 .19 0 .13.17s-.08.11-.11.17a.43.43 0 0 1-.51.2c-.17 0 .07-.18 0-.29s0-.06 0-.09a1.2 1.2 0 0 1 .54-.23zm1.14 5c.27 0 .34.2.32.46s0 .25-.19.32-.31.07-.37-.07-.47-.41-.44-.77c0-.06-.08-.14 0-.21s.16 0 .25 0 .3.2.48.2zm.76-2.24c.1 0 .26 0 .16.18a1.13 1.13 0 0 1-.43.35c-.15.07-.17-.17-.29-.21a1.26 1.26 0 0 1-.18-.1h-.08c.04 0 .26-.24.39-.35s.21-.09.21 0 .16.07.27.06zm-.73-22.24c0-.11 0-.24.17-.24s.15.14.17.24a1.09 1.09 0 0 0 .17.53l-.24.23c-.08 0-.15-.1-.23-.14a.27.27 0 0 1-.15-.28c.03-.18.17-.27.16-.41zm-1.3 7.75a.2.2 0 0 1 .28.1.67.67 0 0 0 .33.39 1.6 1.6 0 0 1 .36.49c.11.16 0 .31-.2.32-.38 0-.67-.26-.56-.58a.43.43 0 0 0-.13-.5c0-.12-.11-.2-.03-.29zm-.27 1.57c.13-.06.29-.13.35.1a1.69 1.69 0 0 0-.33.59.79.79 0 0 1-.35.46c-.07 0-.15.09-.18 0a1.34 1.34 0 0 1 .56-1.22zm0 14.54a.38.38 0 0 1 .37.43c0 .14 0 .25.1.34a.26.26 0 0 1 .06.25.91.91 0 0 0 .08.52c.06.13.13.3 0 .44a2.17 2.17 0 0 0-.81-.41 2.73 2.73 0 0 1-.34-.16c-.56-.34-1.19-.53-1.76-.86l-.62-.4c-.11-.07-.14-.14 0-.21a.61.61 0 0 0 .19-.15.3.3 0 0 1 .5 0 .47.47 0 0 0 .49.12 1.79 1.79 0 0 1 .45 0 7.2 7.2 0 0 0 1.3.02zm-3-7.78a3.23 3.23 0 0 1 .77-.15c.33 0 .65.1 1 .1.17 0 .24.09.14.25a1.26 1.26 0 0 1-.69.62h-.06s-.08.1-.08.15a.24.24 0 0 1-.28.23c-.18 0-.06-.17-.1-.25a.63.63 0 0 1 0-.11.3.3 0 0 1-.13-.18c-.18-.12-.36-.24-.54-.37s-.16-.34.01-.36zm-.6 8.55a1.62 1.62 0 0 0 .35.48.24.24 0 0 1 0 .39.46.46 0 0 1-.55.08c-.08-.05-.16-.12-.27-.1a1.44 1.44 0 0 1-1.09-.42c-.15-.11-.1-.24-.06-.38s.2-.24.29-.2c.31.14.55-.05.83-.09s.48-.12.55.17zm-1.48 1.68c0 .31-.31.24-.47.28s-.62-.17-.63-.31.37-.57.56-.56a.66.66 0 0 1 .59.51zm.28-3.58c.07-.16.17-.3.37-.3.16 0 .33-.1.42.11a.75.75 0 0 1-.3.29.48.48 0 0 1-.45 0 .1.1 0 0 1 0-.18zm-.11-1.91a.41.41 0 0 1-.05.43.36.36 0 0 1-.41.1c-.12 0-.28-.12-.33 0-.16.34-.32.07-.48 0s-.13-.13 0-.23a1 1 0 0 1 .61-.39c.11 0 .24 0 .3-.15.11.06.33-.01.4.16zm-.9-12.4a.2.2 0 0 1 .12.12 3.58 3.58 0 0 0 .15.39c0 .08 0 .28-.12.21a5.51 5.51 0 0 1-.61-.22c-.05 0-.11-.05-.12-.12s.5-.5.63-.46zm-1.13 1.36c.06-.07.19-.13.27-.09s.46.07.66.13.55-.05.79.06c.12-.06.2-.05.22.07a.17.17 0 0 1-.15.19.56.56 0 0 0-.32.14 1.41 1.41 0 0 1-1 .19.14.14 0 0 1-.16-.11c0-.19-.2-.25-.27-.4s-.07-.18 0-.26zm-.41 5.85c.06-.1.08-.14 0-.24s.07-.28.16-.39.2 0 .29 0a1.4 1.4 0 0 0 .48.15c.45.07.55.3.32.68a1.68 1.68 0 0 1-1.1.7c-.14 0-.29.1-.41 0a1.06 1.06 0 0 1 .3-.98zM155 38.36zm0 30.75c.11-.15.13-.38.32-.45s.32-.37.36-.65a1.64 1.64 0 0 0-.15-.77c-.06-.18 0-.43-.25-.52 0 0-.18-.32 0-.31a1 1 0 0 1 .72.35c.15.21.29.2.44.07s.19-.07.19.09 0 .15.07.18.15 0 .19-.11.27-.39.4-.59 0-.15.13-.13.07.12.11.18 0 .22 0 .31a3.54 3.54 0 0 1-.63 1c-.07.1-.17.17-.16.31a.58.58 0 0 0 .53.57c.26 0 .4-.13.5-.33a.87.87 0 0 1 .7-.53c.47 0 1-.21 1.42.08a.28.28 0 0 0 .31 0c.09-.06.15-.09.19.06a.25.25 0 0 0 .3.19.33.33 0 0 0 .29-.29c.06-.32.14-.36.41-.21l2 1.12a.64.64 0 0 1 .24.29 10.86 10.86 0 0 1 .46 1.16c0 .08.17.12.1.25s-.2.11-.31.13c-.44.07-.85-.15-1.29-.11-.25 0-.45-.21-.67-.27a3 3 0 0 0-2.15 0 3.35 3.35 0 0 1-.77.32 2.46 2.46 0 0 0-.95.33.26.26 0 0 1-.28 0 1 1 0 0 0-.33-.13c-.42 0-.67-.36-1-.59a1.94 1.94 0 0 0-.63-.41 4.23 4.23 0 0 1-.75-.36c-.06-.09-.18-.15-.12-.23zm4.18 2.79c.26-.22.52-.43.9-.28a4.4 4.4 0 0 0 .57.14.14.14 0 0 1 .12.11c0 .24-.31.66-.61.66a3.42 3.42 0 0 0-.8-.17.28.28 0 0 1-.28-.14.27.27 0 0 1 .04-.33zm1.35-.61a1 1 0 0 0-.63-.13c-.07 0-.15 0-.16-.08s.05-.12.13-.14c.24 0 .46-.2.67-.16a4 4 0 0 1 .93.08c.19 0 .23.16.08.32a1 1 0 0 1-1.08.1zm-6.13-3.59a.14.14 0 0 1-.17.21 3.45 3.45 0 0 0-.56-.14c-.13 0-.3 0-.4-.09a.87.87 0 0 1-.13-.2c0-.1-.19-.16-.12-.27a.39.39 0 0 1 .39-.18 1.56 1.56 0 0 1 .93.67zm-3.43-7.49c.13-.11.27-.23.25-.42a1.27 1.27 0 0 1 .35-.94 1.78 1.78 0 0 0 .38-.62 1.05 1.05 0 0 1 .67-.68c.17-.06.42 0 .39.18s0 .47-.05.7a.41.41 0 0 1-.22.27c-.26.13-.5.31-.75.47a.36.36 0 0 0-.19.26.09.09 0 0 0 0 .12.89.89 0 0 0 0 .42.09.09 0 0 1 0 .12.22.22 0 0 1-.12.29.32.32 0 0 0-.16.44.29.29 0 0 1-.42-.17l-.06-.06H151l-.06-.06v.05c-.2-.11-.19-.24-.03-.37zm.74 4.89a4.09 4.09 0 0 0-.24.37c-.05.08-.1.19-.22.15s-.18-.15-.2-.3.25-.3.36-.47.17-.17.28-.09a.23.23 0 0 1-.04.34zm.67 4.43a3.86 3.86 0 0 0-.65.42.31.31 0 0 1-.36 0c-.09-.06-.15-.2-.1-.26a.39.39 0 0 0 .05-.51c0-.22.09-.35.31-.31s.51.36.79.51c.01-.01-.01.1-.1.14zm-.11-3.68a1.66 1.66 0 0 0-.73.22.45.45 0 0 1-.24.07 1.05 1.05 0 0 0-.44-.08c-.06 0-.23-.11-.18-.21s.17-.24.34-.11a.68.68 0 0 0 .49.1c.29 0 .44-.22.68-.28a1.12 1.12 0 0 0 .47-.25.36.36 0 0 1 .56 0c.09.1 0 .25 0 .24-.46 0-.7.29-1.01.29zm1.66 6.9c-.21 0-.25.08-.26.23a.55.55 0 0 1-.27.45 1 1 0 0 1-.19.67.33.33 0 0 0 .11.56 1.14 1.14 0 0 0 .35.09c.16 0 .2 0 .12.21s-.5.53-.38 1c0 .07-.14.09-.22 0a2 2 0 0 1-.54-1 .28.28 0 0 1 0-.2 1 1 0 0 0 .07-.83c-.09-.07-.21-.16-.12-.26.29-.33.32-.77.51-1.13.11-.21.27-.35.53-.25a.76.76 0 0 0 .32.06c.09 0 .25 0 .2.14s-.06.29-.29.25zm1.93 1.1a.74.74 0 0 0-.33.13c-.2.15-.72.08-.82-.13a2.37 2.37 0 0 1-.28-.85.33.33 0 0 1 .47-.33c.45.17.71.59 1.09.86.13.1.01.27-.19.31zm1.1-.67c-.18 0-.24-.14-.34-.24v-.06a1.76 1.76 0 0 1-.47-.36c-.22-.2-.51-.28-.69-.51a4 4 0 0 0-1.22-.49 4.79 4.79 0 0 0-1.1-.33c-.14 0-.09-.08-.07-.16a2.59 2.59 0 0 0 .27-1c0-.13.1-.21.23-.1s.45.12.67.26a3.43 3.43 0 0 1 1.26 1c.09.14.19.28.27.43s.5.39.62.69a1.44 1.44 0 0 0 .43.48c.11.11.24.18.24.35s-.12.02-.16.03zm1.58-.47c0 .13-.06.27-.1.4s-.06.2-.17.15-.27-.1-.29-.27 0-.21.1-.25a2.44 2.44 0 0 1 .45-.12c.09 0 0 .05 0 .09zm-.87-.43a.34.34 0 0 1-.44-.15c-.15-.3-.43-.53-.52-.87.35.18.75.2 1.11.38s.63 0 .93-.13c-.23.49-.75.6-1.15.75zm4.54.69a1.14 1.14 0 0 1-.27 0 5.4 5.4 0 0 0-2.27.59c-.42.22-.66.13-.67-.28 0-.21-.06-.45.25-.48a1.46 1.46 0 0 1 .53 0 1 1 0 0 0 1.31-.38.26.26 0 0 1 .33-.11 5.79 5.79 0 0 0 .79.25c.11 0 .23.08.22.21s-.21.16-.29.23zm1.43-.89a.81.81 0 0 1-1 .08 1.06 1.06 0 0 0-.7-.28c-.23 0-.28-.17-.13-.35s.35-.38.63-.29a3.83 3.83 0 0 0 1 0 1.69 1.69 0 0 1 .65.08.57.57 0 0 0 .66-.11c.23-.19.41-.45.27-.73s-.16-.71-.4-1-.27-.72-.47-1a.74.74 0 0 0-.58-.45 1.06 1.06 0 0 1-.56-.34 1.07 1.07 0 0 0-1-.51c-.11 0-.29 0-.25-.18s-.11-.32-.2-.46-.14-.11-.13-.19a.89.89 0 0 0-.16-.62c-.05-.1-.14-.27.12-.24.09 0 .2 0 .21-.13s-.13-.09-.19-.15-.37 0-.4-.25v-.06a1.16 1.16 0 0 0-.82-.34c-.35 0-.44-.27-.23-.54a1.31 1.31 0 0 0 .2-.39c0-.06 0-.16.1-.15a.18.18 0 0 1 .17.15c0 .29.23.25.41.26s.25 0 .36.1a12.59 12.59 0 0 0 1.26 1c.11.09.3.09.37.24a.75.75 0 0 0 .42.36.94.94 0 0 1 .51.67.94.94 0 0 0 .91.77 1 1 0 0 1 1 .86 4.86 4.86 0 0 0 .4 1.7.13.13 0 0 1 0 .09 2.32 2.32 0 0 0 .21 1.15c.09.37.19.74.26 1.11a.83.83 0 0 1-.1.62 3.33 3.33 0 0 0-.26.87s0 .09.06.07c.22-.12.26.09.37.18a.32.32 0 0 1-.41 0c-.18-.18-.33-.13-.49 0l-.38-.28c-.13-.1-.12-.18 0-.28s.33 0 .34.17 0 .18.14.17.14-.11.11-.22l-.18-.66s-.15-.3-.36-.28a.65.65 0 0 1-.63-.27.42.42 0 0 0-.23-.12 1 1 0 0 0-.94.15zm2.1 9.86c.06.13-.08.23-.14.34s-.12.06-.19 0-.12-.17-.11-.28 0-.18 0-.36c-.16-.47.14-1.06-.09-1.61a.19.19 0 0 1 0-.12 4.9 4.9 0 0 0 .17-1.42c0-.44 0-.51.42-.67a.53.53 0 0 0 .17-.12c.25-.25.38-.23.49.13a4 4 0 0 1 .2 1.13.39.39 0 0 1-.26.39 1.29 1.29 0 0 0-.64 1.17 1.38 1.38 0 0 1 0 .37c-.1.35-.26.68-.08 1.03zm-2.86 6.68a1.11 1.11 0 0 1 .25-.44 3.23 3.23 0 0 0 .8-1.21 10.19 10.19 0 0 0 .55-.87 3.11 3.11 0 0 0 .38-1.07.59.59 0 0 1 .11-.24c0-.06.1 0 .16 0s.07.07 0 .12c-.16.22 0 .51-.21.76a1.61 1.61 0 0 0-.21 1.11 1.54 1.54 0 0 1-.81 1.11 1.12 1.12 0 0 0-.36.24c-.28.23-.31.56-.43.86s-.16.3-.35.32-.28-.11-.36-.25-.05 0 0-.06c.15-.08.23-.3.42-.39zm-5.28-1.67a6.42 6.42 0 0 1 1.06-.06 5.4 5.4 0 0 1 1.8.16 1 1 0 0 0 .53 0 .58.58 0 0 1 .51.09c.12.1.38 0 .4.18s-.22.19-.32.32a.54.54 0 0 1-.56.25.44.44 0 0 0-.51.34c-.05.15-.13.27-.33.25a.15.15 0 0 1-.16 0A6.6 6.6 0 0 0 159 88c-.41-.22-.8-.47-1.21-.69a1 1 0 0 1-.35-.22c-.04-.09-.12-.09.1-.15zm-2.31.32c0-.1.15-.07.24 0l.74.31a10.15 10.15 0 0 1 1.16.48 2.71 2.71 0 0 0 .66.38 1.82 1.82 0 0 1 .72.38 7.66 7.66 0 0 1 1.16.64 1.24 1.24 0 0 0 .58.39 3.67 3.67 0 0 1 1 .57 7.72 7.72 0 0 0 1.63 1.08c.56.34 1.1.7 1.63 1.09a8.4 8.4 0 0 1 1.47.88c.54.43 1 .92 1.61 1.31a.19.19 0 0 1 0 .29c-.09.12-.17.06-.24 0a.19.19 0 0 0-.21-.07.54.54 0 0 1-.42-.13c-.45-.35-1-.55-1.45-.91a11.93 11.93 0 0 1-1.09-.94 7.64 7.64 0 0 0-1.65-1.1 11.75 11.75 0 0 1-1.27-.7c-.58-.46-1.15-.93-1.74-1.38-.32-.24-.69-.43-1-.64-.19-.12-.37-.25-.57-.36a10.88 10.88 0 0 0-1.1-.49l-.06-.06c0-.06-.08-.11-.14-.08-.22.1-.39 0-.55-.14a10.86 10.86 0 0 0-1-.54c-.09-.12-.21-.16-.17-.27zm-.73 1.23a9.63 9.63 0 0 1-1.16-.39 7 7 0 0 0-.66-.22l.71-.49.37.17 1.3.54zm-6.29-2.93l-1.13.8a2.39 2.39 0 0 1-.43 0c-.11 0-.25 0-.26.13s.14.09.23.1h.18c-.93.66-1.87 1.32-2.79 2-.54.4-1 .83-1.6 1.22a2.65 2.65 0 0 0-1.2 1.33.61.61 0 0 0 .43-.23 10.84 10.84 0 0 1 1.47-1.23 20.24 20.24 0 0 1 1.76-1.26A13.46 13.46 0 0 1 147 87c.19-.09.36-.2.54-.3a2 2 0 0 1 .39.14 1.79 1.79 0 0 0 .71.09 1.19 1.19 0 0 0-.77-.32h-.13a11.83 11.83 0 0 0 1.07-.72h.06a7.18 7.18 0 0 0 1.33.38l.36.1-1 .73-.22-.1a.54.54 0 0 0-.66 0 .34.34 0 0 0 .21.14l.45.12-.09.08c-.78.72-1.58 1.41-2.41 2.08s-1.6 1.17-2.36 1.82c-1 .83-2 1.59-3.06 2.33s-2 1.65-3.08 2.36l-.52.35v-1.59A6 6 0 0 1 139.1 93c.67-.66 1.39-1.27 2.1-1.9-.49 0-.8.38-1.17.61s-.71.78-1.12 1.08a5.62 5.62 0 0 0-1.23 1.27c-.06-.76-.13-1.53-.18-2.3l.74-.6c1-.74 1.81-1.59 2.84-2.27a26.72 26.72 0 0 0 2.92-2.36 5.09 5.09 0 0 1 .78-.54.26.26 0 0 0 .15.12.06.06 0 0 0 .08-.06.17.17 0 0 0-.12-.13l.09-.05a9.53 9.53 0 0 0 1.14-.8l.88.15a5.17 5.17 0 0 1 1.21.34zm-3-.59a5.47 5.47 0 0 1-.73.59l-.21.16a.44.44 0 0 0-.26 0 .3.3 0 0 0 .11.07c-.84.63-1.53 1.43-2.37 2s-1.42 1.23-2.2 1.77a15.14 15.14 0 0 0-2.07 1.61v-.66c0-.77-.05-1.53-.11-2.3a3.86 3.86 0 0 0 1.33-1.22c.07-.11.22-.17.32-.26.61-.58 1.34-1 2-1.51a3 3 0 0 0 .75.11.84.84 0 0 1 .37.11c.11 0 .22.11.34 0s.11-.05.14 0c.21.27.54.15.8.25a.19.19 0 0 0 .25-.11c0-.12-.1-.09-.16-.12a.73.73 0 0 0-.25-.09 6.41 6.41 0 0 1-1.51-.48l-.24-.07.74-.55a3.64 3.64 0 0 1 .7.3 6.41 6.41 0 0 0 2.24.42zm-5.14-.87l1 .07-.6.45-.58-.14c-.47-.11-.36-.49.16-.39zm-3.16-.32l.31.12c.29.1.56.28.84.4s1.1.4 1.93.65c-.47.37-.94.74-1.39 1.12l-1.39 1.16q-.1-1.06-.24-2.13a9.75 9.75 0 0 1-.08-1.33zm5.66 16.87h-2.85c.16 0 .38 0 .38-.27a.21.21 0 0 0-.21-.19c-.18.07-.34.18-.36.38a.07.07 0 0 0 0 .08h-.28c-.87 0-1-.26-1.32-1a9.12 9.12 0 0 1-.25-2.74 1.63 1.63 0 0 0 .27-.13 7 7 0 0 0 .95-.89 28.85 28.85 0 0 1 3-2.4c.93-.65 1.76-1.41 2.7-2 .66-.45 1.27-1 1.91-1.44s1.22-.78 1.8-1.22 1-.82 1.51-1.19l.17-.12.34.11a.4.4 0 0 0 .18 0s.11 0 .13-.06-.05-.09-.1-.12a1.71 1.71 0 0 0-.32-.11l1.08-.73a10.43 10.43 0 0 1 1 .41l.71.32-.74.53c-.17-.05-.35-.1-.52-.17s-.47 0-.69-.13a.1.1 0 0 0-.14.07c0 .09.05.11.12.14.32.11.64.19 1 .28-1.9 1.36-3.32 2.4-3.58 2.62-.1.09-.26.18-.14.34s.31 0 .39-.06a17.29 17.29 0 0 1 1.9-1.53l1.81-1.27a8.74 8.74 0 0 1 1.23.42c.16.07.34.16.52.24-1.69 1.19-2.91 2.06-3 2.14-.64.7-1.34 1.35-2 2s-1.27 1.05-1.89 1.59a10.13 10.13 0 0 1-1.56 1.2c-1 .57-1.78 1.41-2.74 2a1.41 1.41 0 0 0-.29.34 10.84 10.84 0 0 0 1.71-1.11c1.07-.66 2-1.55 3.08-2.15.35-.19.46-.6.77-.77a14.62 14.62 0 0 0 2.24-1.75c.23-.18 2.57-1.84 5.32-3.78.28.13.56.25.83.4a11 11 0 0 1 1.29.85c-3.84 2.69-7.71 5.41-8.22 5.81-1.7 1.32-3.23 2.83-4.83 4.27a.86.86 0 0 0-.2.41.22.22 0 0 0 .16.29 13.1 13.1 0 0 1-2.3.08zm5.52-.35l-2.77.1a.3.3 0 0 0-.07-.18c-.08-.11 0-.2.05-.29.26-.29.49-.6.77-.86.64-.59 1.3-1.16 1.95-1.74a8.44 8.44 0 0 1 1.27-1c.67-.39 1.19-1 1.85-1.34.27-.15 3.72-2.53 7.22-4.93a3.33 3.33 0 0 0 1.46.8 1.66 1.66 0 0 1 .56.27l.49.31c-3.83 2.69-8.07 5.65-8.33 5.86-.91.73-1.88 1.4-2.75 2.18a5.5 5.5 0 0 0-.74.84l-.53.08a1.34 1.34 0 0 1-.46-.11zm1.56-.05v-.06c.36-.33.71-.68 1.09-1a25.16 25.16 0 0 1 2.09-1.56l8.53-5.91c.19.12.39.25.59.36a10 10 0 0 0 .85.56 4 4 0 0 1 .72.43c-3.64 2.56-8.36 5.87-9.93 7.08zm4.86-.12c1.81-1.31 6.16-4.35 9.58-6.75a2.51 2.51 0 0 1 .84.57 4.61 4.61 0 0 0 .36.3c-.14.12-.27.24-.41.34-.7.52-1.4 1.07-2.09 1.6-.07.06-.17.13-.12.23s.19 0 .27 0a14.24 14.24 0 0 0 1.36-.87c.19-.15.69-.51 1.39-1q.34.23.69.43c-.12.09-.24.19-.35.29a13.69 13.69 0 0 1-1.78 1.59c-1 .66-1.77 1.61-2.73 2.31-.38.27-.74.57-1.09.87zm6.59-.12a30.3 30.3 0 0 0 2.66-2.19 5.81 5.81 0 0 1 1-.67 13 13 0 0 0 1.44-1l1-.7.22.12a4.48 4.48 0 0 1 .88.66c.09.09.19.17.28.25l-.56.39c-1.39 1-2.82 2-4.2 3l-.14.1zm12.63-.39c-.09-.1-.24-.13-.31-.24-.27 0-.39-.27-.55-.42a2.91 2.91 0 0 1-.49-.51c-.52-.39-1.1-.68-1.64-1s-.87-.67-1.3-1c-.11-.09-.3-.23-.22-.35s.25 0 .38.09a6.72 6.72 0 0 1 1.34.8 9.3 9.3 0 0 1 1.9 1.54 5.25 5.25 0 0 0 .73.54 5.43 5.43 0 0 1 .53.49zm-9.49.3l.38-.26a13.45 13.45 0 0 1 2.1-1.4 10.1 10.1 0 0 0 1.8-1.13l.46-.33c.39.29.8.55 1.2.82-.69.49-1.16.83-1.24.9-.49.45-1 .88-1.51 1.3zm4.09-.11c.43-.34.84-.7 1.3-1l1.12-.76a8.21 8.21 0 0 1 1.6 1.36.75.75 0 0 0 .23.16l.15.09zm23.56-1.88l-.36-2a2.37 2.37 0 0 1 .41 1.48c0 .2 0 .36-.08.52zm-2.17-11.09q-.18-.86-.37-1.72a11.52 11.52 0 0 1 .57 1.5c0 .1.1.26.06.3s-.21-.03-.29-.08zm.47 2.24c.76.54.78 1.41.81 2.28a6.52 6.52 0 0 0 .07 2 .29.29 0 0 1 0 .14q-.46-2.22-.91-4.42zM188 93.22c.31.14.76.45 1.2.69a4.24 4.24 0 0 0 .59.37l1.1.64a29.85 29.85 0 0 1 .42 3.21c0 1.08-.34 1.37-1.27 1.66a14.56 14.56 0 0 1-5.77 0 .8.8 0 0 1-.56.06h-.22a5.29 5.29 0 0 1-1.88-.28h-6.36c-.15-.2-.34-.53-.45-.62a16.12 16.12 0 0 0-1.29-1l-2.71-2.06c-.34 0-1.23-.93-1.52-1.15l-1.65-1.25-1.65-1.25c-.37-.27-.9-.41-1.19-.72s-.55-.35-.78-.58-.52-.45-.84-.59c-.06 0-.12-.13 0-.15s.26-.15.42-.14h1.05a5.47 5.47 0 0 0 1.38-.24c.42-.08.76-.35 1.17-.46a.83.83 0 0 1 .76.44v.07a9.4 9.4 0 0 1 .84 1.23 1.27 1.27 0 0 0 .55.5c.31.18.49.52.82.67s.61.24.9.38a11.31 11.31 0 0 1 1.23.61.54.54 0 0 0 .7-.12c.17-.16 0-.35-.05-.52l-.08-.16-.06-.06v.06l-.06-.06a.63.63 0 0 0-.27-.27.25.25 0 0 1-.15-.17 8.63 8.63 0 0 0-.44-1c-.13-.38-.13-.38.26-.5a1.08 1.08 0 0 1 .83.16c.35.17.66.4 1 .56h.09a1 1 0 0 1 .41-.08h1.62a5 5 0 0 0 1.36 0c.78-.37-.71-1.15-1.06-1.34a8.74 8.74 0 0 1-1.62-1.08c.25.07.5.13.74.17 1.31.44 2.69.7 4.07 1q1.71.56 3.4 1.19 2.49 1.03 5.02 2.18zm-18.73-7.69c.06 0 .08 0 .1.09.19.45.48.88.34 1.35a1.91 1.91 0 0 0 0 .35c.11.46.24.92.36 1.38a.89.89 0 0 1 .07.44v.15c0 .02-.13 0-.17-.09a3.86 3.86 0 0 0-.71-1s0-.09-.06-.13c-.11-.25-.11-.54-.34-.74-.06 0 0-.12 0-.2.09-.5.32-1 .37-1.47-.1-.07-.08-.12-.01-.13zm.21-8.95a2.15 2.15 0 0 0 .07-.88 1.44 1.44 0 0 1 .2-.7.22.22 0 0 1 .24-.15c.14 0 .1.15.11.24a.55.55 0 0 1 0 .32c.17.27.1.59.16.88a1 1 0 0 1-.12.62l.09.38c.07.31 0 .63.06.94a.7.7 0 0 1 0 .24 3.6 3.6 0 0 0 0 1.56 7.59 7.59 0 0 1 0 1.15c0 .1 0 .23-.13.24s-.13-.12-.17-.21a.71.71 0 0 1-.06-.26 3.49 3.49 0 0 0-.08-.68c-.2-.54 0-1.15-.28-1.71a1.91 1.91 0 0 1 0-1.14 6.48 6.48 0 0 1-.14-.84zm1.63 12.34c-.18.1-.32.07-.39-.14l-.13-.24c-.07-.08 0-.18-.06-.26s-.06-.22.07-.28.17.09.24.16c.35.36.62.81 1.13 1v.06a.38.38 0 0 1-.09.07.39.39 0 0 1-.55-.24c-.05-.2-.12-.21-.27-.13zm8.22-.11l1.19.32c.17 0 .37 0 .5.13s.27.07.4.1 2.34 1 2.4 1.12c-1.69-.51-7.42-2.37-7.52-2.42h-.12a13.58 13.58 0 0 0-1.77-.61q-.32-.17-.62-.36c1.72.44 5.42 1.75 5.5 1.72zm-8.08-3.07a1.53 1.53 0 0 0 .45.72c.1.11.12.26.21.42s.2.21.28.37c.1 0 .23.05.27.16a5.6 5.6 0 0 0 .59.84c.06.08.1.2.18.23.39.16.62.58 1.07.63a.27.27 0 0 1 .19.14c.1.24.35.27.52.39.12-.06.18 0 .17.11s-.09.08-.18.06-.3-.13-.46-.17a1.26 1.26 0 0 1-.86-.62c-.24 0-.39-.28-.63-.31a2.4 2.4 0 0 1-1-.29 1.78 1.78 0 0 1-.53-.55c-.11-.13-.26-.22-.3-.41a.37.37 0 0 0-.29-.33c-.08 0-.23-.1-.15-.26 0-.17-.19-.3-.07-.48s.07-.22-.09-.27a.14.14 0 0 1-.09-.15 1.52 1.52 0 0 0-.23-.88c-.11-.21.06-.38 0-.6a5.42 5.42 0 0 1-.13-1.17c0-.11 0-.21.17-.2s.15.11.13.2a1.18 1.18 0 0 0 0 .36c0 .41.37.71.35 1.16s.31.57.39.89zm-.62-13a.44.44 0 0 1-.3.24 1 1 0 0 0-.74.63 5.55 5.55 0 0 0-.68 1.89c0 .08 0 .21-.1.22s-.15-.09-.18-.17-.1-.15-.21-.1-.07.13 0 .21a1.51 1.51 0 0 1 .14.69c0 .07 0 .13.11.16s.18 0 .17.11-.11.1-.18.13-.23.14-.16.33c.12.35.21.71.32 1.06a2.12 2.12 0 0 1 .05 1 2.63 2.63 0 0 0 0 .33c0 .07 0 .13.1.13s.23 0 .2.17 0 .26-.1.3c-.34.16-.25.43-.22.69v.06a1.23 1.23 0 0 1 0 .32 5.21 5.21 0 0 0 0 1.88c.09.53.33 1.07 0 1.6-.22.39 0 .87-.31 1.24a4.35 4.35 0 0 0-.1.9.39.39 0 0 0 0 .34 3.77 3.77 0 0 0 .5 1.27 1.07 1.07 0 0 1 0 .42c.1.06.23.06.29.18.15.29.33.57.47.86a1 1 0 0 1 .18.55v.12a.7.7 0 0 1 .15.15c.06.12.17.28 0 .38s-.26 0-.36-.16-.31-.44-.48-.64-.35-.62-.56-.91a1.7 1.7 0 0 0-.91-.8c-.34-.19-.66 0-1 .06a1.09 1.09 0 0 0-.49.13 1.29 1.29 0 0 1-.88.23c-.15 0-.32 0-.34-.21s.13-.28.28-.28c.42 0 .6-.29.75-.62.07-.17.17-.35 0-.47s-.34.07-.41.21a.51.51 0 0 1-.44.3c-.08 0-.18.1-.24 0s0-.16.09-.24.36-.32.35-.62c0-.11-.13-.25 0-.36a3.74 3.74 0 0 1 .47-1.46.49.49 0 0 0 .05-.2c.06-.48-.2-.92-.16-1.39a.83.83 0 0 1 .1-.36c.1-.17.32-.26.33-.48v-1.53a2.17 2.17 0 0 1 .73-1.77c.08-.07.14-.14.25-.1a8.05 8.05 0 0 0-.06 1.85c0 .44.24.88.1 1.34a2.87 2.87 0 0 1 0 1.47.62.62 0 0 0 0 .26 3.89 3.89 0 0 1-.13 1.27 2.19 2.19 0 0 0-.16.85c0 .08-.06.23.1.24s.15-.09.16-.18a8.38 8.38 0 0 1 .27-.82c.15-.55.09-1.11.19-1.65.15-.83-.1-1.66 0-2.49a10.79 10.79 0 0 0-.08-1.63 2.93 2.93 0 0 0 0-1.11.38.38 0 0 1 0-.18l.31-1.48c0-.34.24-.66.11-1a.13.13 0 0 1 .05-.16.72.72 0 0 0 .22-.7h.07a5.49 5.49 0 0 0-.12-.9.13.13 0 0 0-.19-.09c-.08 0-.15.08-.12.18a3.41 3.41 0 0 1 0 .77c0 .35-.23.65-.21 1a3.37 3.37 0 0 1-.38 1.72c-.11.22-.16.08-.22 0-.13-.23.1-.49-.06-.73s0-.5 0-.75a1.47 1.47 0 0 0-.09-.73v-.06a.75.75 0 0 0 0-.15 2.46 2.46 0 0 1 0-1.44c0-.11 0-.19-.07-.28.21-.25.09-.59.27-.86a.93.93 0 0 0 .23-.81c-.09-.26-.17-.52-.24-.78s-.25-.42-.28-.67a12.38 12.38 0 0 0-.3-1.21c-.07-.35-.27-.66-.12-1.06a1 1 0 0 0-.35-1.06.54.54 0 0 1-.2-.62c.06-.13 0-.36.24-.36s.15.22.19.33c.09.26.37.3.48.49a3 3 0 0 0 .73.86.56.56 0 0 1 .12.8.39.39 0 0 0 0 .4c0 .15.17.16.25.24.35.31.52.8 1 1v-.08.08c.41.09.53 0 .81-.31a1 1 0 0 0 .19-1 .57.57 0 0 1 0-.45c.12-.21.21-.45.52-.42.05 0 .11-.07.16 0a.15.15 0 0 1 0 .17c-.05.09-.12.17 0 .27s0 .26 0 .39l-.32.64c-.17.35-.14.45.15.7.13.11.26.23.08.44a2 2 0 0 0-.65 1.35.74.74 0 0 1-.12.3c0 .05-.08.11-.14.07s0-.12 0-.18c-.1-.07-.22-.12-.26 0a1.2 1.2 0 0 1-.28.45.29.29 0 0 0 0 .38c.09.11.19.09.32 0a2.1 2.1 0 0 0 .59-.53c.41-.43.38-1.09.83-1.48a.06.06 0 0 0 0-.05c-.06-.18.08-.23.2-.26a6 6 0 0 1 1-.25c.3 0 .38-.39.62-.33a.92.92 0 0 0 .74-.08 8.15 8.15 0 0 1 1.27-.44h.14c.01 0 0 .08-.09.12a2.89 2.89 0 0 1-1.38.58 2.32 2.32 0 0 0-.88.31 7 7 0 0 0-1.79 1.92zm10.29-1.65c0 .21-.41.44-.62.34a7.57 7.57 0 0 0-1.25-.55c-.07 0-.18 0-.17-.14s.13-.14.23-.15a1 1 0 0 1 .82.26c.19.19.39 0 .58 0s.15-.21.17-.34c.07-.55-.47-.44-.71-.65a.47.47 0 0 0-.5-.12h-.05c-.17.19-.38.14-.58.09a1 1 0 0 0-.7 0 .34.34 0 0 1-.17 0 2.72 2.72 0 0 0-1.27.2 8 8 0 0 0-1.1.49 1.35 1.35 0 0 1-.73.3 3.14 3.14 0 0 0-.88.28.72.72 0 0 0-.42.27.54.54 0 0 1-.71.2.93.93 0 0 0-.5 0 .13.13 0 0 1-.1 0v-.1c.24-.17.46-.41.78-.4a5 5 0 0 0 .88-.16.84.84 0 0 0 .54-.3c.22-.27.51-.48.73-.75a1.18 1.18 0 0 1 .51-.36.78.78 0 0 0 .45-.33c.2-.38.34-.44.77-.35a4.23 4.23 0 0 0 .68.19 6.91 6.91 0 0 1 1.31.36 5.34 5.34 0 0 1 1.58.4.72.72 0 0 1 .47.61c.04.24-.12.47-.09.74zm.82-1.83a1.07 1.07 0 0 1-.26 0c-.12-.21-.2-.47-.54-.38-.07 0-.15-.07-.17-.15a.92.92 0 0 0-.28-.34c-.1-.1-.31-.25-.2-.37s.38-.08.55 0a.53.53 0 0 1 .15.18.77.77 0 0 0 .37.33 1.27 1.27 0 0 1 .46.39c.08.27-.01.33-.13.37zm.11-2.18c-.13-.12-.32-.22-.19-.44a.64.64 0 0 1 .65-.19.82.82 0 0 0 1.1.34c.15-.06.23 0 .27.13s0 .14.07.19.26.39.42.57.12.27-.07.33a1.43 1.43 0 0 1-1.16 0c-.31-.17-.7-.29-.85-.69-.09-.07-.21-.13-.29-.21zm.64 2.25a.31.31 0 0 1 .43.07.22.22 0 0 0 .24.06c.54-.11.56-.09.56.47v.15a.45.45 0 0 1-.59-.06.51.51 0 0 0-.56-.14c-.2.07-.26 0-.3-.19-.16-.2-.1-.34.18-.33zm-.24.37zm1.35 3.63c-.14-.06-.3-.18-.44 0s0 .28 0 .42.14.15 0 .23c0 .29-.21.28-.35.28s0-.12 0-.18 0-.08-.07-.09c-.26-.09-.27-.3-.28-.53a.47.47 0 0 0-.11-.33c-.09-.09-.16-.2-.09-.32a.32.32 0 0 1 .34-.14 1.92 1.92 0 0 1 .83.28c0 .15.31.21.13.41zM185 79c-.06.09-.14 0-.21 0s-.21-.09-.21-.22c-.27-.09-.27-.38-.44-.55s0-.12.1-.14.32 0 .36.19a1.71 1.71 0 0 0 .27.55c.13-.01.2.04.13.17zm.11-6.5a2.46 2.46 0 0 0-.43.32c-.17.18-.26.12-.36-.06a3.2 3.2 0 0 0-1.48-.83 1.24 1.24 0 0 1-.19-.6c.17 0 .39-.06.5.11a.47.47 0 0 0 .3.21l.68.19c.41.06.68-.12.71-.5 0-.15.15-.26.09-.42s.08-.09.1 0c.11.22.44.24.47.54a.33.33 0 0 0 .12.2.73.73 0 0 1 .21.9c-.07.19-.17.25-.32.08a.3.3 0 0 0-.4-.17zm1.2 6c-.1.07-.16 0-.23-.07l-.33-.26a.18.18 0 0 1-.07-.24c.1-.18.31-.2.47-.27a.17.17 0 0 1 .21.08.76.76 0 0 0 0 .45.25.25 0 0 1-.05.3zm.43-1.51a.21.21 0 0 1-.21-.14l-.3-.58a.31.31 0 0 1 .31-.43.4.4 0 0 1 .3.28 1.54 1.54 0 0 1 0 .68c.02.08.02.2-.1.2zm1.66-6.73a.44.44 0 0 1-.63.08c-.07-.05-.12-.11-.23-.09-.38.06-.58-.12-.58-.51.29-.16.67-.21.71-.65 0-.05.11-.1.17-.15.21.25.28.58.53.8a.32.32 0 0 1 .03.51zm.68-3.25c-.09 0-.19.13-.28.08s0-.17 0-.27l.05-.18c-.11-.22.07-.34.19-.45s.19-.11.27.06a.59.59 0 0 1-.23.75zm.44-6a.62.62 0 0 1-.42.52.48.48 0 0 1-.46-.42.41.41 0 0 0-.2-.34c-.07 0-.19-.1-.11-.2s.24-.13.29-.06c.18.26.46.21.7.27s.23.02.2.22zm3.06 12.35c-.29 0-.37.13-.29.4s0 .22-.19.17a.56.56 0 0 1-.21-.11.59.59 0 0 0-.56-.22.17.17 0 0 1-.2-.15.15.15 0 0 1 .11-.19c.15 0 .21-.17.28-.29.15-.37.53-.46.81-.67.11-.08.18 0 .26.07s.1.22.24.26a.33.33 0 0 1 .28.36c0 .21-.16.28-.34.31a1.34 1.34 0 0 1-.19.01zm1.2 2.84c-.16.1-.24-.1-.32-.21s-.23-.32-.47-.32a.21.21 0 0 1-.22-.28c0-.17.19-.17.34-.12l.16.06a4.84 4.84 0 0 1 .48.45c.09.06.19.22.03.36zm.11-5c-.24 0-.43-.2-.67-.21-.08 0-.11-.06-.05-.11s.24-.27.43-.15a.45.45 0 0 0 .33 0c.1 0 .33-.1.32.14a.28.28 0 0 1-.36.26zm2.86-1.36s-.13.11-.18 0-.24-.45-.35-.68c0-.1 0-.22.09-.28a.15.15 0 0 1 .14 0 1.34 1.34 0 0 1 .46.61c.04.14-.08.2-.16.28zM198.19 72.42z"/><circle class="905bb632-47d4-4271-883b-6750307d0be9" cx="198.18" cy="72.46" r=".01" transform="rotate(-63.7 198.178 72.462)"/><path class="905bb632-47d4-4271-883b-6750307d0be9" d="M198.12 72.52l.05-.06h-.06zM168.31 73.85c-.15.06-.14.23-.13.33a2.43 2.43 0 0 0 .14.56c0 .06.06.12.12.11s.06-.08.08-.13c.1-.28-.15-.51-.1-.78.01-.04-.05-.09-.11-.09zM168.49 73.33a.23.23 0 0 0-.07 0v.06s.05-.05.07-.06zM168.82 88.76l-.01.01h.01v-.01zM170.77 86.87zM150.92 60.5zM149.05 72.2l-.01.01h.02l-.01-.01zM141.56 95.93c-.76.71-1.83 1-2.45 1.91-.13.19-.47.37-.27.61s.49 0 .74 0a.37.37 0 0 0 .12-.08c.11-.1.32-.15.31-.32s-.27 0-.37-.16a3 3 0 0 1 1-1c.31-.23.64-.43.95-.66a.4.4 0 0 0 .1-.29c.01-.08-.09-.06-.13-.01zM147.12 92l.83-.57a1.63 1.63 0 0 0 .21-.2c0-.21-.11-.2-.21-.16a3.73 3.73 0 0 0-1 .81.17.17 0 0 0 0 .16c.05.05.12-.04.17-.04zM141.28 86.27a3.56 3.56 0 0 0-1.06.87.14.14 0 0 0 0 .13c0 .08.12.05.16 0l1-.87a.27.27 0 0 0 0-.08c.06-.11-.03-.08-.1-.05zM139.16 87.83l-.22.16c-.07 0-.11.12-.05.19s.1.05.12.06a3.13 3.13 0 0 0 .87-.68.27.27 0 0 0 0-.08 1.49 1.49 0 0 0-.72.35zM142 85.65c-.12.15-.37.17-.41.4l.06.05a1.12 1.12 0 0 0 .65-.45v-.08a.21.21 0 0 0-.3.08zM142 98.47s.05.08.08.08c.23 0 .31-.24.48-.33s.06-.13.09-.2a.59.59 0 0 0-.17 0 .93.93 0 0 0-.48.45zM142.67 98.02h.01l-.01-.01v.01zM144.85 93.71c.23-.23.59-.31.75-.62-.49.07-.76.29-.75.62zM140.41 99.6c-.09 0-.14.07-.14.15s0 .07.06.1.16-.08.17-.16-.06-.09-.09-.09zM146.58 92.45a.17.17 0 0 0 .15-.12c0-.08 0-.13-.07-.11a.37.37 0 0 0-.17.13c-.04.08.03.11.09.1zM141.8 98.7v.05zM143.52 94.61zM143.58 94.51v.09h.09zM145.7 93l-.1.09zM161.19 97.7a.27.27 0 0 0 0-.08c0-.12-.11-.09-.17-.06a3.54 3.54 0 0 0-1.06.87.14.14 0 0 0 0 .13c0 .08.12.05.16 0zM158.94 99.12l-.22.16c-.07 0-.11.12-.05.19s.1.05.12.06a3.12 3.12 0 0 0 .87-.68.23.23 0 0 0 0-.08 1.49 1.49 0 0 0-.72.35zM161.47 97.4a1.12 1.12 0 0 0 .65-.45v-.08a.21.21 0 0 0-.28.07c-.12.15-.37.17-.41.4-.02.02.02.05.04.06zM162.48 96.7h-.07l.05.05zM70.44 89.11c.05 0 .11 0 .12-.1a.76.76 0 0 0-.41-.34s-.09 0-.09.06a.59.59 0 0 0 .38.38zM72.09 95.44c.07 0 .06-.1.06-.17l-.12.14s.05.04.06.03zM49.07 44.3zM49 44.28z"/></svg>