<svg id="77175c10-90c6-40cb-8fa6-38458932d2f2" data-name="Layer 1" xmlns="http://www.w3.org/2000/svg" viewBox="0 0 18.3 14.86"><defs><style>.\37 fb5daf5-6f0f-4617-ab33-028ff51b022c{fill:#f0553c}</style></defs><title>social--twitter</title><path id="37d18b68-c37e-440f-ac01-ee735ca4d1a1" data-name="twitter" class="7fb5daf5-6f0f-4617-ab33-028ff51b022c" d="M19.15 4.34a8 8 0 0 1-1.88 1.93v.49a10.75 10.75 0 0 1-.44 3 11 11 0 0 1-1.34 2.89 11.61 11.61 0 0 1-2.14 2.44 9.7 9.7 0 0 1-3 1.7 11 11 0 0 1-3.75.63 10.42 10.42 0 0 1-5.75-1.67 8.47 8.47 0 0 0 .91 0 7.31 7.31 0 0 0 4.65-1.6 3.57 3.57 0 0 1-2.18-.75 3.66 3.66 0 0 1-1.32-1.85 4.51 4.51 0 0 0 .7.06 3.64 3.64 0 0 0 1-.13 3.73 3.73 0 0 1-2.15-1.29 3.63 3.63 0 0 1-.86-2.35 3.59 3.59 0 0 0 1.69.48 3.8 3.8 0 0 1-1.22-1.38 3.77 3.77 0 0 1 .06-3.68A10.68 10.68 0 0 0 5.55 6a10.37 10.37 0 0 0 4.31 1.18 4.34 4.34 0 0 1-.09-.86 3.57 3.57 0 0 1 1.1-2.65 3.61 3.61 0 0 1 2.65-1.1 3.65 3.65 0 0 1 2.74 1.18 7.4 7.4 0 0 0 2.38-.9A3.68 3.68 0 0 1 17 4.92a7.88 7.88 0 0 0 2.15-.58z" transform="translate(-.85 -2.57)"/></svg>