<svg id="7804f758-6ea4-478d-932d-683cc6526387" data-name="Layer 1" xmlns="http://www.w3.org/2000/svg" viewBox="0 0 127.87 54.42"><defs><style>.f609d6e6-a33b-4421-aa96-aa0814f22ff5{fill:#f0553c}</style></defs><title>tab</title><path class="f609d6e6-a33b-4421-aa96-aa0814f22ff5" d="M127.67 6.83a6.07 6.07 0 0 0 .17-1.7c0-.25-.19-.53-.09-.76a2.74 2.74 0 0 0-.07-1.72c-.07-.36-.08-.73-.16-1.1a.32.32 0 0 1 .06-.18c.23-.33.16-.64-.26-.69A5.43 5.43 0 0 0 126 .55a8.83 8.83 0 0 1-1.54 0C123.72.53 123 .49 122.3.5c-1.24 0-2.47 0-3.71-.06a7.78 7.78 0 0 0-1.18.06 4.56 4.56 0 0 1-1.65-.07 1.42 1.42 0 0 0-.76 0 3.86 3.86 0 0 1-1 .09c-.48 0-.92-.14-1.41-.13a3.35 3.35 0 0 1-1.08 0c-.56-.21-1.13.13-1.7-.13-.19-.08-.52-.12-.78-.19s-.32-.12-.39 0c-.23.36-.59.2-.91.2a4.26 4.26 0 0 1-.73 0c-.54-.12-1.08.08-1.59-.06a2.33 2.33 0 0 0-1.36 0 4.17 4.17 0 0 1-1.17.14h-2.68A25 25 0 0 1 97 .14a46.66 46.66 0 0 0-6-.05c-1.17.06-2.34.16-3.52.17-.63 0-1.32-.35-1.92.1a.15.15 0 0 1-.09 0c-.7-.09-1.39.23-2.1 0-.2-.06-.47.09-.71.08a6.48 6.48 0 0 0-1.59.09 14.52 14.52 0 0 1-2 .12h-2.29c-1.69 0-3.38 0-5.07.07a41.19 41.19 0 0 0-5.09.05 6.77 6.77 0 0 1-1.35 0L63.48.73c-1.21 0-2.4.15-3.63 0a6.68 6.68 0 0 0-3.57.32.34.34 0 0 1-.14 0C55.55.93 55 .53 54.34.92h-.14a8.61 8.61 0 0 0-2.82-.09h-.31c-.5 0-1-.36-1.47-.14a1.59 1.59 0 0 1-1.07 0c-1-.17-2 0-3-.2-.34-.07-.68.12-1 0a1 1 0 0 0-1 0 .47.47 0 0 1-.53.05 4.82 4.82 0 0 0-2.06-.11c-.6 0-1.19.08-1.78.13S37.92.3 37.29.58a.81.81 0 0 1-.27 0 9.73 9.73 0 0 0-1.42 0 15.09 15.09 0 0 0-3.22.23.32.32 0 0 1-.21 0 2.47 2.47 0 0 0-1.26-.18A8 8 0 0 1 29 .69a17.94 17.94 0 0 0-3 .13c-.62.06-1.26.1-1.88.17-.26 0-.46-.15-.71-.09a21.74 21.74 0 0 1-2.27.2c-.76.06-1.52-.06-2.29.07a3.3 3.3 0 0 1-1.36 0 1.18 1.18 0 0 0-.85.07 2.75 2.75 0 0 1-1.42.08h-1.91a9 9 0 0 1-2.8.09 7 7 0 0 0-1.6 0H6.45a5.17 5.17 0 0 0-2 0 8.92 8.92 0 0 1-2.63.08 4.3 4.3 0 0 0-1.09.21c-.24.07-.34.31 0 .48.15.08.25.17.22.34a7.77 7.77 0 0 0 0 1.93 9.07 9.07 0 0 1 0 1.56C.85 6.46 1 7 1 7.5s.07 1.18 0 1.75a10.91 10.91 0 0 1-.1 2.06A1.3 1.3 0 0 0 1 12a1.06 1.06 0 0 1 0 .56 8 8 0 0 0-.25 2.33c.08.66-.16 1.35.22 2v.14a2.89 2.89 0 0 0-.21 1.33c0 .8.07 1.61 0 2.41a.62.62 0 0 0 .16.51c.07.07.18.14.15.23-.16.44-.09.9-.21 1.34a1.16 1.16 0 0 0 0 1 .4.4 0 0 1 0 .37 6.73 6.73 0 0 0-.24 2.32A11.88 11.88 0 0 1 .56 28c-.18.95 0 1.89-.12 2.83a16.26 16.26 0 0 0-.07 1.87c0 .93.09 1.87.07 2.81s.13 2 0 2.92c0 .1-.08.22.1.26s.21.19.1.32a.79.79 0 0 0-.15.59C.6 40.72.42 41.85.42 43a8.2 8.2 0 0 1 0 1.48c-.2.9.14 1.78-.06 2.68A16.64 16.64 0 0 1 .16 49a1.42 1.42 0 0 0 0 .65 12.43 12.43 0 0 1 0 1.49c0 .38-.3.7-.15 1.08a1.6 1.6 0 0 1 .2.78c0 .31.15.41.48.42a.51.51 0 0 1 .45.22 1.93 1.93 0 0 0 2.27.72.47.47 0 0 1 .35 0 1.22 1.22 0 0 0 .56.11c3-.64 6-1.09 9.09-1.48a.19.19 0 0 1 .14-.12c.08 0 .15 0 .16.08l3.58-.42c5.09-.58 10.15-1.26 15.25-1.81a343.17 343.17 0 0 1 35.05-2.32c4.09 0 8.17.07 12.24.24a.31.31 0 0 1 .13 0c1.05 0 2.06-.3 3.11-.24.09 0 .19 0 .24.08a1.55 1.55 0 0 1-.21 0 5.06 5.06 0 0 0-1.45.24c6.89.34 13.74.91 20.54 1.63 7.41.78 14.6 1.66 21.67 3 1.32 0 1.79-.47 1.88-1.64 0-.42.13-.84.18-1.25.08-.65.13-1.29.22-1.93s0-1.52 0-2.27c.12-1 .14-2.1.22-3.15.06-.8.1-1.6.16-2.41.08-1 .23-2.06.22-3.1 0-.3.23-.6 0-.91 0 0 0-.12.09-.16a.37.37 0 0 0 .1-.39 2.84 2.84 0 0 1 0-.92 15.73 15.73 0 0 0 .41-2.24 18.15 18.15 0 0 0 .13-2.08 11.67 11.67 0 0 1 .06-2.29c.12-1.07.1-2.14.15-3.22 0-.6-.22-1.2-.17-1.79s0-1.24 0-1.86c0-.89-.15-1.79-.11-2.68v-3.75c0-.9.05-1.8.05-2.7 0-.54-.24-1.12.07-1.68a.79.79 0 0 0-.12-.74.39.39 0 0 1 0-.26c.06-.52.09-1 .12-1.57a14.13 14.13 0 0 1 .15-1.53z"/></svg>