<svg id="0a47042d-5a47-46d6-898d-5d0f88cbf66f" data-name="Layer 1" xmlns="http://www.w3.org/2000/svg" viewBox="0 0 337.65 48.74"><defs><style>.e41db216-8b7d-4277-8f8f-ae4bd7a93764{fill:#f3efe8}</style></defs><title>taste-your-way</title><path class="e41db216-8b7d-4277-8f8f-ae4bd7a93764" d="M265.74 18.54c0 1.06.05 2.12.11 3.18 0 .33 0 .78.38.92s.59-.29.82-.54c1.81-1.86 2.41-4.42 3.75-6.55.63-1 .86-2.21 2.34-2.66 2.43-.74 2.81-.59 3.74 1.71a25 25 0 0 1 1.38 6.46c.34 2.66 1.33 5.15 1.87 7.75.06.29.12.64.49.61s.35-.41.49-.66c1.33-2.34 1.46-5.05 2.31-7.55.95-2.78 2.27-5.41 3-8.29A24.85 24.85 0 0 1 289 6.39c.29-.52.55-1 .87-1.54s.65-1 1.4-.86 1 .79 1.1 1.46a9.17 9.17 0 0 1-.49 4.52 50 50 0 0 0-2.35 8.85c-.25 1.88-1.4 3.46-2.28 5.11-1.62 3-2 6.5-3.5 9.58-.78 1.63-1.15 3.46-2.91 4.53-1.12.68-1.62.37-2-.68-1.61-4.68-3.11-9.4-4.91-14a6.17 6.17 0 0 1-.52-2.77c0-.35.05-.75-.38-.88s-.81.27-.91.65c-1.45 5-4.74 9.05-6.52 13.86a4.4 4.4 0 0 1-2.69 2.86c-1.51.52-2.45.06-2.39-1.61a40.18 40.18 0 0 0-.94-7.82c-.53-3.34-1-6.67-1.29-10-.29-3.18-.51-6.36-.75-9.54a9.45 9.45 0 0 1-.07-1.59c.11-1.05-.38-2.42 1.14-2.84 1.1-.31 3.64 1.14 4.15 2.09a19.22 19.22 0 0 1 1.94 6.2 59.05 59.05 0 0 1 1.04 6.57zM208 10.29c-1.43 4.11-2.93 8.19-4 12.41a1.25 1.25 0 0 0-.26.4 24.08 24.08 0 0 1-1.17 3.51c-1.22 2.37-2.52 4.7-5.66 5-2.25.22-4.39-1.82-4.74-4.19-.62-4.21-.16-8.45-.64-12.67a55.34 55.34 0 0 1 .07-11.29c.14-1.61 1.22-1.66 2.39-1.55s2.16 0 2.05 1.68a125.83 125.83 0 0 0 .22 14.66c.1 2 .28 4 .44 6 0 .35 0 .79.43.89s.61-.31.72-.64c1.53-4.49 4.07-8.62 4.66-13.46A43.77 43.77 0 0 1 204 4.52c.61-2.09 1.72-2.56 3.93-2.18a4.79 4.79 0 0 1 .91.28c1 2.06-.21 5.19-.73 7.19-.02.19-.06.32-.11.48zm-14.82-.75c-.07-.34-.16-.72-.25-1.1-.06.52-.13 1.05-.15 1.58a.85.85 0 0 0 .2.43c.5-.18.17-.56.21-.91zm-186.24.91c.7 0 1.4-.06 2.1-.07.5 0 1.11.11 1.1.69-.05 1.7.74 3.24.71 5a47.72 47.72 0 0 0 .15 8.44 45.38 45.38 0 0 1 .42 8.16 47.66 47.66 0 0 0 .67 6.71c.05.38.34 1.34.72.89.95-1.13 1.15-.28 1.54.34s.66.4 1.11.2c1.24-.55 2.81-3 2.66-4.4-.12-1.22-.54-2.41-.59-3.63-.32-7.17-.95-14.32-1.08-21.5 0-1.28.26-2 1.66-2.21A13.08 13.08 0 0 0 26 5.12c1.19-1.23 1.11-1.72-.55-2.28A15.94 15.94 0 0 0 18 2.36c-5.34.72-10.74 1-16.13 1.38A2 2 0 0 0 .12 5a1.42 1.42 0 0 0 .54 1.69 12.14 12.14 0 0 0 1.5 1.2 2.47 2.47 0 0 1 1.37 1.68c.16.89.69 1.12 1.49 1.07.64 0 1.29-.05 1.93-.07zM15 36c0 .36-.06.85-.55.78s-.5-.72-.57-1.15-.1-.66.39-.72c.55.09.67.57.73 1.09zm34-16.18c-1.07-3.65-2.64-7.15-3.31-10.92a16.42 16.42 0 0 0-1.58-4.3C43 2.41 42 2.22 39.77 3.44a.83.83 0 0 1-1 0c-1.35-1-1.82.12-2.15 1.05-1.06 3-2.46 5.92-3.14 9.1s-1.24 6.54-2.19 9.76a65.57 65.57 0 0 0-1.51 8.28 16.1 16.1 0 0 0 0 6.3 2.19 2.19 0 0 0 1.52 1.81c1 .23 1.24-.77 1.59-1.39a24.38 24.38 0 0 0 2.17-6.12c.35-1.4.44-3 1.76-3.95a22.41 22.41 0 0 1 5.67-2.87c2.61-.88 3-.67 2.9 2a16.23 16.23 0 0 0 2.06 8 1.41 1.41 0 0 0 2.44.37 2.71 2.71 0 0 0 .44-2.18c-.38-3.23-.71-6.47-1-9.35a23.31 23.31 0 0 0-.33-4.43zM43.17 19c-1.26.45-2.66.37-3.87 1.14-.58.36-.6-.32-.47-.72q1.32-4 2.68-8a.49.49 0 0 1 .37-.29c.42 0 .57.44.64.76.25 1.15.41 2.31.64 3.46.17.86.4 1.71.61 2.62a.86.86 0 0 1-.6 1.03zM36 10.72c.54-1.35.72-2.86 1.66-4.06.19-.22.37-.45.55-.68.21.29 0 .54-.08.8q-2 6.68-4 13.35a3.15 3.15 0 0 1-.31.57c-.32-.2-.13-.51-.18-.8A36.69 36.69 0 0 1 36 10.72zm-3.42 12.82c0-.39.5-.76.76-1.14.37.39.16.82.1 1.25-.38 2.55-.73 5.1-1.13 7.65-.07.44-.21 1.1-.68 1.14s-.31-.61-.47-1.08a49.53 49.53 0 0 0 1.42-7.82zm7.3-12.31s-.24-.05-.24-.06c.14-.87.26-1.75.44-2.62.06-.34.25-.8.64-.73s.13.52.09 1.16a3.83 3.83 0 0 1-.93 2.25zm268.82-6A1.51 1.51 0 0 0 306.83 4c-1.37.45-3 1-3.82 2a39.37 39.37 0 0 0-5.22 8.21 113 113 0 0 0-6.54 17.57c-.26 1-.47 2.16.51 2.74a2.59 2.59 0 0 0 3-.43 3.61 3.61 0 0 0 1-1.43c.62-1.4 1.35-2.75 2-4.13a2.45 2.45 0 0 1 2.05-1.46c2.52-.32 5-.62 7.54-1 1-.14 1.39.14 1.54 1.14.49 3.26 1.11 6.5 1.58 9.76.1.72.2 1.3.93 1.5s1.19-.41 1.47-1a10 10 0 0 0 1.13-6.3c-.36-1.73-.53-3.51-.74-4.9-.21-7.55-2.94-14.18-4.56-21.04zM305 21.36c-2.76.21-3-.17-2-2.77.61-1.47 1.16-3 1.71-4.45.1-.28.11-.64.44-.69.5-.09.53.43.61.7.64 2.07 1.22 4.15 1.81 6.23.24.81 0 1.13-.87.93a5.6 5.6 0 0 0-1.05-.09c-.34.07-.51.12-.65.14zM181.44 2.21c-.94-1.45-5.73-2.32-7.22-1.52a2.32 2.32 0 0 0-.81.68 22.43 22.43 0 0 0-4.55 10.27 81.5 81.5 0 0 0-.68 8.4c-.17 4 .09 7.74 3 10.92a5.81 5.81 0 0 0 8.11.85c3.16-2.51 4.51-6.12 5.77-9.7.91-2.57.48-5.38.73-7.85-.16-4.65-2.01-8.46-4.35-12.05zm-4.26 23.66c-.19.38-.5.72-1 .63a1.91 1.91 0 0 1-1.5-1.36c-.28-1.76-1.07-3.36-1.47-5.1-.8-3.54-.09-6.92.5-10.31a4.72 4.72 0 0 1 2.77-3.28c1.37-.65 2.81.14 3.4 1.89a16.75 16.75 0 0 1 .79 5.56c.7 4.18-1.49 8.04-3.49 11.97zm-5.09 3.23c0-.2.15-.3.31-.19a.89.89 0 0 1 .21.41 2.54 2.54 0 0 1-.31.17 1.07 1.07 0 0 1-.21-.39zM212 31.67c1.55.43 2.47-.76 3.09-2.07a9.44 9.44 0 0 0 .42-1.16 27.29 27.29 0 0 0 1.15-4.44c.17-1.19 1.25-1.32 2.13-1.57.56-.17.9.21 1.12.83a107.44 107.44 0 0 1 3.71 11.35c.15.67.43 1.49 1.32 1.41a1.77 1.77 0 0 0 1.67-1.77 4.69 4.69 0 0 0-.34-1.54c-1-3.39-2.09-6.77-3.08-10.17-.27-.91-.82-2 .44-2.67a7.47 7.47 0 0 0 4-5.11C228.26 12 229 9 227 6.63a14 14 0 0 0-7.64-4.52c-2.45-.54-5 .32-4.88 3.68a8.79 8.79 0 0 1-.48 2.78 32.07 32.07 0 0 0-1.4 6.43 42.18 42.18 0 0 1-.91 7c-.5 2.26-.54 4.56-.94 6.76.33 1.05-.06 2.56 1.25 2.91zm6.92-13c-.86.35-1.22.3-1-.74.74-3.14.8-6.41 1.77-9.52.18-.56.2-1.28.77-1.51s.92.53 1.34.9a3.85 3.85 0 0 1 1.25 3.2c.05 2.75-2.24 6.81-4.17 7.62zM63.59 2.28C61.69 2.94 59.87 4 59.16 6c-1.49 4.32-.65 8.5 1 12.58a25.08 25.08 0 0 0 4.3 6.21 6.78 6.78 0 0 1 2 4.41c0 1.43-1.29 3.68-2.67 4.09A2.3 2.3 0 0 1 61.15 32a1 1 0 0 0-.41-.33c-1-.43-1.91-.88-2.89-.1s-.37 1.74.1 2.49a7 7 0 0 0 1.82 2.15c3.26 2.27 6.2 2.64 8.42-.32A20.75 20.75 0 0 0 70.53 32a8.22 8.22 0 0 0 .52-6.37 38.64 38.64 0 0 0-3.66-6.82 9.3 9.3 0 0 1-1-8.91 2.15 2.15 0 0 1 1.21-1.43 1.32 1.32 0 0 1 1.43.83c.64 1.2 1.72 1.16 2.78 1 2.28-.4 4.11-3 3.1-4.42a9.68 9.68 0 0 0-7-4.27 24.44 24.44 0 0 0-4.32.67zm2.16 2.56a2.11 2.11 0 0 1 .55-.3.73.73 0 0 1 .42.14c-.07.34-.38.38-.72.48zM335.49 3a16.27 16.27 0 0 0-3.67 3.74c-1.68 2.66-3 5.54-4.49 8.34-.13.26-.15.63-.5.65s-.5-.27-.54-.58c-.26-2.38-1.87-4.18-2.76-6.29-.73-1.72-2.24-3.12-3.41-4.66-.53-.71-1.19-.61-1.91-.35s-1.16.68-1.08 1.25c.32 2.19.1 4.43 1.17 6.56 1.58 3.17 3.36 6.22 5.1 9.3a2.88 2.88 0 0 1 .23 2.83 38.18 38.18 0 0 0-2.75 8.54c-.23 1.26-.38 2.4 1 3.06s2-.24 2.67-1.1a19.42 19.42 0 0 0 3-5.37 223.45 223.45 0 0 1 9.79-22.51 1.48 1.48 0 0 0 .33-1.16c-.15-1.92-1.18-3.03-2.18-2.25zM149.63 33.77a2.23 2.23 0 0 0 2.18-.33 5.4 5.4 0 0 0 .92-.81c1.73-1.65 2.5-3.87 3.31-6 1.45-3.84 2.46-7.86 4.09-11.62 1.36-3.14 2.58-6.32 3.75-9.53a10.76 10.76 0 0 0 .73-3.62c0-.62.06-1.38-.72-1.65A1.61 1.61 0 0 0 162 .9a20.61 20.61 0 0 0-1.51 2.18c-1.59 2.61-1.53 5.8-3.1 8.44a6.79 6.79 0 0 0-1.32 3c0 .42-.09 1.13-.65 1.13s-.66-.75-.73-1.22a20.78 20.78 0 0 0-2.27-5.74c-1-2.16-2.05-4.34-2.92-6.57A3.47 3.47 0 0 0 146 0c-1.11.14-1.58 1.21-1.78 2.17-.31 1.48-.4 3 1 4.16a6.12 6.12 0 0 1 1.3 2.08 113.8 113.8 0 0 0 5.48 11 4.67 4.67 0 0 1 .19 4.89c-1.08 2.52-2.72 4.88-2.55 8 .03.39-.64 1.12-.01 1.47zm-46.44 0a6.52 6.52 0 0 1 .88-.07c3.45 0 5.85-2.28 8.42-4.12a2.45 2.45 0 0 0 1-3c-.16-.42-.34-.79-.88-.65-2.29.58-4.74.52-6.84 1.82-1 .59-1.3.14-1.19-.84.15-1.41.4-2.81.46-4.22a1.6 1.6 0 0 1 1.19-1.69 14.92 14.92 0 0 0 5.74-4.3 3.75 3.75 0 0 0 .92-3c-.1-1.15-1.07-1.72-1.74-1-1.17 1.21-2.79 1.19-4.19 1.77-1 .42-1.36-.2-1.48-1.13a6 6 0 0 1 4.93-6.83 4.86 4.86 0 0 0 3.76-3.36c.14-.44.21-.8-.16-1.13s-.73 0-1.09 0c-2.42.16-4.8 1.36-7.27.42-1.66-.63-2.44.11-2.7 1.67-.7 4.1-1.37 8.2-2.06 12.3-.83 5-.37 10-.86 14.41.33 3.37.33 3.36 3.16 2.91zm-14.63-23.6c-.28-2.92.85-4.06 3.83-3.87.24 0 .48.07.71.07 1.79.06 2.72-1 2.75-3.12 0-1.86-.8-2.73-2.64-2.67-2.29.09-4.58.29-6.86.44-1.83.13-3.79-.07-5.57.82s-1.49 2.25-1.34 3.65a1.44 1.44 0 0 0 2 1.24c2-.5 2 .69 1.72 2a52.21 52.21 0 0 0-.68 13.9c.24 3-.51 6-.42 9.1.07 2.14 1.74 3.43 3.64 2.44 2.13-1.17 2.3-3.33 2.37-5.36.13-3.06.12-6.14.28-9.18.15-2.74.5-5.47.38-8.13-.07-.5-.13-.91-.17-1.33zM86.14 29c-.43.06-.15-.28-.23-.42a1.15 1.15 0 0 1-.11-.31l.39-.78c.06.07.18.13.18.2 0 .38-.32.44-.58.57zm.6-5.29c0 .31 0 .84-.47.79-.32 0-.23-.48-.24-.76a54.29 54.29 0 0 1 .82-9.7c0-.23 0-.56.3-.56s.24.33.25.54c0 .77.06 1.54.09 2.49-.23 2.23-.49 4.7-.75 7.15zm-1.49-13.63c0-.16.11-.47.13-.47.37.06.11.33.15.51.5 2-.51 3.84-.37 5.79 0 .26-.19.72-.46.64-.66-.21 0-.85-.3-1.11a22.16 22.16 0 0 1 .85-5.36zm153.89 34.85a461.38 461.38 0 0 0-63.95-1.54c-9.26-.45-18.51-1-27.75-1.6-1.25-.09-1.44 1.51-.61 2.11L131 43.36c-1.52 0-1.51 2.3 0 2.35l11.15.38c-.87.1-1.74.18-2.61.29-1.45.18-1.55 2.34 0 2.34h80.52a1.13 1.13 0 0 0 1.05-1.6c6 .07 12 .14 18 .14a1.18 1.18 0 0 0 .03-2.33z"/></svg>